<?xml version="1.0" standalone="no"?>
<!DOCTYPE svg PUBLIC "-//W3C//DTD SVG 20010904//EN"
 "http://www.w3.org/TR/2001/REC-SVG-20010904/DTD/svg10.dtd">
<svg version="1.0" xmlns="http://www.w3.org/2000/svg"
 width="800.000000pt" height="800.000000pt" viewBox="0 0 800.000000 800.000000"
 preserveAspectRatio="xMidYMid meet">

<g transform="translate(0.000000,800.000000) scale(0.100000,-0.100000)"
fill="#000000" stroke="none">
<path d="M2972 7948 c-1 -29 -2 -66 -3 -83 -1 -16 6 -70 15 -118 13 -68 15
-100 7 -142 -8 -44 -7 -65 11 -126 13 -47 18 -89 15 -118 -3 -24 0 -54 5 -66
8 -19 3 -33 -31 -83 -23 -33 -51 -67 -64 -75 -12 -8 -50 -40 -85 -71 -34 -31
-67 -56 -72 -56 -23 0 -139 -80 -194 -134 -33 -33 -92 -80 -131 -105 -38 -24
-102 -72 -142 -105 -39 -34 -93 -79 -119 -101 -26 -21 -73 -75 -105 -120 -32
-44 -79 -107 -104 -141 -42 -57 -85 -155 -85 -195 0 -10 -11 -31 -25 -47 -34
-41 -65 -117 -72 -177 -3 -27 -16 -71 -29 -97 -13 -26 -24 -53 -24 -60 0 -8
-16 -46 -35 -86 -19 -40 -41 -107 -49 -150 -8 -42 -19 -97 -25 -122 -58 -260
-61 -283 -61 -412 0 -78 -6 -152 -15 -193 -13 -53 -13 -77 -4 -130 8 -48 8
-82 0 -128 -7 -39 -7 -74 -2 -94 5 -17 7 -55 4 -85 -7 -79 -6 -90 15 -117 23
-32 55 -38 88 -17 22 15 24 15 24 -1 0 -21 26 -177 42 -247 6 -27 28 -76 48
-107 25 -39 40 -75 44 -111 4 -29 18 -78 31 -108 13 -30 33 -89 46 -130 35
-116 61 -168 143 -289 97 -142 151 -250 183 -365 24 -83 27 -117 36 -394 11
-340 3 -416 -53 -536 -33 -69 -57 -174 -66 -289 -6 -84 -27 -132 -134 -312
-26 -44 -53 -97 -60 -117 -6 -21 -19 -44 -29 -50 -10 -7 -37 -35 -61 -63 -23
-27 -63 -63 -88 -79 -25 -15 -67 -50 -93 -77 -41 -42 -53 -49 -88 -49 -43 0
-332 -94 -396 -129 -22 -12 -65 -37 -95 -56 l-55 -35 -131 0 c-138 0 -170 -9
-162 -46 3 -18 14 -19 148 -22 82 -2 161 1 181 7 20 6 66 31 103 55 64 42 100
58 246 105 133 44 167 51 260 51 131 1 175 10 175 35 0 29 -42 45 -92 36 -24
-5 -43 -6 -43 -2 0 3 20 18 44 33 23 16 82 64 129 109 70 65 94 95 121 152 19
40 58 115 88 167 90 159 97 178 107 285 14 135 25 182 65 274 25 57 37 103 45
172 13 117 13 592 0 679 -14 95 -53 219 -88 286 -17 33 -31 64 -31 70 0 7 -20
36 -43 65 -24 30 -55 73 -68 95 -13 23 -36 59 -51 80 -30 43 -70 144 -97 244
-10 36 -23 75 -29 87 -7 12 -17 45 -23 75 -6 29 -27 82 -46 118 -27 50 -42 99
-64 208 -16 79 -29 156 -28 170 0 30 66 89 141 128 22 12 58 39 78 62 21 22
69 57 107 76 39 19 83 46 99 59 16 13 51 34 77 45 26 12 66 37 88 55 22 19 61
42 87 52 61 23 167 81 214 117 20 16 69 40 108 53 39 13 97 40 128 58 31 19
82 42 112 50 35 10 83 37 128 71 79 59 74 57 247 110 115 36 149 50 205 80 14
8 47 19 75 26 27 6 77 22 111 36 33 13 87 27 118 30 68 6 253 53 326 82 14 5
59 13 100 17 41 4 85 11 98 16 14 5 44 3 82 -7 83 -21 262 -26 320 -8 73 22
177 14 302 -24 54 -17 187 -23 276 -12 66 7 99 6 155 -6 39 -8 84 -12 98 -9
16 4 40 0 56 -8 15 -8 50 -17 78 -21 27 -3 79 -20 115 -37 36 -17 87 -38 113
-46 27 -8 82 -32 123 -54 41 -21 86 -39 100 -39 16 0 37 -12 53 -29 28 -30 43
-88 56 -221 4 -34 17 -74 35 -105 86 -148 121 -262 127 -414 3 -79 9 -113 25
-144 25 -51 27 -137 3 -222 -10 -37 -18 -117 -22 -207 l-5 -147 31 -45 c17
-24 31 -50 31 -56 0 -6 7 -25 16 -43 29 -55 44 -138 50 -272 8 -163 -6 -285
-39 -329 -27 -35 -51 -95 -61 -146 -3 -19 -27 -69 -52 -110 -24 -41 -47 -86
-51 -100 -3 -14 -24 -54 -47 -90 -23 -36 -55 -94 -71 -130 -16 -36 -49 -90
-74 -120 -69 -86 -89 -140 -113 -305 l-22 -147 -106 -106 c-58 -59 -129 -144
-159 -189 -43 -64 -64 -86 -100 -104 -64 -33 -211 -118 -239 -140 -13 -10 -37
-21 -55 -24 -18 -4 -58 -18 -90 -32 -53 -21 -64 -23 -115 -13 -31 6 -157 10
-280 10 l-222 -1 -78 30 c-42 16 -113 44 -157 61 -76 29 -115 49 -248 128 -32
19 -100 80 -159 141 -57 59 -121 120 -143 136 -22 16 -72 59 -110 97 -39 37
-86 76 -104 86 -63 34 -167 126 -359 321 -128 129 -205 216 -229 256 -19 33
-52 83 -72 110 -57 76 -62 90 -72 197 -8 91 -11 103 -43 147 -19 26 -40 70
-47 97 -14 61 -14 246 0 273 17 31 14 127 -5 145 -22 23 -43 20 -48 -6 -33
-177 -38 -227 -32 -319 8 -115 27 -188 57 -215 35 -31 42 -55 50 -154 8 -101
25 -149 74 -205 15 -16 45 -61 68 -100 31 -53 91 -121 251 -281 223 -222 304
-295 369 -332 48 -27 166 -134 336 -303 111 -111 141 -134 256 -201 72 -41
155 -84 185 -96 30 -11 93 -35 140 -53 85 -33 86 -33 285 -37 l201 -3 11 -61
c15 -79 60 -178 94 -206 20 -16 53 -25 130 -36 57 -8 124 -22 148 -30 35 -13
95 -16 314 -16 310 0 416 -10 539 -51 48 -16 98 -29 111 -29 13 0 50 -9 82
-20 76 -26 151 -27 164 -1 18 32 -8 52 -81 61 -37 4 -72 11 -78 15 -6 4 -54
18 -106 31 -53 13 -109 31 -126 40 -16 8 -35 13 -41 11 -7 -2 -53 2 -102 9
-61 9 -176 13 -355 12 -239 -1 -273 1 -347 20 -46 12 -107 24 -135 28 -29 4
-59 11 -66 17 -23 19 -62 105 -69 153 l-6 47 31 -7 c18 -3 46 -9 63 -12 23 -5
36 -1 53 15 13 12 50 29 81 37 58 15 119 46 232 116 34 21 82 45 105 55 71 28
87 43 152 142 41 63 77 106 105 125 24 17 57 50 74 75 17 26 45 62 63 82 24
28 33 50 39 90 3 30 13 86 21 126 8 40 14 82 14 95 1 37 34 98 86 160 27 31
59 82 72 113 12 31 45 90 72 130 28 41 50 80 50 88 0 28 43 112 73 144 23 24
32 46 38 88 4 30 16 72 27 92 65 120 72 156 72 357 -1 209 -22 314 -84 421
l-47 80 7 120 c3 66 15 156 26 200 22 89 20 160 -8 235 -9 25 -18 87 -20 140
-2 52 -13 124 -23 160 -11 36 -23 82 -26 102 -4 21 -29 76 -56 124 -52 89 -58
116 -89 359 -5 39 -13 83 -19 98 -6 16 -11 38 -11 50 0 31 -49 155 -80 202
-37 56 -48 88 -65 185 -15 86 -49 169 -89 218 -13 15 -44 69 -71 120 -31 61
-64 109 -97 140 -27 26 -58 65 -70 87 -34 66 -119 175 -148 190 -15 8 -49 35
-76 60 -27 25 -77 59 -111 77 -37 18 -85 55 -120 91 -38 39 -81 71 -126 93
-37 18 -94 50 -125 72 -64 43 -194 100 -317 137 -44 14 -116 43 -160 65 -44
22 -120 53 -170 69 -49 16 -124 45 -165 64 -47 23 -101 40 -145 45 -71 10
-248 57 -275 73 -8 5 -43 23 -78 39 -82 39 -183 128 -217 193 -15 29 -33 62
-40 75 -7 12 -37 46 -68 75 -43 40 -60 66 -77 115 -13 34 -36 79 -52 100 -17
20 -36 49 -44 65 -13 24 -20 27 -64 27 l-49 0 30 -52 c17 -29 37 -60 44 -68
14 -17 52 -91 85 -166 15 -35 38 -64 71 -90 33 -26 59 -57 76 -94 15 -30 35
-65 46 -77 l20 -23 -21 0 c-11 0 -24 -5 -27 -10 -4 -7 -30 -9 -68 -5 l-62 5
45 -15 c25 -8 63 -15 85 -15 71 0 110 -17 130 -54 14 -26 27 -36 54 -41 59
-11 198 -86 250 -136 27 -26 52 -45 55 -41 13 12 5 31 -26 62 -24 24 -27 31
-13 25 58 -22 140 -45 163 -45 34 0 84 -16 158 -51 56 -27 176 -69 195 -69 5
0 51 -20 102 -44 51 -24 127 -55 168 -69 42 -14 108 -39 148 -56 40 -17 79
-31 87 -31 7 0 41 -21 76 -48 35 -26 92 -61 128 -79 60 -29 92 -55 153 -124
13 -14 50 -38 82 -53 33 -15 74 -40 90 -56 17 -16 59 -50 94 -77 51 -38 73
-63 105 -122 23 -41 68 -104 102 -140 69 -76 98 -116 109 -151 4 -14 32 -63
62 -109 48 -74 57 -94 74 -184 11 -55 23 -105 28 -111 5 -6 12 -22 16 -36 4
-14 20 -45 35 -70 30 -47 80 -186 80 -220 0 -20 0 -20 -20 0 -11 11 -24 20
-30 20 -5 0 -43 15 -82 33 -40 19 -89 37 -108 41 -19 4 -51 16 -70 26 -86 47
-117 60 -149 60 -18 0 -54 7 -80 15 -93 29 -273 43 -405 31 -32 -3 -141 13
-340 49 -72 13 -98 13 -140 4 -91 -21 -243 -22 -324 -4 -51 12 -90 16 -130 11
-31 -4 -77 -9 -102 -11 -25 -2 -85 -17 -135 -34 -102 -36 -206 -63 -315 -82
-41 -7 -98 -23 -127 -36 -29 -12 -79 -27 -113 -32 -37 -6 -72 -19 -93 -35 -19
-14 -41 -26 -49 -26 -9 0 -47 -13 -84 -29 -38 -16 -94 -34 -124 -41 -30 -7
-63 -16 -72 -21 -10 -5 -24 -9 -32 -9 -8 0 -37 -21 -64 -47 -45 -43 -105 -73
-146 -73 -8 0 -48 -22 -89 -50 -42 -28 -98 -56 -130 -64 -32 -8 -86 -35 -129
-65 -41 -28 -112 -68 -159 -89 -46 -21 -98 -51 -115 -65 -17 -15 -61 -42 -97
-62 -37 -19 -84 -47 -105 -63 -22 -15 -59 -36 -83 -47 -42 -19 -62 -33 -116
-83 -14 -13 -31 -21 -38 -18 -8 3 -42 -21 -77 -52 -69 -62 -154 -132 -161
-132 -2 0 -4 12 -5 28 -8 336 -7 412 5 462 7 30 12 111 13 179 0 122 33 336
62 401 6 14 14 57 18 95 5 48 19 94 43 145 52 110 109 270 103 286 -7 19 20
91 48 129 23 29 56 112 56 138 0 15 89 152 119 184 12 12 21 26 21 30 1 19 90
121 140 161 30 25 78 65 105 89 28 25 81 66 119 91 38 25 101 75 141 111 40
36 109 88 154 115 45 27 107 72 138 99 31 27 67 53 80 58 13 5 26 17 29 26 3
10 21 50 41 88 l35 70 -12 135 c-6 74 -14 160 -17 190 l-5 55 37 -35 c20 -19
57 -63 81 -97 42 -59 64 -77 64 -53 0 25 -53 111 -98 161 -59 65 -65 76 -86
158 -12 47 -15 84 -10 142 l7 79 -45 0 -44 0 -2 -52z"/>
<path d="M3100 7990 c0 -26 47 -130 77 -169 18 -24 33 -52 33 -62 0 -11 5 -19
10 -19 19 0 10 45 -21 105 -17 33 -37 81 -45 108 -11 35 -20 47 -34 47 -11 0
-20 -4 -20 -10z"/>
<path d="M3306 7707 c15 -48 22 -63 42 -80 11 -11 19 -24 16 -31 -3 -7 6 -13
22 -14 15 -1 48 -16 74 -32 50 -32 60 -35 60 -21 0 5 -17 20 -37 32 -88 54
-142 102 -148 129 -3 16 -13 31 -21 34 -12 5 -14 1 -8 -17z"/>
<path d="M3100 7452 c0 -37 172 -222 207 -222 13 0 23 5 23 10 0 6 5 10 11 10
5 0 7 -5 4 -11 -4 -5 1 -19 10 -29 17 -19 15 -21 -60 -55 -43 -19 -87 -35 -99
-35 -80 0 -292 -132 -446 -279 -36 -34 -79 -71 -96 -83 -27 -19 -46 -42 -96
-117 -18 -26 -26 -121 -10 -121 4 0 15 27 25 59 17 53 28 68 100 133 112 102
184 154 162 119 -3 -5 -1 -12 5 -16 6 -4 10 5 10 20 0 37 27 79 64 100 17 10
42 28 56 41 14 12 57 39 95 59 39 19 61 28 50 18 -39 -35 -112 -129 -124 -160
-7 -18 -11 -39 -7 -48 3 -8 1 -15 -4 -15 -5 0 -7 -7 -3 -16 5 -12 13 -2 32 38
34 70 104 145 161 171 43 19 44 20 20 27 -14 5 -18 9 -10 10 10 1 9 4 -5 9
-17 7 -15 9 15 16 35 7 148 63 184 90 18 13 18 15 -4 50 -17 27 -28 35 -42 32
-15 -4 -45 20 -124 101 -57 59 -104 101 -104 94z"/>
<path d="M3359 7448 c12 -16 11 -18 -3 -18 -28 0 -18 -17 37 -63 60 -51 117
-82 170 -92 30 -6 37 -4 37 8 0 9 -5 19 -11 23 -6 3 -9 15 -6 25 3 10 1 22 -4
25 -5 3 -9 -4 -9 -15 0 -12 -6 -21 -12 -21 -30 1 -97 41 -153 91 -33 30 -54
46 -46 37z"/>
<path d="M3182 7241 c-17 -10 7 -21 46 -21 26 1 26 1 8 15 -22 17 -35 18 -54
6z"/>
<path d="M3850 7211 c0 -4 9 -16 20 -26 11 -10 32 -38 47 -61 15 -24 44 -52
65 -64 47 -26 137 -50 186 -49 31 0 24 4 -44 24 -77 23 -154 59 -154 73 0 4
-19 28 -43 53 -40 44 -77 68 -77 50z"/>
<path d="M3130 7160 c-13 -8 -13 -10 2 -10 9 0 20 5 23 10 8 13 -5 13 -25 0z"/>
<path d="M3325 7103 c-27 -19 -62 -39 -77 -45 -30 -11 -38 -28 -12 -28 17 0
108 43 137 65 13 9 16 18 10 28 -6 12 -17 8 -58 -20z"/>
<path d="M3645 7094 c50 -19 237 -34 232 -19 -4 12 -141 34 -217 34 l-55 0 40
-15z"/>
<path d="M3533 7048 c-54 -47 -91 -64 -152 -72 -30 -4 -70 -15 -90 -26 -44
-22 -133 -118 -124 -133 6 -10 10 -7 63 61 39 50 64 62 150 72 96 11 124 24
173 84 44 53 34 60 -20 14z"/>
<path d="M4430 6983 c1 -29 54 -65 138 -92 75 -24 110 -48 143 -95 13 -20 44
-46 69 -58 25 -13 56 -32 69 -43 l24 -20 -15 28 c-7 15 -57 67 -110 116 -82
76 -104 91 -155 105 -32 9 -78 26 -103 38 -25 13 -48 24 -52 26 -5 2 -8 0 -8
-5z"/>
<path d="M3806 6957 c3 -9 25 -17 56 -21 27 -4 80 -18 116 -32 36 -13 67 -22
70 -19 20 20 -90 65 -196 80 -44 6 -51 5 -46 -8z"/>
<path d="M4290 6935 c0 -10 40 -45 51 -45 6 0 9 -7 5 -15 -3 -9 0 -15 8 -15 8
0 33 -16 56 -35 24 -20 44 -34 46 -32 7 6 -24 61 -48 87 -13 14 -22 27 -21 30
3 10 -36 9 -43 -1 -3 -6 -12 -2 -21 10 -13 19 -33 29 -33 16z"/>
<path d="M3790 6895 c23 -28 124 -68 177 -70 29 -2 53 1 53 6 0 5 -8 9 -17 9
-10 0 -63 16 -117 35 -114 40 -112 40 -96 20z"/>
<path d="M4150 6883 c0 -13 54 -63 67 -63 19 0 16 14 -9 37 -25 22 -58 37 -58
26z"/>
<path d="M3521 6845 c-40 -19 -51 -29 -43 -37 8 -8 26 -5 70 10 32 12 78 22
101 22 65 0 47 24 -20 28 -41 2 -67 -4 -108 -23z"/>
<path d="M4092 6861 c-23 -6 -23 -6 7 -18 28 -10 31 -9 31 8 0 20 -2 21 -38
10z"/>
<path d="M3345 6781 c-85 -70 -103 -99 -111 -181 -8 -81 4 -89 25 -18 25 84
54 137 97 178 38 36 54 60 40 60 -2 0 -25 -17 -51 -39z"/>
<path d="M4475 6791 c-3 -5 -2 -12 3 -15 5 -3 9 1 9 9 0 17 -3 19 -12 6z"/>
<path d="M3070 6772 c-35 -25 -62 -53 -112 -119 -60 -78 -71 -100 -63 -131 l6
-26 21 34 c68 114 106 170 140 213 22 26 38 47 36 46 -2 0 -14 -8 -28 -17z"/>
<path d="M2848 6743 c-7 -15 -42 -51 -78 -80 -52 -41 -66 -49 -71 -36 -10 28
-43 -79 -43 -142 -1 -83 17 -85 30 -3 12 75 12 75 109 174 39 40 71 82 72 93
2 28 -3 26 -19 -6z"/>
<path d="M4034 6715 c10 -8 39 -17 65 -21 52 -8 96 -27 108 -49 9 -15 132 -65
162 -65 18 0 85 -60 102 -92 13 -23 8 -23 -51 7 -27 14 -54 25 -60 25 -25 0 7
-25 74 -57 39 -19 90 -45 114 -59 45 -25 171 -59 181 -48 8 8 -29 34 -59 40
-75 15 -102 30 -143 76 -108 124 -122 137 -166 144 -24 4 -64 21 -89 39 -64
43 -153 75 -210 75 -43 -1 -45 -2 -28 -15z"/>
<path d="M4990 6675 c13 -13 55 -37 94 -51 53 -21 84 -41 125 -81 40 -40 67
-57 110 -70 31 -9 60 -17 65 -17 15 -1 82 -105 125 -191 43 -87 86 -133 172
-188 31 -19 60 -40 63 -46 4 -6 12 -11 17 -11 22 0 -30 65 -94 118 -51 41 -76
71 -99 116 -42 84 -124 203 -151 220 -12 8 -41 20 -65 27 -25 7 -69 35 -108
69 -63 55 -105 75 -248 120 l-29 9 23 -24z"/>
<path d="M3539 6673 c5 -10 27 -36 48 -58 53 -55 80 -102 88 -155 10 -66 37
-120 86 -176 24 -27 55 -73 68 -102 33 -71 53 -70 36 2 -13 54 -41 101 -97
162 -20 21 -34 54 -47 107 -10 42 -30 94 -45 116 -47 67 -167 158 -137 104z"/>
<path d="M4038 6683 c7 -3 16 -2 19 1 4 3 -2 6 -13 5 -11 0 -14 -3 -6 -6z"/>
<path d="M2377 6575 c-64 -77 -82 -107 -120 -205 -64 -165 -34 -157 47 13 36
72 81 153 101 179 20 26 35 55 33 65 -2 13 -18 1 -61 -52z"/>
<path d="M3121 6571 c-12 -16 -21 -33 -21 -39 0 -5 -7 -15 -16 -23 -8 -7 -24
-29 -34 -48 -10 -20 -30 -48 -43 -62 -48 -50 -76 -129 -81 -227 -1 -38 -6 -74
-10 -80 -3 -6 -11 -34 -16 -62 -8 -40 -6 -59 5 -86 16 -39 25 -44 24 -11 0 12
5 45 10 72 6 28 17 99 26 159 17 114 34 158 89 230 18 24 38 64 45 90 6 25 20
62 31 81 24 42 19 46 -9 6z"/>
<path d="M4585 6590 c-39 -6 -40 -6 -14 -17 14 -6 42 -14 63 -17 20 -3 49 -12
64 -20 16 -8 56 -19 91 -26 57 -10 88 -23 149 -61 16 -10 24 -11 33 -2 22 22
-121 103 -180 103 -17 0 -60 11 -97 25 -36 14 -67 24 -68 24 0 -1 -19 -5 -41
-9z"/>
<path d="M3231 6504 c0 -11 3 -14 6 -6 3 7 2 16 -1 19 -3 4 -6 -2 -5 -13z"/>
<path d="M2420 6485 c-5 -14 -12 -55 -14 -92 -3 -38 -3 -59 0 -48 4 11 11 26
16 32 13 16 27 133 16 133 -5 0 -13 -11 -18 -25z"/>
<path d="M3007 6483 c-4 -3 -7 -11 -7 -17 0 -6 5 -5 12 2 6 6 9 14 7 17 -3 3
-9 2 -12 -2z"/>
<path d="M4875 6430 c4 -6 11 -8 16 -5 14 9 11 15 -7 15 -8 0 -12 -5 -9 -10z"/>
<path d="M5085 6400 c3 -5 11 -10 16 -10 6 0 7 5 4 10 -3 6 -11 10 -16 10 -6
0 -7 -4 -4 -10z"/>
<path d="M2644 6332 c-85 -79 -182 -197 -190 -230 -12 -49 -51 -127 -73 -146
-11 -11 -21 -24 -21 -30 0 -6 5 -5 12 2 16 16 45 15 51 0 3 -7 6 0 6 15 1 16
10 41 20 56 10 14 24 45 30 68 16 61 71 136 161 223 71 68 95 101 73 100 -5
-1 -36 -27 -69 -58z"/>
<path d="M2486 6354 c-9 -8 -16 -19 -16 -23 0 -3 -32 -40 -71 -81 -82 -85
-113 -130 -135 -197 -9 -27 -23 -53 -31 -60 -13 -10 -10 -12 13 -11 26 1 33
10 68 85 23 49 61 107 91 141 28 31 62 76 75 100 13 23 27 42 32 42 4 0 8 5 8
10 0 15 -16 12 -34 -6z"/>
<path d="M3356 6217 c3 -10 9 -15 12 -12 3 3 0 11 -7 18 -10 9 -11 8 -5 -6z"/>
<path d="M5325 6200 c10 -11 20 -20 22 -20 2 0 -1 9 -7 20 -6 11 -16 20 -22
20 -6 0 -3 -9 7 -20z"/>
<path d="M2087 6123 c-8 -10 -28 -42 -42 -72 -24 -48 -27 -64 -27 -152 l1 -98
-40 -48 c-21 -26 -39 -52 -39 -58 0 -5 -6 -21 -13 -35 -41 -79 -60 -237 -29
-247 7 -3 12 4 12 19 0 91 65 276 122 348 25 32 27 42 27 116 -1 64 4 96 26
158 28 80 29 98 2 69z"/>
<path d="M2640 6041 c0 -6 4 -13 10 -16 6 -3 7 1 4 9 -7 18 -14 21 -14 7z"/>
<path d="M5762 5990 c9 -13 16 -16 23 -9 7 7 5 13 -5 19 -24 15 -31 11 -18
-10z"/>
<path d="M2685 5947 c7 -23 13 -46 14 -52 0 -5 6 -10 12 -10 6 0 17 -11 24
-25 24 -43 16 -12 -14 54 -34 76 -55 94 -36 33z"/>
<path d="M4890 5976 c0 -2 8 -10 18 -17 15 -13 16 -12 3 4 -13 16 -21 21 -21
13z"/>
<path d="M2310 5918 c0 -21 -6 -57 -14 -80 -8 -24 -22 -74 -30 -113 -24 -104
-32 -125 -81 -210 -50 -88 -69 -135 -54 -135 5 0 9 -9 9 -20 0 -11 5 -20 10
-20 6 0 10 -7 10 -15 0 -8 7 -15 16 -15 13 0 13 3 -2 29 -16 27 -16 31 2 77
10 26 36 74 57 106 21 31 40 67 43 80 2 13 13 70 24 128 10 58 24 120 29 138
7 24 6 39 -5 60 l-14 27 0 -37z"/>
<path d="M2143 5933 c-7 -2 -13 -16 -13 -29 0 -18 5 -24 23 -24 16 0 19 3 8 9
-8 5 -12 18 -8 30 3 12 4 21 4 20 -1 0 -8 -3 -14 -6z"/>
<path d="M4941 5927 c2 -1 13 -9 24 -17 19 -14 19 -14 6 3 -7 9 -18 17 -24 17
-6 0 -8 -1 -6 -3z"/>
<path d="M3195 5910 c3 -5 8 -10 11 -10 2 0 4 5 4 10 0 6 -5 10 -11 10 -5 0
-7 -4 -4 -10z"/>
<path d="M3267 5909 c7 -7 15 -10 18 -7 3 3 -2 9 -12 12 -14 6 -15 5 -6 -5z"/>
<path d="M2110 5870 c0 -5 5 -10 11 -10 5 0 7 5 4 10 -3 6 -8 10 -11 10 -2 0
-4 -4 -4 -10z"/>
<path d="M2157 5843 c-14 -13 -6 -33 13 -33 11 0 20 4 20 9 0 13 -26 32 -33
24z"/>
<path d="M2190 5843 c0 -4 5 -15 10 -23 8 -13 10 -13 10 2 0 9 -4 20 -10 23
-5 3 -10 3 -10 -2z"/>
<path d="M3311 5837 c2 -1 13 -9 24 -17 19 -14 19 -14 6 3 -7 9 -18 17 -24 17
-6 0 -8 -1 -6 -3z"/>
<path d="M2750 5817 c0 -10 5 -27 10 -37 6 -10 11 -30 12 -44 1 -13 6 -22 10
-20 9 6 1 44 -18 89 -9 20 -13 24 -14 12z"/>
<path d="M3364 5773 c9 -18 18 -33 20 -33 9 0 -8 41 -22 52 -13 11 -12 8 2
-19z"/>
<path d="M2166 5783 c6 -4 14 -15 17 -23 5 -11 6 -9 4 4 -1 11 -9 21 -17 23
-10 3 -11 2 -4 -4z"/>
<path d="M2135 5730 c3 -5 8 -10 11 -10 2 0 4 5 4 10 0 6 -5 10 -11 10 -5 0
-7 -4 -4 -10z"/>
<path d="M2217 5733 c-12 -12 -7 -43 7 -43 9 0 12 8 8 25 -5 27 -6 28 -15 18z"/>
<path d="M2850 5712 c0 -24 33 -62 53 -62 6 0 4 5 -5 11 -10 5 -18 15 -18 22
0 7 -7 21 -15 31 -15 19 -15 19 -15 -2z"/>
<path d="M3825 5700 c-3 -6 1 -7 9 -4 18 7 21 14 7 14 -6 0 -13 -4 -16 -10z"/>
<path d="M2732 5680 c-6 -11 -12 -22 -12 -25 0 -11 20 6 30 26 14 25 -2 25
-18 -1z"/>
<path d="M5922 5657 c-12 -7 -19 -16 -16 -20 14 -13 32 -7 37 13 3 11 4 20 4
20 -1 -1 -12 -6 -25 -13z"/>
<path d="M2376 5636 c-3 -13 -9 -32 -12 -43 -3 -10 3 -4 15 12 22 31 27 55 12
55 -5 0 -12 -11 -15 -24z"/>
<path d="M3050 5630 c0 -5 9 -10 19 -10 11 0 23 5 26 10 4 6 -5 10 -19 10 -14
0 -26 -4 -26 -10z"/>
<path d="M2916 5604 c-4 -14 -5 -28 -3 -31 3 -2 8 8 11 23 4 14 5 28 3 31 -3
2 -8 -8 -11 -23z"/>
<path d="M3005 5610 c-3 -5 -1 -10 4 -10 6 0 11 5 11 10 0 6 -2 10 -4 10 -3 0
-8 -4 -11 -10z"/>
<path d="M2646 5543 c-6 -14 -5 -15 5 -6 7 7 10 15 7 18 -3 3 -9 -2 -12 -12z"/>
<path d="M3010 5550 c0 -5 5 -10 11 -10 5 0 7 5 4 10 -3 6 -8 10 -11 10 -2 0
-4 -4 -4 -10z"/>
<path d="M3438 5553 c6 -2 18 -2 25 0 6 3 1 5 -13 5 -14 0 -19 -2 -12 -5z"/>
<path d="M2324 5535 c-3 -8 -4 -20 -2 -27 3 -7 7 -1 10 15 6 29 1 36 -8 12z"/>
<path d="M3490 5540 c8 -5 22 -9 30 -9 10 0 8 3 -5 9 -27 12 -43 12 -25 0z"/>
<path d="M2032 5518 c-5 -7 -13 -23 -16 -35 -4 -12 -29 -63 -56 -113 -28 -50
-50 -94 -50 -97 0 -4 -14 -36 -32 -71 -33 -69 -45 -114 -55 -201 -6 -56 9 -67
20 -14 9 41 42 154 55 186 7 16 12 31 12 33 0 3 18 36 39 72 34 58 53 99 87
187 8 22 15 65 10 65 -2 0 -8 -6 -14 -12z"/>
<path d="M5990 5493 c0 -6 8 -17 18 -24 16 -13 16 -13 2 6 -8 11 -16 22 -17
24 -2 2 -3 0 -3 -6z"/>
<path d="M3249 5473 c-13 -16 -12 -17 4 -4 16 13 21 21 13 21 -2 0 -10 -8 -17
-17z"/>
<path d="M2561 5384 c0 -11 3 -14 6 -6 3 7 2 16 -1 19 -3 4 -6 -2 -5 -13z"/>
<path d="M6150 5380 c14 -4 32 -8 40 -9 13 -1 13 0 0 9 -8 5 -26 9 -40 9 l-25
-1 25 -8z"/>
<path d="M2599 5353 l-24 -28 28 24 c25 23 32 31 24 31 -2 0 -14 -12 -28 -27z"/>
<path d="M4350 5349 c-58 -4 -127 -9 -155 -9 -27 -1 -142 -20 -255 -42 -196
-38 -256 -59 -217 -74 17 -6 138 7 227 25 195 38 557 69 682 58 31 -3 103 -21
160 -40 183 -62 169 -60 541 -55 393 6 387 7 509 -78 43 -30 82 -54 88 -54 5
0 10 10 10 23 -1 26 -73 82 -168 129 -73 36 -49 35 -477 23 l-260 -7 -110 31
c-60 17 -135 41 -165 52 -65 25 -241 33 -410 18z"/>
<path d="M2967 5331 c-3 -12 -1 -21 3 -21 15 0 23 21 12 32 -6 6 -11 2 -15
-11z"/>
<path d="M2838 5305 c17 -14 33 -25 37 -25 3 0 -7 11 -23 25 -17 14 -33 25
-37 25 -3 0 7 -11 23 -25z"/>
<path d="M3028 5313 c6 -2 18 -2 25 0 6 3 1 5 -13 5 -14 0 -19 -2 -12 -5z"/>
<path d="M1791 5284 c0 -11 3 -14 6 -6 3 7 2 16 -1 19 -3 4 -6 -2 -5 -13z"/>
<path d="M2950 5279 c0 -5 5 -7 10 -4 6 3 10 8 10 11 0 2 -4 4 -10 4 -5 0 -10
-5 -10 -11z"/>
<path d="M2435 5250 c-3 -5 -17 -10 -31 -10 -24 0 -32 -14 -14 -25 6 -4 4 -13
-6 -23 -23 -22 1 -30 25 -8 10 9 23 16 29 16 6 0 13 4 16 9 3 4 -7 6 -22 4
l-27 -5 30 26 c17 14 25 25 18 26 -6 0 -15 -4 -18 -10z"/>
<path d="M1780 5237 c0 -11 29 -67 35 -67 2 0 2 8 -2 18 -8 22 -33 59 -33 49z"/>
<path d="M2492 5224 c-7 -8 -8 -14 -3 -14 10 0 25 19 20 25 -2 1 -10 -3 -17
-11z"/>
<path d="M2300 5190 c-9 -6 -10 -10 -3 -10 6 0 15 5 18 10 8 12 4 12 -15 0z"/>
<path d="M2736 5183 c-6 -14 -5 -15 5 -6 7 7 10 15 7 18 -3 3 -9 -2 -12 -12z"/>
<path d="M1715 5150 c-4 -7 -2 -16 6 -21 18 -11 23 -4 11 17 -7 12 -11 13 -17
4z"/>
<path d="M2942 5140 c0 -14 2 -19 5 -12 2 6 2 18 0 25 -3 6 -5 1 -5 -13z"/>
<path d="M2212 5105 c0 -16 2 -22 5 -12 2 9 2 23 0 30 -3 6 -5 -1 -5 -18z"/>
<path d="M4440 5082 c-36 -5 -447 -110 -497 -127 -23 -8 -102 -30 -176 -50
-117 -31 -149 -35 -253 -35 -121 0 -150 -7 -142 -31 4 -11 33 -13 144 -11 148
4 259 25 439 82 50 16 133 39 185 51 52 12 122 30 155 41 110 34 177 42 254
30 38 -7 81 -12 95 -12 24 0 86 -22 273 -95 62 -25 66 -25 409 -26 273 0 354
-3 386 -15 90 -31 118 -7 38 33 -43 21 -60 22 -400 27 l-355 5 -111 39 c-61
22 -120 44 -130 49 -37 20 -266 52 -314 45z"/>
<path d="M2465 5048 c-11 -6 -25 -19 -32 -27 -9 -13 -8 -17 5 -23 32 -12 49
-8 62 16 10 20 16 23 34 15 32 -15 32 -49 0 -49 -15 0 -23 -4 -19 -10 4 -6 10
-8 15 -5 17 11 95 13 113 3 10 -5 21 -7 24 -5 2 3 -12 13 -31 22 -20 10 -45
29 -56 43 -23 28 -83 39 -115 20z m131 -65 c-7 -7 -26 7 -26 19 0 6 6 6 15 -2
9 -7 13 -15 11 -17z"/>
<path d="M2664 5041 c7 -11 46 -35 46 -28 0 3 -12 12 -26 22 -15 9 -23 12 -20
6z"/>
<path d="M2727 5026 c-3 -8 -2 -18 4 -22 16 -9 22 2 11 21 -8 15 -10 16 -15 1z"/>
<path d="M2508 4993 c7 -3 16 -2 19 1 4 3 -2 6 -13 5 -11 0 -14 -3 -6 -6z"/>
<path d="M2450 4963 l-25 -15 30 7 c17 3 34 11 40 16 14 14 -17 9 -45 -8z"/>
<path d="M1696 4845 c4 -8 7 -15 9 -15 2 0 5 7 9 15 3 9 0 15 -9 15 -9 0 -12
-6 -9 -15z"/>
<path d="M2030 4830 c8 -5 20 -10 25 -10 6 0 3 5 -5 10 -8 5 -19 10 -25 10 -5
0 -3 -5 5 -10z"/>
<path d="M2079 4782 c6 -12 16 -24 22 -28 8 -4 8 -1 0 14 -6 12 -16 24 -22 28
-8 4 -8 1 0 -14z"/>
<path d="M1737 4732 c-10 -10 -17 -25 -17 -33 0 -9 5 -7 12 6 6 11 16 23 22
27 6 4 8 9 5 13 -3 3 -13 -3 -22 -13z"/>
<path d="M4075 4680 c-38 -10 -124 -30 -190 -45 -118 -26 -265 -86 -273 -111
-6 -22 30 -24 71 -3 63 31 173 65 252 79 39 7 101 21 139 32 61 17 95 19 284
17 217 -3 243 1 206 32 -13 11 -63 15 -218 16 -171 2 -211 0 -271 -17z"/>
<path d="M5565 4666 c-81 -30 -129 -59 -133 -79 -5 -24 10 -21 91 15 65 29 84
33 207 39 129 6 137 5 176 -17 22 -13 71 -50 107 -83 68 -61 114 -91 142 -91
26 0 17 27 -17 51 -18 13 -59 47 -91 76 -33 30 -81 66 -109 82 -47 27 -55 29
-181 29 -112 0 -141 -3 -192 -22z"/>
<path d="M1881 4564 c0 -11 3 -14 6 -6 3 7 2 16 -1 19 -3 4 -6 -2 -5 -13z"/>
<path d="M1703 4493 c4 -3 2 -12 -4 -19 -12 -15 -4 -34 14 -34 7 0 13 14 14
30 2 22 -2 30 -14 30 -9 0 -13 -3 -10 -7z"/>
<path d="M4607 4463 c-4 -3 17 -31 46 -62 29 -31 63 -77 76 -103 24 -50 37
-59 48 -33 16 44 -94 205 -141 205 -13 0 -26 -3 -29 -7z"/>
<path d="M1690 4404 c0 -8 5 -12 10 -9 6 3 10 10 10 16 0 5 -4 9 -10 9 -5 0
-10 -7 -10 -16z"/>
<path d="M5493 4373 c-4 -21 -7 -81 -8 -133 0 -78 3 -95 15 -95 12 0 16 22 22
107 3 59 9 111 12 117 9 14 -4 41 -20 41 -7 0 -16 -16 -21 -37z"/>
<path d="M3915 4141 c-177 -7 -201 -16 -160 -62 14 -15 14 -21 -6 -62 -32 -66
-19 -101 80 -204 l79 -83 114 0 c62 0 195 5 295 10 198 10 247 22 255 61 3 13
14 45 24 71 18 46 18 48 -2 69 -35 40 -177 120 -294 166 -89 35 -163 42 -385
34z m133 -78 c-9 -10 -24 -34 -34 -53 -23 -46 -24 -159 0 -195 l16 -25 -37 0
c-34 0 -45 7 -105 72 -37 39 -70 79 -73 89 -5 15 23 84 48 117 6 8 40 12 105
12 90 0 94 -1 80 -17z m433 -136 c41 -27 48 -58 20 -86 -26 -26 -97 -30 -87
-5 3 9 6 38 6 65 0 57 10 61 61 26z"/>
<path d="M6050 4070 c-30 -4 -91 -17 -135 -28 -44 -11 -105 -23 -135 -27 -118
-13 -169 -39 -195 -101 -16 -39 -23 -161 -9 -173 18 -16 144 -41 208 -41 41 0
84 -7 115 -20 81 -31 209 -54 237 -41 32 14 37 40 33 190 -3 109 -7 133 -22
148 -17 17 -16 18 25 28 48 12 62 40 32 62 -19 14 -65 15 -154 3z m-203 -161
c-7 -35 -7 -61 1 -86 6 -20 8 -41 5 -46 -6 -10 -156 -3 -186 9 -8 3 -17 20
-20 37 -10 74 34 116 137 127 34 4 64 8 67 9 3 0 2 -22 -4 -50z m246 -188 c-4
-4 -37 -1 -73 5 -42 8 -54 12 -33 13 61 2 82 17 95 68 l13 47 3 -63 c2 -35 -1
-67 -5 -70z"/>
<path d="M5369 3519 c-7 -14 -9 -50 -4 -111 11 -140 40 -194 191 -352 146
-154 143 -137 53 -294 -36 -62 -62 -119 -65 -145 -9 -67 -23 -74 -78 -42 -39
23 -52 26 -83 18 -64 -15 -50 -73 18 -73 14 0 38 -9 52 -20 39 -31 83 -36 109
-14 29 27 58 92 58 136 0 20 4 40 10 43 5 3 35 51 66 106 42 76 56 110 56 142
1 40 -4 47 -106 152 -59 61 -119 125 -134 143 -45 58 -73 140 -79 227 -3 44
-10 86 -15 93 -15 18 -36 15 -49 -9z"/>
<path d="M4705 2910 c-11 -5 -37 -9 -58 -9 -85 -2 -133 -57 -121 -139 10 -67
56 -164 93 -195 60 -50 182 -65 190 -23 4 25 -24 46 -62 46 -64 0 -109 51
-141 159 -18 62 -13 72 36 76 18 1 59 10 91 19 48 15 57 21 57 41 0 33 -39 45
-85 25z"/>
<path d="M5045 2663 c-31 -3 -55 -10 -62 -20 -35 -45 2 -67 84 -52 69 14 103
40 83 63 -7 9 -22 15 -34 14 -11 -1 -43 -3 -71 -5z"/>
<path d="M2970 2350 c0 -11 7 -37 16 -58 14 -30 17 -70 16 -207 -1 -186 -11
-254 -46 -300 -12 -16 -25 -38 -29 -47 -11 -32 30 -21 57 15 46 60 55 96 62
258 7 164 -3 260 -33 324 -18 38 -43 47 -43 15z"/>
<path d="M4465 2142 c-54 -19 -86 -44 -83 -65 3 -19 9 -22 43 -20 160 7 169 6
317 -36 l148 -42 336 -2 336 -2 24 -28 c34 -40 68 -34 72 13 2 30 -3 41 -37
74 l-39 38 -54 -13 c-65 -15 -301 -16 -528 -2 -152 10 -193 17 -320 57 -25 8
-70 17 -100 21 -30 3 -64 8 -75 10 -11 2 -29 0 -40 -3z"/>
<path d="M2925 1311 c-154 -55 -212 -103 -278 -229 -45 -86 -159 -220 -192
-227 -14 -3 -36 -7 -50 -10 -14 -3 -25 -11 -25 -18 0 -25 25 -37 79 -37 54 0
56 1 109 58 59 63 115 142 152 215 14 27 48 70 75 96 41 39 65 52 140 75 102
32 124 49 98 78 -20 22 -43 22 -108 -1z"/>
<path d="M4470 1078 c0 -7 12 -48 26 -90 28 -85 60 -122 140 -161 36 -17 46
-19 57 -8 14 14 7 21 -74 71 -33 20 -52 40 -65 71 -35 80 -59 123 -71 127 -7
2 -13 -2 -13 -10z"/>
<path d="M3560 573 c-26 -5 -60 -30 -60 -45 0 -11 28 -10 66 4 54 19 164 -5
215 -48 23 -19 50 -34 61 -34 35 0 57 -20 79 -71 12 -27 30 -54 40 -59 10 -6
74 -10 143 -10 l125 0 19 44 c11 24 36 56 56 71 34 26 46 29 142 33 78 3 104
8 104 18 0 21 -43 27 -144 22 -107 -6 -140 -23 -183 -95 l-25 -43 -113 0 -113
0 -13 38 c-16 51 -24 59 -93 94 -34 17 -81 42 -106 55 -46 24 -148 37 -200 26z"/>
</g>
</svg>
