<svg width="240" height="240" viewBox="0 0 240 240" fill="none" xmlns="http://www.w3.org/2000/svg">
<g clip-path="url(#clip0_7_6367)">
    <path d="M203.435 116.146c.338-.61.815-1.473.978-2.31.504-2.563.818-4.415.941-5.556.096-.874.275-3.299.538-7.276.034-.522.138-1.066.24-1.604.158-.825.312-1.634.206-2.321-.155-1.03-.458-3.145-.907-6.345-.194-1.375-.311-2.12-.352-2.238-.285-.814-.843-1.396-1.673-1.744-3.099-1.312-7.514-1.925-10.294.142a185.326 185.326 0 0 1-6.782 4.82c-1.534 1.04-2.896 2.111-4.191 3.13l-.001.001h-.001c-1.023.806-2.005 1.578-2.997 2.277-1.854 1.302-3.408 2.555-4.662 3.759a149.158 149.158 0 0 1-4.444 4.049c-.678.596-1.804 1.722-3.379 3.379a13.055 13.055 0 0 1-2.333 1.925c-1.249.817-2.136 1.525-2.662 2.124-1.194 1.356-2.374 2.457-3.54 3.303a.237.237 0 0 0-.076.093.235.235 0 0 0 .022.23.227.227 0 0 0 .092.076 374.81 374.81 0 0 1 3.535 1.64c1.214.646 2.492 1.597 3.836 2.851 1.923 1.787 2.124 3.424 2.402 5.675.031.251.063.511.098.779.095.719-.01 1.299-.314 1.74-.86 1.249-3.113 3.364-4.691 2.105-1.632-1.304.397-2.625 1.454-3.314l.086-.056a.48.48 0 0 0 .219-.38c.114-2.05-.636-3.704-2.248-4.961-1.546-1.207-2.991-2.061-4.335-2.562-1.359-.507-2.33-1.061-2.913-1.663-.133-.14-.287-.168-.461-.086-1.784.868-3.049 1.442-3.797 1.721-1.955.731-6.628 2.4-14.02 5.004a34.948 34.948 0 0 1-3.707 1.074c-1.784.412-3.043.738-3.778.979-1.638.539-3.078.841-4.32.908-3.52.193-6.356.134-8.507-.176-6.577-.951-12.729-2.451-18.454-4.501-.595-.213-1.224-.368-1.853-.522-1.079-.264-2.155-.527-3.047-1.089a1.026 1.026 0 0 1-.323-.332c-.083-.136-.162-.271-.24-.405-.29-.495-.575-.983-1.057-1.492a117.501 117.501 0 0 0-2.861-2.884 35.552 35.552 0 0 1-2.761-3.099c-2.285-2.855-5.019-5.662-8.203-8.421-1.569-1.36-3.736-2.597-6.502-3.712-5.756-2.32-9.403-3.734-10.94-4.244-.567-.187-1.039-.276-1.416-.266-.4.012-.566.215-.499.608.507 3.01 1.001 5.147 1.483 6.411.088.241.1.474.033.699-.06.209-.138.396-.214.578-.143.344-.279.673-.285 1.104-.044 3.251-.05 5.104-.014 5.561.04.582.22 1.273.537 2.072.144.359.207.739.27 1.114.112.667.222 1.321.775 1.832.133.124.27.246.406.367.66.586 1.31 1.163 1.467 1.967.07.358.178.692.288 1.032.208.645.423 1.309.4 2.19a107.054 107.054 0 0 0-.023 3.346c.016 1.251.227 2.266.632 3.046a9.055 9.055 0 0 0 1.987 2.528c.225.203.912 1.165 2.062 2.885.352.529.808 1.364 1.37 2.504.42.85.873 1.688 1.358 2.515.295.503.772.871 1.252 1.242.286.222.574.444.825.697a6403.205 6403.205 0 0 0 12.361 12.327c.818.813 1.992 1.621 3.009 2.286.37.241.93.748 1.677 1.521.65.671 1.467 1.035 2.279 1.397.837.374 1.67.745 2.312 1.45a45.733 45.733 0 0 0 5.328 5.023 47.943 47.943 0 0 1 4.795 4.358c.767.805 2.017 2.074 3.75 3.807a27.377 27.377 0 0 0 3.507 2.97 57.263 57.263 0 0 0 7.908 4.696c1.046.513 2.609.979 4.691 1.397.732.149 1.509.461 2.333.936.802.466 2.107.929 3.916 1.388.371.092.883.097 1.535.014.396-.05.914-.054 1.554-.009 1.426.095 2.201.142 2.324.142 4.632.026 9.264.034 13.897.024 1.05 0 1.492.223 1.805 1.169.08.241.219.285.419.133 1.09-.827 2.251-1.403 3.483-1.73a7.652 7.652 0 0 0 1.64-.622c.805-.428 1.338-.685 1.601-.77 2.19-.71 4.354-1.877 6.492-3.503 1.002-.757 1.776-1.223 2.324-1.397.9-.285 1.784-.54 2.652-.765.507-.133.933-.455 1.279-.965a35.133 35.133 0 0 0 2.309-3.944c.746-1.474 1.464-2.648 2.567-3.546a332.363 332.363 0 0 1 3.151-2.547c.497-.342.961-.897 1.392-1.663.526-.935 1.497-1.871 2.913-2.809.216-.143.485-.542.808-1.198.184-.37.27-.831.257-1.383-.06-2.395.195-4.724.765-6.986.238-.947.377-1.589.418-1.925.159-1.235.243-1.894.252-1.977.079-.887.425-1.799 1.036-2.737.913-1.4 2.112-2.722 3.598-3.964.321-.269.552-.63.66-1.036.716-2.734 1.916-5.288 3.598-7.661.341-.482.847-.967 1.262-1.365.169-.162.323-.309.444-.436a.763.763 0 0 0 .209-.409c.053-.29.06-.6.066-.909.008-.377.016-.754.11-1.091.594-2.153 2.718-5.047 4.235-6.312a.5.5 0 0 0 .18-.423 5.155 5.155 0 0 1 .936-3.445c.247-.357.247-.889.019-1.279a.303.303 0 0 1-.029-.189.685.685 0 0 1 .082-.243c.051-.097.111-.205.176-.323zm.223 90.292a13.394 13.394 0 0 0 6.525 1.174h.001c.493-.032.888-.25 1.182-.656l.119-.342v-.623a1.045 1.045 0 0 1-.142-.347c-.168-.366-.397-.574-.689-.625l44.079 4.803-.713 3.802v64.871l-275.644-9.98-4.5-56.113c3.27.099 6.472.116 9.609.053 1.052-.019 1.803-.148 2.253-.385a159.984 159.984 0 0 1 3.787-1.93c.653-.319 1.183-.823 1.713-1.327l.002-.001.002-.002.156-.148c.466-.44.949-.784 1.45-1.031.864-.421 1.466-.684 1.805-.789 2.047-.63 4.18-1.278 6.397-1.944a31.462 31.462 0 0 0 2.966-1.079c1.362-.564 2.362-.907 2.999-1.031.884-.168 2.566-.177 5.047-.028.149.006.26.074.332.204l.556.96c.086.146.211.238.376.276 1.278.29 1.673-.457 1.701-1.597.007-.162.09-.243.252-.243h2.467c.415 0 .749-.164 1.003-.494.326-.424.484-.662.475-.713-.111-.849-.49-1.307-1.136-1.373-1.768-.184-3.29-.117-4.567.199a.156.156 0 0 1-.098-.009.156.156 0 0 1-.073-.067.155.155 0 0 1 .023-.185l1.474-1.473a1.352 1.352 0 0 1 1.026-.409c.526.016 1.112-.288 1.759-.912.307-.296.67-.623 1.056-.969l.001-.001v-.001c.74-.664 1.558-1.398 2.198-2.114.843-.947 1.484-1.597 1.925-1.948.792-.631 1.38-1.306 1.763-2.025.438-.82.783-1.581 1.119-2.319.37-.815.727-1.604 1.186-2.419 2.259-4.021 3.845-6.801 4.757-8.341.574-.969.96-1.782 1.16-2.438.351-1.153.543-2.043.575-2.671.01-.164.032-1.089.066-2.775.037-1.836.54-3.662 1.036-5.469v-.001c.139-.504.277-1.006.404-1.507a4.15 4.15 0 0 1 .899-1.687 24.259 24.259 0 0 0 2.347-3.255c.057-.095.712-1.152 1.963-3.17a22.255 22.255 0 0 0 2.676-6.378c.624-2.516 1.004-4.238 1.14-5.166a46.26 46.26 0 0 1 .609-3.289c.587-2.653.634-4.191.728-7.215.018-.6.038-1.258.065-1.995.048-1.34.254-2.788.618-4.344.225-.953.45-2.639.675-5.056.206-2.186.917-4.605 2.134-7.257.78-1.695 2.424-4.678 4.933-8.949.284-.483.527-.995.774-1.514.348-.732.703-1.477 1.184-2.169a.214.214 0 0 1 .385.08c.323 1.635.521 2.587.594 2.857.263.963.383 1.909.361 2.837-.029 1.207-.02 3.373.024 6.497.003.098.163.693.48 1.786.08.263.146.664.2 1.203.103 1.06 1.042 2.01 2.087 3.067.154.155.31.313.465.473.31.32.548 1.025.712 2.115.086.59.124 1.326.114 2.21-.01.925-.02 1.763-.033 2.514-.019.973.103 1.809.366 2.51.428 1.15 1.017 2.122 1.768 2.918 1.416 1.498 2.28 2.552 2.59 3.16a178.332 178.332 0 0 0 2.239 4.253c.488.884 1.136 1.71 1.943 2.476 4.664 4.439 8.834 8.558 12.509 12.357 1.131 1.169 3.08 2.864 5.845 5.085a15.61 15.61 0 0 0 3.061 1.906c.77.37 1.404.801 1.901 1.292 1.426 1.407 2.38 2.312 2.866 2.714 3.26 2.715 6.577 5.831 9.951 9.348 1.639 1.705 2.966 2.904 3.983 3.598 2.623 1.796 5.098 3.319 7.423 4.567 1.157.621 2.706 1.212 4.648 1.773 2.225.64 4.663 1.527 7.314 2.661.897.383 1.928.54 3.094.471a373.92 373.92 0 0 1 2.243-.138c5.247-.041 8.986-.048 11.216-.019.165 0 .249.084.252.252.019 1.273.011 2.645-.024 4.115-.028 1.331.244 2.307.818 2.928.643.695.849 1.276 1.165 2.165.082.228.17.477.275.753.39 1.029.825 1.701 1.307 2.015.127.083.248.164.365.242.825.551 1.457.973 2.672.998.693.013 1.775.005 3.246-.024a.438.438 0 0 1 .375.2c.044.07.079.143.105.219.289.912 1.197 1.511 1.972 1.435 1.289-.13 2.728-.162 4.315-.095 4.389.178 8.706.154 12.638.133h.004c1.644-.008 3.222-.017 4.709-.01 2.297.013 4.165.092 5.604.238 3.238.333 5.105.49 5.603.471.741-.029 1.571.18 2.49.627 1.02.497 2.387.93 4.101 1.297.432.093.866.301 1.268.493.212.101.416.198.605.272.421.168.917.263 1.487.286.571.022.971.042 1.203.061.364.032.741.137 1.131.314zm6.891-1.43.105.011a.718.718 0 0 0-.105-.011z" fill="#fff"/><path d="M137.099 150.535c-.196-2.7-.152-5.393.133-8.08a9.045 9.045 0 0 1-.632-1.026c-.703-1.288-2.072-.67-2.485.532-.095 3.864-.147 7.808.751 11.61.614 2.583 1.033 5.407 1.254 8.474.07.919.536 1.299 1.398 1.141a.349.349 0 0 0 .052-.005c.849-.146 1.236-.635 1.16-1.469-.26-2.759-.416-4.423-.466-4.99a22.471 22.471 0 0 0-.513-3.103c-.412-1.74-.629-2.768-.652-3.084zm6.725-.043a17.188 17.188 0 0 1-.456-5.066 7.536 7.536 0 0 0-.917-1.188c-.368-.393-.781-.651-1.241-.775a5.578 5.578 0 0 0-1.796-.176 5.627 5.627 0 0 0-.09.955c-.013.593.277 1.062.57 1.536.262.425.526.853.58 1.378.168 1.679.443 3.17.827 4.472.354 1.203.39 2.47.427 3.762.012.423.025.848.048 1.275.041.773.448 1.139 1.221 1.098.073-.006.124-.009.152-.009.77-.042 1.168-.447 1.193-1.217.038-1.09.04-2.104.005-3.042-.025-.668-.2-1.669-.523-3.003z" fill="#BBDEF9"/><path d="M210.183 207.612a13.394 13.394 0 0 1-6.525-1.174 3.478 3.478 0 0 0-1.131-.314 32.613 32.613 0 0 0-1.203-.061c-.57-.023-1.066-.118-1.487-.286a9.643 9.643 0 0 1-.605-.272c-.402-.192-.836-.4-1.268-.493-1.714-.367-3.081-.8-4.101-1.297-.919-.447-1.749-.656-2.49-.627-.498.019-2.365-.138-5.603-.471-1.439-.146-3.307-.225-5.604-.238-1.487-.007-3.065.002-4.711.01h-.001c-3.933.021-8.25.045-12.639-.133-1.587-.067-3.026-.035-4.315.095-.775.076-1.683-.523-1.972-1.435a1.048 1.048 0 0 0-.105-.219.438.438 0 0 0-.375-.2 93.775 93.775 0 0 1-3.246.024c-1.215-.025-1.847-.447-2.672-.998-.117-.078-.238-.159-.365-.242-.482-.314-.917-.986-1.307-2.015-.105-.276-.193-.525-.275-.753-.316-.888-.522-1.47-1.165-2.165-.574-.621-.846-1.597-.818-2.928.035-1.47.043-2.842.024-4.115-.003-.168-.087-.252-.252-.252-2.23-.029-5.969-.022-11.216.019-.028 0-.776.046-2.243.138-1.166.069-2.197-.088-3.094-.471-2.651-1.134-5.089-2.021-7.314-2.661-1.942-.561-3.491-1.152-4.648-1.773-2.325-1.248-4.8-2.771-7.423-4.567-1.017-.694-2.344-1.893-3.983-3.598-3.374-3.517-6.691-6.633-9.951-9.348-.485-.402-1.44-1.307-2.866-2.714-.497-.491-1.131-.922-1.9-1.292a15.61 15.61 0 0 1-3.062-1.906c-2.766-2.221-4.714-3.916-5.845-5.085-3.675-3.799-7.845-7.918-12.509-12.357a10.234 10.234 0 0 1-1.943-2.476c-.504-.912-1.25-2.33-2.239-4.253-.31-.608-1.174-1.662-2.59-3.16-.75-.796-1.34-1.768-1.768-2.918-.263-.701-.385-1.537-.366-2.51.013-.751.024-1.589.033-2.514.01-.884-.028-1.62-.114-2.21-.164-1.09-.402-1.795-.712-2.115l-.464-.472v-.001c-1.046-1.057-1.985-2.006-2.089-3.067-.053-.539-.12-.94-.2-1.203-.316-1.093-.476-1.688-.48-1.786-.043-3.124-.051-5.29-.023-6.497a9.845 9.845 0 0 0-.361-2.837c-.073-.27-.27-1.222-.594-2.857a.214.214 0 0 0-.385-.08c-.481.692-.836 1.437-1.184 2.169-.247.519-.49 1.031-.774 1.514-2.51 4.271-4.154 7.254-4.933 8.949-1.217 2.652-1.928 5.071-2.134 7.257-.225 2.417-.45 4.103-.675 5.056-.364 1.556-.57 3.004-.618 4.344-.026.737-.047 1.395-.065 1.995-.094 3.024-.141 4.562-.728 7.215a46.26 46.26 0 0 0-.609 3.289c-.136.928-.516 2.65-1.14 5.166a22.258 22.258 0 0 1-2.676 6.378 1162.176 1162.176 0 0 0-1.963 3.17 24.26 24.26 0 0 1-2.347 3.255 4.151 4.151 0 0 0-.899 1.687c-.127.501-.265 1.003-.404 1.508-.496 1.807-.998 3.633-1.036 5.469a191.043 191.043 0 0 1-.066 2.775c-.032.628-.224 1.518-.575 2.671-.2.656-.586 1.469-1.16 2.438-.912 1.54-2.498 4.32-4.757 8.341-.459.815-.817 1.604-1.186 2.419-.336.739-.68 1.499-1.119 2.319-.383.719-.971 1.394-1.763 2.025-.44.351-1.082 1.001-1.925 1.948-.64.716-1.457 1.45-2.197 2.115a43.4 43.4 0 0 0-1.058.97c-.647.624-1.233.928-1.759.912a1.352 1.352 0 0 0-1.026.409l-1.473 1.473a.158.158 0 0 0 .049.252c.03.013.065.017.098.009 1.277-.316 2.799-.383 4.567-.199.646.066 1.025.524 1.136 1.373.01.051-.15.289-.476.713-.253.33-.587.494-1.002.494h-2.467c-.161 0-.245.081-.252.243-.028 1.14-.423 1.887-1.701 1.597a.565.565 0 0 1-.376-.276l-.556-.96a.376.376 0 0 0-.332-.204c-2.481-.149-4.163-.14-5.047.028-.637.124-1.637.467-3 1.031a31.461 31.461 0 0 1-2.965 1.079c-2.218.666-4.35 1.314-6.397 1.944-.339.105-.94.368-1.806.789-.5.247-.983.591-1.45 1.031l-.082.079-.077.072c-.53.504-1.06 1.008-1.713 1.327a159.984 159.984 0 0 0-3.787 1.93c-.45.237-1.201.366-2.253.385-3.136.063-6.34.046-9.61-.053-.785-.022-1.21-.426-1.273-1.211a.98.98 0 0 0-.01-.119 1.147 1.147 0 0 1 .087-.479c.063-.152.158-.291.28-.408a1.29 1.29 0 0 1 .428-.274c.16-.063.333-.095.508-.094 2.243.013 4.915.038 8.017.076.358.006 1.006-.032 1.944-.114.904-.075 1.776-.58 2.668-1.097.295-.17.59-.342.891-.5a5.953 5.953 0 0 0 1.545-1.174c1.354-1.406 2.49-1.981 4.443-2.68.552-.196 1.596-.505 3.132-.927a58.153 58.153 0 0 0 7.837-2.761c1.03-.447 2.863-.638 5.499-.575a.335.335 0 0 0 .333-.204c.83-1.724 2.14-3.159 3.93-4.306.247-.159.695-.288 1.345-.39a.698.698 0 0 0 .399-.195c1.556-1.486 2.463-2.374 2.723-2.666 1.172-1.324 2.037-2.241 2.595-2.751.868-.793 1.43-1.735 1.687-2.828.206-.875.422-1.516.646-1.925a625.14 625.14 0 0 1 2.976-5.308c.303-.54.439-.979.57-1.406.08-.261.16-.518.276-.79a.93.93 0 0 1 .28-.371c.146-.116.3-.206.453-.295.308-.181.614-.359.85-.75.797-1.315 1.365-2.781 1.7-4.396.171-.814.163-1.732.154-2.64-.007-.782-.014-1.558.094-2.255.18-1.17.603-2.993 1.268-5.471.184-.687.579-1.493 1.184-2.419.485-.741.904-1.549 1.26-2.423.142-.349.595-.807 1.358-1.374 2.11-1.568 3.394-3.569 3.955-6.145.104-.477.19-.916.275-1.337.184-.927.351-1.769.642-2.736.321-1.06.482-2.162.638-3.229v-.001c.123-.84.243-1.66.436-2.42.472-1.882.78-4.521.922-7.918.206-4.87.298-7.545.275-8.027-.053-1.264.097-2.43.452-3.498.182-.548.377-1.276.592-2.081.414-1.547.904-3.383 1.532-4.786a75.905 75.905 0 0 1 5.185-9.7 19.38 19.38 0 0 0 1.074-1.963c.485-1.01.845-1.67 1.08-1.977.357-.472.563-1.055.617-1.749.035-.516.196-1.173.485-1.972.269-.744.692-1.216 1.269-1.416 1.061-.374 1.804-.556 2.228-.547.666.01 1.532.013 2.6.01.608-.003 1.437.196 2.486.599 5.383 2.062 9.58 3.767 12.589 5.113 1.478.661 2.999 1.645 4.348 2.762 3.283 2.712 6.526 6.04 9.729 9.985 1.077 1.324 2.807 3.112 5.19 5.365 1.06 1.003 1.682 1.507 3.127 2.034 5.547 2.025 11.371 3.574 17.47 4.648 2.813.498 5.589.681 8.326.551 1.473-.069 3.286-.386 5.437-.95.69-.18 1.314-.339 1.896-.487 1.909-.485 3.366-.855 5.195-1.485 4.872-1.686 7.881-2.762 9.025-3.227.028-.013 1.254-.442 3.678-1.288a31.752 31.752 0 0 0 7.091-3.522c.754-.497 1.452-1.225 2.135-1.937.38-.396.755-.788 1.134-1.133 7.573-6.878 11.582-10.522 12.029-10.93a84.955 84.955 0 0 1 7.323-6.041c3.295-2.418 7.693-5.548 13.193-9.39.596-.416 1.38-.8 2.353-1.156.709-.256 1.555-.404 2.538-.442 2.766-.104 5.387.308 7.865 1.236a7.213 7.213 0 0 1 2.851 1.939c.444.488.758 1.266.941 2.333.339 1.984.558 3.435.656 4.354.048.434.26 1.02.637 1.758.409.795.539 1.749.39 2.861-.056.409-.117.829-.179 1.26l-.001.006c-.294 2.022-.621 4.276-.628 6.656v.036c-.019 4.295-.034 7.76-1.93 11.651-.207.425-.553.707-.901.99-.091.074-.183.149-.272.226-.127.111-.224.309-.29.594a485.02 485.02 0 0 0-.823 3.622c-.114.687-.421 1.307-.922 1.858-.822.913-2.143 2.814-2.628 3.626-.681 1.128-.98 2.378-.898 3.75a.56.56 0 0 1-.147.423c-.294.336-.602.638-.906.935-.65.638-1.28 1.254-1.694 2.135a16.05 16.05 0 0 1-1.877 3.08.741.741 0 0 0-.166.432c-.064.805-.289 1.725-.675 2.761-.423 1.133-1.64 2.313-2.782 3.419-.257.249-.51.495-.749.735-.238.241-.62.795-1.146 1.663-.323.533-.545 1.155-.665 1.868-.092.561-.442 2.356-1.05 5.385-.374 1.875-.529 4.045-.466 6.51a.835.835 0 0 1-.109.452c-.58 1.03-1.119 1.738-1.616 2.124-.18.14-.355.27-.524.396-.794.593-1.445 1.08-1.857 1.919-.346.703-.567 1.093-.666 1.169-1.596 1.258-2.981 2.447-4.153 3.569-.865.832-1.63 1.692-2.12 2.742-1.036 2.229-2.343 4.311-3.94 5.841a3.296 3.296 0 0 1-1.72.893c-1.293.238-2.291.542-3.417 1.255-3.336 2.129-5.391 3.377-6.164 3.745a9.13 9.13 0 0 1-.757.298c-.418.15-.865.311-1.287.557a9.479 9.479 0 0 1-3.93 1.231c-.409.035-1.08.542-2.015 1.521a.829.829 0 0 1-.394.228c-1.144.263-1.919-.155-2.324-1.254a.342.342 0 0 0-.347-.238h-1.63c-.184 0-.279.093-.286.28-.028.992-.02 2.329.024 4.011.022.854.39 1.328.772 1.821.21.27.424.546.587.893.701 1.499 1.157 2.501 1.369 3.008a1.332 1.332 0 0 0 1.255.813c1.007-.025 2.194-.033 3.559-.024.713.007 1.743.227 3.09.661.199.064.401.131.605.198h.002c1.444.476 3.007.991 4.501 1 4.335.019 9.67.02 16.007.004a69.849 69.849 0 0 1 5.765.205c.047.003 1.962.198 5.745.584 1.35.136 2.532.404 3.546.803a56.233 56.233 0 0 0 5.365 1.806 7.757 7.757 0 0 0 1.549.271l.279.022c.716.054 1.142.086 1.789.387 1.511.71 3.494 1.122 5.95 1.236a.49.49 0 0 1 .054.004l.051.007m0 0 44.079 4.803-.713 3.802-43.837-6.012m-6.924-91.143c.051-.097.111-.205.176-.323.338-.61.815-1.473.978-2.31.504-2.563.818-4.415.941-5.556.096-.874.275-3.299.538-7.276.034-.522.138-1.066.24-1.604.158-.825.312-1.634.206-2.321-.155-1.03-.458-3.145-.907-6.345-.194-1.375-.311-2.12-.352-2.238-.285-.814-.843-1.396-1.673-1.744-3.099-1.312-7.514-1.925-10.294.142a185.326 185.326 0 0 1-6.782 4.82c-1.535 1.04-2.897 2.112-4.192 3.131h-.001c-1.023.806-2.005 1.578-2.997 2.277-1.854 1.302-3.408 2.555-4.662 3.759a149.158 149.158 0 0 1-4.444 4.049c-.678.596-1.804 1.722-3.379 3.379a13.055 13.055 0 0 1-2.333 1.925c-1.249.817-2.136 1.525-2.662 2.124-1.194 1.356-2.374 2.457-3.54 3.303a.237.237 0 0 0-.076.093.235.235 0 0 0 .022.23.227.227 0 0 0 .092.076 374.81 374.81 0 0 1 3.535 1.64c1.214.646 2.492 1.597 3.836 2.851 1.923 1.787 2.124 3.424 2.402 5.674.031.252.063.512.098.78.095.719-.01 1.299-.314 1.74-.86 1.249-3.113 3.364-4.691 2.105-1.632-1.304.397-2.625 1.454-3.314l.086-.056a.48.48 0 0 0 .219-.38c.114-2.05-.636-3.704-2.248-4.961-1.546-1.207-2.991-2.061-4.335-2.562-1.359-.507-2.33-1.061-2.913-1.663-.133-.14-.287-.168-.461-.086-1.784.868-3.049 1.442-3.797 1.721-1.955.731-6.628 2.4-14.02 5.004a34.948 34.948 0 0 1-3.707 1.074c-1.784.412-3.043.738-3.778.979-1.638.539-3.078.841-4.32.908-3.52.193-6.356.134-8.507-.176-6.577-.951-12.729-2.451-18.454-4.501-.595-.214-1.224-.368-1.853-.522-1.079-.264-2.155-.527-3.047-1.089a1.026 1.026 0 0 1-.323-.332c-.083-.136-.162-.271-.24-.405-.29-.495-.575-.983-1.057-1.492a117.501 117.501 0 0 0-2.861-2.884 35.552 35.552 0 0 1-2.761-3.099c-2.285-2.855-5.019-5.662-8.203-8.421-1.569-1.36-3.736-2.597-6.502-3.712-5.756-2.32-9.403-3.734-10.94-4.244-.567-.187-1.039-.276-1.416-.266-.4.012-.566.215-.499.608.507 3.01 1.001 5.147 1.483 6.411.088.241.1.474.033.699-.06.209-.138.396-.214.578-.143.344-.279.673-.285 1.104-.044 3.251-.05 5.104-.014 5.561.04.582.22 1.273.537 2.072.144.359.207.739.27 1.114.112.667.222 1.321.775 1.832.133.124.27.246.406.367.66.586 1.31 1.163 1.467 1.967.07.358.178.692.288 1.032.208.645.423 1.309.4 2.19a107.054 107.054 0 0 0-.023 3.346c.016 1.251.227 2.266.632 3.046a9.055 9.055 0 0 0 1.987 2.528c.225.203.912 1.165 2.062 2.885.352.529.808 1.364 1.37 2.504.42.85.873 1.688 1.358 2.515.295.503.772.871 1.252 1.242.286.222.574.444.825.697a6403.205 6403.205 0 0 0 12.361 12.327c.818.813 1.992 1.621 3.009 2.286.37.241.93.748 1.677 1.521.65.671 1.467 1.035 2.279 1.397.837.374 1.67.745 2.312 1.45a45.733 45.733 0 0 0 5.328 5.023 47.943 47.943 0 0 1 4.795 4.358c.767.805 2.017 2.074 3.75 3.807a27.377 27.377 0 0 0 3.507 2.97 57.263 57.263 0 0 0 7.908 4.696c1.046.513 2.609.979 4.691 1.397.732.149 1.509.461 2.333.936.802.466 2.107.929 3.916 1.388.371.092.883.097 1.535.014.396-.05.914-.054 1.554-.009 1.426.095 2.201.142 2.324.142 4.632.026 9.264.034 13.897.024 1.05 0 1.492.223 1.805 1.169.08.241.219.285.419.133 1.09-.827 2.251-1.403 3.483-1.73a7.652 7.652 0 0 0 1.64-.622c.805-.428 1.338-.685 1.601-.77 2.19-.71 4.354-1.877 6.492-3.503 1.002-.757 1.776-1.223 2.324-1.397.9-.285 1.784-.54 2.652-.765.507-.133.933-.455 1.279-.965a35.133 35.133 0 0 0 2.309-3.944c.746-1.474 1.464-2.648 2.567-3.546a332.363 332.363 0 0 1 3.151-2.547c.497-.342.961-.897 1.392-1.663.526-.935 1.497-1.871 2.913-2.809.216-.143.485-.542.808-1.198.184-.37.27-.831.257-1.383-.06-2.395.195-4.724.765-6.986.238-.947.377-1.589.418-1.925.159-1.235.243-1.894.252-1.977.079-.887.425-1.799 1.036-2.737.913-1.4 2.112-2.722 3.598-3.964.321-.269.552-.63.66-1.036.716-2.734 1.916-5.288 3.598-7.661.341-.482.847-.968 1.262-1.365.169-.162.323-.309.444-.436a.763.763 0 0 0 .209-.409c.053-.29.06-.6.066-.909.008-.377.016-.754.11-1.091.594-2.153 2.718-5.047 4.235-6.312a.5.5 0 0 0 .18-.423 5.155 5.155 0 0 1 .936-3.445c.247-.357.247-.889.019-1.279a.303.303 0 0 1-.029-.189.685.685 0 0 1 .082-.243zm-6.64-13.141c-.348-.003-.397.117-.147.361.58.561 1.035 1.09 1.364 1.588.674 1.023.365 3.331.122 5.148-.088.656-.167 1.247-.188 1.691-.014.294-.022.62-.03.965-.032 1.39-.071 3.078-.588 4.11-.26.52-.791.767-1.592.742-3.549-.121-6.706-.922-9.472-2.405-.984-.528-2.98-.613-4.163-.57-2.687.095-5.369-.257-8.046-1.056-.545-.164-.814-.514-.808-1.05a.59.59 0 0 1 .18-.432l.827-.827c.089-.089.094-.182.015-.281-.352-.424-.542-.719-.571-.884-.836-4.576 2.994-6.99 6.958-7.285.323-.022 1.269-.083 2.837-.181 1.071-.063 1.99-.242 2.757-.537 1.226-.475 3.203-1.212 4.538-1.397 2.643-.364 5.524-.432 8.645-.204.292.021.57.168.785.415.214.247.35.578.384.934a.136.136 0 0 1-.009.048c-.358.76-.788 1.139-1.288 1.136l-2.51-.029zm-20.435 8.06c-.225.21-.187.343.114.4 2.363.459 4.825.633 7.385.522a7.216 7.216 0 0 1 1.835.162c.228.051.259-.006.095-.171l-.281-.276a.64.64 0 0 1-.171-.337 35.484 35.484 0 0 1-.489-5.803.344.344 0 0 0-.103-.245.356.356 0 0 0-.249-.102c-1.819 0-3.694.274-5.627.822-1.217.342-2.07 1.171-2.562 2.486a.406.406 0 0 0 .1.428c.732.693.716 1.398-.047 2.114zm16.382 2.053c-.818.032-2.046.029-3.684-.009-.687-.016-.709.1-.066.347a33.49 33.49 0 0 0 5.375 1.525c.519.105.795-.125.827-.689l.237-4.106c0-.009-.012-.024-.038-.043l-.118-.08c-.064-.048-.1-.032-.11.047l-.021.147c-.182 1.304-.249 1.783-1.138 2.572-.194.167-.615.264-1.264.289zM169.611 120a.835.835 0 0 1-.07-.312.842.842 0 0 1 .055-.314.834.834 0 0 1 .433-.453l.552-.247c.49-.216 1.081-.149 1.643.186.562.335 1.05.911 1.355 1.601l.2.442c.152.342.254.702.301 1.059a3.13 3.13 0 0 1-.026 1.022c-.065.318-.183.6-.35.83-.166.23-.376.403-.619.511l-.551.242a.82.82 0 0 1-1.079-.413L169.611 120zM146.2 130.18c-.792-.729-1.292-1.288-1.501-1.678a.451.451 0 0 1-.015-.411.461.461 0 0 1 .319-.259l3.521-.77c.957-.209 1.372-.798 1.246-1.768l-.024-.166c-.13-.979-.674-1.388-1.63-1.226-1.572.26-2.806.526-3.703.798-1.701.513-3.578 1.15-3.274 3.398.231 1.717 1.137 3.14 2.718 4.268.394.28.853.432 1.293.427.439-.004.83-.164 1.098-.451l.109-.119c.634-.681.582-1.362-.157-2.043zm-64.034-2.443a1.655 1.655 0 0 0-.433-.133c-.49-.066-.88-.352-1.155-.76-.542-.799.39-1.687 1.103-1.801.494-.076 1.346-.099 2.557-.067a.577.577 0 0 0 .446-.176l.59-.589c.168-.168.337-.168.508 0l.556.556c.12.12.266.182.437.185 3.245.026 6.719.027 10.423.005.7-.003 1.508.082 2.423.257.65.123 1.372.456 2.168.998.579.396 1.688 1.061 3.326 1.996.571.329.948.511 1.131.546.609.124.937.195 1.559.575.78.476 2.524 1.348 5.233 2.619 1.232.58 2.225 1.18 2.979 1.801.536.441.422 1.065-.342 1.873-.332.348-.679.351-1.041.009-.034-.032-.122-.057-.261-.076-.174-.019-.233.056-.176.223.447 1.28.466 2.421.057 3.422-.304.742-.979 1.008-1.801 1.084-2.633.25-4.968.402-7.005.456-3.745.101-6.082.17-7.01.204-3.273.127-6.058.194-8.355.2-1.023.003-1.872-.173-2.547-.528-.797-.418-1.628-1.354-2.37-2.189a32.206 32.206 0 0 0-.629-.695c-.494-.527-1.069-.91-1.64-1.29-.491-.326-.979-.65-1.411-1.063-.602-.57-.931-1.136-.989-1.696-.152-1.55-.023-2.63.385-3.242.678-1.017 1.147-1.806 1.407-2.366.073-.152.032-.265-.124-.338zm9.077 8.35c-.083-1.996.188-4.126.812-6.392.28-1.017.875-1.24 1.816-1.592.13-.051.192-.136.185-.256a.214.214 0 0 0-.214-.205h-7.941a.443.443 0 0 0-.418.3c-.44 1.232-1.092 2.461-1.953 3.688-.618.88-.55 1.566.204 2.057a26.048 26.048 0 0 1 2.913 2.167c.343.299.582.654.817 1.002.425.631.834 1.237 1.811 1.436 1.22.254 2.459.281 3.717.081.149-.022.17-.085.066-.19l-1.587-1.587a.75.75 0 0 1-.228-.509zm19.271-2.271c-.526-.32-1.251-.574-2.177-.761-.183-.038-.267.038-.251.228.117 1.366-.111 2.823-.685 4.373a.335.335 0 0 0 .049.32.333.333 0 0 0 .298.126l3.911-.404c.146-.015.208-.096.186-.242-.149-1.004.142-1.784.874-2.338a.33.33 0 0 0 .116-.157.332.332 0 0 0 .011-.195.36.36 0 0 0-.098-.171.358.358 0 0 0-.176-.09 161.92 161.92 0 0 1-1.079-.209c-.181-.035-.507-.195-.979-.48zm31.937 10.421c.383.415.689.812.917 1.189 2.3 1.321 4.767 1.889 7.4 1.706 5.493-.377 10.45-1.054 14.87-2.03 1.825-.402 3.072-.782 3.74-1.14 2.075-1.115 6.464-3.47 13.165-7.062 1.524-.818 2.241-2.107 2.152-3.869-.025-.456-.286-.952-.784-1.487-1.023-1.103-2.151-1.951-3.383-2.543a.97.97 0 0 0-1.098.176c-.922.898-1.92 1.497-3.251 1.844-1.495.389-2.595.646-3.298.77-.976.174-2.039.515-3.189 1.021-1.141.504-2.753.981-4.838 1.431a.464.464 0 0 1-.433-.119 2.245 2.245 0 0 0-.347-.275c-.117-.08-.346-.078-.689.004a686.474 686.474 0 0 0-10.707 2.69c-.484.124-1.358-.003-2.175-.122-.498-.073-.975-.142-1.328-.149-3.07-.069-6.937-.125-11.6-.166-.574-.003-1.019.139-1.336.428a.715.715 0 0 0-.223.389c-.152.704-.496 1.157-1.031 1.36-.774.294-1.197.476-1.269.546-.748.719-.615 1.763.399 3.132.413-1.202 1.782-1.82 2.485-.532.238.437.449.779.632 1.026l2.182.832a5.58 5.58 0 0 1 1.796.176c.46.123.873.382 1.241.774zm-13.616-10.099a.652.652 0 0 1 .827-.404l.394.138c.461.159.787.65.905 1.365.119.715.021 1.595-.273 2.447l-.465 1.345c-.293.851-.757 1.605-1.29 2.096-.532.491-1.091.679-1.552.522l-.395-.137a.655.655 0 0 1-.404-.827l2.253-6.545zm-64.971 25.45c-.067.868-.971 2.424-2.714 4.667a.875.875 0 0 0-.176.61.991.991 0 0 0 .276.602c.003.003.01.011.019.024.272.345.592.34.96-.014 1.904-1.829 2.97-3.837 3.198-6.027.406-3.906.563-8.134.47-12.684-.03-1.524-.194-2.655-.489-3.393-.488-1.233-.84-2.373-1.06-3.422-.107-.526-.427-.753-.96-.68l-.076.012-.016.002-.063.01-.03.005c-.529.085-.724.385-.584.898.294 1.068.598 2.009.912 2.823.703 1.825.927 3.755.903 5.375-.05 3.184-.24 6.915-.57 11.192zm38.11 5.299c-1.497-1.093-6.487-4.938-4.4-6.71.86-.732 1.482-.21 2.028.603.792 1.182 1.806 2.235 3.042 3.161 2.43 1.821 4.566 3.301 6.406 4.438 1.432.884 3.731 2.039 6.896 3.465.333.149 3.43 1.67 9.291 4.562 1.8.891 4.493 1.679 8.079 2.367.672.13 3.048.413 7.129.851 2.361.253 4.856.356 7.485.309.792-.016 1.252.386 1.379 1.207v.052c-.007.779-.379 1.194-1.117 1.245-2.852.193-5.043.206-6.573.038-2.972-.329-5.421-.559-7.347-.689-1.21-.08-2.409-.41-3.535-.72h-.001c-.545-.15-1.074-.296-1.578-.406-1.188-.257-2.21-.571-3.065-.941-.739-.317-1.714-.783-2.928-1.397-.133-.067-2.02-.997-5.66-2.79-.016-.01-1.518-.677-4.505-2.001a45.666 45.666 0 0 1-7.229-4.021c-2.059-1.406-3.325-2.281-3.797-2.623zM45.63 198.74c-.314.42-.613.821-.995 1.159a.66.66 0 0 1-.432.166c-1.328.019-2.164.032-2.51.038-.456.01-.78.098-.974.266-.637.561-.912 1.198-.218 1.882.282.279.602.436.96.471.478.044 1.48.046 3.003.004.688-.019 1.26-.194 1.716-.527.82-.601 1.51-1.503 2.158-2.349.38-.497.747-.976 1.116-1.363 1.165-1.212 2.167-2.547 2.624-3.607 1.32-3.07 2.989-6.078 6.03-7.746 1.277-.701 3.332-1.447 6.164-2.239.444-.123.842-.494 1.193-1.112a.568.568 0 0 0 .057-.442c-.272-1.017-.936-1.399-1.99-1.145-.802.19-2.72.863-5.751 2.02-1.331.51-2.355 1.116-3.07 1.82-1.154 1.128-2.14 2.248-2.956 3.36-.422.576-.888 1.4-1.398 2.471l-.031.066c-1.088 2.293-1.741 3.669-3.723 5.637-.386.384-.686.785-.973 1.17zm85.206 2.423c-1.968-.206-3.579-.984-4.834-2.334-1.045-1.121-1.701-1.959-1.967-2.514-.187-.383-.666-1.671-1.435-3.864a4.548 4.548 0 0 0-.566-1.15.703.703 0 0 1-.043-.755c.254-.463.601-.593 1.041-.39.184.082.442.342.775.779.19.251.334.552.432.903.602 2.18 1.077 3.541 1.426 4.083a9.189 9.189 0 0 0 2.79 2.813c.551.355 1.24.586 2.067.694.51.063.835.344.974.841a.583.583 0 0 1 .038.224c-.05.491-.283.714-.698.67zm-34.522 16.12c.275.281.589.376.983.285a.535.535 0 0 1 .442.091c.252.177.533.287.82.4.522.205 1.066.418 1.504 1.059.146.212.219.546.219 1.002.003 1.16.513 2.167 1.53 3.023a.6.6 0 0 0 .39.142h10.056a.56.56 0 0 0 .537-.399c.415-1.362 1.127-2.777 2.134-4.244 1.264-1.834 2.505-2.262 4.724-2.385 1.404-.08 3.365-.103 5.884-.072.335.003.572-.153.708-.47l.076-.171a.605.605 0 0 0 .048-.272.575.575 0 0 0-.263-.451.53.53 0 0 0-.251-.076c-2.573-.101-4.827-.106-6.763-.014-2.252.105-4.014 1.001-5.284 2.69a22.487 22.487 0 0 0-2.443 4.13.392.392 0 0 1-.38.242l-7.975-.033a.463.463 0 0 1-.213-.055.603.603 0 0 1-.186-.154c-.38-.461-.799-1.003-.827-1.763-.048-1.249-.696-2.256-1.944-3.023-.46-.281-1.02-.25-1.488-.223l-.184.01c-.051.002-.1.004-.148.004a.467.467 0 0 1-.38-.181c-1.242-1.511-2.918-2.555-5.028-3.131-1.82-.499-5.618-1.008-7.362.47-.32.269-.361.577-.124.922.07.105.122.169.157.195.393.285.748.298 1.065.038.39-.323.88-.493 1.473-.509 3.436-.085 6.021.395 8.493 2.923z" fill="#010101"/></g><defs><clipPath id="a"><path fill="#fff" d="M0 0h240v240H0z"/></clipPath></defs></svg>
