
<svg xmlns="http://www.w3.org/2000/svg" viewBox="0 0 500 500">
  <path fill="#82BE3F" d="M236.403 140.623h1c1.067 20.459 3.404 40.832 7 61l1 5 2 11 3-1h3v1c-3 21 2 42 15 59 6.627 8.161 14.778 14.954 24 20l1 1 15 7h1c27.293 9.292 57.474 3.179 79-16l2-1c24-21 34-50 40-80l3.004 5v1l1 2v1c.99 2.671 1.99 5.337 3 8v1l1 2c7-12 12-25 13-39l2-2c2.06 3.298 4.06 6.632 6 10 4 7 5 12 5 20s2 16 4 24c1.78 8.558 2.79 17.261 3 26v25l-4 27-4 25v1c-1.4 14.3-1.4 28.701 0 43v1l1 8 5 2c9 2 16 7 20 15 3 6 3 14 1 21-3 8-9 13-17 17s-18 6-27 7h-1l-12 1c.83-3.969 1.5-7.973 2-12v-4l1-5 1-5v-2c1.97-15.718 4.3-31.389 7-47-7 14-10 29-12.004 45v1l-2 11c-6 34-6 34-14 41-10 6-22 9-34 10l-2 1c-7.32.613-14.679.613-22 0-12 0-31 0-40-8-3.453-5.138-5.834-10.92-7-17l-1-6c-2 2-4 5-4 8l1 9c-29 7-82 14-110 0l1-1 1-6v-1c1-3-2-6-4-9l-3 9-3 9v1c-2 4-5 6-9 7l-15 4-1 1c-7.648.756-15.352.756-23 0l-21-1h-2c-5.786-1.23-11.469-2.902-17-5h-1c-4-1-9-3-12-7l-1-1c-6-6-8-14-9-23-2.167-11.034-4.501-22.035-7-33v-1c-1.914-9.648-4.934-19.043-9-28l-1-2v-1c2.998 21.775 6.666 43.452 11 65v3c-16 1-38-3-50-14l-1-1c-5-4-8-10-8-16-1-8 1-15 6-21 6-6 12-9 20-10l2-2c.448-2.315.782-4.651 1-7 4-25 1-49-5-73-6-21-8-39-2-60l3-13 1-1 2-19c0-9 1-15 6-23l3-4 1-1h1v2c5.355 13.032 13.163 24.914 23 35 6 7 13 11 21 15v-1l-1-1v-2l-1-15v-4l2-20v-3l1-1v-1h1v1l1 5v2l2 10 2-2-1 8c-2.338 21.473 4.571 42.927 19 59l1 1c9 11 22 18 36 22h1c11 3 24 3 35 0l1-1c10-2 19-7 27-14l1-1c11-9 18-21 22-34v-1c2-6 3-12 3-19v-1c-1.129-20.744-10.487-40.18-26-54v-7c3-11 7-20 13-30l1-1v-1Z"></path>
  <path fill="#F6F7FD" d="M117.403 34.623C130.388 24.319 189.285 7.77 251.071 8.348c62.023.58 126.952 18.338 148.332 34.275 8.577 5.942 16.609 12.635 24 20l1 1 7 7 1 1c11.004 13 19.004 26 26.004 41l1 1c3.5 7.116 6.51 14.467 9 22 6 17 9 35 11 53v1c.48 6.992.48 14.009 0 21l1 1v1c-.68 1.33-1.35 2.663-2 4l-11-19c-6-9-11-19-18-27v1c-2 15-4 28-10 42h-1v-1c-2-9-6.004-18-10.004-26l-1-3h-1v2c-1 14-8 28-15 40h-1v-1c-2.213-26.017-10.799-51.088-25-73l10 28h-1l-4-2h-1c-9-6-17-12-25-20l-1-1-19-23c1 15 7 31 13 45l1 1 2 4c-13-3-24-14-31-25-5-8-9-17-11-26v-2l-1 1c-7 18-16 34-29 48l-1 1c-6.744 8.241-14.467 15.629-23 22l-3 2h-1c-6 5-6 5-8 5-4.839-29.787-7.845-59.844-9-90l-8 11-1 1c-2.843 4.564-5.511 9.234-8 14-10 17-13 36-13 55-15-12-21-31-23-50v-9l-2 3-1 1-5 7-19 26-2 1c-4 6-10 11-16 15h-1v-2l-2-28v-1l-1-8-1 1c-7 13-14 26-23 37l-1 1-12 12-2-12-2-15-5 9-1 1c-4 13-6 26-6 39v7l-8-6-1-1c-9-9-16-21-20-32l-7-11h-3l-1 2-1 1v1c-6.943 11.908-14.281 23.581-22 35h-1l-1-23v-2c0-15 2-30 5-45l1-2c2-12 7-25 12-37l1-1 3-7 1-1c10.132-20.13 44-53 44-53l27-19Z"></path>
  <path fill="#82BE40" d="M236.403 140.623h1c1.067 20.459 3.404 40.832 7 61l1 5 2 11 3-1h3v1c-3 21 2 42 15 59 6.627 8.161 14.778 14.954 24 20l1 1 15 7h1c27.293 9.292 57.474 3.179 79-16l2-1c24-21 34-50 40-80l3.004 5v1l1 2v1c.99 2.671 1.99 5.337 3 8v1l1 2c7-12 12-25 13-39l2-2c2.06 3.298 4.06 6.632 6 10 4 7 5 12 5 20s2 16 4 24c1.78 8.558 2.79 17.261 3 26v25l-5 30-1 5-1 10h-1v-3h-1v-3l-3 1 3-8c6-14 8-37 2-52-1-3-3-6-6-8v1c-3 17-15 32-28.004 42l-4 3-9 7-1 1c-39.481 28.733-86.28 45.719-135 49-12.599 1.613-25.301 2.281-38 2-42.425-.404-84.306-9.597-123-27h-2c-14.644-7.2-28.689-15.56-42-25-29-20-29-20-33-35v-3l-3 3v-1l1-7c-1-7 0-13 1-20l1-3 1-3 3-19 4-21 1 2 1 2c5 17 18 30 34 39v-6l-1-3 6 3 1 1 3 1v-1l-1-1v-2l-1-15v-4l2-20v-3l1-1v-1h1v1l1 5v2l2 10 2-2-1 8c-2.338 21.473 4.571 42.927 19 59l1 1c9 11 22 18 36 22h1c11 3 24 3 35 0l1-1c10-2 19-7 27-14l1-1c11-9 18-21 22-34v-1c2-6 3-12 3-19v-1c-1.129-20.744-10.487-40.18-26-54v-7c3-11 7-20 13-30l1-1v-1Z"></path>
  <path fill="#FEFEFE" d="M184.403 159.623h1l1 2c1 15 7 30 19 41l12 7v-1l2-23 2 1 1 1c.657.677 1.324 1.344 2 2l1 2c13 14 18 31 17 50-4.582 34.389-34.317 59.814-69 59-13.769-.82-26.989-5.691-38-14-21.387-16.889-31.76-44.167-27-71l1-1c0-5 2-7 6-9 9-9 16-20 21-31h1c1.078 7.291 1.746 14.635 2 22v8l4-2 1-1c15-10 32-25 40-42Z"></path>
  <path fill="#020302" d="M458.407 263.623c4 2 5 5 7 9 2 6 2 13 2 20v1c0 14-1 31-11 41-3 3-7 3-12 3-5.01-.587-10.02-1.254-15.004-2h-1c-10-3-10-3-14-6h-2c-1.729.891-3.4 1.893-5 3l-1 1-10 6h-1l-6 3c-3 1-3 1-5 4l-2 7-3 6v2c-12 27-12 27-23 32-4 1-7 1-11-1l-12-8-8-5-3-3-2-1-3-2-1-1-2-1-1-1h-1l-4-1-2 1h-1l-5 1h-4l-3 1-28 2h-1c-20.684 1.258-41.44.589-62-2h-1l-5 1-2 1-1 1c-1.698 1.635-3.365 3.302-5 5l-1 1c-3.184 2.848-6.523 5.518-10 8-5 5-13 11-21 11-7-1-11-6-15-11-8-10-13-22-17-34v-1l-1-2-3-3h-1l-2-1-5-3h-1l-11-6-1-1h-1l-4-1-3 1v1c-2.687 1.293-5.353 2.626-8 4-8 4-17 9-26 8l-3-2-2-1c-11-9-13-29-15-43v-3l-1-7v-2c0-4 1-8 3-11l1-2 2-2h1l1 1c1.465 7.448 4.921 14.36 10 20 11 11 26 19 39 27l2 1c29 18 60 30 93 36h2l26 3h1l3 1h17c17.339-.52 34.673-1.187 52-2h2c37-5 73-15 105-35l2-1c13.299-7.984 25.703-17.371 37.004-28 12-10 19-22 23-38Z"></path>
  <path fill="#51973C" d="M51.403 194.623h1v2c5.355 13.032 13.163 24.914 23 35l8 7 5 4-1 3v6c-12-7-21-15-28-27h-1c-3-6-6-11-7-17l-4 21-3 19v1l-2 9c-.867 3.599-1.204 7.305-1 11v11l-1 1c-4 9-4 19-2 29l1 4c3 18 3 18 12 33 3.076 15.56 7.083 30.921 12 46l1 1v4c-2-1-2-2-2-3l-1-2v-1c2.998 21.775 6.666 43.452 11 65v3c-16 1-38-3-50-14l-1-1c-5-4-8-10-8-16-1-8 1-15 6-21 6-6 12-9 20-10l2-2c.448-2.315.782-4.651 1-7 4-25 1-49-5-73-6-21-8-39-2-60l3-13 1-1 2-19c0-9 1-15 6-23l3-4 1-1Z"></path>
  <path fill="#51973B" d="m308.403 463.623-1 4c-2 4-1 8 0 12-29 7-82 14-110 0l1-1v-11l-1-2v-1h2c3.63.856 7.302 1.524 11 2l14 2h2c26.377 2.937 53.055 1.586 79-4l3-1Z"></path>
  <path fill="#FEFEFE" d="m130.403 354.623 7 2c17 6 34 10 52 13-3.838 4.802-8.198 9.162-13 13-5 6-12 12-20 12-5-1-9-6-12-10-6-9-12-20-14-30Z"></path>
  <path fill="#D8E0DD" d="m43.403 294.623 2 3c6.086 7.922 13.536 14.695 22 20l18 12 5 3-4 3h-1l-2 1-1 1c-16 9-16 9-24 8-5-2-7-7-9-11-4-11-5-22-6-34v-6Z"></path>
  <path fill="#FDFDFD" d="M376.403 349.623c-2 13-10 29-20 38l-5 1c-6-2-11-6-16-10-5.254-3.78-10.589-7.447-16-11l5-2h3c16-4 32-9 48-16h1Zm83.004-70c2 2 2 6 2 9v1c0 31 0 31-8 40-3 3-8 3-12 2-8 0-16.004-3-23.004-6l3-4c10.22-7.66 19.604-16.375 28.004-26l1-1 9-15Z"></path>
  <path fill="#ED325D" d="M309.403 209.623c4 3 6 8 7 12 1 7 0 13-4 19-3 3-5 5-10 6-3 0-6-2-9-4-4.132-3.858-6.331-9.356-6-15v-1c0-6 1-11 5-15 5-4 11-5 17-2Z"></path>
  <path fill="#52973C" d="m314.403 371.623 1 1 2 1 1 1 3 2c3.978 2.7 7.978 5.367 12 8 8 6 8 6 17 9l-6 1c-8-2-14-7-21-11-9-7-9-7-20-7-17 3-34 4-51 4h-2l-42-2h-1l-13-2 2-4c4-2 10 0 13 0 32 4 68 4 99-3 3-1 4 0 6 2Z"></path>
  <path fill="#C4C9D4" d="m58.403 160.623 1 1c.769 1.28 1.438 2.618 2 4 2.317 7.581 4.319 15.254 6 23v1l14 38 1 2v1l-1-1-2-2-1-1-3-2-2-3-1-1c-5-7-10-16-13-24l-7-11h-3l-1 2-1 1v1l-1 2c-4.251 6.513-8.254 13.185-12 20v-4l1-2v-1l1-2c5-15 11-31 22-42Z"></path>
  <path fill="#52973C" d="M489.407 434.623c0 4-3 7-5 10-10 9-25 12-38 14h-1l-12 1v-1l2-13v-2l1-5 8 2c15 4 30 0 43-5l2-1Z"></path>
  <path fill="#010101" d="M227.403 211.623c3 2 5 6 7 9 1 5 0 11-2 16-2 3-4 5-7 6-3 0-6 0-9-2l-1-1c-4-4-5-8-5-13s2-10 5-13c4-3 7-3 12-2Z"></path>
  <path fill="#DAE1DE" d="m130.403 354.623 7 2c17 6 34 10 52 13l-3 4-1 1h-4l-8-1c-10-2-20-5-29-9v9l1 1c2 8 6 14 12 19h-3c-13-8-21-25-24-39Z"></path>
  <path fill="#FDFDFD" d="m55.403 315.623 8 5 14 8 1 1 3 2h2l1 1 2 2v1l-16 8h-1l-4 1c-6-5-8-14-9-21l-1-8Z"></path>
  <path fill="#DAE1DE" d="M136.403 174.623h1l1 7v2l-1 3-4 3-8 9-1 1-2 4-1 1c-7 11-10 25-12 38-2-9-2-18-1-27l1-1c0-5 2-7 6-9 9-9 16-20 21-31Z"></path>
  <path fill="#D9E0DD" d="m375.403 350.623-1 4h-1l-4 1-2 1-1 1-26 11h-2l-3 1-1 1h-4l7 9-4-2-2-2h-1l-4-3-1-1-2-1-1-1-1-1-2-1c18.543-3.773 36.641-9.47 54-17h2Z"></path>
  <path fill="#D8E0DC" d="M428.403 316.623c2.629 1.728 5.294 3.395 8.004 5l1 1 8 3 1 1 7 1 1 1c-5 4-9 4-14 3-8.004-1-15.004-4-22.004-6l4-4 1-1 4-3 1-1Z"></path>
  <path fill="#54983D" d="m97.403 337.623 4 2c7.503 4.618 15.175 8.955 23 13v5l-35-17c5-4 5-4 8-3Z"></path>
  <path fill="#D9E0DE" d="M184.403 159.623h1l1 2c1 12 5 25 13 35l-1 1c-8-6-15-15-18-25v-3l-3 3-1-1v-1l6-7v-1l2-3Z"></path>
  <path fill="#52963C" d="M452.407 186.623c1.7 1.727 3.06 3.763 4 6 2.03 3.314 4.03 6.648 6 10v1l1 4v3l1 4c-.04 3.334-.04 6.667 0 10h-1l-1-4c-.83-4.473-2.17-8.835-4-13-.35-1.997-.68-3.998-1-6l-1-3-3-7v1c-4 19-4 19-7 22v-5l1-2 4-15 1-6Z"></path>
  <path fill="#54993D" d="m413.403 329.623 3 1-9 7h-1l-4 3-1 1-12 5-1 1h-1l-1 1h-3l2-4c1.925-1.144 3.93-2.147 6-3 2.69-1.287 5.357-2.62 8-4l1-1 6-4 1-1 2-1c2-1 2-2 4-1Z"></path>
  <path fill="#529839" d="m430.403 207.623 3.004 5v1l1 2v1c.67 1.998 1.34 3.998 2 6l1 2v1c1 3 0 4-1 7l-1 1-1 1-2.004-2v-1c-4-13-4-13-3-20l1-1v-3Z"></path>
  <path fill="#53973D" d="M421.403 332.623c1.002.33 2.002.664 3 1h1c7 3 14.004 4 22.004 4-3 3-7 3-12 3l-8.004-3-2-1-6-4h2Z"></path>
  <path fill="#5D994C" d="m37.403 302.623 1 4v4l7 27v3l-1-3v-2l-2-4-1 1-3-11-1-5-1-5-1-2c-.346-2.331-.679-4.665-1-7l1 2 1-1v7h1v-8Z"></path>
  <path fill="#4E9634" d="M446.407 338.623c-2 2-5 2-7 2h-2l-6.004-1v-1h15.004Z"></path>
  <path fill="#4A9033" d="m453.407 188.623 3 4 1 3h-1l1 3-2-2-1-2v-2l-1-4Z"></path>
  <path fill="#619B4C" d="M435.407 337.623h12l-2 1h-10v-1Z"></path>
  <path fill="#83C050" d="m41.403 270.623 1 7h2v3l-1-2-3 3v-1l1-3v-7Z"></path>
  <path fill="#87C44E" d="m52.403 348.623 2 1v2c.338.999.671 1.999 1 3v4l-1-3-1-1v-3l-1-3Z"></path>
  <path fill="#599C42" d="m43.403 337.623 2 2-1 1-1 3-1-5 1-1Z"></path>
  <path fill="#D2D8D6" d="M151.403 390.623h2l4 3-1 1-3-2-1-1-1-1Z"></path>
  <path fill="#5D9F42" d="m384.403 344.623 1 1h3l-2 1v2h-2v-4Z"></path>
  <path fill="#559243" d="m40.403 323.623 2 5-1 1-2-4 1-2Z"></path>
  <path fill="#BDC2CD" d="m58.403 160.623 1 1v1h-1l-2 2-1 1 1-3 1-1 1-1Z"></path>
  <path fill="#63A152" d="m37.403 314.623 1 1h1v4h-1l-1-5Z"></path>
  <path fill="#E1E6E4" d="m87.403 331.623 3 1-4 2v-1c.336-.665.67-1.332 1-2Z"></path>
  <path fill="#8EC553" d="M406.403 323.623h1l-4 2v-1l3-1Z"></path>
  <path fill="#EDEEEF" d="m53.403 94.623 1 2-2 1 1-3Zm-2 3 1 2h-2l1-2Zm-1 2v2-2Z"></path>
  <path fill="#D3D8D6" d="m335.403 364.623-5 2-2-1 7-1Z"></path>
  <path fill="#90C753" d="m318.403 360.623-4 1-1-1h5Z"></path>
  <path fill="#8CC74C" d="m332.403 355.623 2 1-3 1h-2v-1h3v-1Z"></path>
  <path fill="#E4E8E7" d="m332.403 375.623 4 3v1l-2-1-1-1-1-2Z"></path>
  <path fill="#EEF1F0" d="M420.403 322.623v3h1l2 1-5-1 2-3Z"></path>
  <path fill="#51923F" d="M36.403 300.623h1v4h-2l1-4Z"></path>
  <path fill="#8EC453" d="M383.403 348.623h3l-1 1-1 2v-1h-1c.002-.666.002-1.333 0-2Z"></path>
  <path fill="#F2F5F4" d="m428.403 315.623 2 1-1 1h-1l-2 1 2-3Z"></path>
  <path fill="#7BBB33" d="M466.407 310.623h1v4h-1v-4Z"></path>
  <path fill="#619D52" d="m41.403 332.623 1 2h1v3h-1l-1-5Z"></path>
  <path fill="#5F9F4E" d="M39.403 320.623c2 2 1 3 1 5l-1-4v-1Z"></path>
</svg>