<svg xmlns="http://www.w3.org/2000/svg" viewBox="0 0 500 500">
  <path d="M 269.198 50.872 C 270.493 50.988 271.776 51.104 273.103 51.223 C 298.256 53.513 322.695 57.616 346.432 67.145 C 348.988 68.161 348.988 68.161 351.599 69.198 C 377.662 79.858 400.379 93.683 421.711 112.9 C 423.367 114.374 425.022 115.845 426.73 117.365 C 456.643 144.975 477.66 181.749 480.697 224.33 C 483.346 298.178 439.44 356.032 394.258 408.472 C 379.658 424.055 364.806 435.114 345.511 442.848 C 344.085 443.431 342.659 444.012 341.189 444.612 C 328.564 449.678 315.795 453.819 302.72 457.407 C 300.504 458.108 298.289 458.808 296.007 459.534 C 286.299 462.09 276.635 461.986 266.686 461.933 C 263.637 461.929 263.637 461.929 260.522 461.925 C 235.994 461.634 211.73 458.635 187.401 455.45 C 187.148 456.876 186.896 458.304 186.644 459.775 C 185.657 464.762 184.439 469.479 182.991 474.328 C 182.498 475.973 182.004 477.62 181.499 479.317 C 180.995 481.008 180.49 482.701 179.964 484.444 C 179.448 486.174 178.933 487.904 178.395 489.685 C 177.134 493.935 175.861 498.183 174.589 502.428 C 172.768 502.428 170.958 502.428 169.093 502.428 C 170.969 484.187 175.148 468.388 181.905 451.535 C 180.435 451.355 178.976 451.177 177.463 450.992 C 141.308 443.167 105.812 417.903 85.365 385.408 C 64.315 350.65 45.909 311.784 48.278 269.494 C 48.355 267.944 48.432 266.395 48.52 264.801 C 52.172 196.564 69.207 128.512 116.814 79.805 C 160.526 41.559 216.217 45.955 269.198 50.872 Z" fill="#FDFDFD" style="stroke-width: 1;"></path>
  <path d="M 269.198 50.872 C 270.493 50.988 271.776 51.104 273.103 51.223 C 298.256 53.513 322.695 57.616 346.432 67.145 C 348.988 68.161 348.988 68.161 351.599 69.198 C 377.662 79.858 400.379 93.683 421.711 112.9 C 423.367 114.374 425.022 115.845 426.73 117.365 C 456.643 144.975 477.66 181.749 480.697 224.33 C 483.346 298.178 439.44 356.032 394.258 408.472 C 379.658 424.055 364.806 435.114 345.511 442.848 C 344.085 443.431 342.659 444.012 341.189 444.612 C 328.564 449.678 315.795 453.819 302.72 457.407 C 300.504 458.108 298.289 458.808 296.007 459.534 C 286.299 462.09 276.635 461.986 266.686 461.933 C 263.637 461.929 263.637 461.929 260.522 461.925 C 235.994 461.634 211.73 458.635 187.401 455.45 C 187.148 456.876 186.896 458.304 186.644 459.775 C 185.657 464.762 184.439 469.479 182.991 474.328 C 182.498 475.973 182.004 477.62 181.499 479.317 C 180.995 481.008 180.49 482.701 179.964 484.444 C 179.448 486.174 178.933 487.904 178.395 489.685 C 177.134 493.935 175.861 498.183 174.589 502.428 C 172.768 502.428 170.958 502.428 169.093 502.428 C 170.969 484.187 175.148 468.388 181.905 451.535 C 180.435 451.355 178.976 451.177 177.463 450.992 C 141.308 443.167 105.812 417.903 85.365 385.408 C 64.315 350.65 45.909 311.784 48.278 269.494 C 48.355 267.944 48.432 266.395 48.52 264.801 C 52.172 196.564 69.207 128.512 116.814 79.805 C 160.526 41.559 216.217 45.955 269.198 50.872 Z M 145.18 68.857 C 143.963 69.53 142.734 70.206 141.473 70.901 C 118.053 84.454 103.925 104.621 90.378 128.558 C 89.029 130.87 87.669 133.182 86.308 135.495 C 59.873 181.584 48.958 249.653 56.626 303.259 C 59.982 317.429 66.191 330.742 72.07 343.876 C 72.751 345.417 73.431 346.957 74.133 348.545 C 83.851 370.281 94.075 387.936 110.518 404.557 C 112.108 406.28 112.108 406.28 113.732 408.035 C 152.08 446.882 216.524 457.136 266.96 456.364 C 302.292 454.792 346.345 442.057 374.119 418.259 C 375.523 417.077 376.927 415.896 378.375 414.681 C 389.443 404.776 398.207 393.184 407.07 381.067 C 408.628 378.989 410.185 376.91 411.743 374.835 C 456.92 316.827 456.92 316.827 473.643 246.144 C 473.653 242.152 473.719 238.165 473.788 234.176 C 474.113 194.538 459.243 163.473 433.802 135.676 C 432.227 133.973 430.653 132.27 429.033 130.517 C 427.267 128.416 427.267 128.416 425.463 126.273 C 381.896 75.648 310.267 58.863 248.806 55.919 C 237.947 55.492 227.098 55.329 216.228 55.277 C 214.045 55.259 214.045 55.259 211.807 55.24 C 188.487 55.115 166.274 57.181 145.18 68.857 Z" fill="#111111" style="stroke-width: 1;"></path>
  <path d="M 440.016 230.345 C 440.621 230.345 441.225 230.345 441.847 230.345 C 442.521 246.832 442.718 257.855 432.122 270.717 C 427.203 275.367 427.203 275.367 421.825 278.913 C 416.639 282.875 414.628 285.318 411.184 290.781 C 404.602 300.419 397.538 306.613 386.931 310.6 C 361.526 313.963 336.352 308.377 315.883 291.516 C 307.327 283.247 305.078 273.844 303.641 261.909 C 303.334 259.889 303.038 257.871 302.72 255.791 C 300.91 254.5 299.1 253.208 297.235 251.877 C 297.839 249.94 298.442 248.002 299.067 246.005 C 300.044 246.477 301.031 246.95 302.051 247.438 C 316.41 253.978 331.196 257.88 346.312 261.785 C 348.857 262.453 351.39 263.122 353.924 263.794 C 361.263 265.723 368.601 267.617 375.951 269.494 C 378.21 270.073 380.481 270.655 382.817 271.251 C 384.923 271.782 387.018 272.311 389.19 272.857 C 391.966 273.555 391.966 273.555 394.785 274.268 C 404.295 276.375 411.282 277.061 420.222 272.186 C 434.104 259.652 436.77 249.36 440.016 230.345 Z" fill="#121212" style="stroke-width: 1;"></path>
  <path d="M 271.6 200.984 C 274.463 203.063 274.463 203.063 277.096 206.856 C 277.326 219.452 272.039 228.914 264.284 238.175 C 257.801 243.168 251.285 245.568 243.563 247.61 C 236.005 250.2 230.488 253.823 224.005 258.604 C 206.476 271.432 192.403 275.501 170.925 273.409 C 159.1 270.745 149.678 265.04 142.01 254.95 C 137.535 244.75 138.895 233.491 139.805 222.515 C 137.392 221.223 134.968 219.932 132.478 218.601 C 132.478 217.955 132.478 217.309 132.478 216.643 C 153.232 217.358 173.064 222.578 193.236 227.409 C 198.403 228.639 203.569 229.864 208.736 231.079 C 211.928 231.829 215.12 232.588 218.301 233.36 C 236.148 238.135 236.148 238.135 253.874 235.973 C 264.163 228.293 268.628 219.209 270.92 206.244 C 271.26 203.64 271.26 203.64 271.6 200.984 Z" fill="#F8F8F8" style="stroke-width: 1;"></path>
  <path d="M 271.6 200.984 C 274.463 203.063 274.463 203.063 277.096 206.856 C 277.326 219.452 272.039 228.914 264.284 238.175 C 257.801 243.168 251.285 245.568 243.563 247.61 C 236.005 250.2 230.488 253.823 224.005 258.604 C 206.476 271.432 192.403 275.501 170.925 273.409 C 159.1 270.745 149.678 265.04 142.01 254.95 C 137.535 244.75 138.895 233.491 139.805 222.515 C 137.392 221.223 134.968 219.932 132.478 218.601 C 132.478 217.955 132.478 217.309 132.478 216.643 C 153.232 217.358 173.064 222.578 193.236 227.409 C 198.403 228.639 203.569 229.864 208.736 231.079 C 211.928 231.829 215.12 232.588 218.301 233.36 C 236.148 238.135 236.148 238.135 253.874 235.973 C 264.163 228.293 268.628 219.209 270.92 206.244 C 271.26 203.64 271.26 203.64 271.6 200.984 Z M 143.469 224.474 C 142.46 233.743 141.582 242.313 145.871 250.715 C 154.164 261.324 162.874 266.563 175.85 268.592 C 196.988 269.093 213.156 264.316 229.314 248.718 C 233.57 244.596 233.57 244.596 233.164 240.133 C 224.126 240.984 224.126 240.984 216.118 245.148 C 208.56 249.468 201.266 249.546 192.896 247.962 C 187.741 243.68 187.741 243.68 183.737 238.175 C 176.815 229.805 172.132 226.469 161.777 224.474 C 155.656 224.195 149.579 224.236 143.469 224.474 Z" fill="#161616" style="stroke-width: 1;"></path>
  <path d="M 310.048 259.707 C 342.681 262.566 342.681 262.566 349.986 271.704 C 351.785 274.828 353.529 277.988 355.219 281.176 C 357.544 285.711 357.544 285.711 363.128 288.211 C 374.349 289.961 379.154 289.486 388.861 282.852 C 395.443 279.871 402.09 281.677 408.902 283.196 C 404.569 294.145 396.957 300.03 386.931 304.728 C 364.883 308.8 341.65 303.884 322.86 291.026 C 316.508 285.367 310.826 279.831 309.269 270.878 C 309.247 266.558 309.247 266.558 310.048 259.707 Z" fill="#F9F9F9" style="stroke-width: 1;"></path>
  <path d="M 272.061 359.658 C 273.959 360.179 273.959 360.179 275.9 360.71 C 279.553 361.718 283.206 362.739 286.848 363.764 C 290.051 364.661 290.051 364.661 293.308 365.577 C 298.453 367.173 303.29 369.043 308.216 371.281 C 308.216 377.094 308.216 382.907 308.216 388.897 C 307.009 388.897 305.802 388.897 304.552 388.897 C 303.652 382.115 303.652 382.115 302.72 375.195 C 300.515 374.72 298.299 374.246 296.018 373.756 C 268.825 367.834 268.825 367.834 256.046 363.45 C 243.059 359.292 229.852 357.165 216.458 355.008 C 214.264 354.65 212.071 354.29 209.8 353.921 C 207.727 353.601 205.654 353.28 203.515 352.951 C 200.717 352.518 200.717 352.518 197.854 352.078 C 188.717 351.393 182.607 355.051 174.589 359.536 C 175.159 353.853 175.62 350.629 179.404 346.468 C 201.518 333.255 248.905 353.285 272.061 359.658 Z" fill="#131313" style="stroke-width: 1;"></path>
  <path d="M 170.925 224.474 C 184.658 225.581 197.865 228.051 211.314 231.201 C 213.222 231.626 215.131 232.052 217.094 232.488 C 219.815 233.119 219.815 233.119 222.59 233.763 C 224.224 234.139 225.859 234.517 227.548 234.906 C 229.424 235.553 229.424 235.553 231.332 236.217 C 232.243 238.155 232.243 238.155 233.164 240.133 C 229.588 241.534 226.012 242.935 222.436 244.336 C 218.498 245.913 218.498 245.913 214.933 248.107 C 207.88 251.527 200.443 251.2 192.896 249.92 C 187.971 245.761 187.971 245.761 183.737 240.133 C 180.348 237.006 176.881 234.002 173.404 230.995 C 172.581 230.133 171.77 229.274 170.925 228.388 C 170.925 227.096 170.925 225.804 170.925 224.474 Z" fill="#0C0C0C" style="stroke-width: 1;"></path>
  <path d="M 136.142 318.429 C 137.348 318.429 138.555 318.429 139.805 318.429 C 138.928 321.285 138.05 324.139 137.173 326.993 C 136.69 328.583 136.196 330.172 135.692 331.811 C 134.31 336.047 134.31 336.047 132.478 339.962 C 131.546 350.206 130.778 358.696 136.142 367.487 C 137.348 368.74 138.555 369.991 139.805 371.281 C 139.805 372.572 139.805 373.864 139.805 375.195 C 133.344 374.736 129.911 374.473 125.392 369.323 C 120.938 356.629 122.814 344.659 127.125 332.169 C 129.439 326.782 132.237 322.613 136.142 318.429 Z" fill="#141414" style="stroke-width: 1;"></path>
  <path d="M 342.999 365.408 C 344.206 365.408 345.412 365.408 346.663 365.408 C 350.568 373.042 351.061 379.536 349.943 387.98 C 345.182 403.811 331.799 415.316 319.196 424.131 C 317.989 423.486 316.783 422.839 315.543 422.174 C 320.852 412.289 327.434 405.8 335.628 398.546 C 339.412 394.695 341.343 392.203 342.999 386.94 C 342.977 381.912 342.977 381.912 342.198 376.785 C 341.792 373.655 341.43 370.514 341.167 367.366 C 341.77 366.72 342.374 366.073 342.999 365.408 Z" fill="#1A1A1A" style="stroke-width: 1;"></path>
  <path d="M 203.877 365.408 C 230.433 364.241 252.876 369.065 277.096 381.067 C 277.096 381.714 277.096 382.36 277.096 383.026 C 267.761 382.37 260.225 381.124 251.582 377.274 C 240.755 372.707 230.06 371.633 218.553 370.661 C 207.891 369.699 207.891 369.699 203.877 365.408 Z" fill="#1C1D1D" style="stroke-width: 1;"></path>
  <path d="M 203.877 365.408 C 207.913 365.3 211.961 365.227 215.997 365.163 C 218.246 365.119 220.506 365.071 222.82 365.024 C 229.402 365.403 234.382 366.772 240.492 369.323 C 240.492 369.969 240.492 370.615 240.492 371.281 C 227.614 371.742 216.348 370.866 203.877 367.366 C 203.877 366.72 203.877 366.073 203.877 365.408 Z" fill="#0F0F0F" style="stroke-width: 1;"></path>
</svg>  