<svg xmlns="http://www.w3.org/2000/svg" viewBox="0 0 500 500">
  <path fill="#FEFEFE" d="M165 70c33-26 63-22 85-28 71-20 66-6 81 3 12 7 47 10 106 148 27 61 46 131 28 218-5 27-18 55-30 85-176 0-173 6-350-5-25-13-3-45-16-62-35-48-40-118-24-186 10-43 29-86 60-120 18-21 34-41 60-53Z"></path>
  <path fill="#0B0B0B" d="M338 40a214 214 0 0 1 19 18l3 3 7 6c8 6 14 13 20 22l10 11 10 10 3 2c10 10 11 23 14 36 2 10 3 19 8 28l1 5 2 1c4 2 6 4 8 7l8 10c5 6 6 12 8 18l9 17c3 6 3 11 4 17v54l1 6v28l-1 6v10c0 10 0 10 4 18l4 4c3 19-3 36-12 54l-10 24c-5 14-10 27-18 40l-1 4h-8c1-9 3-16 6-24l2-7 1-4 4-10c9-30 9-30 18-40l1-7v-45c0-24-1-46-7-69l-2-22c0-5 0-5-3-9l-2-8c-1-6-3-10-7-15-3-6-4-12-5-19-4-24-18-46-31-67-8-13-8-13-9-21h-3v-3c5 1 7 2 10 5l5 9 3 5c1-5 0-7-2-11l-4-3c-5-7-8-13-10-21h-3v10l-5-1-3-10c-3-9-3-9-9-15-5-5-5-9-6-16-1-4-4-6-8-9l-3-2-20-13-6-5a88 88 0 0 0-60-11l-8 2-7 1-19 4-27 5c-7 1-11 4-16 10l-5 3-7 1c-13 1-21 7-31 14l-6 1-1 3c-6 10-12 19-21 27-6 5-9 9-12 16-3 8-7 12-14 16l-19 20-8 9-2 3-5 4-1 6v9c-1 15-3 29-10 43-4 8-3 16-3 25 0 10 0 19-3 29-4 18-2 37 5 54l4 14 8 25c5 11 8 21 9 32 1 10 5 19 12 26l8 11c7 10 18 14 29 19 9 4 18 8 24 15l1 6c-9 0-15-3-22-7l-4-2a232 232 0 0 1-14-8c-14-7-21-16-29-29 0 14 3 26 10 38 2 4 2 8 1 13l-5-2-5-7-3-3c-8-8-8-20-9-31-2-15-5-26-15-38-3-4-4-7-5-11-1-5-2-9-5-14-4-8-5-16-6-24l-1-5-3-30-2-8v-20l1-10v-15l2-65 3-2c2 5 2 8 2 13v9l1 5v12c3-2 3-8 3-12l9-27h-6c-4-12 1-21 6-33 5-11 5-22 6-33l6 3 1 6v7l2-3c6-9 13-16 21-24l17-19 8-7 7-10c5-10 11-16 19-24l6-6c10-10 19-14 33-16l6-1 5-1 26-7 11-3 3-1 10-3 3-1a882 882 0 0 1 16-5c25-7 58-8 80 7Z"></path>
  <path fill="#FCFCFC" d="M346 115c8 1 12 7 17 14v1l-3 1c-6 2-9 3-14 8-4 8-5 14-3 23 3 4 8 6 13 7a98 98 0 0 0 15 2h13l3-13-5-2 3-4c6 6 8 12 11 19l3 6a309 309 0 0 1 10 24l1 3c0 11-3 18-10 26-10 10-20 12-34 12-29 0-51-12-71-31-11-10-13-19-12-34s10-27 21-37a329 329 0 0 1 31-23l11-2Z"></path>
  <path fill="#FBFBFB" d="m173 183 3 2 3 2c8 5 12 10 15 19 2 5 2 5 6 8l9 2c-1 8-2 15-6 23l-2 3c-6 11-14 19-23 27l-3 3c-12 12-19 15-37 16h-5c-11 0-11 0-16-3l-4-8-2-5c-4-10-5-18-4-29l4-1 6-3 3-1c7-3 7-3 12-8 1-7 1-13-3-19-6-7-12-7-21-8 6-13 19-19 31-23l5-2c12-3 18-1 29 5Z"></path>
  <path fill="#0B0B0B" d="M351 106c10 5 17 15 23 24l13 12c7 7 12 15 16 23l13 22c6 8 4 16 3 25-3 16-12 24-25 33-8 5-14 6-23 6h-4c-27-1-53-10-74-28l-11-14-6-8c-5-7-4-13-3-21 4-21 14-39 31-53l10-4 11-6h-12c1-5 3-9 8-12 10-3 21-2 30 1Zm-25 19-9 7a72 72 0 0 0-34 40c-1 12-1 23 6 32l2 3c15 17 38 32 60 35 17 1 33 2 46-9 7-7 13-15 13-25-2-19-13-39-23-55l-3-1-2 6h5l-3 13c-31 1-31 1-40-7-3-6-3-13-1-19 3-7 6-11 13-13l7-2c-5-8-5-8-12-14-11-1-17 2-25 9Z"></path>
  <path fill="#0A0A0A" d="m197 181 15 13 3 3c6 7 7 14 7 23-2 15-12 30-24 39l-7 8c-4 7-9 12-15 18l-2 2c-10 10-19 9-32 9l-6 1c-13 0-13 0-18-4l-7-8-8-6c-10-12-10-40-10-55v-4c0-11 2-21 10-29l3-3c5-5 8-7 15-9 8-2 12-5 17-11 20-8 43 2 59 13Zm-89 19v3h3c9 1 14 3 19 10 2 3 2 6 3 10v4l-4 6-14 7-5 2-3 1c-1 12 0 23 6 34l1 2c2 4 3 6 6 8l18 1h5c17-1 26-10 38-21l4-4a93 93 0 0 0 19-27c3-7 4-13 5-20l-5-1c-5-1-6-2-9-6l-4-8c-5-12-14-16-25-21l-3-2c-18-8-43 9-55 22Z"></path>
  <path fill="#090909" d="M333 330c5 1 7 1 11 4 4 9 3 19 3 29v20c0 7-2 12-7 17l-3 2-2 2c-16 11-37 11-56 10 0-1-22-3-31-11l-3-3-4-3c-6-6-12-12-13-21 0-5 0-9 2-14l10 2c4 4 6 9 9 15s5 9 10 12l4 3c13 8 28 8 44 5 8-2 15-5 21-11 4-9 3-19 2-28l-1-14v-4c0-5 2-8 4-12Z"></path>
  <path fill="#EAEAEA" d="M440 207c11 9 15 19 19 32l1 3c2 8 3 15 2 23-7-7-8-18-11-28-1-7-4-13-8-19l-3-11Z"></path>
  <path fill="#F8F8F8" d="M200 200h10v9l-9-6-1-3Z"></path>
  <path fill="#151515" d="M440 232h3l8 14c-6-2-8-5-11-10v-4Z"></path>
  <path fill="#161616" d="M400 238c-2 6-6 7-12 10 3-6 6-10 12-10Z"></path>
</svg>