<svg xmlns="http://www.w3.org/2000/svg" viewBox="0 0 500 500"><path fill="#FDFDFD" d="M144 67c18-26 88-34 146-42 28-4 45 12 62 23 15 9 78 98 80 113 3 15 10 31 19 42a168 168 0 0 1 27 114v11l1 13v11c0 5 8 96-5 119-1 4-13 13-12 19 2-1 8 8 7 10H73c-2-4-33-85-47-164-5-34-1-74 11-100 11-23 5-36 4-39-2-11 67-75 103-130Z" style="stroke-width:1"></path><path fill="#050505" d="M289 21h10c13 0 24 1 36 4l18 3-2 7-3 2-2 4 4 1a320 320 0 0 1 84 116c3 15 13 27 22 39 25 36 30 76 30 120v57c0 10 0 19-2 29l4-1 7 1c1 26-3 47-16 70l-1 9 8-2 1 6-3 2c-5 1-5 1-6 4l-7 2-2 6h-15c2-13 8-23 13-35l7-14 2-5c3-7 4-13 4-20v-6l-2-14c-2-9-2-18-2-27v-25c0-34-5-63-17-94l-2-6a643 643 0 0 0-15-41c-7-23-17-43-31-62-5-7-7-12-7-20 5 1 7 2 11 7l2 5 3 5 2 7h3c-3-12-8-20-17-29-3-3-3-3-3-6h-3l-1 6h-3l-1-2c-10-39-37-68-70-88-17-10-41-11-60-7l-17 6c-10 4-19 6-30 7-7 0-12 1-17 5l15 2v4a9976 9976 0 0 0-25 3 164 164 0 0 0-48 13v3l-5 5c-8 8-15 17-22 27l-10 12-12 16c-11 15-22 28-36 40-11 10-11 10-14 24v8c0 15-3 28-9 41l-4 8-1 4c-4 10-4 22-4 33v28a180 180 0 0 0 10 67l2 5 7 21 7 22 1 4 4 21c1 9 7 14 14 21 5 6 8 12 10 21H73l-2-3a5076 5076 0 0 0-4-9l-5-5v17h-9l-1-5c-2-17-7-30-16-45l-5-8-2-3a135 135 0 0 1-13-46c-6-33-5-67-5-101v-20a4059 4059 0 0 1 0-43v-4c0-5 0-9 3-13 3-3 3-3 6-3l4 14v8l1 4 1 11 7-15-1-2h-6c0-15 2-27 7-40s6-24 8-37c4 3 4 3 5 6v5l1 4 62-69c5-6 10-11 13-17 9-11 17-21 28-28l4-3v-6l5-7 4 1c6 0 9 0 14-3 4-4 4-4 6-9l3 1c4 1 6 0 11-1 8-2 8-2 12 0v3l-9 3 4 3 9-3c7-3 14-4 22-4 6 0 11-2 17-3 12-4 24-4 37-4ZM189 38l2 3-2-3Zm-30 6-3 6h7l2-6h-6Zm298 179c2 16 9 36 18 50 0-18-8-34-17-50h-1ZM18 347l2 6-2-6Zm2 8a132 132 0 0 0 4 39c4 20 11 37 23 54 2-3 2-3 0-8l-3-7-1-4a2087 2087 0 0 0-12-34l-1-15c-1-10-4-17-9-25h-1Z" style="stroke-width:1"></path><path fill="#0F0F0F" d="M366 264c14 6 21 20 26 33 3 9 3 17 3 26v4c0 9-2 16-9 24a75 75 0 0 1-53 19c-6 0-10-2-15-5l-4-2-2-1-1 4c-3 15-12 29-24 38-13 9-25 10-40 8-21-6-33-23-43-41-3-4-3-4-3-7 13 4 21 14 29 24 7 7 14 13 24 14 14 0 23-3 34-12 8-10 13-21 12-35l-3-11v-5l15 9c14 10 23 13 41 11l12-6 4-2c10-7 10-7 16-16 2-19-3-33-11-50-4-7-6-13-8-21Z" style="stroke-width:1"></path><path fill="#101010" d="M268 100c34 17 78 41 97 76-13-1-21-10-29-19-6-6-25-17-32-23-12-10-12-10-27-15-2 8-2 15-2 24v9a2796 2796 0 0 0 0 27v4c-1 8-2 14-6 22l-3 1c-2-10-3-20-3-31v-4l2-45v-14l1-6c0-4 0-4 2-6Z" style="stroke-width:1"></path><path fill="#121212" d="M98 212c14 6 28 12 39 22 8 7 15 7 26 6 11 0 18 1 28 7l-2 6c-28-1-51-5-75-21-3-3-3-3-7-3-4 12-1 27 1 40 2 10 3 22-2 31h-3c-14-22-6-63-5-88Z" style="stroke-width:1"></path></svg>