<svg xmlns="http://www.w3.org/2000/svg" viewBox="0 0 500 500">
  <path fill="#010101" d="M245.012 35.305h5.459c19.775.259 39.584 2.883 58.565 8.571 4.946 1.338 9.582 1.902 14.684 2.257 21.072 1.568 35.553 10.046 50.302 25.157 3.013 3.801 4.386 7.189 6.156 11.652 3.896 1.04 3.896 1.04 7.841 1.568 1.553 2.329 1.553 2.329 3.138 4.705-.519 1.036-1.036 2.07-1.569 3.137 1.637 2.71 3.275 5.42 4.926 8.122 1.347 2.856 1.347 2.856.955 7.462-.582 1.602-.582 1.602-1.176 3.235h-4.705c-3.106-6.21-3.106-6.21-6.274-12.546-5.878 5.568-10.653 11.414-15.191 18.133-.612.885-1.224 1.769-1.854 2.68-3.028 4.425-5.815 8.807-8.047 13.689 4.658.777 4.658.777 9.41 1.569 0 3.43 0 3.43-1.569 7.841-7.333 6.109-16.581 9.934-25.092 14.115l-1.568 1.568h62.731v6.274c-1.209-.018-2.416-.034-3.662-.051-5.542-.066-11.084-.106-16.627-.145-1.902-.027-3.803-.054-5.762-.08-9.497-.052-18.099.291-27.296 2.692-5.023 1.162-10.028 1.111-15.166 1.209-16.636.61-37.222 2.977-52.245 10.489-.518 1.552-1.035 3.105-1.569 4.704h9.41c-5.022 4.443-9.066 5.521-15.682 6.274-1.177-2.647-1.177-2.647-1.569-6.274 2.031-2.66 4.131-5.27 6.273-7.841 1.048-3.136 2.092-6.273 3.137-9.41 1.863-3.815 3.76-7.546 5.784-11.272.825-1.526.825-1.526 1.667-3.085 11.177-20.455 11.177-20.455 16.074-26.418h4.705c-1.055 5.974-2.75 11.515-4.705 17.251 29.743-19.419 29.743-19.419 55.263-43.851 2.371-2.742 4.797-5.169 7.468-7.609 3.842-3.427 3.842-3.427 3.136-9.703-14.598-14.435-40.659-25.029-60.868-27.348-16.792.894-16.792.894-31.661 6.96 6.211 2.07 12.421 4.141 18.819 6.273v4.705c-10.563.519-20.213-.64-30.581-2.451-10.578-1.815-19.95-2.817-30.581-.685-7.047 1.368-13.692 1.742-20.865 1.733-2.2.022-4.4.045-6.6.07-3.42.036-6.839.058-10.259.039-17.377-.268-17.377-.268-32.02 8.28-1.187 1.199-1.187 1.199-2.398 2.424-1.406 1.007-2.811 2.013-4.258 3.051-4.556 4.097-7.54 8.844-10.738 14.004-14.389 22.281-32.373 39.913-52.122 57.401-10.722 9.976-16.513 20.517-22.275 33.756 1.036.517 2.07 1.036 3.137 1.569.169 3.298.291 6.597.392 9.898.074 1.838.146 3.676.221 5.57-.613 4.919-.613 4.919-3.48 7.927-3.406 1.697-3.406 1.697-8.111 1.697-.194 1.52-.387 3.039-.588 4.606-.594 4.242-1.421 8.164-2.45 12.35-2.692 11.963-3.84 24.161-4.803 36.366-.095 1.186-.189 2.371-.286 3.593-1.486 21.868 1.35 47.152 11.263 66.98.189 3.589.281 7.183.332 10.776.043 2.183.089 4.368.134 6.552.065 3.444.122 6.89.165 10.335.043 3.323.114 6.646.191 9.97.03 1.991.061 3.984.094 6.036.221 4.934.221 4.934 3.052 7.986.76.55 1.521 1.101 2.306 1.667.517-1.035 1.034-2.07 1.568-3.137 1.552-.517 3.105-1.035 4.705-1.568 5.831-8.232 7.388-15.099 7.841-25.092h-6.273c.389-1.102.777-2.201 1.176-3.333.548-6.284-2.423-8.785-5.881-13.918-.392-5.294-.392-5.294 0-9.41h3.137v-6.274c1.844.129 3.687.259 5.588.392 7.349-.026 12.232-2.084 17.936-6.665 1.821-2.225 3.637-4.457 5.354-6.764 3.347-3.56 7.219-5.865 11.31-8.526 7.668-5.404 10.323-9.087 12.179-18.177 1.441-6.289 4.308-11.797 7.093-17.589 2.381-5.36 3.254-9.963 3.958-15.792.881-5.294.881-5.294 4.019-8.43.624-3.118 1.157-6.257 1.567-9.41-1.23.452-2.462.906-3.73 1.373-8.991 3.177-16.507 5.769-26.067 4.901v-4.705c-1.731.706-1.731.706-3.497 1.427-2.297.894-2.297.894-4.638 1.807-1.51.6-3.02 1.2-4.576 1.819-4.868 1.308-7.597 1.043-12.382-.348 4.125-4.708 8.966-7.37 14.385-10.435 1.413-.802 1.413-.802 2.855-1.621 3.006-1.706 6.017-3.403 9.03-5.098 2.002-1.134 4.003-2.268 6.003-3.404 3.712-2.104 7.425-4.202 11.143-6.299 5.402-3.055 10.793-6.131 16.179-9.214-19.357-.781-19.357-.781-35.874 8.038-.836.845-1.673 1.688-2.536 2.56-2.365 1.948-2.365 1.948-7.07 1.948.196-2.745.196-2.745 1.568-6.273 7.464-6.315 15.741-8.54 25.093-10.978.033-1.714.064-3.43.099-5.196.727-2.862.727-2.862 1.469-5.782 5.521-3.17 9.31-4.705 15.684-4.705v-3.136H99.454v-3.138c-5.434.777-5.434.777-10.978 1.569v-7.841c10.506-2.718 20.563-4.808 31.452-5.202 1.737-.066 3.477-.13 5.268-.2 1.791-.061 3.582-.121 5.428-.186 1.829-.067 3.655-.135 5.538-.206 4.492-.164 8.985-.323 13.478-.48-5.693-2.07-11.387-4.14-17.252-6.272v-3.137c18.749-.637 36.485 3.44 54.585 7.835 5.863 1.419 11.749 2.696 17.655 3.927 12.075 2.543 24.019 5.567 35.973 8.626v4.705c2.56 2.156 5.177 4.243 7.841 6.272 1.552 2.33 1.552 2.33 3.136 4.705-11.835 6.431-23.566 11.371-36.4 15.4-7.196 2.359-9.737 4.077-15.353 9.693h26.661c-1.569 6.273-1.569 6.273-3.137 7.842-3.791.591-7.562 1.108-11.37 1.568-6.718.828-13.376 1.7-19.996 3.136-.517 2.07-1.035 4.14-1.568 6.274h-3.137c.098 1.33.195 2.66.295 4.03-.351 6.418-2.175 10.398-5 16.161-.482 1-.965 2-1.464 3.031-2.721 5.598-5.53 11.153-8.331 16.714-.573 1.139-1.147 2.279-1.737 3.452-1.119 2.216-2.245 4.427-3.382 6.634-2.917 5.3-2.917 5.3-3.905 11.141 1.181-1.027 2.361-2.054 3.577-3.113 9.711-8.371 19.599-16.431 29.848-24.136 1.01-.764 2.022-1.528 3.063-2.315 19.263-14.348 19.263-14.348 24.675-14.348.292-.907.583-1.811.883-2.745 4.539-7.105 10.887-9.213 18.746-11.186 39.446-8.386 78.187-6.251 115.245 10.795 1.528.688 3.056 1.378 4.63 2.088 12.751 6.058 24.42 13.63 36.145 21.435-3.13-3.978-6.168-7.739-9.802-11.273-2.745-2.841-2.745-2.841-2.745-5.978 8.472 2.382 14.129 8.234 20.389 14.115.917.831 1.836 1.661 2.781 2.517.634.722 1.269 1.444 1.923 2.188-.258.969-.517 1.94-.784 2.94-1.232 3.482-1.232 3.482 1.275 6.666 2.622 4.469 3.177 6.947 3.921 11.958 1.572 9.047 5.902 15.084 11.271 22.348 5.15 10.299 2.092 25.448-1.372 35.875-8.363 19.083-29.206 27.852-47.245 36.267-10.378 3.457-22.778 3.193-32.835-1.177-2.152-1.126-4.278-2.299-6.372-3.528-1.52-.874-3.041-1.747-4.606-2.647-15.431-11.651-28.508-24.808-36.169-42.833v-3.138c-2.979.104-5.953.324-8.92.589-1.656.108-3.312.217-5.018.331-7.845 3.562-9.714 10.139-12.723 17.9-2.075 5.86-3.871 11.767-5.587 17.741-.469 1.581-.938 3.159-1.421 4.787-1.336 4.511-2.656 9.026-3.971 13.543-9.389 32.281-9.389 32.281-23.524 42.344-4.299 2.148-7.733 1.744-12.54 1.72-1.879-.005-3.757-.009-5.695-.014-2.958-.02-2.958-.02-5.975-.041-2.95-.011-2.95-.011-5.958-.02-3.647-.014-7.294-.032-10.94-.052-3.027-.017-6.052-.025-9.077-.025-5.022-.845-7.856-2.433-11.664-5.784-.95-.834-1.9-1.67-2.879-2.529-2.555-2.514-4.606-5.079-6.727-7.958-1.262-1.359-2.523-2.718-3.823-4.117-1.52.064-3.041.129-4.606.196-4.803-.196-4.803-.196-7.034-2.46-5.68-7.92-10.837-15.997-15.609-24.495-1.059-1.797-1.059-1.797-2.137-3.63-4.263-7.575-5.971-12.67-5.117-21.365 6.238 2.079 6.661 4.42 9.626 10.189.904 1.749 1.809 3.498 2.74 5.302.934 1.842 1.867 3.685 2.828 5.582 1.426 2.756 1.426 2.756 2.883 5.566 7.017 13.681 7.017 13.681 7.017 17.274h3.136c-.64-1.162-1.282-2.323-1.94-3.519-2.405-4.372-4.796-8.747-7.181-13.127-1.029-1.883-2.063-3.766-3.099-5.645-9.989-18.107-17.327-32.152-12.873-52.988-4.055 3.555-8.013 7.204-11.958 10.88-1.722 1.506-1.722 1.506-3.48 3.042-3.24 3.072-5.83 5.743-8.086 9.603-.052 5.115 1.5 9.317 3.136 14.115.418 5.274.418 5.274.393 9.899.012 2.319.012 2.319.025 4.688-.418 4.232-.418 4.232-1.986 7.325-2.153 4.368-1.984 7.938-1.96 12.786-.008 1.654-.016 3.308-.024 5.011 1.09 15.109 3.728 23.587 14.629 34.393 1.484 1.569 1.484 1.569 2.999 3.172 18.871 19.425 44.728 30.61 71.854 31.451 5.624.08 11.243.048 16.867.001 2.506-.005 5.014-.006 7.52-.006 6.676-.006 13.352-.044 20.029-.09 5.545-.035 11.093-.057 16.638-.08 13.961-.055 27.921-.146 41.879-.255 8.709-.066 17.418-.108 26.128-.132 10.443-.028 20.885-.096 31.328-.198 3.753-.03 7.507-.051 11.262-.059 32.567.216 32.567.216 60.158-15.726 6.433-8.176 8.617-17.167 9.153-27.391.68-12.297 4.089-26.02 10.701-36.581 8.095-13.363 7.037-27.388 7.039-42.519.035-3.985.08-7.968.129-11.952.028-2.623.051-5.246.063-7.87.054-7.185.403-14.246 1.084-21.399 1.206-13.194-.708-23.317-5.097-35.724-.966-2.903-1.931-5.806-2.892-8.71-1.045-3.126-2.107-6.245-3.173-9.363-2.47-7.272-4.802-14.586-7.125-21.906-1.647-5.166-3.294-10.334-4.945-15.499-.39-1.23-.782-2.458-1.185-3.725-7.84-26.724-7.84-26.724-21.947-50.283-3.529-6.05-5.326-10.215-4.705-17.251h3.137c-4.141-10.351-8.281-20.702-12.547-31.365 3.106-1.553 3.106-1.553 6.274-3.138.57 1.787.57 1.787 1.153 3.61.525 1.557 1.05 3.115 1.591 4.721.51 1.547 1.019 3.095 1.545 4.688 1.594 4.401 1.594 4.401 5.243 6.261 3.014 2.677 3.014 2.677 3.467 5.597.063 1.168.126 2.338.19 3.543.622 8.895 4.481 14.655 9.453 21.863.79 1.208 1.578 2.418 2.392 3.661 2.99 4.529 2.99 4.529 6.331 8.789h3.137c.343.913.687 1.827 1.041 2.767 2.88 7.443 6.027 14.46 9.852 21.467 5.38 10.68 7.726 21.307 9.887 33.008.381 1.926.76 3.853 1.152 5.837 1.098 5.627 2.141 11.262 3.161 16.903.31 1.686.621 3.373.941 5.111 1.855 10.492 2.744 20.667 2.947 31.305.238 6.542 1.181 12.117 3.183 18.36 2.909 10.423 2.936 20.346 2.798 31.106-.006 1.995-.012 3.989-.021 6.044-.021 5.243-.062 10.482-.115 15.725-.049 5.373-.07 10.746-.093 16.119-.052 10.496-.13 20.993-.23 31.491-1.553-.517-3.106-1.034-4.705-1.568-1.036-9.316-2.07-18.631-3.137-28.229-1.067 3.202-1.067 3.202-2.156 6.469-.43 1.281-.861 2.563-1.305 3.883-1.015 3.069-1.972 6.157-2.91 9.251-1.471 3.921-1.471 3.921-4.607 5.489-3.91 8.824-6.482 17.809-7.057 27.445-1.199 17.754-8.256 31.222-19.604 44.696-.888 1.175-1.775 2.35-2.69 3.559-5.368 4.067-10.44 3.71-17.01 3.792-9.098.123-9.098.123-17.939 2.059-4.707.153-9.376.22-14.083.209-2.086.002-2.086.002-4.216.003-2.945.002-5.892-.001-8.839-.007-4.477-.009-8.954 0-13.432.009-2.869 0-5.736-.002-8.604-.005-1.327.003-2.653.007-4.021.01-5.91-.024-11.662-.199-17.521-.989-6.364-.829-12.559-1.114-18.963-1.24-2.383-.058-4.765-.117-7.147-.177-3.711-.085-7.421-.166-11.131-.246-3.612-.082-7.223-.172-10.834-.262-1.119-.022-2.239-.043-3.391-.065-7.809-.199-7.809-.199-9.554-1.945-3.722-.25-7.405-.406-11.131-.497-1.112-.031-2.223-.064-3.368-.098-3.565-.102-7.128-.195-10.691-.287-2.411-.068-4.823-.136-7.233-.206-5.921-.167-11.841-.326-17.763-.479-.517 1.552-1.035 3.104-1.568 4.705h-21.956v3.136c-9.797 1.2-16.966-3.018-25.485-7.253-1.476-.72-2.953-1.438-4.474-2.18-8.444-4.156-16.695-8.471-24.636-13.535-3.983-2.466-8.094-4.579-12.253-6.732-16.96-9.339-24.661-20.164-31.954-37.736v-3.138h-3.137c.372 14.948 1.409 27.082 7.841 40.776 1.208 3.125 2.384 6.261 3.529 9.41.526 1.422 1.052 2.847 1.594 4.312 1.15 3.53 1.15 3.53 1.15 6.666-3.712-.369-3.712-.369-7.841-1.569-3.238-4.706-4.605-10.248-6.273-15.682-.472-1.476-.946-2.952-1.434-4.473-3.397-12.287-3.602-23.838-2.823-36.473.367-8.278.367-8.278-4.038-15.165-1.402-1.149-2.806-2.3-4.252-3.484-13.17-17.664-19.67-36.524-23.524-58.027-.29-1.522-.582-3.041-.881-4.608-.805-5.625-1.012-11.078-1.079-16.76-.06-3.04-.06-3.04-.123-6.139.166-5.348 1.282-9.834 2.824-14.949 4.097-15.382 3.302-31.521 3.475-47.329.051-3.315.105-6.629.161-9.943.133-8.056.238-16.11.328-24.167-2.037.031-4.076.064-6.175.097-2.123.035-4.25.014-6.372-.097-1.568-1.568-1.568-1.568-2.057-7.548.069-4.871.314-6.306 3.136-10.487 4.222-2.74 6.531-2.902 11.468-2.353.194-1.455.389-2.912.588-4.411.98-4.999.98-4.999 4.116-9.704h4.705c-.258 1.262-.517 2.523-.784 3.822-.928 6.622-.917 13.031-.783 19.703.417-1.78.832-3.559 1.262-5.392.56-2.385 1.118-4.769 1.678-7.154.41-1.751.41-1.751.828-3.536.554-2.36 1.112-4.719 1.677-7.076.542-2.298 1.068-4.601 1.571-6.91 1.11-4.892 2.249-8.902 4.881-13.202 2.827-4.819 2.952-8.522 3.197-14.072.531-10.916.531-10.916 2.157-16.368h3.136c.517 4.658 1.036 9.315 1.569 14.115 5.894-5.827 11.777-11.665 17.63-17.533.99-.99 1.978-1.981 2.996-3.002 3.843-3.965 7.504-8.063 11.064-12.283 3.888-4.498 7.967-8.809 12.025-13.153 5.928-6.36 11.609-12.819 17.056-19.604 8.979-11.132 18.273-20.58 30.19-28.523-2.323-.116-2.323-.116-4.693-.233-2.009-.116-4.02-.234-6.09-.355-2.001-.11-4.002-.218-6.064-.331-5.109-.649-5.109-.649-8.247-3.785V57.85c5.862-2.706 10.421-3.527 16.86-3.432 1.512.011 3.026.021 4.582.032 3.652.263 3.652.263 5.22 1.831.517-1.035 1.035-2.07 1.568-3.136 2.904-.164 5.815-.204 8.725-.196 14.99-.847 26.98-8.223 39.711-15.643 6.809-2.901 14.555-2.01 21.844-2.001Z"></path>
  <path fill="#FCFCFC" d="M328.62 57.065c1.147.416 2.293.83 3.473 1.259 15.448 5.832 29.311 13.803 41.812 24.618-2.459 6.038-6.4 9.556-10.978 14.115-1.783 2.089-1.783 2.089-3.603 4.22-10.932 12.796-23.211 22.028-37.193 31.311-3.132 2.117-6.173 4.333-9.216 6.572-4.878 3.377-4.878 3.377-8.014 3.377.863-6.194 2.179-11.525 4.705-17.251-5.805 1.936-6.213 3.422-9.116 8.649-.813 1.446-1.626 2.892-2.464 4.38-.836 1.523-1.673 3.046-2.535 4.614-1.666 2.981-3.332 5.963-4.999 8.944-1.1 1.994-1.1 1.994-2.223 4.026-1.511 2.687-3.088 5.334-4.718 7.95-2.471 3.931-2.471 3.931-3.744 9.466-1.535 5.183-2.471 6.542-6.272 9.997v4.705c6.903-.89 12.295-2.761 18.622-5.587 19.114-6.966 43.184-7.376 62.341-.293 6.336 2.978 12.366 6.207 17.839 10.585v1.569c-1.286.053-1.286.053-2.599.108-8.904.373-17.808.756-26.711 1.145-3.325.145-6.651.285-9.976.425-4.772.199-9.544.408-14.317.62-2.241.089-2.241.089-4.526.183-1.38.061-2.762.124-4.185.19-1.219.051-2.437.103-3.694.158-3.129.143-3.129.143-6.133 1.876-1.023 3.174-1.023 3.174-1.569 6.273 4.021-.181 8.037-.378 12.057-.588 1.131-.049 2.261-.098 3.427-.148 1.107-.06 2.214-.121 3.354-.183 1.01-.05 2.02-.099 3.062-.149 3.343-.386 3.343-.386 6.777-2.067 8.324-3.071 17.481-2.34 26.272-2.411 3.544-.042 7.08-.16 10.623-.278 19.01-.339 19.01-.339 26.742 6.442 1.676 1.855 3.32 3.736 4.92 5.655 1.488 1.164 2.977 2.329 4.509 3.528 3.333 2.745 3.333 2.745 6.469 7.45.283 3.14.283 3.14.141 6.714-.034 1.313-.068 2.625-.104 3.978-.045 1.389-.089 2.776-.134 4.207-.217 12.107.86 22.202 4.802 33.718.583 3.126 1.144 6.258 1.568 9.41-2.28-2.039-2.28-2.039-4.606-4.117-6.426-5.532-13.352-10.14-20.487-14.703.74.833 1.476 1.666 2.237 2.524.977 1.108 1.953 2.216 2.96 3.358.964 1.091 1.927 2.182 2.921 3.307 2.661 3.124 5.143 6.32 7.566 9.631-6.838-2.441-12.778-5.997-18.917-9.802-20.764-12.546-40.713-20.3-64.203-26.269-1.637-.424-3.275-.85-4.962-1.287-18.609-4.09-38.379-2.528-57.083.111-1.267.171-2.535.342-3.84.519-13.47 2.117-23.477 6.427-32.917 16.341-2.089 1.485-4.219 2.918-6.37 4.312-14.031 9.096-27.037 19.508-39.907 30.158-4.82 3.906-9.779 7.491-14.887 11.01 2.668-6.967 5.821-13.657 9.018-20.388 1.121-2.379 2.242-4.759 3.364-7.137 2.037-4.316 4.092-8.626 6.162-12.926.836-1.757 1.67-3.515 2.531-5.325 1.112-2.313 1.112-2.313 2.248-4.673 1.966-4.466 1.966-4.466 2.609-9.618.242-1.398.481-2.796.729-4.233 1.035-.518 2.071-1.035 3.137-1.569.776-2.328.776-2.328 1.568-4.705 8.598-4.678 18.186-5.28 27.783-5.482 1.773-.392 1.773-.392 3.583-.791 1.552-3.105 1.552-3.105 3.137-6.273-13.197.776-13.197.776-26.661 1.568v-4.705c4.466-4.234 9.08-5.877 14.898-7.645 18.718-5.795 18.718-5.795 35.287-15.878-3.622-2.589-7.245-5.176-10.978-7.843.776-2.328.776-2.328 1.569-4.705-13.609-3.48-27.209-6.793-40.966-9.643-4.623-1.014-9.196-2.099-13.784-3.259-17.801-4.472-35.166-7.557-53.463-9.053v3.137c1.228.302 2.454.605 3.718.918 1.587.408 3.175.815 4.81 1.238 1.583.399 3.165.8 4.796 1.212 3.928 1.336 3.928 1.336 5.495 4.473-1.679.045-1.679.045-3.393.094-29.811.756-29.811.756-59.338 4.611v7.841c5.434-.776 5.434-.776 10.978-1.569v3.138h54.891v3.136c-5.176 1.553-10.351 3.106-15.684 4.705v10.978c-4.687 2.454-9.174 4.628-14.211 6.273-4.698 1.599-8.415 3.391-12.45 6.273-.776 2.329-.776 2.329-1.568 4.705 6.778-3.052 6.778-3.052 12.253-7.94 9.126-8.083 23.339-6.56 34.796-6.174-4.125 4.708-8.966 7.369-14.384 10.431-.942.535-1.884 1.072-2.855 1.624-3.006 1.706-6.017 3.402-9.03 5.097-2.002 1.134-4.002 2.268-6.004 3.404-3.712 2.104-7.426 4.204-11.141 6.301-5.404 3.053-10.794 6.13-16.181 9.213 5.115 1.728 7.723 1.448 12.645-.686 4.174-1.787 6.217-2.45 10.879-2.45v4.705c8.205-1.498 15.793-3.09 23.525-6.274h6.272c.59 8.648.59 8.648-2.352 12.448-2.865 3.256-2.865 3.256-2.253 8.332-.109 6.505-1.526 9.368-4.571 14.906-2.744 5.364-4.627 10.995-6.616 16.673-.482 1.353-.963 2.706-1.459 4.1-.373 1.304-.747 2.608-1.132 3.95-2.785 5.408-7.057 8.29-11.904 11.733-6.666 4.831-12.582 9.732-18.329 15.683-3.798 3.079-6.175 4.739-11.126 4.637-3.103-.378-6.187-.928-9.262-1.501v6.274h-3.137c1.884 8.856 1.884 8.856 5.881 16.859.971 1.745.971 1.745 1.96 3.528-1.273 3.626-1.273 3.626-3.136 6.274h6.273c1.029 9.875-.249 16.067-5.666 24.412-.718.742-1.435 1.483-2.175 2.248h-4.705c-.518 1.553-1.035 3.106-1.568 4.705-4.427-3.56-6.131-5.371-7.03-11.075.007-1.854.014-3.709.021-5.619-.017-2.054-.035-4.109-.053-6.226.002-1.076.003-2.154.004-3.262 0-18.246-.757-34.873-7.057-52.232-7.552-21.575-5.472-43.533-2.646-65.868.184-1.46.369-2.919.558-4.423 2.896-20.775 2.896-20.775 6.793-30.08 2.426-1.068 2.426-1.068 4.901-2.156 1.488-.843 2.976-1.683 4.509-2.549 1.355-6.782 1.549-13.484 1.568-20.387-1.552-.519-3.105-1.036-4.705-1.569 9.978-23.651 27.248-40.449 46.706-56.783 11.929-10.095 20.44-23.34 28.957-36.292 7.367-11.14 15.905-19.924 27.844-26.115 8.43-1.605 16.659-1.559 25.192-1.373 4.363.029 8.727.023 13.09.013 3.084-.001 3.084-.001 6.229-.003 6.26-.228 11.934-1.246 18.009-2.672 12.514-2.505 26.562.603 38.85 3.392 6.439 1.117 12.879.892 19.388.643-4.814-3.21-8.925-4.7-14.407-6.469-1.705-.554-3.409-1.109-5.165-1.68-1.955-.625-1.955-.625-3.951-1.261 5.631-3.272 11.289-4.411 17.643-5.685 1.981-.409 3.963-.817 6.003-1.238 11.778-1.759 20.412-1.083 31.439 3.002Z"></path>
  <path fill="#FCFCFC" d="M396.058 139.302c1.426.014 2.854.028 4.325.044 1.644.026 1.644.026 3.32.055 1.052 2.545 2.096 5.093 3.136 7.645.582 1.419 1.166 2.839 1.765 4.3 1.372 3.738 1.372 3.738 1.372 6.874h-3.137c2.597 8.852 5.497 15.986 10.978 23.525 4.279 6.427 6.8 13.158 9.239 20.43.416 1.218.833 2.439 1.262 3.694 1.345 3.947 2.676 7.897 4.006 11.847l2.766 8.154c6.123 18.087 12.166 36.196 17.746 54.458.993 3.162 2.059 6.29 3.154 9.42 3.139 9.494 4.432 17.171 3.547 27.169-.759 9.625-1.062 19.165-1.054 28.818-.015 2.598-.031 5.197-.049 7.796-.026 3.946-.037 7.889.004 11.835.167 19.684-2.99 32.718-12.391 50.054-3.294 8.412-4.853 16.077-5.391 25.093-.847 12.209-3.643 22.389-12.644 31.071-20.068 14.946-39.913 14.067-64.006 14.115-3.849.032-7.695.068-11.544.106-9.636.081-19.269.122-28.907.149-8.931.027-17.863.085-26.796.153-13.985.109-27.973.187-41.96.243-5.52.021-11.039.051-16.559.09-6.577.042-13.155.061-19.734.061-2.426.005-4.853.016-7.28.036-29.254.237-58.732-5.724-80.237-26.794-2.169-2.208-4.307-4.446-6.443-6.684-1.38-1.334-2.761-2.669-4.184-4.043-13.179-13.327-13.396-25.085-13.482-43.189.419-4.555 1.528-6.801 3.552-10.795.497-4.302.497-4.302.392-8.92.012-2.29.012-2.29.025-4.625-.169-5.023-.169-5.023-1.578-8.567-1.305-3.841-2.072-6.755-1.976-10.822 3.258-5.409 7.643-9.276 12.35-13.429 1.211-1.132 2.423-2.266 3.671-3.433 2.988-2.787 6.01-5.525 9.072-8.23 1.568 3.136 1.568 3.136.883 5.684-4.945 20.875 8.562 40.224 18.471 57.63.741 1.302 1.479 2.603 2.241 3.944.674 1.168 1.346 2.336 2.039 3.539 1.459 2.913 1.459 2.913 1.459 6.049h-3.136c-.649-1.275-1.298-2.55-1.966-3.863-2.407-4.718-4.822-9.432-7.242-14.143-1.047-2.042-2.09-4.083-3.131-6.128-1.494-2.937-2.999-5.866-4.509-8.794-.902-1.766-1.806-3.531-2.737-5.351-1.964-4.219-1.964-4.219-5.509-5.634 1.925 10.855 5.262 19.126 10.783 28.622.681 1.217 1.362 2.434 2.065 3.687 3.607 6.35 7.172 12.568 12.246 17.877 1.487-.066 2.976-.131 4.508-.196 4.901.196 4.901.196 7.211 2.279 1.567 1.922 3.112 3.862 4.637 5.82 3.879 4.842 8.117 9.245 13.441 12.485 4.399-.064 4.399-.064 7.841-1.569.518.518 1.035 1.036 1.568 1.569 6.884.488 13.786.436 20.683.489 1.934.046 3.867.091 5.859.138 13.925.234 13.925.234 25.212-6.901 13.206-13.172 16.334-35.662 20.946-52.963 7.614-27.959 7.614-27.959 15.125-36.429 4.576-.957 4.576-.957 9.704-1.176 1.703-.09 3.409-.179 5.165-.27 1.956-.061 1.956-.061 3.951-.123.611 1.273 1.221 2.543 1.85 3.854 10.426 20.634 24.982 38.025 46.473 47.802 14.257 4.439 26.633 2.73 39.696-3.922 4.172-2.231 8.269-4.571 12.351-6.958 1.719-.972 3.438-1.944 5.208-2.947 11.692-6.969 18.194-14.217 22.157-27.347 2.533-12.336 3.062-23.905-3.645-34.889-.835-1.166-1.673-2.332-2.536-3.535-4.724-6.843-6.22-14.075-7.755-22.108-.815-3.712-.815-3.712-4.019-7.976.517-.517 1.035-1.036 1.568-1.569.566-5.798-.077-10.079-2.254-15.389-3.564-8.96-4.093-17.267-3.884-26.881.023-1.108.047-2.216.072-3.357.056-2.214.145-4.429.264-6.641.152-5.459-.248-8.539-3.167-13.207-3.49-3.443-7.002-6.477-10.928-9.41-6.743-5.077-6.743-5.077-8.333-6.666-3.747-.178-7.449-.257-11.196-.263-1.693-.008-1.693-.008-3.42-.015-2.393-.009-4.788-.013-7.183-.013-3.647-.003-7.295-.032-10.945-.062-2.325-.004-4.651-.007-6.977-.009-1.629-.016-1.629-.016-3.294-.032-6.297.027-10.848 1.012-16.579 3.531-4.407.215-8.641.298-13.036.196-1.162-.014-2.323-.028-3.519-.044-2.847-.036-5.691-.092-8.538-.152.588-3.824.588-3.824 1.569-7.842 3.505-1.753 5.645-1.86 9.54-2.034 1.977-.093 1.977-.093 3.994-.189 1.426-.061 2.849-.123 4.317-.184 1.457-.067 2.916-.135 4.417-.205 4.667-.214 9.333-.419 13.998-.622 3.16-.143 6.319-.287 9.477-.432 7.754-.354 15.508-.698 23.262-1.039-1.949-1.254-3.901-2.501-5.857-3.744-1.087-.697-2.173-1.392-3.293-2.109-11.597-6.791-23.039-7.431-36.232-7.281-2.402-.028-2.402-.028-4.85-.055-9.49.037-17.483 1.18-26.43 4.387-4.575 1.323-8.212.701-12.732-.608.43-2.984.43-2.984 1.569-6.272 17.138-7.388 36.237-9.85 54.774-10.385 5.581-.195 10.591-.78 16.002-2.193 9.801-2.34 19.675-1.872 29.693-1.733 1.956.014 3.912.029 5.926.043 4.789.036 9.576.087 14.363.153v-3.136c-1.171-.078-2.344-.155-3.552-.234-1.545-.117-3.089-.234-4.681-.354-1.528-.111-3.056-.219-4.631-.332-4.284-.634-7.07-1.392-10.66-3.785-1.176-4.117-1.176-4.117-1.568-7.842 6.907-5.634 10.1-8.055 19.016-7.94Z"></path>
  <path fill="#0D0E0E" d="M245.012 35.305h5.459c19.775.259 39.584 2.883 58.565 8.571 4.946 1.338 9.582 1.902 14.684 2.257 21.072 1.568 35.553 10.046 50.302 25.157 3.013 3.801 4.386 7.189 6.156 11.652 3.896 1.04 3.896 1.04 7.841 1.568 1.553 2.329 1.553 2.329 3.138 4.705-.519 1.036-1.036 2.07-1.569 3.137 1.637 2.71 3.275 5.42 4.926 8.122 1.347 2.856 1.347 2.856.955 7.462-.582 1.602-.582 1.602-1.176 3.235h-4.705c-3.106-6.21-3.106-6.21-6.274-12.546-5.878 5.568-10.653 11.414-15.191 18.133-.612.885-1.224 1.769-1.854 2.68-3.028 4.425-5.815 8.807-8.047 13.689 4.658.777 4.658.777 9.41 1.569 0 3.43 0 3.43-1.569 7.841-7.333 6.109-16.581 9.934-25.092 14.115l-1.568 1.568h62.731v6.274c-1.209-.018-2.416-.034-3.662-.051-5.542-.066-11.084-.106-16.627-.145-1.902-.027-3.803-.054-5.762-.08-9.497-.052-18.099.291-27.296 2.692-5.023 1.162-10.028 1.111-15.166 1.209-16.636.61-37.222 2.977-52.245 10.489-.518 1.552-1.035 3.105-1.569 4.704h9.41c-5.022 4.443-9.066 5.521-15.682 6.274-1.177-2.647-1.177-2.647-1.569-6.274 2.031-2.66 4.131-5.27 6.273-7.841 1.048-3.136 2.092-6.273 3.137-9.41 1.863-3.815 3.76-7.546 5.784-11.272.825-1.526.825-1.526 1.667-3.085 11.177-20.455 11.177-20.455 16.074-26.418h4.705c-1.055 5.974-2.75 11.515-4.705 17.251 29.743-19.419 29.743-19.419 55.263-43.851 2.371-2.742 4.797-5.169 7.468-7.609 3.842-3.427 3.842-3.427 3.136-9.703-14.598-14.435-40.659-25.029-60.868-27.348-16.792.894-16.792.894-31.661 6.96 6.211 2.07 12.421 4.141 18.819 6.273v4.705c-10.563.519-20.213-.64-30.581-2.451-10.578-1.815-19.95-2.817-30.581-.685-7.047 1.368-13.692 1.742-20.865 1.733-2.2.022-4.4.045-6.6.07-3.42.036-6.839.058-10.259.039-17.377-.268-17.377-.268-32.02 8.28-1.187 1.199-1.187 1.199-2.398 2.424-1.406 1.007-2.811 2.013-4.258 3.051-4.556 4.097-7.54 8.844-10.738 14.004-14.389 22.281-32.373 39.913-52.122 57.401-10.722 9.976-16.513 20.517-22.275 33.756 1.036.517 2.07 1.036 3.137 1.569.169 3.298.291 6.597.392 9.898.074 1.838.146 3.676.221 5.57-.613 4.919-.613 4.919-3.48 7.927-3.406 1.697-3.406 1.697-8.111 1.697-.194 1.52-.387 3.039-.588 4.606-.594 4.242-1.421 8.164-2.45 12.35-2.692 11.963-3.84 24.161-4.803 36.366-.095 1.186-.189 2.371-.286 3.593-1.486 21.868 1.35 47.152 11.263 66.98.189 3.589.281 7.183.332 10.776.043 2.183.089 4.368.134 6.552.065 3.444.122 6.89.165 10.335.043 3.323.114 6.646.191 9.97.03 1.991.061 3.984.094 6.036.221 4.934.221 4.934 3.052 7.986.76.55 1.521 1.101 2.306 1.667.517-1.035 1.034-2.07 1.568-3.137 1.552-.517 3.105-1.035 4.705-1.568 5.831-8.232 7.388-15.099 7.841-25.092h-6.273c.389-1.102.777-2.201 1.176-3.333.548-6.284-2.423-8.785-5.881-13.918-.392-5.294-.392-5.294 0-9.41h3.137v-6.274c1.844.129 3.687.259 5.588.392 7.349-.026 12.232-2.084 17.936-6.665 1.821-2.225 3.637-4.457 5.354-6.764 3.347-3.56 7.219-5.865 11.31-8.526 7.668-5.404 10.323-9.087 12.179-18.177 1.441-6.289 4.308-11.797 7.093-17.589 2.381-5.36 3.254-9.963 3.958-15.792.881-5.294.881-5.294 4.019-8.43.624-3.118 1.157-6.257 1.567-9.41-1.23.452-2.462.906-3.73 1.373-8.991 3.177-16.507 5.769-26.067 4.901v-4.705c-1.731.706-1.731.706-3.497 1.427-2.297.894-2.297.894-4.638 1.807-1.51.6-3.02 1.2-4.576 1.819-4.868 1.308-7.597 1.043-12.382-.348 4.125-4.708 8.966-7.37 14.385-10.435 1.413-.802 1.413-.802 2.855-1.621 3.006-1.706 6.017-3.403 9.03-5.098 2.002-1.134 4.003-2.268 6.003-3.404 3.712-2.104 7.425-4.202 11.143-6.299 5.402-3.055 10.793-6.131 16.179-9.214-19.357-.781-19.357-.781-35.874 8.038-.836.845-1.673 1.688-2.536 2.56-2.365 1.948-2.365 1.948-7.07 1.948.196-2.745.196-2.745 1.568-6.273 7.464-6.315 15.741-8.54 25.093-10.978.033-1.714.064-3.43.099-5.196.727-2.862.727-2.862 1.469-5.782 5.521-3.17 9.31-4.705 15.684-4.705v-3.136H99.454v-3.138c-5.434.777-5.434.777-10.978 1.569v-7.841c10.506-2.718 20.563-4.808 31.452-5.202 1.737-.066 3.477-.13 5.268-.2 1.791-.061 3.582-.121 5.428-.186 1.829-.067 3.655-.135 5.538-.206 4.492-.164 8.985-.323 13.478-.48-5.693-2.07-11.387-4.14-17.252-6.272v-3.137c18.749-.637 36.485 3.44 54.585 7.835 5.863 1.419 11.749 2.696 17.655 3.927 12.075 2.543 24.019 5.567 35.973 8.626v4.705c2.56 2.156 5.177 4.243 7.841 6.272 1.552 2.33 1.552 2.33 3.136 4.705-11.835 6.431-23.566 11.371-36.4 15.4-7.196 2.359-9.737 4.077-15.353 9.693h26.661c-1.569 6.273-1.569 6.273-3.137 7.842-3.791.591-7.562 1.108-11.37 1.568-6.718.828-13.376 1.7-19.996 3.136-.517 2.07-1.035 4.14-1.568 6.274h-3.137c.098 1.33.195 2.66.295 4.03-.351 6.418-2.175 10.398-5 16.161-.485 1.004-.972 2.009-1.473 3.045-1.58 3.243-3.188 6.47-4.8 9.697-1.118 2.261-2.237 4.522-3.356 6.782-3.039 6.117-6.112 12.216-9.19 18.312-1.062 2.346-1.062 2.346-2.144 4.74-3.254 5.932-7.315 10.688-11.774 15.745-.811.939-1.622 1.878-2.457 2.846-6.588 7.574-13.54 14.585-21.013 21.291-2.142 1.984-4.285 3.969-6.425 5.955-1.114.968-2.227 1.937-3.374 2.934-3.122 2.957-5.575 5.476-7.703 9.22-.003 5.088 1.539 9.33 3.136 14.115.418 5.274.418 5.274.393 9.899.012 2.319.012 2.319.025 4.688-.418 4.232-.418 4.232-1.986 7.325-2.153 4.368-1.984 7.938-1.96 12.786-.008 1.654-.016 3.308-.024 5.011 1.09 15.109 3.728 23.587 14.629 34.393 1.484 1.569 1.484 1.569 2.999 3.172 18.871 19.425 44.728 30.61 71.854 31.451 5.624.08 11.243.048 16.867.001 2.506-.005 5.014-.006 7.52-.006 6.676-.006 13.352-.044 20.029-.09 5.545-.035 11.093-.057 16.638-.08 13.961-.055 27.921-.146 41.879-.255 8.709-.066 17.418-.108 26.128-.132 10.443-.028 20.885-.096 31.328-.198 3.753-.03 7.507-.051 11.262-.059 32.567.216 32.567.216 60.158-15.726 6.433-8.176 8.617-17.167 9.153-27.391.68-12.297 4.089-26.02 10.701-36.581 8.095-13.363 7.037-27.388 7.039-42.519.035-3.985.08-7.968.129-11.952.028-2.623.051-5.246.063-7.87.054-7.185.403-14.246 1.084-21.399 1.206-13.194-.708-23.317-5.097-35.724-.966-2.903-1.931-5.806-2.892-8.71-1.045-3.126-2.107-6.245-3.173-9.363-2.47-7.272-4.802-14.586-7.125-21.906-1.647-5.166-3.294-10.334-4.945-15.499-.39-1.23-.782-2.458-1.185-3.725-7.84-26.724-7.84-26.724-21.947-50.283-3.529-6.05-5.326-10.215-4.705-17.251h3.137c-4.141-10.351-8.281-20.702-12.547-31.365 3.106-1.553 3.106-1.553 6.274-3.138.57 1.787.57 1.787 1.153 3.61.525 1.557 1.05 3.115 1.591 4.721.51 1.547 1.019 3.095 1.545 4.688 1.594 4.401 1.594 4.401 5.243 6.261 3.014 2.677 3.014 2.677 3.467 5.597.063 1.168.126 2.338.19 3.543.622 8.895 4.481 14.655 9.453 21.863.79 1.208 1.578 2.418 2.392 3.661 2.99 4.529 2.99 4.529 6.331 8.789h3.137c.343.913.687 1.827 1.041 2.767 2.88 7.443 6.027 14.46 9.852 21.467 5.38 10.68 7.726 21.307 9.887 33.008.381 1.926.76 3.853 1.152 5.837 1.098 5.627 2.141 11.262 3.161 16.903.31 1.686.621 3.373.941 5.111 1.855 10.492 2.744 20.667 2.947 31.305.238 6.542 1.181 12.117 3.183 18.36 2.909 10.423 2.936 20.346 2.798 31.106-.006 1.995-.012 3.989-.021 6.044-.021 5.243-.062 10.482-.115 15.725-.049 5.373-.07 10.746-.093 16.119-.052 10.496-.13 20.993-.23 31.491-1.553-.517-3.106-1.034-4.705-1.568-1.036-9.316-2.07-18.631-3.137-28.229-1.067 3.202-1.067 3.202-2.156 6.469-.43 1.281-.861 2.563-1.305 3.883-1.015 3.069-1.972 6.157-2.91 9.251-1.471 3.921-1.471 3.921-4.607 5.489-3.91 8.824-6.482 17.809-7.057 27.445-1.199 17.754-8.256 31.222-19.604 44.696-.888 1.175-1.775 2.35-2.69 3.559-5.368 4.067-10.44 3.71-17.01 3.792-9.098.123-9.098.123-17.939 2.059-4.707.153-9.376.22-14.083.209-2.086.002-2.086.002-4.216.003-2.945.002-5.892-.001-8.839-.007-4.477-.009-8.954 0-13.432.009-2.869 0-5.736-.002-8.604-.005-1.327.003-2.653.007-4.021.01-5.91-.024-11.662-.199-17.521-.989-6.364-.829-12.559-1.114-18.963-1.24-2.383-.058-4.765-.117-7.147-.177-3.711-.085-7.421-.166-11.131-.246-3.612-.082-7.223-.172-10.834-.262-1.119-.022-2.239-.043-3.391-.065-7.809-.199-7.809-.199-9.554-1.945-3.722-.25-7.405-.406-11.131-.497-1.112-.031-2.223-.064-3.368-.098-3.565-.102-7.128-.195-10.691-.287-2.411-.068-4.823-.136-7.233-.206-5.921-.167-11.841-.326-17.763-.479-.517 1.552-1.035 3.104-1.568 4.705h-21.956v3.136c-9.797 1.2-16.966-3.018-25.485-7.253-1.476-.72-2.953-1.438-4.474-2.18-8.444-4.156-16.695-8.471-24.636-13.535-3.983-2.466-8.094-4.579-12.253-6.732-16.96-9.339-24.661-20.164-31.954-37.736v-3.138h-3.137c.372 14.948 1.409 27.082 7.841 40.776 1.208 3.125 2.384 6.261 3.529 9.41.526 1.422 1.052 2.847 1.594 4.312 1.15 3.53 1.15 3.53 1.15 6.666-3.712-.369-3.712-.369-7.841-1.569-3.238-4.706-4.605-10.248-6.273-15.682-.472-1.476-.946-2.952-1.434-4.473-3.397-12.287-3.602-23.838-2.823-36.473.367-8.278.367-8.278-4.038-15.165-1.402-1.149-2.806-2.3-4.252-3.484-13.17-17.664-19.67-36.524-23.524-58.027-.29-1.522-.582-3.041-.881-4.608-.805-5.625-1.012-11.078-1.079-16.76-.06-3.04-.06-3.04-.123-6.139.166-5.348 1.282-9.834 2.824-14.949 4.097-15.382 3.302-31.521 3.475-47.329.051-3.315.105-6.629.161-9.943.133-8.056.238-16.11.328-24.167-2.037.031-4.076.064-6.175.097-2.123.035-4.25.014-6.372-.097-1.568-1.568-1.568-1.568-2.057-7.548.069-4.871.314-6.306 3.136-10.487 4.222-2.74 6.531-2.902 11.468-2.353.194-1.455.389-2.912.588-4.411.98-4.999.98-4.999 4.116-9.704h4.705c-.258 1.262-.517 2.523-.784 3.822-.928 6.622-.917 13.031-.783 19.703.417-1.78.832-3.559 1.262-5.392.56-2.385 1.118-4.769 1.678-7.154.41-1.751.41-1.751.828-3.536.554-2.36 1.112-4.719 1.677-7.076.542-2.298 1.068-4.601 1.571-6.91 1.11-4.892 2.249-8.902 4.881-13.202 2.827-4.819 2.952-8.522 3.197-14.072.531-10.916.531-10.916 2.157-16.368h3.136c.517 4.658 1.036 9.315 1.569 14.115 5.894-5.827 11.777-11.665 17.63-17.533.99-.99 1.978-1.981 2.996-3.002 3.843-3.965 7.504-8.063 11.064-12.283 3.888-4.498 7.967-8.809 12.025-13.153 5.928-6.36 11.609-12.819 17.056-19.604 8.979-11.132 18.273-20.58 30.19-28.523-2.323-.116-2.323-.116-4.693-.233-2.009-.116-4.02-.234-6.09-.355-2.001-.11-4.002-.218-6.064-.331-5.109-.649-5.109-.649-8.247-3.785V57.85c5.862-2.706 10.421-3.527 16.86-3.432 1.512.011 3.026.021 4.582.032 3.652.263 3.652.263 5.22 1.831.517-1.035 1.035-2.07 1.568-3.136 2.904-.164 5.815-.204 8.725-.196 14.99-.847 26.98-8.223 39.711-15.643 6.809-2.901 14.555-2.01 21.844-2.001Z"></path>
  <path fill="#0ACAF4" d="M132.388 161.357c18.749-.637 36.485 3.44 54.585 7.835 5.863 1.419 11.749 2.696 17.655 3.927 12.075 2.543 24.019 5.567 35.973 8.626v4.705c2.56 2.156 5.177 4.243 7.841 6.272 1.552 2.33 1.552 2.33 3.136 4.705-11.835 6.431-23.566 11.371-36.4 15.4-7.196 2.359-9.737 4.077-15.353 9.693h26.661c-1.569 6.273-1.569 6.273-3.137 7.842-3.791.591-7.562 1.108-11.37 1.568-6.718.828-13.376 1.7-19.996 3.136-.517 2.07-1.035 4.14-1.568 6.274h-3.137c.098 1.33.195 2.66.295 4.03-.351 6.418-2.175 10.398-5 16.161-.485 1.004-.972 2.009-1.473 3.045-1.58 3.243-3.188 6.47-4.8 9.697-1.118 2.261-2.237 4.522-3.356 6.782-3.039 6.117-6.112 12.216-9.19 18.312-.707 1.563-1.415 3.128-2.144 4.74-3.254 5.932-7.315 10.688-11.774 15.745-1.216 1.408-1.216 1.408-2.457 2.846-6.588 7.574-13.54 14.585-21.013 21.291-2.142 1.984-4.285 3.969-6.425 5.955-1.67 1.452-1.67 1.452-3.374 2.934-3.122 2.957-5.575 5.476-7.703 9.22-.003 5.088 1.539 9.33 3.136 14.115.418 5.274.418 5.274.393 9.899.007 1.546.017 3.094.025 4.688-.43 4.364-1.617 6.648-3.554 10.506-1.76 15.43-1.586 38.21 7.793 51.385 3.997 3.714 8.066 6.736 12.594 9.778 1.859 1.321 3.712 2.645 5.563 3.975 4.884 3.473 9.832 6.829 14.826 10.139-.519 1.036-1.036 2.07-1.569 3.137-3.725-.392-3.725-.392-7.841-1.568-.392-.894-.784-1.788-1.189-2.708-2.861-5.236-7.418-8.149-12.142-11.603-9.955-7.409-9.955-7.409-13.33-10.782h-4.705c-2.861-2.635-2.861-2.635-5.783-6.077-.977-1.129-1.954-2.257-2.959-3.419-2.236-3.05-2.236-3.05-2.236-6.186h-3.137c-2.171-3.083-4.253-6.228-6.273-9.41-.905-1.068-1.812-2.136-2.744-3.236-2.473-3.833-2.332-6.406-1.961-10.879h-3.136c-7.914-12.366-7.914-12.366-6.274-20.388 2.569-1.642 5.192-3.199 7.842-4.705 5.907-8.205 7.388-15.082 7.841-25.092h-6.273c.389-1.102.777-2.201 1.176-3.333.548-6.284-2.423-8.785-5.881-13.918-.392-5.294-.392-5.294 0-9.41h3.137v-6.274c1.844.129 3.687.259 5.588.392 7.349-.026 12.231-2.084 17.936-6.665 1.821-2.225 3.637-4.457 5.354-6.764 3.347-3.56 7.219-5.865 11.31-8.526 7.668-5.404 10.323-9.087 12.179-18.177 1.441-6.289 4.308-11.797 7.093-17.589 2.381-5.36 3.254-9.963 3.958-15.792.881-5.294.881-5.294 4.019-8.43.624-3.118 1.157-6.257 1.567-9.41-1.23.452-2.462.906-3.73 1.373-8.991 3.177-16.507 5.769-26.067 4.901v-4.705c-1.155.471-2.308.94-3.497 1.427-2.297.894-2.297.894-4.638 1.807-1.51.6-3.02 1.2-4.576 1.819-4.868 1.308-7.597 1.043-12.382-.348 4.125-4.708 8.966-7.37 14.385-10.435.942-.534 1.883-1.069 2.855-1.621 3.006-1.706 6.017-3.403 9.03-5.098 2.002-1.134 4.003-2.268 6.003-3.404 3.712-2.104 7.425-4.202 11.143-6.299 5.402-3.055 10.793-6.131 16.179-9.214-19.357-.781-19.357-.781-35.874 8.038-.836.845-1.673 1.688-2.536 2.56-2.365 1.948-2.365 1.948-7.07 1.948.196-2.745.196-2.745 1.568-6.273 7.464-6.315 15.741-8.54 25.093-10.978.033-1.714.064-3.43.099-5.196.485-1.908.969-3.817 1.469-5.782 5.521-3.17 9.31-4.705 15.684-4.705v-3.136H99.454v-3.138c-3.622.519-7.245 1.036-10.978 1.569v-7.841c10.506-2.718 20.563-4.808 31.452-5.202 2.608-.098 2.608-.098 5.268-.2 1.791-.061 3.582-.121 5.428-.186 1.829-.067 3.655-.135 5.538-.206 4.492-.164 8.985-.323 13.478-.48-5.693-2.07-11.387-4.14-17.252-6.272v-3.137Z"></path>
  <path fill="#FAFBFB" d="M80.635 173.903c2.587 1.035 5.175 2.071 7.841 3.137v7.841c5.434-.776 5.434-.776 10.978-1.569v3.138h54.891v3.136c-5.176 1.553-10.351 3.106-15.684 4.705v10.978c-4.687 2.454-9.174 4.628-14.211 6.273-4.698 1.599-8.415 3.391-12.45 6.273-.776 2.329-.776 2.329-1.568 4.705 6.778-3.052 6.778-3.052 12.253-7.94 9.126-8.083 23.339-6.56 34.796-6.174-4.125 4.708-8.966 7.369-14.384 10.431-1.414.804-1.414.804-2.855 1.624-3.006 1.706-6.017 3.402-9.03 5.097-2.002 1.134-4.002 2.268-6.004 3.404-3.712 2.104-7.426 4.204-11.141 6.301-5.404 3.053-10.794 6.13-16.181 9.213 5.115 1.728 7.723 1.448 12.645-.686 4.174-1.787 6.217-2.45 10.879-2.45v4.705c8.205-1.498 15.793-3.09 23.525-6.274h6.272c.59 8.648.59 8.648-2.352 12.448-2.865 3.256-2.865 3.256-2.253 8.332-.109 6.505-1.526 9.368-4.571 14.906-2.744 5.364-4.627 10.995-6.616 16.673-.482 1.353-.963 2.706-1.459 4.1-.373 1.304-.747 2.608-1.132 3.95-2.785 5.408-7.057 8.29-11.904 11.733-6.666 4.831-12.582 9.732-18.329 15.683-3.798 3.079-6.175 4.739-11.126 4.637-3.103-.378-6.187-.928-9.262-1.501v6.274h-3.137c1.884 8.856 1.884 8.856 5.881 16.859.648 1.164 1.295 2.328 1.96 3.528-1.273 3.626-1.273 3.626-3.136 6.274h6.273c1.029 9.875-.249 16.067-5.666 24.412-.718.742-1.435 1.483-2.175 2.248h-4.705c-.518 1.553-1.035 3.106-1.568 4.705-4.427-3.56-6.131-5.371-7.03-11.075.007-1.854.014-3.709.021-5.619-.017-2.054-.035-4.109-.053-6.226.002-1.076.003-2.154.004-3.262 0-18.246-.757-34.873-7.057-52.232-7.552-21.575-5.472-43.533-2.646-65.868.184-1.46.369-2.919.558-4.423 2.896-20.775 2.896-20.775 6.793-30.08 2.426-1.068 2.426-1.068 4.901-2.156 1.488-.843 2.976-1.683 4.509-2.549 1.355-6.782 1.549-13.484 1.568-20.387-1.552-.519-3.105-1.036-4.705-1.569 2.588-5.175 5.175-10.351 7.842-15.683Z"></path>
  <path fill="#0ACBF5" d="M396.058 139.302c1.426.014 2.854.028 4.325.044 1.644.026 1.644.026 3.32.055 1.052 2.545 2.096 5.093 3.136 7.645.582 1.419 1.166 2.839 1.765 4.3 1.372 3.738 1.372 3.738 1.372 6.874h-3.137c2.597 8.852 5.497 15.986 10.978 23.525 4.279 6.427 6.8 13.158 9.239 20.43.416 1.218.833 2.439 1.262 3.694 1.345 3.947 2.676 7.897 4.006 11.847l2.766 8.154c6.123 18.087 12.166 36.196 17.746 54.458.993 3.162 2.059 6.29 3.154 9.42 3.139 9.494 4.432 17.171 3.547 27.169-.759 9.625-1.062 19.165-1.054 28.818-.015 2.598-.031 5.197-.049 7.796-.026 3.946-.037 7.889.004 11.835.182 21.378-3.573 36.827-15.528 54.759-8.229-9.302-6.46-21.236-6.273-32.934H433.5c.017-1.504.033-3.008.051-4.558.056-5.57.092-11.141.121-16.711.016-2.414.038-4.826.065-7.238.037-3.466.057-6.93.071-10.394.016-1.083.03-2.163.048-3.279 0-2.67-.164-5.341-.356-8.005-1.035-1.036-2.07-2.07-3.137-3.137-1.102-2.625-2.198-5.251-3.264-7.892-1.501-3.218-3.316-5.873-5.361-8.771-4.634-7.084-5.992-14.541-7.565-22.772-.852-4.757-.852-4.757-4.197-9.182.517-.517 1.035-1.036 1.568-1.569.566-5.798-.077-10.079-2.254-15.389-3.564-8.96-4.093-17.267-3.884-26.881.023-1.108.047-2.216.072-3.357.056-2.214.145-4.429.264-6.641.152-5.459-.248-8.539-3.167-13.207-3.49-3.443-7.002-6.477-10.928-9.41-6.743-5.077-6.743-5.077-8.333-6.666-3.747-.178-7.449-.257-11.196-.263-1.693-.008-1.693-.008-3.42-.015-2.393-.009-4.788-.013-7.183-.013-3.647-.003-7.295-.032-10.945-.062-2.325-.004-4.651-.007-6.977-.009-1.629-.016-1.629-.016-3.294-.032-6.297.027-10.848 1.012-16.579 3.531-4.407.215-8.641.298-13.036.196-1.162-.014-2.323-.028-3.519-.044-2.847-.036-5.691-.092-8.538-.152.588-3.824.588-3.824 1.569-7.842 3.505-1.753 5.645-1.86 9.54-2.034 1.977-.093 1.977-.093 3.994-.189 1.426-.061 2.849-.123 4.317-.184 1.457-.067 2.916-.135 4.417-.205 4.667-.214 9.333-.419 13.998-.622 3.16-.143 6.319-.287 9.477-.432 7.754-.354 15.508-.698 23.262-1.039-1.949-1.254-3.901-2.501-5.857-3.744-1.631-1.043-1.631-1.043-3.293-2.109-11.597-6.791-23.039-7.431-36.232-7.281-2.402-.028-2.402-.028-4.85-.055-9.49.037-17.483 1.18-26.43 4.387-4.575 1.323-8.212.701-12.732-.608.43-2.984.43-2.984 1.569-6.272 17.138-7.388 36.237-9.85 54.774-10.385 5.581-.195 10.591-.78 16.002-2.193 9.801-2.34 19.675-1.872 29.693-1.733 1.956.014 3.912.029 5.926.043 4.789.036 9.576.087 14.363.153v-3.136c-1.171-.078-2.344-.155-3.552-.234-1.545-.117-3.089-.234-4.681-.354-1.528-.111-3.056-.219-4.631-.332-4.284-.634-7.07-1.392-10.66-3.785-1.176-4.117-1.176-4.117-1.568-7.842 6.907-5.634 10.1-8.055 19.016-7.94Z"></path>
  <path fill="#080909" d="M132.388 161.357c18.749-.637 36.485 3.44 54.585 7.835 5.863 1.419 11.749 2.696 17.655 3.927 12.075 2.543 24.019 5.567 35.973 8.626v4.705c2.56 2.156 5.177 4.243 7.841 6.272 1.552 2.33 1.552 2.33 3.136 4.705-2.329.777-2.329.777-4.705 1.569v-3.136c-11.813-2.35-19.343-1.339-30.145 3.772-9.224 4.152-19.165 6.568-28.883 9.282-8.728 2.528-16.035 5.652-23.848 10.261-5.456 2.868-11.096 4.089-17.102 5.305-1.142.251-2.283.501-3.461.759-5.759 1.255-11.537 2.416-17.319 3.554 3.277-3.527 6.445-5.93 10.653-8.252 1.117-.621 2.235-1.244 3.385-1.884 1.157-.633 2.315-1.267 3.508-1.92 1.174-.651 2.351-1.304 3.561-1.977 2.894-1.603 5.793-3.196 8.69-4.786-19.351-.757-19.351-.757-35.874 8.038-.836.845-1.673 1.688-2.536 2.56-2.365 1.948-2.365 1.948-7.07 1.948.196-2.745.196-2.745 1.568-6.273 7.464-6.315 15.741-8.54 25.093-10.978.033-1.714.064-3.43.099-5.196.485-1.908.969-3.817 1.469-5.782 5.521-3.17 9.31-4.705 15.684-4.705v-3.136H99.454v-3.138c-3.622.519-7.245 1.036-10.978 1.569v-7.841c10.506-2.718 20.563-4.808 31.452-5.202 2.608-.098 2.608-.098 5.268-.2 1.791-.061 3.582-.121 5.428-.186 1.829-.067 3.655-.135 5.538-.206 4.492-.164 8.985-.323 13.478-.48-5.693-2.07-11.387-4.14-17.252-6.272v-3.137Z"></path>
  <path fill="#F8F9F9" d="M381.747 97.057c5.415 4.642 9.078 10.291 9.704 17.514 0 3.051-.136 6.099-.294 9.146 1.228.357 2.458.711 3.724 1.078 4.117 2.06 4.117 2.06 6.274 5.784 1.011 4.247.907 6.35-.589 10.39-1.875-.13-3.751-.258-5.685-.392-7.007.013-11.038 1.824-16.271 6.665-.787 4.188-.787 4.188 0 7.842 2.07.517 4.14 1.035 6.273 1.568v3.137h-47.049c7.657-7.657 12.922-10.541 22.515-14.703 4.835-2.972 5.802-5.013 7.283-10.39-3.105-.517-6.211-1.035-9.41-1.569 2.095-7.557 5.201-12.742 9.998-18.918 1.209-1.569 2.418-3.141 3.664-4.76 3.27-4.145 6.555-8.277 9.863-12.392Z"></path>
  <path fill="#F5F8F9" d="M427.227 209.974c3.136 1.568 3.136 1.568 5.215 7.007.797 2.441 1.583 4.885 2.357 7.333.426 1.316.851 2.632 1.291 3.988 1.371 4.244 2.722 8.494 4.075 12.743.888 2.75 1.776 5.5 2.665 8.249 2.231 6.915 4.417 13.843 6.588 20.777 1.35 4.253 2.746 8.489 4.149 12.726.884 2.751 1.767 5.504 2.65 8.256.42 1.236.842 2.471 1.274 3.745 2.91 9.259 2.676 16.986 1.102 26.524-3.46-5.191-4.363-9.126-5.685-15.193-.408-1.849-.817-3.7-1.238-5.605-.303-1.418-.606-2.834-.918-4.294-1.211.065-2.422.129-3.671.196-4.171-.196-4.171-.196-8.189-3.333-9.816-12.081-11.919-23.186-11.817-38.551.003-1.917.003-1.917.006-3.869.008-4.059.029-8.118.049-12.176.008-2.76.014-5.52.02-8.28.017-6.748.045-13.496.077-20.243Z"></path>
  <path fill="#F9F9F9" d="M222.872 270.138c1.788.494 1.788.494 3.614.999 1.674 15.233-1.585 24.065-10.979 36.071-2.935 2.936-7.741 1.841-11.663 1.861-1.842.023-3.684.046-5.581.068-4.712-.361-4.712-.361-7.848-3.497-.692-3.535-.692-3.535 0-7.842 2.553-3.43 4.973-6.29 7.94-9.312.787-.824 1.575-1.647 2.387-2.494 2.283-2.363 4.598-4.693 6.924-7.014 1.095-1.111 2.188-2.223 3.314-3.37 6.554-6.19 6.554-6.19 11.892-5.47Z"></path>
  <path fill="#111112" d="M350.822 445.18c7.436 2.799 15.238 3.701 23.083 4.743.776 3.105.776 3.105 1.568 6.273-10.261.785-17.908-.226-27.261-4.596-10.184-4.165-18.781-5.27-29.589-4.325-1.165.093-2.331.184-3.53.278-2.334.185-4.666.375-6.997.571-2.737.197-5.482.266-8.225.31-11.345.295-19.228 3.83-29.21 8.727-11.317 5.165-21.092 4.241-33.198 2.171.519-1.552 1.036-3.105 1.569-4.705 4.001-1.306 7.759-2.285 11.861-3.136 1.196-.263 2.395-.527 3.629-.8 3.718-.806 7.443-1.578 11.171-2.337 1.103-.227 2.205-.455 3.34-.688 59.259-12.054 59.259-12.054 81.789-2.486Z"></path>
  <path fill="#F9F9F9" d="M261.968 247.514c1.923.022 1.923.022 3.885.044 1.474.026 1.474.026 2.977.055.812 11.765-1.766 16.603-9.41 25.681-7.582 4.106-15.123 4.079-23.524 2.548-4.584-2.703-6.253-4.939-9.41-9.41v-4.705c28.621-14.311 28.621-14.311 35.482-14.213Z"></path>
  <path fill="#EBEBEB" d="M247.365 41.284c2.765.046 2.765.046 5.584.092 13.544.359 26.352 1.822 39.405 5.495-5.344 3.032-10.575 4.309-16.565 5.587-1.781.391-3.562.781-5.397 1.182-14.78 2.737-29.233 2.718-44.2 1.954-1.792-.081-3.585-.163-5.431-.247-4.366-.202-8.73-.413-13.095-.634v-3.137c13.497-8.089 24.04-10.829 39.699-10.292Z"></path>
  <path fill="#F5F5F5" d="M338.718 350.336c5.53.804 7.83 1.509 11.663 5.489 1.758 5.271 1.776 9.352 1.764 14.898.007 2.694.007 2.694.012 5.44-.208 4.755-.208 4.755-1.776 9.46-5.097.489-5.097.489-10.978 0-6.219-5.672-10.616-14.302-14.115-21.956 0-4.705 0-4.705 3.236-8.921 4.605-3.625 4.605-3.625 10.194-4.41Z"></path>
  <path fill="#ECECEC" d="M53.974 310.345c8.961 16.16 11.722 34.927 11.762 53.126.014 2.221.014 2.221.028 4.489-.139 7.66-.381 11.675-5.518 17.663-7.748-16.954-9.827-34.347-9.898-52.833-.009-1.332-.018-2.663-.027-4.035.078-6.819.481-12.207 3.653-18.41Z"></path>
  <path fill="#0C0C0C" d="M297.023 377.653c25.994 1.919 25.994 1.919 35.323 11.4 4.891 6.186 4.728 10.854 3.92 18.525h-4.705c-2.982-3.608-2.982-3.608-6.174-8.331-5.229-7.953-5.229-7.953-12.645-13.624-4.78-.568-4.78-.568-9.802-.295-1.689.042-3.38.084-5.121.129-1.285.055-2.572.109-3.897.166-2.717 4.257-2.717 4.257-4.705 9.409 1.28 4.114 1.28 4.114 3.137 7.842-.588 3.626-.588 3.626-1.568 6.273-6.078-1.372-6.078-1.372-7.842-3.136-.915-7.975-.889-14.022 2.941-21.173 5.987-7.044 5.987-7.044 11.138-7.185Z"></path>
  <path fill="#0E0F0F" d="M339.917 194.122c5.318-.15 10.633-.243 15.952-.322 2.541-.069 2.541-.069 5.132-.141 1.591-.011 3.179-.024 4.818-.036 1.41-.024 2.82-.045 4.274-.069 4.977.961 6.861 3.217 10.085 7.01-2.147.045-2.147.045-4.338.094-5.335.123-10.668.259-16.002.403-2.304.06-4.608.115-6.914.165-3.322.072-6.641.161-9.961.257-1.997.048-3.992.099-6.048.149-5.107.477-8.536 1.634-13.195 3.637-4.407.215-8.641.298-13.036.196-1.162-.014-2.323-.028-3.519-.044-2.847-.036-5.691-.092-8.538-.152.588-3.824.588-3.824 1.569-7.842 10.494-5.247 28.108-2.931 39.721-3.305Z"></path>
  <path fill="#0DCAF2" d="M62.992 169.884c1.094.082 2.187.164 3.313.247 2.686.202 5.371.418 8.056.635-2.928 7.463-2.928 7.463-4.801 10.879-1.881 4.138-2.428 8.164-3.04 12.646-.517-1.036-1.036-2.07-1.569-3.136-3.782-.972-3.782-.972-8.233-1.569-14.322-2.168-14.322-2.168-18.428-6.274-.488-3.724-.488-3.724 0-7.841 7.237-7.236 15.106-6.377 24.702-5.587Z"></path>
  <path fill="#1ACEF5" d="M396.058 139.302c1.426.014 2.854.028 4.325.044 1.096.017 2.191.035 3.32.055 1.052 2.545 2.096 5.093 3.136 7.645.874 2.128.874 2.128 1.765 4.3 1.372 3.738 1.372 3.738 1.372 6.874h-3.137v9.41h-12.546v-3.136c2.587-.518 5.175-1.036 7.841-1.569v-3.136c-1.171-.078-2.344-.155-3.552-.234-1.545-.117-3.089-.234-4.681-.354-1.528-.111-3.056-.219-4.631-.332-4.284-.634-7.07-1.392-10.66-3.785-1.176-4.117-1.176-4.117-1.568-7.842 6.907-5.634 10.1-8.055 19.016-7.94Z"></path>
  <path fill="#F1F1F1" d="M250.01 406.011c1.568 1.567 1.568 1.567 2.218 5.065-.939 6.287-4.746 8.905-9.472 12.675-.818.713-1.637 1.426-2.48 2.16-4.286 3.518-7.106 5.145-12.656 5.768-4.271-.576-4.271-.576-7.308-2.439-1.667-2.842-1.667-2.842-1.863-6.47 3.154-7.536 9.643-11.918 16.662-15.78 5.081-1.27 9.686-1.28 14.899-.979Z"></path>
  <path fill="#0ACCF6" d="M55.541 197.427h4.705c-.344 4.873-.754 9.738-1.175 14.605-.098 1.381-.195 2.763-.294 4.186-.927 10.155-.927 10.155-4.515 14.285-5.622 2.342-9.912 1.823-15.972 1.427-1.568-1.568-1.568-1.568-2.057-7.548.069-4.871.314-6.306 3.136-10.487 4.222-2.74 6.531-2.902 11.468-2.353.194-1.455.389-2.912.588-4.411.98-4.999.98-4.999 4.116-9.704Z"></path>
  <path fill="#F5F5F5" d="M273.535 246.045c6.11-.046 12.22-.074 18.33-.099 1.729-.013 3.458-.027 5.241-.04 2.509-.007 2.509-.007 5.069-.016 1.535-.007 3.072-.014 4.653-.025 4.227.175 8.071.797 12.187 1.748-1.889 4.06-3.028 6.457-6.273 9.409-5.212 1.334-10.237 1.102-15.584.882-1.403-.003-2.804-.006-4.249-.01-7.466-.148-13.605-.289-19.374-5.577v-6.272Z"></path>
  <path fill="#0FCBF3" d="M411.544 97.057c-.29.873-.582 1.745-.881 2.645-.965 3.656-.965 3.656.299 7.303.929 6.643-2.228 10.139-5.949 15.414-2.879 2.867-2.879 2.867-8.955 3.748-1.617-.289-3.234-.582-4.901-.881-1.486-4.085-2.043-6.755-.277-10.807 1.578-2.721 3.274-5.373 4.981-8.013h3.137c.42-.97.84-1.941 1.275-2.94 2.891-5.177 5.401-6.469 11.271-6.469Z"></path>
  <path fill="#F2F2F2" d="M264.125 365.235c-.83 8.453-3.863 14.494-7.939 21.76-.888 1.619-.888 1.619-1.793 3.272-1.449 2.64-2.913 5.272-4.383 7.902-2.941-.491-2.941-.491-6.273-1.568-3.136-4.705-3.136-4.705-3.333-8.822 2.925-8.771 9.66-16.654 17.662-21.393 2.922-1.151 2.922-1.151 6.059-1.151Z"></path>
  <path fill="#F4F4F4" d="M323.72 249.181c12.552 2.127 23.115 6.95 34.502 12.546-.517 1.553-1.035 3.106-1.568 4.705-4.315.212-8.619.367-12.939.49-1.218.066-2.437.132-3.692.198-9.064.195-9.064.195-13.999-4.315-2.695-4.931-2.819-8.086-2.304-13.624Z"></path>
  <path fill="#14CDF5" d="M91.612 206.837c1.892 5.673 1.537 7.933-.489 13.723-2.647 5.097-2.647 5.097-5.783 6.665-4.705.293-4.705.293-9.41 0-3.137-3.137-3.137-3.137-4.705-7.548 0-4.998 0-4.998 3.92-9.507 5.367-3.945 9.867-3.993 16.467-3.333Z"></path>
  <path fill="#08C9F2" d="M138.661 195.86v9.409c-7.705 4.741-14.635 6.074-23.524 4.705-1.035-1.035-2.07-2.071-3.137-3.137 0-3.04 0-3.04 1.569-6.273 7.955-5.712 15.727-5.205 25.092-4.704Z"></path>
  <path fill="#10CDF6" d="M438.205 137.832c.491 5.195.491 5.195 0 10.978-4.344 3.962-7.091 4.647-12.939 5.098-4.312-.393-4.312-.393-5.88-1.961-.588-3.627-.588-3.627 0-7.841 5.804-6.508 10.343-6.939 18.819-6.274Z"></path>
  <path fill="#DDD" d="M424.09 184.881h3.137c7.716 13.17 12.609 26.214 16.467 40.972.419 1.579.838 3.16 1.269 4.788 3.105 12.436 3.105 12.436 1.084 18.54-.387-1.129-.774-2.257-1.172-3.421-9.302-27.38-9.302-27.38-19.564-54.409-1.221-3.334-1.221-3.334-1.221-6.47Z"></path>
  <path fill="#0E1011" d="M216.684 222.225c1.836.043 3.671.085 5.562.129 1.4.054 2.798.11 4.24.166-1.373 6.077-1.373 6.077-3.137 7.842-3.791.591-7.562 1.108-11.37 1.568-6.718.828-13.376 1.7-19.996 3.136 12.84-13.196 12.84-13.196 24.701-12.841Z"></path>
  <path fill="#1EBFE0" d="M80.635 173.903c3.881 1.552 3.881 1.552 7.841 3.137.153 9.647.153 9.647 0 12.546-1.569 1.569-1.569 1.569-5.586 1.665-1.262-.03-2.524-.064-3.824-.096v14.114h-1.568v-14.114c-1.552-.519-3.105-1.036-4.705-1.569 2.588-5.175 5.175-10.351 7.842-15.683Z"></path>
  <path fill="#EFF5F6" d="M413.995 180.274c3.822 1.471 3.822 1.471 6.567 4.803 2.253 5.181 2.98 9.882 3.528 15.487-1.035-.518-2.07-1.035-3.136-1.568v-3.136c-.913-.418-1.828-.833-2.768-1.263-3.603-1.926-6.332-4.075-9.386-6.776-.961-.845-1.924-1.69-2.915-2.56-.721-.644-1.441-1.286-2.182-1.949 3.856-2.104 5.817-3.147 10.292-3.038Z"></path>
  <path fill="#0C0D0D" d="M388.019 261.727c10.295 2.895 17.782 11.394 25.093 18.82-.517 1.553-1.035 3.105-1.568 4.705-6.582-.767-9.286-4.272-13.527-9.116-1.216-1.368-2.433-2.737-3.687-4.147-2.686-3.375-4.605-6.33-6.311-10.262Z"></path>
  <path fill="#0F1112" d="M122.979 228.793c1.034.518 2.07 1.035 3.136 1.569-1.035.646-2.07 1.294-3.136 1.96-1.036.905-2.071 1.812-3.137 2.744v6.274c-2.439 1.102-4.891 2.175-7.351 3.234-1.364.6-2.73 1.2-4.135 1.819-4.703 1.366-7.386.984-12.039-.348 4.368-5.094 10.032-8.094 15.782-11.371.999-.591 2-1.18 3.029-1.789 2.56-1.468 5.202-2.791 7.851-4.092Z"></path>
  <path fill="#030404" d="M402.134 158.22v6.274c-21.736-.777-21.736-.777-43.912-1.569v-1.568c14.681-1.928 29.067-3.714 43.912-3.137Z"></path>
  <path fill="#fff" d="M306.468 155.084c.518 1.552 1.036 3.105 1.569 4.705 4.14-1.036 8.281-2.071 12.546-3.137v3.137c-9.321 5.178-17.707 7.77-28.229 9.409l14.114-14.114Z"></path>
  <path fill="#070F11" d="M184.142 228.793c-.881 2.941-.881 2.941-3.137 6.273-6.107 2.262-10.719 3.137-17.251 3.137.295-2.94.295-2.94 1.568-6.273 6.138-3.612 11.836-3.411 18.82-3.137Z"></path>
  <path fill="#121616" d="M129.251 208.406c1.036 1.034 2.07 2.07 3.137 3.136-1.099.356-2.199.711-3.333 1.078-3.979 1.817-6.204 3.347-9.41 6.176-4.508 3.724-4.508 3.724-9.213 3.724.196-2.745.196-2.745 1.568-6.273 5.431-4.32 10.213-7.451 17.251-7.841Z"></path>
  <path fill="#fff" d="M348.812 120.581c0 4.705 0 4.705-3.155 8.429-2.077 2.038-2.077 2.038-4.195 4.117-1.364 1.358-2.73 2.717-4.136 4.117-3.845 3.413-7.542 5.966-12.038 8.43 2.47-6.001 6.289-9.794 10.881-14.311 1.372-1.363 2.745-2.725 4.159-4.129 3.779-3.517 3.779-3.517 8.484-6.653ZM193.551 186.45h9.41v3.136c-9.493 4.455-17.625 6.274-28.229 6.274.517-1.036 1.035-2.071 1.568-3.138 3.927-.992 3.927-.992 8.724-1.763 2.382-.396 2.382-.396 4.809-.797 1.228-.191 2.454-.38 3.718-.576v-3.136Z"></path>
  <path fill="#E1E1E1" d="M319.015 349.552c3.283 6.949 3.283 6.949 2.548 11.467-.323.874-.645 1.747-.98 2.648-7.841-9.018-7.841-9.018-7.841-12.546 3.136-1.569 3.136-1.569 6.273-1.569Z"></path>
  <path fill="#181919" d="M297.058 445.218c2.612.533 5.226 1.059 7.843 1.568v1.568c-10.093.777-10.093.777-20.389 1.569.518-1.553 1.036-3.106 1.569-4.705 5.111-1.705 6.064-1.446 10.977 0Z"></path>
  <path fill="#FDFDFD" d="M71.225 158.22h1.568v12.546H66.52v-6.272h4.705v-6.274Z"></path>
</svg>