<svg width="197" height="219" viewBox="0 0 197 219" fill="none" xmlns="http://www.w3.org/2000/svg">
<g clip-path="url(#clip0_14_12)">
<path d="M20 62.5C52.5 11.5 73.0082 6.36754 138 12.5C198 74 199.052 171.92 178.257 217.498C113.883 217.498 85.6716 219 25.7633 219C3.97853 152.887 -12.5 113.5 20 62.5Z" fill="#FCFCFC"></path>
<path fill-rule="evenodd" clip-rule="evenodd" d="M115.348 1.77538L111.875 1.81249C111.168 1.81289 110.463 1.8109 109.758 1.80891C105.113 1.79584 100.499 1.78284 95.8845 2.45141C78.829 5.69506 57.3771 10.0722 46.6318 24.8862C45.6273 26.315 44.6225 27.7436 43.6174 29.1721L42.0625 31.375C40.5964 33.4562 39.1037 35.4815 37.5064 37.4639C34.6687 40.3577 31.6834 40.9279 27.7656 41.125L26.5 41.5L26 43L14.5 44.5L14 45L13.5 45.5V46L14 46.5L15 47L26 48C25.5049 49.0373 25.2704 49.5287 25.0003 49.9996C24.7572 50.4233 24.4852 50.8305 23.9685 51.604L22.7148 53.4766L21.3574 55.5078L19.9375 57.625C18.2929 60.0841 16.6472 62.5426 15 65L14 57H12C11.8013 61.4899 11.4063 65.7182 10.043 70.0195C7.73064 76.3846 6.54763 81.2143 7.00001 88H8.00001C8.03242 89.0102 8.0484 89.5081 8.00004 89.9997C7.95305 90.4774 7.84529 90.9492 7.63282 91.8794L7.12501 94.1328L6.57813 96.5742L6.00001 99.125C5.3355 102.084 4.66924 105.042 4.00001 108C4.02052 105.054 4.037 102.108 4.04883 99.1621L4.06251 95.5625L4.0879 91.9746L4.09766 88.5664L4.11353 85.4084C4.0436 83.9248 4.01674 83.3551 3.77266 82.9026C3.62053 82.6205 3.38395 82.3839 3.00001 82C1.96105 83.0389 1.46181 83.5382 1.18537 84.1398C0.929655 84.6963 0.86458 85.3404 0.73931 86.5803L0.725348 89.8923C0.710546 91.8177 0.696483 93.743 0.696852 95.6684C0.698442 97.0595 0.697277 98.4506 0.693434 99.8417C0.683571 102.763 0.676974 105.684 0.680304 108.605C0.68566 111.63 0.691017 114.655 0.677435 117.68C0.664148 119.853 0.636987 122.042 0.609686 124.242C0.357947 144.53 0.0943022 165.777 10.5859 183.711C13.799 189.056 15.3882 193.184 16.0625 199.437C16.1856 201.371 16.2708 202.708 16.4919 204.022C16.9881 206.971 18.1691 209.806 22 219H51V217C50.3752 216.422 49.9018 215.984 49.4002 215.581C47.8316 214.322 45.9872 213.406 38.375 209.625C37.8504 209.372 37.33 209.131 36.8199 208.894C33.4717 207.341 30.4963 205.961 28.6953 202.473C28.3547 201.261 28.1809 200.643 27.8976 200.081C27.6025 199.495 27.1886 198.969 26.3438 197.895C22.8946 194 20.6368 190.929 19.6875 185.75C19.3653 183.189 19.0158 181.042 18.1094 178.617C16.8173 175.569 15.6727 172.494 14.5625 169.375C8.43546 151.204 1.5895 116.497 10.1563 98.582C13.2059 92.2965 14.451 86.9024 14.6875 80L14.6946 79.5444C14.7741 74.3552 14.8342 70.4283 18.4805 66.3401L20.1875 64.7226C21.4536 63.4976 22.7246 62.2777 24 61.0625C24.2765 60.8008 24.5511 60.5423 24.8234 60.2859C27.8369 57.4494 30.5728 54.8741 32.4375 51.0586L33 49C44.9261 51.602 51.6782 55.8964 60 65L57.6992 65.1836L54.6875 65.4375C51.5382 65.6968 49.0078 65.9974 46 67C37.622 70.288 31.149 75.6485 27.5 84C25.4879 89.8396 24.906 94.4789 27.4375 100.312C28.9974 103.476 29.3462 106.302 29.625 109.812C29.9631 115.649 31.7983 118.864 36 123C38.1769 124.39 39.5965 125.296 41.1429 125.845C44.0416 126.874 47.3862 126.648 56.9985 126L57.0149 125.992C58.2503 125.374 59.1648 124.917 60.013 124.361C62.4089 122.79 64.2866 120.428 71.4453 111.426L73.25 109.125C80.3552 100.386 83.5394 93.3275 83 82L80 81.5L78.8516 81.9766L78.625 84.625C78.1195 90.86 76.3853 95.7472 73.0305 101.05L71.875 102.812C69.6404 106.239 67.3369 109.563 64.8399 112.805C58.9334 119.747 54.0063 122.224 45 123C45.4042 122.217 45.6451 121.75 45.8546 121.27C46.1634 120.562 46.4042 119.825 47 118C47.0346 117.676 47.0714 117.351 47.1078 117.029C47.5017 113.547 47.8846 110.162 45.668 107.25C44.9781 106.733 44.5736 106.43 44.1241 106.226C43.4868 105.936 42.7592 105.845 41 105.625C39.3049 105.837 38.5676 105.929 37.9425 106.244C37.4613 106.486 37.0465 106.861 36.3125 107.523L35 109C33.8694 106.673 32.859 104.332 31.9063 101.926C30.0041 95.7847 29.9513 89.622 32.5625 83.6875C36.0593 77.6999 41.2477 73.6288 47.8164 71.4648C53.4863 70.2578 58.9037 70.0619 64 73C69.1372 76.0071 71.064 77.51 72.5 83L73 84.5L74 85L75.5 84L77 82.5L77.8323 80.8923L78 80C78 78.9728 78 78.4731 77.8323 78.0381C77.6735 77.6262 77.3644 77.2722 76.7625 76.583L75.043 74.9531C73.7624 73.714 72.477 72.4798 71.1875 71.25C66.8304 67.1245 63.3354 63.6606 61 58L65.0001 57.9999C65.3216 57.1523 65.4927 56.701 65.6158 56.2371C65.7559 55.709 65.8337 55.1643 66 54C65.3428 53.1867 64.8208 52.5407 64.2181 51.9817C61.89 49.8222 58.3582 48.9604 41.1836 44.7695L38 44C39.7852 41.8281 41.5398 39.6464 43.1709 37.3555L44.3672 35.625C45.2045 34.4176 46.0404 33.2093 46.875 32C50.1407 27.1787 53.3121 23.4989 58 20C68.0637 13.8918 80.2522 15.086 91.3477 17.4219C93.2653 17.8399 95.1912 18.2206 97.1211 18.5781L100.188 19.125L102.98 19.6328L105 20L104 23L98 24C97.2399 31.6531 95.7384 38.2706 92.875 45.375C92.3232 46.6713 91.7786 47.9707 91.2422 49.2734C89.746 53.762 88.9949 57.6856 90.9297 62.1406C92.1105 64.0075 92.1105 64.0075 92.6328 66.3594L93.125 68.75L93.6328 71.1719L94 73C97.716 73.2009 98.7721 73.1519 102 71L102.301 68.4961C102.31 66.0492 101.625 63.2291 100.929 60.3663C99.6859 55.2532 98.4098 50.0037 101 46.5C101.762 44.2141 102.222 42.275 102.609 40.6396C103.748 35.836 104.265 33.6528 110 33C110 32.8928 110.254 32.0575 110.505 31.2307C110.753 30.4152 111 29.6027 111 29.5C111.003 27.6713 112.452 26.6862 113.986 25.6436C115.213 24.8096 116.495 23.9389 117.133 22.5703C118.001 21.7057 118.459 21.2491 119.011 20.9944C119.628 20.7095 120.363 20.6774 121.918 20.6094L125.188 20.75L128.48 20.8594L131 21V19L126 18C127.45 15.8248 128.685 14.2114 130.867 12.7461C131.947 12.242 132.471 11.9975 132.993 11.9998C133.485 12.0021 133.976 12.2231 134.93 12.6523C146.449 20.2628 151.366 30.8048 156.082 43.4726L156.77 45.3673C156.916 45.5118 157.372 45.8047 158 46C158.312 46.1266 158.332 46.6805 158.266 47.1839C158.332 47.1433 158.268 47.8222 158.359 47.7828L158.5 47.5L158 48.5C158.239 49.0136 158.658 49.5116 158.927 49.8311C159.067 49.9971 159.166 50.115 159.178 50.1619C159.306 50.6491 159.524 51.1125 159.899 51.9067L161.16 54.0703L162.556 56.5107C170.306 69.9597 176.456 83.6537 180.738 98.6016C181.379 100.877 182.043 103.131 182.779 105.378C188.655 123.294 188.801 140.807 188.895 159.484C188.894 159.579 188.897 159.735 188.901 159.943C188.947 162.31 188.623 190.871 185.5 192C184 200 191.5 188 191.5 187C191.811 187.029 192.103 186.076 192.377 185.181C192.596 184.467 192.803 183.79 193 183.677V176.5V163C193.021 156.834 193.038 150.668 193.049 144.502C193.053 141.98 193.057 139.459 193.062 136.937C193.075 133.229 193.088 129.521 193.093 125.812L193.098 122.277C193.171 106.39 190.5 94.9776 182.562 81.1875C178.369 73.9373 175.102 67.0502 172.815 58.9707C170.891 51.9576 169.007 45.8981 164.375 40.1875C161.471 36.8034 158.81 33.3784 156.275 29.7175C151.672 23.0646 146.991 16.3485 140.172 11.7734C138.748 10.9016 137.368 9.9576 136 8.99999V4.99999C128.885 2.6283 122.851 1.76243 115.348 1.77538Z" fill="#111111"></path>
<path d="M138.832 37.0938C142.79 39.4756 145.361 42.3007 148.312 45.8125C148.876 46.474 149.439 47.1354 150.019 47.8169C157.847 57.1923 167.775 69.4461 169 82C169.144 82.7051 169.289 83.4102 169.437 84.1367C169.981 88.4606 169.411 91.2101 167.391 95.0938C163.905 99.5137 160.953 102.407 155.301 103.542C142.022 104.833 127.741 103.746 116.922 95.1172C110.604 88.1569 105.645 78.9741 105.793 69.5898C106.627 59.1606 115.968 51.8755 123 45C123.804 44.1956 124.609 43.3913 125.437 42.5625C125.953 42.0469 126.469 41.5313 127 41C126.01 41 125.02 41 124 41C125 38 125 38 126.625 36.8125C130.926 35.341 134.601 35.4598 138.832 37.0938Z" fill="#FBFBFB"></path>
<path d="M138.625 108.766C142.566 110.814 145.481 111.066 149.875 110.813C154.817 110.805 157.313 111.48 161 115C166.316 122.336 170.043 130.875 174 139C167.651 136.506 165.271 130.822 162.625 124.938C162.227 124.02 162.227 124.02 161.82 123.084C159.694 118.532 157.371 116.405 153 114C151.515 113.505 151.515 113.505 150 113C151.634 114.708 152.869 115.935 155 117C155 117.66 155 118.32 155 119C150.871 118.364 147.536 116.995 143.773 115.199C143.185 114.922 142.597 114.644 141.991 114.358C140.116 113.473 138.245 112.581 136.375 111.688C116.416 101.447 116.416 101.447 94.5781 101.66C87.6064 104.781 81.9178 110.685 78.8281 117.637C75.5403 127.019 74.5177 137.087 73.0625 146.875C70.8935 161.342 67.7587 174.756 62.3672 188.379C61.037 191.902 59.9814 195.369 59 199C60.65 199.66 62.3 200.32 64 201C64 201.99 64 202.98 64 204C60.179 203.469 57.9383 202.503 55 200C55.6244 194.306 57.6905 189.449 59.8125 184.188C65.4075 169.796 68.1189 156.567 69.2915 141.183C70.4301 126.674 74.146 113.372 85 103C101.652 89.8913 122.675 99.5562 138.625 108.766Z" fill="#181818"></path>
<path d="M138.832 37.0938C142.79 39.4756 145.361 42.3007 148.312 45.8125C148.876 46.474 149.439 47.1354 150.019 47.8169C157.847 57.1923 167.775 69.4461 169 82C169.144 82.7051 169.289 83.4102 169.437 84.1367C169.981 88.4606 169.411 91.2101 167.391 95.0938C163.905 99.5137 160.953 102.407 155.301 103.542C142.022 104.833 127.741 103.746 116.922 95.1172C110.604 88.1569 105.645 78.9741 105.793 69.5898C106.627 59.1606 115.968 51.8755 123 45C123.804 44.1956 124.609 43.3913 125.437 42.5625C125.953 42.0469 126.469 41.5313 127 41C126.01 41 125.02 41 124 41C125 38 125 38 126.625 36.8125C130.926 35.341 134.601 35.4598 138.832 37.0938ZM117.5 54.125C112.293 59.5493 108.214 64.712 107.645 72.4766C108.797 80.6545 115.801 89.6956 122 95C129.79 99.5363 137.025 100.248 145.875 100.375C146.856 100.412 147.837 100.45 148.848 100.488C155.173 100.589 155.173 100.589 160.578 97.6523C164.249 93.632 165.83 90.7023 166.375 85.25C165.571 67.591 153.262 54.5207 140.937 43.25C133.121 36.2955 123.584 48.2221 117.5 54.125Z" fill="#171717"></path>
<path d="M138 71C140.538 72.4902 142.687 74.1587 145 76C144.885 77.5633 144.757 79.1256 144.625 80.6875C144.555 81.5576 144.486 82.4277 144.414 83.3242C143.981 86.1248 143.145 88.4167 142 91C140.105 91.0816 138.209 91.1395 136.312 91.1875C134.729 91.2397 134.729 91.2397 133.113 91.293C129.528 90.9556 127.723 90.3627 125 88C124.512 85.3008 124.512 85.3008 124.688 82.3125C124.733 81.3186 124.778 80.3248 124.824 79.3008C124.882 78.5415 124.94 77.7823 125 77C126.32 76.34 127.64 75.68 129 75C129 73.68 129 72.36 129 71C132.231 69.3843 134.534 70.2046 138 71Z" fill="#161616"></path>
<path d="M20 197C24.85 201.467 24.85 201.467 25.6719 204.387C27.6951 208.368 30.9981 209.635 34.875 211.625C36.3112 212.386 37.7462 213.148 39.1797 213.914C39.8163 214.244 40.453 214.573 41.1089 214.913C43 216 43 216 47 219C39.74 219 32.48 219 25 219C19.2857 204.143 19.2857 204.143 20 197Z" fill="#F5F5F5"></path>
<path d="M110 5C109.34 8.3 108.68 11.6 108 15C101.671 15.1774 95.7423 14.5071 89.5 13.5C88.5822 13.3569 87.6644 13.2138 86.7188 13.0664C84.4783 12.7163 82.2388 12.3608 80 12C82.9711 9.4817 85.2385 8.49554 89.0625 7.83203C90.0241 7.66123 90.9858 7.49043 91.9766 7.31445C92.9743 7.14881 93.972 6.98316 95 6.8125C95.9977 6.63525 96.9955 6.45801 98.0234 6.27539C102.106 5.56669 105.843 5 110 5Z" fill="#F1F1F1"></path>
<path d="M138 74C140.471 76.3006 140.955 77.6363 141.375 81C140.966 84.2684 140.204 85.6122 138 88C130.125 87.125 130.125 87.125 129 86C128.928 84.1471 128.916 82.2917 128.937 80.4375C128.947 79.4256 128.956 78.4137 128.965 77.3711C128.976 76.5886 128.988 75.8062 129 75C132.472 73.0982 134.167 72.6241 138 74Z" fill="#F4F4F4"></path>
<path d="M113 4.00001C117.343 3.83299 120.21 3.87001 124 6.00001C123.122 7.32452 122.222 8.63429 121.312 9.93751C120.814 10.6684 120.315 11.3993 119.801 12.1524C118 14 118 14 113 15C113 11.37 113 7.74001 113 4.00001Z" fill="#E7E7E7"></path>
<path d="M4 146C6.60707 149.07 7.63588 151.634 8.53516 155.543C8.78717 156.617 9.03918 157.692 9.29883 158.799C9.55084 159.917 9.80285 161.035 10.0625 162.188C10.3184 163.286 10.5743 164.385 10.8379 165.518C12.2649 171.669 13.639 177.833 15 184C11.3564 182.178 10.679 177.894 9.30859 174.242C6.41985 165.493 4 155.24 4 146Z" fill="#F4F4F4"></path>
<path d="M43 110C43.2857 118.571 43.2857 118.571 41 122C37.6438 120.611 35.927 119.083 34 116C34 115.34 34 114.68 34 114C37.3035 110.88 38.3241 110 43 110Z" fill="#F4F4F4"></path>
<path d="M180 85C184.259 88.4985 186.454 92.7892 188 98C188.3 101.367 188.253 104.631 188 108C186.301 105.451 185.435 103.679 184.492 100.84C184.228 100.046 183.964 99.253 183.691 98.4355C183.422 97.6112 183.153 96.7868 182.875 95.9375C182.598 95.1093 182.321 94.2811 182.035 93.4277C180 87.2671 180 87.2671 180 85Z" fill="#EDEDED"></path>
</g>
<defs>
<clipPath id="clip0_14_12">
<rect width="197" height="219" fill="white"></rect>
</clipPath>
</defs>
</svg>
