<svg xmlns="http://www.w3.org/2000/svg" viewBox="0 0 500 500"><path fill="#050505" d="M214 10h2c13 0 13 0 15 2h3c9 0 17 3 24 7l3 1 7 2 6 2a105 105 0 0 1 39 16l1 1c6 4 11 10 16 15l10 10 4 5h1l2 5 2 1c4 4 6 8 8 12 2 8 7 14 14 18 4 3 6 7 8 11l1 1c3 5 5 10 6 16l1 2 1 3 1 4v8h2l1 3 1 5c2 3 1 6 1 10v3c1 7 0 14-3 21l-1 1-2 6v1l-2 6-2 3c-3 1-5 25-3 26l8 15 1 4v22l1 4v2c0 5-1 10-4 14-2 2-3 4-3 7-1 4-2 7-5 10-2 2-3 5-4 9 0 2-2 1-4 3-3 4-5 7-6 12-1 3-3 4-5 6-3 3-2 1-5 10l-2 13-1 8c-1 3-4 5-4 5-3 0 4 0 24 15 2 1-5 0-4 1v6c-2 2-22-16-24-16 0 1-12 14-13 18h1c3 1 4 3 6 5l2 1c4 3 7 7 8 13l1-1h4l2 2 9 7c1 2 1 2 3 2l6 5 5 3c5 3 8 8 8 14v-1c7 0 12 0 17 2l9 1c4 0 7 1 11 3l4 1 9 4 2 1 6 3 12 4 4 1 7 2 7 2 5 1c8 3 12 6 17 13v1l3 7-499-1s-3-103 0-106l2-5v2l2-1 4-1 8-5 8-2 5-2 12-4 3-1 12-3 8-1c4-2 8 0 12 0 13-2 6-78-1-81-10-5-27-26-29-28l-1-1-3-9-5-12c-2-4-2-8-2-12v-25l-1-8-1-17v-7l1-7 1-3 2-13c2-5 4-11 4-17l2-9 2-6v-2l5-15 3-7 1-2 3-8c3-10 10-19 19-25l10-9 11-10 17-11 9-4 4-1c2-2 5-2 8-3l8-3 6-1 7-1 9-2h3l4-1h14l28-1Z" style="stroke-width:1"></path><path fill="#F9F9F9" d="M242 135h3l2 1h13l2 1h27c8 0 15 1 22 3l7 1c6 0 11 1 17 3l13 4 10 6 4 3 2 2 5 3 1 1 3 1c2 2 3 2 4 5l1 6 1 3c2 4 2 8 2 12s0 6 2 10v6l-2 7-1 12-1 4h-1v1h1v2c1 5 2 9 6 13v1l1 1 2 12 1 6v15l-1 8-1 4-8 18c-3 3-4 6-5 9v1l-2 5-2 1-2 4-4 8c-1 3-3 5-6 7l-1 2c-2 4-3 7-3 11l-1 3-1 9v2l-1 3-1 1-2 3-3-1-4-3-1-1-6-4-17-14h-5l-3 1c-5 2-12 1-17 1h-2a2797 2797 0 0 1-39-4h-2l-4-1-2-1-3-1c-4 0-6 0-10 3l-1 1 1 2h4c3-2 5-2 8-1l8 3h2c5 2 11 3 16 3l40 2 7 5 6 3 6 5 8 4 4 4h-1l1 3-6 5-3 6h-2l1 2-1 2h-2l-2 2-15 9h-1l-6 3-11 2h-15l-7-1-1 1s-18-1-22-4l-1-1h-1l-5-1h-2l-4-2-2-1-3-2-2-1-4-3v-3l-1 2-6-4-2-2-28-25-6-4-4-4-2-1c-13-13-25-27-37-42-2-3-3-5-3-9l1-2-1-2c0-4-1-7-3-10-4-5-4-10-4-15v-3c0-4 0-7 2-11v-5c0-2 1-3 3-4v-2l-1 1-2 2-1-2 2-2-3 2-1 1-2 3v1l-1 5-1 10v4c0 7 1 13 6 19 2 3 2 7 2 11 0 6 2 9 5 13 6 7 6 7 6 11l2 2 6 6 7 7 3 3 5 4 4 4 13 11 3 2 6 5 8 7 25 22c5 4 11 7 18 9l4 1c8 4 15 4 23 4h13l5 16c1 3 2 5 5 7h5l13 3-4 2-1 1h-2l-9 5h-1l-17 8-9 5-10 4-8 3c-5 1-11 2-16 1h-5c2-2 3-3 5-3l8-1h5v-2h-8c-3 0-6 0-9 2l-2 2-4 3h-8l-15-3c-3 0-5-2-7-3-5-4-10-4-16-4l-2 1-1 2h2c4-1 10-1 14 1l2 2h-7l-4-1h-2l-9-1-2-1h-6c-6-1-11-4-17-6l-5-1-5-3-1-1-2-2-11-7-7-4v-1l-1-1-4-2v-1l1-1c3-2 4-5 5-8 5-9 11-13 21-16h2v-3c-4-1-7 0-10 2h-2l-8 6h-1l-6 9-6 9-6-3c-4-3-6-4-11-3l-11-2c-4-2-9-3-13-3l13-24v-1c3-5 4-9 4-14 0-6 1-12 5-18h1l1-5 1-2v-17l-2-47-1-6-4-9v-4l1-2 1-8v-2l1-9c0-11 3-21 10-29l2-5 1-3 1-1 9-18 3-4c3-4 6-8 10-10l6-7 5-3 33-25 7-5h4l12-3 8-2 5-2 13-3 14-3c6-3 13-3 20-1l5 1 8 3 7 3 3 1h7l2 1h34l5 1c3 0 6 0 9 2h2l-1-2c-3-2-5-3-9-3h-15l-6-1h-15c-9 0-18-2-26-6l-4-1-10-2v-1Z" style="stroke-width:1"></path><path fill="#ADADAD" d="m454 145 2 2c0 3 0 5-2 7l-2 2c-2 1-3 2-4 5v3l-1 1c0 4 1 6 3 9a28 28 0 0 1-3 29h-1v2c0 5-1 9-3 14a1042 1042 0 0 0-3 7h-1l-1 6v3l2 4 2 4v1c4 10 2 23-3 33l-5 6c-3 4-4 7-5 12-1 7-13 24-13 25-3 3-3 11-2 15 0 4 1 7 3 11l1 6v2c0 7 0 14-4 20l-3 2-3 5c-2 4-23 15-28 17h-1l-6 1v1c-1 2-3 2-5 3l4-4v-3l-1-1-5-3 1-1 3-2 4-3c3-1 25-16 26-19v-14l-1-17-1-26c-2-6 22-33 25-34l-2-8v-22l1-5-1-5c-2-9-2-19 0-28l1-2c0-3 2-5 4-8h1a515 515 0 0 0-2-26c9 16 14 3 12-14v-1c1-4 2-8 6-10l1-1c3-2 6-3 10-1Z" style="stroke-width:1"></path><path fill="#E1CDE1" d="M326 220h5l5 1 9 1h2a329 329 0 0 0 9 1l1 3v1l-1 7v5l1 2h5l4 1v6c0 2-2 3-3 5h-2l1 4c-5 4-11 4-17 3l-5-2-7-2c-6 0-10-1-14-5l-3-1-2-3v-2l-3-4-1-3 1-1h1v-1h1l-1-2a75 75 0 0 1 0-5c0-2 0-3 2-5l1-1 1-1c3-3 7-2 10-2Z" style="stroke-width:1"></path><path fill="#565656" d="M146 473h1l22 4 7 1 1 1a1617 1617 0 0 1 16 2l6 1 2 1h30a537 537 0 0 1 19-1l-8 9c-3 2-5 5-6 8h-79l-3-8-3-6-1-3-1-1-3-8Z" style="stroke-width:1"></path><path fill="#040404" d="M210 213h2l9 1h4c6 0 10 0 15 4 2 2 2 5 2 8v1l-1 5c-4 3-50 2-47 2l-3-3-2-2-1-1-1-1-3-2-3-5 3-5c2-2 7-2 10-2h16Z" style="stroke-width:1"></path><path fill="#575757" d="M49 230c3 1 3 2 5 4l3 4a127 127 0 0 0 10 12l8 7 4 2c1 7 0 18-3 24-4-1-8-2-11-5l-5-7-2-3-3-6-2-4-3-8-3-6v-9l2-5Z" style="stroke-width:1"></path><path fill="#050405" d="M326 220h5l5 1 9 1h2a329 329 0 0 0 9 1l1 3v9l-2 7c-4 2-10 0-14-1l-5-2-6-2c-15 0-15 0-18-3a43 43 0 0 1 0-5c0-2 0-3 2-5l1-1 1-1c3-3 7-2 10-2Z" style="stroke-width:1"></path><path fill="#DFDEDF" d="m244 234 1 3v4c0 2-11 15-13 16l-3 1-3 1-6 1-3 1h-5v-3a374 374 0 0 1 16-6l-2 1h-4l-11 1h-1c-9 0-18-2-27-4v-5l-2-2-2-1 1-1h1c2 2 2 2 5 2h1v1h2c4-1 7-1 10 1l10-1c8 1 17-1 24-6 3-2 7-4 11-4Z" style="stroke-width:1"></path><path fill="#565656" d="M250 105a975 975 0 0 0 10 0v1l-1 7c-1 5-1 10-4 14l-1 5h-2l-17-1-1-2-3-15-1-8c7-1 14-2 20-1Z" style="stroke-width:1"></path><path fill="#575757" d="M226 106v1l1 5 1 2 2 7 1 7v3h-1l-6 1h-2l-7 1h-8l-3-9-6-13a99 99 0 0 1 19-3l3-1 6-1Z" style="stroke-width:1"></path><path fill="#565656" d="m59 213 5 4 1 2a776 776 0 0 0 9 9l1 1 6 5 1 1v1l2 1-1 5-4 13c-9-3-16-15-22-23l-4-4v-2l2-5 1-2 3-6Z" style="stroke-width:1"></path><path fill="#0E0E0E" d="M233 135h7a266 266 0 0 0 5 1l7 1 5 2c9 5 17 5 27 5a1440 1440 0 0 1 15 1h9a589 589 0 0 0 10 1h1c4 0 6 1 9 3v2l-2 1-2-1c-3-2-6-2-10-2h-12l-11-1h-9a42 42 0 0 1-22-4h-1l-2-1-3-2-5-1-6-1c-7-1-13-1-20 2l-8 2h-1l-7 1-1-2-10 3-9 3-8 2-6 1c2-3 4-4 6-5l4-2a91 91 0 0 1 9-4c4-2 6-3 10-3h4l14-1 7-1h1l5 1v-1Z" style="stroke-width:1"></path><path fill="#565656" d="m287 106 18 2-1 18-1 4-1 3a2753 2753 0 0 1-21-1c0-6 0-11 3-17l1-2 1-2 1-3v-2Z" style="stroke-width:1"></path><path fill="#575757" d="M264 105c13-1 13-1 19 1l-3 11c-2 3-2 7-2 11l-1 4h-19l1-5c2-3 3-6 3-10l2-12Z" style="stroke-width:1"></path><path fill="#565656" d="m71 200 7 6 4 4 4 3 8 7a306 306 0 0 0-7 14c-6-3-13-9-16-15v-1l-1-1c-2 0-2-1-3-2l-3-3-2-2c0-3 2-4 4-6a73 73 0 0 1 5-4Z" style="stroke-width:1"></path><path fill="#575757" d="M193 113c3 1 3 2 5 5l2 7 3 6v2h-1l-15 5h-4l-1-2-1-1-1-1v-2l-7-11 5-4 1-1 12-3h2Z" style="stroke-width:1"></path><path fill="#0B0B0B" d="m302 250 2 3v3c0 5 1 9 4 13v1a994 994 0 0 1 18 20l1 2c0 5 0 8-3 12a341 341 0 0 0-10 21l-4 1-5-2-6-2v-3c2-2 3-2 6-2l2 2 4 1c2-2 2-3 2-5l2-6 3-5 2-3 1-2v-6l-3-3a28352 28352 0 0 0-12-13c-3-2-4-4-5-8l-1-3-1-9v-4c0-2 1-3 3-3Z" style="stroke-width:1"></path><path fill="#565656" d="M364 122c3 0 5 2 7 3l1 1 3 3v4l-1 6-1 5c-1 9-1 9-4 13l-5-4-9-6 2-6 3-8 4-11Zm-55-14 15 3c1 9 0 17-2 26-6 0-11-1-16-3l1-6 1-11v-6l1-3Zm-189 45h2l2 5h1l2 3 7 7v1l4 3-3 3-2 1-7 5-3-3a747 747 0 0 0-17-13c2-4 7-7 11-9l3-3Zm16-12c6 3 10 12 13 17l1 1 1 4-4 3-4 4h-2c-5-2-9-9-13-13l-4-5c1-3 3-4 5-6 5-5 5-5 7-5Z" style="stroke-width:1"></path><path fill="#DCC2DD" d="M313 235h1l12 2c6 0 10 1 15 3l9 2h6v3c-3 2-6 2-9 2h-1l-7-2-2 1c1 2 3 2 5 3l5 1v2l-6 1-3-1-4-1c-8 0-17-4-22-9l-2-2 1-3h1v-1h1v-1Z" style="stroke-width:1"></path><path fill="#D8BED8" d="M189 234a1410 1410 0 0 0-1 3h7a872 872 0 0 0 15 2h3c6 0 11-1 17-3v-1l-7 1-11 1h-2c-26-2-36-5 1-3h7l7-1h17v1l-1 1-9 4a97 97 0 0 1-7 3c-6 3-12 3-18 3h-12l-2-1h-8l-1 1v-1l-1-1-4-3 1-5 5-3 2 1v1h2Z" style="stroke-width:1"></path><path fill="#565656" d="m345 115 7 2h2l6 3c0 3-2 5-3 8l-1 6-2 4-2 7-12-4 2-6 1-8 2-12Zm-193 17c5 3 10 12 12 18 0 2 0 2-2 3l-1 2-6 5c-1 0-2 0-3-2v-1l-1-2-11-15-1-2 6-3 2-1 1-1 2-1h2Zm-49 35 3 3 3 3 2 1a291 291 0 0 0 11 8c0 3-3 6-5 8-3 3-3 3-6 3l-7-7c-2-4-5-6-8-8l-3-2 3-4h1v-1l3-2 1-1 2-1Z" style="stroke-width:1"></path><path fill="#E0E0E0" d="m454 145 2 2c0 3 0 5-2 7l-2 2c-2 1-3 2-4 5v3l-1 1c0 4 1 6 3 9l2 11-1-2h-6v1l-3 2c-2-3-1-6-1-9v-2c0-6 2-11 6-16l1-4c-2-1-3-2-5-1l-3 3a14365 14365 0 0 1-4 7c0-5 1-12 5-16l2-1 1-1c3-2 6-3 10-1Z" style="stroke-width:1"></path><path fill="#565656" d="M169 122h1l1 2 8 13 2 4-2 1-9 5-2 1-1 1v-1c-3-7-7-12-12-18 2-3 5-4 8-5l3-1 2-1 1-1Z" style="stroke-width:1"></path><path fill="#575757" d="M329 112h3l2 1 7 1-1 12-3 13-11-1 2-19v-2l1-5Z" style="stroke-width:1"></path><path fill="#F7F7F7" d="M327 368c5 1 8 4 12 7l6 4 1 1 4 3 2 1 2 1 4 2 1 1 5 4 2 2 2 1-3 6-4-3-24-17-6-3-7-5 3-5Z" style="stroke-width:1"></path><path fill="#565656" d="M90 178c7 3 11 9 16 15l2 2h1v2h-1l-1 1-2 4-1 1-1 1-3-1-1-2-1-1c-3-3-5-6-9-8l-2-2-4-3c0-2 1-3 3-4l4-5Zm-11 12 8 5 1 1a56 56 0 0 1 12 12l-1 4-1 1a308 308 0 0 1-2 4c-4-2-7-5-9-8l-5-4-1-1v-1h-1l-2-2-4-4 5-7Z" style="stroke-width:1"></path><path fill="#E0E0E0" d="M435 165h1v2l3 13c1 2 2 4 1 7l-3 3-1 2v3h-2v-3l-4 4-3 2a484 484 0 0 0-2-26c2-2 10 9 9 0v-1a896 896 0 0 0 0-3l1-3Z" style="stroke-width:1"></path><path fill="#555" d="M379 134h6a1168 1168 0 0 1 0 15v1c0 4 0 7-3 10l-1 1-1 2-5-2-2-1 1-5c3-7 4-14 5-21Z" style="stroke-width:1"></path><path fill="#0A0A0A" d="m257 294 1 2-1 3-10 2-2 1-1 4c1 4 3 9 7 10l6 1c2 0 2 0 3 2v2l-5 1h-1c-4 0-7-1-10-4-4-4-5-9-5-15 0-2 0-4 2-6l7-1 9-2Z" style="stroke-width:1"></path><path fill="#0D0C0D" d="M239 241h2v3l-1 1-3 2c-7 6-17 7-26 7h-1c-10 0-18-2-27-4v-4l7 1c7 2 13 3 20 3h2c8 0 16-1 23-6l1-1c1-2 1-2 3-2Z" style="stroke-width:1"></path><path fill="#F2F2F2" d="m228 136-13 4-3 1h-2l-16 5-7 2-8 2-6 1c2-3 4-4 6-5l4-2a91 91 0 0 1 9-4c4-2 6-3 10-3h4l14-1h8Z" style="stroke-width:1"></path><path fill="#0D0D0D" d="M214 166h2a758 758 0 0 1 10 0h12l4 2-1 2-2-1-9-1h-2a990 990 0 0 0-10 0h-5l-10 2-6 2h-1l-6 1c-4 0-8 2-12 4l-7 2 2-3a123 123 0 0 1 6-3c6-3 14-4 21-5l4-1c3-2 6-1 10-1Z" style="stroke-width:1"></path><path fill="#030303" d="M166 484h4l4 1c10 4 21 3 32 3h21l1 3a5770 5770 0 0 1-55-3h-2l-2-1-3-1v-2Z" style="stroke-width:1"></path><path fill="#C5C5C5" d="m445 153 3 2-2 6a18 18 0 0 0-5 13l1 3v9l2-1-2 2h-2v-2l-2-8c-2-4-3-8-2-13 1-4 4-11 9-11Z" style="stroke-width:1"></path><path fill="#0E0E0E" d="m315 246 6 3c5 3 12 4 18 5l4 1 8 1h1c3 0 4 0 7-2l3 1-1 3c-3 2-6 2-10 2h-1l-10-2-7-2c-6 0-10-1-14-5l-4-2v-3Z" style="stroke-width:1"></path><path fill="#101010" d="M317 167h2a554 554 0 0 1 7 0c8 0 15 1 21 7l3 2 6 4 1 1v2l-5-1a766 766 0 0 0-6-5c-6-6-13-7-21-7h-4c-6 0-9 0-13 3l-5 1 1-2 3-2 1-1c3-2 6-2 9-2Z" style="stroke-width:1"></path><path fill="#1D0F1D" d="m243 234 1 2a109 109 0 0 1-20 10c-5 2-9 2-14 2h-4l-7-1v-2l8-1c9 1 18-1 26-6 3-2 6-4 10-4Z" style="stroke-width:1"></path><path fill="#0D0D0D" d="M229 314h2l1 3c-1 4-3 7-6 9l-5 7-2 5c-3 4-5 8-6 13l-1 1h-3l1-6 1-2 3-6 3-4c2-5 5-9 9-13 2-2 2-4 2-7h1Z" style="stroke-width:1"></path><path fill="#321633" d="M188 234h11l1 1a684 684 0 0 0 5 1h8c5 0 9 0 13-2h4v2c-1 2-2 2-3 2l-2 1-13 1h-5l-5-1-3-1h-2a2396 2396 0 0 0-7 0c-2 0-2 0-3-2l1-2Z" style="stroke-width:1"></path><path fill="#1A1A1A" d="M133 343c-2-1 0-5 1-5l1 3 1 1a30 30 0 0 1 1 13v8c0 2-4 20-6 21h-2c2-2 9-34 4-41Z" style="stroke-width:1"></path><path fill="#0D0D0D" d="m323 321 3 1v1a1274 1274 0 0 1 2 13l2 4c2 4 2 7 2 10l2 7v4h-3c-2-4-3-8-3-13l-3-9-2-6v-1l-1-6v-1l1-4Z" style="stroke-width:1"></path><path fill="#575757" d="M393 160c2 2 1 4 1 7v5c0 7-1 14-4 21v1l-2 4h-1c-2-3-2-5-2-9v-5l3-3 2-4 1-1a27 27 0 0 0 2-10v-6Z" style="stroke-width:1"></path><path fill="#281128" d="M311 237h2l2 3c6 5 15 7 23 8l4 1h4l1 1v2l-6 1-3-1-4-1c-8 0-17-4-22-9l-2-2 1-3Z" style="stroke-width:1"></path><path fill="#0E0E0E" d="M337 195c6 0 10 1 16 4l4 1 6 3 5 1 6 3-1 3c-5-1-9-2-13-5l-8-3-6-2-7-1-3-1 1-3Z" style="stroke-width:1"></path><path fill="#E6D3D7" d="M192 218h4a1038 1038 0 0 1 5 0 1549 1549 0 0 1 1 7v3l-1 2c-2 0-4 0-6-2l-3-2a39 39 0 0 0-5-5v-3h5Z" style="stroke-width:1"></path><path fill="#E0E0E0" d="M414 321v1c-1 9-1 16 3 24l1 6v2c0 6 0 11-2 17h-1v-11l-2-16-2-12v-2l3-9Z" style="stroke-width:1"></path><path fill="#E6D4D7" d="M326 224h6v4l1 4-6 1h-2l-8-1 1-6c2-2 5-2 8-2Z" style="stroke-width:1"></path><path fill="#DFDFDF" d="M445 205c1 5 0 9-2 14a2819 2819 0 0 0-3 7h-1l-1 6v3c-2-3-3-6-3-10v-1c0-4 1-6 3-8l6-10h1v-1Z" style="stroke-width:1"></path><path fill="#F87F2C" d="m316 359 3 2 1 1 2 1 4 4-3 5c-6-2-10-6-15-10 2-3 4-4 8-3Z" style="stroke-width:1"></path><path fill="#311631" d="M324 238c15 1 15 1 19 5l13-1v3c-3 3-9 2-13 2l-8-3c-3-2-6-2-9-2l-3-1 1-3Z" style="stroke-width:1"></path><path fill="#0F0F0F" d="M207 189h4v3l-6 1h-3l-3 2-5 1h-10l-5 1-1-3c4-2 9-2 13-2l9-2 7-1Z" style="stroke-width:1"></path><path fill="#AEAEAE" d="m435 232 3 2v22h-1l-1 5-1-2-2-12v-3h-1c-2-2-1-4-1-6h1l3-6Z" style="stroke-width:1"></path><path fill="#585858" d="M389 155h1a292 292 0 0 1 0 9c-1 5-1 10-4 15l-1 1a209 209 0 0 1-4-14l4-3 4-8Z" style="stroke-width:1"></path><path fill="#0F0F0F" d="m161 213 10 4v2h4l1 3-4 1h-5c-3 0-5 0-7 2l-3-1c0-2 1-2 2-3 3-2 5-2 8-2l-7-2 1-4Z" style="stroke-width:1"></path><path fill="#100F10" d="m236 249 1 1c0 3-4 5-6 7l-4 2h-1l-4 1-5 1h-5v-3l4-1h1l5-1a15 15 0 0 0 11-6l3-1Z" style="stroke-width:1"></path><path fill="#0C0C0C" d="M159 295c3 0 5 2 6 4 10 13 10 13 9 17v1h-3l-1-1-1-2v-1l-3-3v-1a692 692 0 0 0-7-11v-3Z" style="stroke-width:1"></path><path fill="#E0E0E0" d="M452 188c0 5-2 10-5 15h-1l-1 1v-4l-1-2v-5l2-1 1-1 2-1v-1l3-1Z" style="stroke-width:1"></path><path fill="#121212" d="m325 351 2 6-3-2c-2-2-15-4-19-4v-2c15-2 15-2 20 2Z" style="stroke-width:1"></path><path fill="#111" d="M290 370c1 0 17 0 22 2l1 1v1l-5-1h-19l1-3Z" style="stroke-width:1"></path><path fill="#080808" d="M279 313h1l4 1-1 3-3 1-5 1h-3l-1-2c0-2 0-2 2-3l6-1Z" style="stroke-width:1"></path><path fill="#DBCCCE" d="m231 221 6 1 1 4-1 2-6 1-1-5 1-2v-1Z" style="stroke-width:1"></path><path fill="#1A1A1A" d="M308 187h2v14l-1 4h-2l1-17v-1Z" style="stroke-width:1"></path><path fill="#121212" d="M244 183c2 0 3 1 5 3 5 5 5 5 6 9l-1 3-2-1-1-3-6-8-1-1v-2Z" style="stroke-width:1"></path><path fill="#0C0D0C" d="m366 233 6 2 1 1 3 3-1 2-5-2-5-3 1-3Z" style="stroke-width:1"></path><path fill="#101010" d="m329 259 9 3v3c-4 0-7-1-10-3l-1-3h2Z" style="stroke-width:1"></path><path fill="#251326" d="M338 248a53 53 0 0 1 7 1h1l1 1v2l-6 1-3-1-8-2h6l2-2Z" style="stroke-width:1"></path><path fill="#35211E" d="M372 396v3l-4 4h-2c-2-5 2-10 5-6l1-1Z" style="stroke-width:1"></path><path fill="#DFDFDF" d="M414 321v12c0 2-1 2-2 3h-1v-6c0-4 1-6 3-9Z" style="stroke-width:1"></path><path fill="#E1E1E1" d="M426 198h1c0 4-2 7-4 10v2l-1 1h-1c1-5 2-9 5-13Z" style="stroke-width:1"></path><path fill="#141414" d="M367 228h4l1 3-2 1h-4l-1-3 2-1Z" style="stroke-width:1"></path><path fill="#070707" d="m314 350-1 1h-8v-2h5l4 1Z" style="stroke-width:1"></path><path fill="#D4C8CA" d="m351 233 1 1-1 4-5-1 1-2 4-2Z" style="stroke-width:1"></path><path fill="#232323" d="m41 191 1 1-1 10h-2v2l1-7 1-6Z" style="stroke-width:1"></path><path fill="#AEAEAE" d="M423 278v2l-2 2-1 2-1 1h-1v1l-3 2c2-4 4-6 7-8l1-2Z" style="stroke-width:1"></path><path fill="#D4D4D4" d="m242 135 7 1h4l1 2-12-2v-1Z" style="stroke-width:1"></path><path fill="#C8C8C8" d="M436 220v1l1 8-1 3-1-4v-3l1-1v-4Z" style="stroke-width:1"></path><path fill="#414141" d="m300 250 3 1h-1l-2 1v5l-1 1v4-9l1-3Z" style="stroke-width:1"></path><path fill="#130C13" d="M341 251h6v1l-6 1v-2Z" style="stroke-width:1"></path><path fill="#B2B3B4" d="m373 391 1 1-1 1c-2 0-2 0-2 2l-3-2 5-2Z" style="stroke-width:1"></path><path fill="#371C39" d="M353 242h3v3l-3 1v-4Z" style="stroke-width:1"></path><path fill="#161616" d="M342 171h3v1h-1v2l-3-2h1v-1Z" style="stroke-width:1"></path><path fill="#2F2F2F" d="M388 261v-2 2Z" style="stroke-width:1"></path><path fill="#2C2C2C" d="M381 306s-2-3 0-1v1Z" style="stroke-width:1"></path><path fill="#121212" d="M317 221h1c0 2-1 2-3 3l1-2 1-1Zm-3 3h1l-2 2 1-2Z" style="stroke-width:1"></path><path fill="#151214" d="m306 362 1 1h1l2 2c-2 0-3 0-5-2h1v-1Z" style="stroke-width:1"></path><path fill="#2F2F2F" d="m137 345 6 1v1l-6-1v-1Z" style="stroke-width:1"></path><path fill="#ECEAED" d="M179 241a109 109 0 0 1 4 2l1 3h-1l-1-2-3-2v-1Z" style="stroke-width:1"></path><path fill="#260C27" d="M333 240h2l1 3h-2v-2h-1v-1Z" style="stroke-width:1"></path><path fill="#505050" d="m127 148-1 4h-1v1l-1-2 3-3Z" style="stroke-width:1"></path><path fill="#202020" d="m333 393 1-1-1 3v-2Z" style="stroke-width:1"></path><path fill="#181818" d="m159 295 2 1-1 2h-1v-3Z" style="stroke-width:1"></path><path fill="#4A4A4A" d="m151 131 4 4-5-3 1-1Z" style="stroke-width:1"></path><path d="M271 418h1-1Z" style="stroke-width:1"></path><path fill="#252525" d="M215 396h1-1Z" style="stroke-width:1"></path><path fill="#2B2B2B" d="m158 346 1 1-1-1Z" style="stroke-width:1"></path></svg>