<svg width="329" height="497" viewBox="0 0 329 497" fill="none" xmlns="http://www.w3.org/2000/svg">
<path fill-rule="evenodd" clip-rule="evenodd" d="M104.596 237.517L137.109 245L256.924 243.005C346.635 243.005 364.096 -18.395 150.957 5.55007C137.109 4.0535 98.1286 20.1663 68.4714 39.9707L48 79.3803C48.4388 80.6093 48.5169 116.517 48.5585 135.595C48.5729 142.224 48.5829 146.821 48.6021 147.225C49.4586 146.838 65.4648 211.267 68.4714 198.108C71.7121 183.924 102.498 242.491 104.596 237.517Z" fill="#F8F8F8"></path>
<path d="M116.49 5.99999C129.299 0.246994 202.328 0.791291 203.897 0.904291C205.919 1.05228 207.939 1.20338 210.018 1.35937C213.01 1.57535 213.01 1.57483 216.062 1.79882C221.578 2.32282 226.769 3.12024 232.132 4.15722C232.135 5.34135 258.105 16.4895 267.514 22.0762C269.456 23.1903 310.392 58.2029 312.216 70.5703C312.736 73.7272 313.276 76.8851 313.826 80.04L314.462 84.2402C315.359 88.4981 315.359 88.4985 318.03 92.7305C322.891 101.488 323.316 110.991 324.692 120.295L325.693 127.016C327.721 141.697 328.903 156.275 328.96 171.026L329 176.19C328.773 192.143 327.18 206.439 313.004 219.406C311.215 221.092 309.425 222.776 307.634 224.46C305.289 226.282 288.763 237.814 282.521 240.687L276.389 243.513C270.346 245.939 264.561 247.554 258.035 249.196C245.971 252.797 242.337 257.97 237.294 266.289C236.417 267.909 235.539 269.529 234.659 271.147C233.815 272.64 232.974 274.132 232.104 275.67C230.437 278.628 228.781 281.59 227.139 284.558C219.587 297.718 212.196 308.451 196.75 317.736C189.08 319.55 183.616 319.825 175.583 319.865L168.416 319.942C154.655 319.136 146.996 315.328 137.202 308.665C125.278 300.795 112.857 294.069 99.6182 287.351C93.6524 283.984 90.0472 280.809 85.5489 276.523L77.9678 274.731C76.8143 279.137 75.656 283.542 74.4932 287.946C74.1739 289.163 73.8557 290.382 73.5244 291.635C73.2015 292.871 72.8752 294.106 72.5391 295.38C72.2185 296.613 71.8982 297.846 71.5645 299.117C70.8092 301.878 69.9849 304.626 69.0938 307.358C65.3358 319.182 64.593 330.464 64.6612 342.557L64.6455 348.524C64.6431 352.658 64.6521 356.793 64.6748 360.929C64.7 367.231 64.6741 373.533 64.6407 379.835C64.643 383.873 64.6516 387.91 64.6612 391.945C64.6514 393.833 64.6407 395.721 64.6289 397.608C64.7438 410.541 66.1187 422.588 75.2842 434.097C78.9311 438.917 81.6318 443.558 83.8721 448.789C88.8322 459.612 96.0073 469.582 103.108 479.761C104.109 481.221 105.111 482.682 106.113 484.142L108.855 488.068C110.822 491.548 110.822 491.548 110.822 496.924L85.3916 478L67.4502 458.5L56.6856 479.761L37.5303 496.924C40.0576 482.588 40.0577 482.588 42.585 475.758C48.9218 458.436 48.0774 440.171 48.2998 422.396C48.3525 418.083 48.4207 413.772 48.4912 409.46C48.6683 398.764 48.8167 388.067 48.9698 377.37C49.1001 368.296 49.238 359.222 49.3887 350.146C49.4545 345.925 49.5079 341.704 49.5606 337.482C50.045 304.647 50.0449 304.646 55.7071 291.578C56.268 290.256 56.8287 288.934 57.4112 287.572L59.1729 283.58L60.9629 279.397C62.4018 276.047 63.8647 272.699 65.3311 269.355C40.9227 280.894 26.21 304.942 19.8408 324.904C17.7597 333.88 16.8473 342.679 16.711 351.76L16.6504 355.798C16.6157 358.6 16.5877 361.401 16.5674 364.203C16.5383 367.038 16.4867 369.872 16.4121 372.706C15.9457 390.481 15.5965 407.081 31.4971 421.873C35.8269 426.042 35.9516 428.417 35.795 433.536L35.7647 437.75C35.0028 441.376 35.0027 441.376 29.9492 444.96C28.313 449.566 28.313 449.566 27.4219 453.919H22.3682C-6.08428 431.286 1.65151 391.192 1.51761 361.861L1.44827 355.003C1.55114 332.835 4.16851 313.807 19.8408 294.441C21.5739 292.098 23.2985 289.75 25.0137 287.4C45.9033 259.27 45.9033 259.269 62.8037 253.229C69.7159 252.95 69.7161 252.95 75.4405 253.229L76.3877 248.414C77.9678 242.477 77.9677 242.477 80.8096 237.886C84.0892 231.411 82.3574 227.397 78.3242 221.247C75.707 217.558 73.0608 213.883 70.3858 210.223C63.6825 200.538 36.7879 118.283 36.7422 95.3193C36.7303 93.7423 36.7151 92.165 36.7032 90.542C36.8491 80.908 48.4232 60.2409 49.2198 57.1299C57.3951 34.4639 84.6567 20.8507 110.822 8.63671C112.469 7.83674 114.794 6.82295 116.49 5.99999ZM95.6592 238.893C89.4922 246.688 85.3276 253.16 85.5489 262.188C90.7468 269.126 90.7476 269.126 114.297 282.684C121.252 286.592 127.91 290.43 134.18 294.883C138.914 298.441 143.628 301.905 148.732 305.193C159.846 310.287 171.037 312.032 184.113 310.568C193.381 306.937 211.196 290.042 212.864 290.042C217.62 277.401 222.932 267.769 229.764 255.621L232.132 251.437C219.72 251.297 207.307 251.146 194.896 250.975C189.828 250.903 184.759 250.833 179.69 250.765C172.222 250.682 164.758 250.599 157.288 250.493L150.191 250.387L143.316 250.324L136.879 250.216C130.478 250.134 126.464 249.794 120.591 247.937C115.877 246.061 115.877 246.061 95.6592 238.893ZM169.384 7.09374C132.78 7.07575 98.9843 19.5461 75.0254 39.0771C64.5502 49.2411 59.4382 60.4143 56.2207 72.6963C55.2221 75.8331 55.2214 75.8331 52.6953 77.624C51.8174 86.491 51.8225 95.3933 51.7471 104.279C51.7375 105.581 51.7249 106.884 51.7129 108.226C51.6364 132.192 55.7048 153.39 69.3701 175.562C72.5564 180.949 74.2847 185.589 75.7559 191.298C79.0738 201.196 84.6109 209.464 91.5518 218.287L94.4278 221.992C102.935 232.416 111.519 238.517 128.389 241.761C138.02 243.094 147.632 242.912 157.41 242.826C159.63 242.823 161.849 242.817 164.133 242.812C171.163 242.792 178.192 242.747 185.222 242.702C190.011 242.684 194.799 242.667 199.588 242.653C211.278 242.612 222.969 242.553 234.659 242.477V238.893C233.229 238.438 231.8 237.983 230.323 237.515C227.545 236.589 227.545 236.589 224.709 235.647C222.861 235.042 221.013 234.441 219.11 233.819C214.441 231.726 214.381 231.812 211.854 226.437C215.662 225.288 228.126 229.615 237.187 231.726L234.659 224.559C233.335 223.863 232.864 223.697 230.231 222.641C227.984 221.537 227.387 221.537 226.865 221.062C225.196 220.47 223.741 219.792 222.022 219.183C220.817 218.423 218.932 217.484 218.403 216.361C217.878 215.241 219.495 213.807 219.495 213.807C228.308 215.795 236.617 217.863 244.769 220.975C244.768 216.244 239.438 209.564 244.826 206.763C246.946 205.662 248.986 206.371 252.35 208.432L254.877 242.477C278.586 232.873 297.474 223.157 307.949 204.848C313.973 189.035 314.204 172.735 314.269 156.467C314.281 155.146 314.291 153.824 314.301 152.464C314.367 127.505 308.61 104.958 299.428 80.8271C297.854 75.8701 297.216 71.2037 296.795 66.1387C295.876 57.9389 292.556 54.0128 284.1 48.1719C277.787 43.6949 272.48 39.902 267.514 34.6191C261.891 33.8741 261.891 33.8737 255.41 34.0947C251.845 34.1217 251.845 34.1225 248.205 34.1465L240.661 34.2842C238.154 34.3072 235.645 34.3334 233.059 34.3584C226.852 34.4214 220.647 34.5091 214.44 34.6191L211.913 29.2441L252.35 27.4521C236.815 14.2351 227.339 10.4022 204.331 7.74218C195.053 7.22419 185.836 7.15863 176.53 7.18163L169.384 7.09374Z" fill="#151515"></path>
<path d="M156.2 26.043V33.1485L148.06 35.4813C138.896 37.943 138.896 37.943 134.496 43.8082C142.905 47.9365 144.871 47.4665 154.544 46.8063C166.809 46.5792 166.809 46.5792 173.129 49.9917C185.862 61.0589 185.65 69.4998 185.742 83.6692L185.894 89.3897L185.929 94.8752L186 99.9096C184.98 105.004 183.391 106.459 177.905 109.538C164.993 114.056 150.89 114.946 136.908 113.091C122.1 107.488 111.786 99.4991 105.557 88.2198C104.518 83.6573 103.905 79.182 103.504 74.564C103.117 70.1214 102.107 65.9059 100.734 61.5724H95.9115C92.4716 56.5043 92.6941 52.9729 93.4999 47.3614C108.233 34.129 132.943 25.3054 156.2 26.043Z" fill="#141414"></path>
<path d="M155 34.0415C155 35.0357 150.445 47.0917 139.601 48.2808C122.355 50.1729 114.214 68.0262 112.662 70.1499C110.335 74.7054 109.605 78.6923 109.085 83.5371C108.906 85.1289 108.724 86.7187 108.538 88.3552L108.177 92H105.755C105.61 90.8189 104.98 89.6367 104.831 88.4178C103.341 76.7694 92.233 61.4186 93.0421 55.7912C107.837 42.5213 131.646 33.3018 155 34.0415Z" fill="#F8F8F8"></path>
<path d="M251.005 43.4017C258.655 47.9851 262.422 50.8803 265.53 57.8325C268.268 87.9022 268.268 87.9022 255.847 101.124C246.519 105.759 241.314 105.353 230.457 104.374C219.551 101.783 215.005 95.7654 209.849 88.4971C204.89 80.4366 202.497 72.0268 205.007 63.2445C214.721 49.2928 229.2 41.038 251.005 43.4017Z" fill="#161616"></path>
<path d="M279.552 136C281.351 136.151 283.148 136.299 285 136.454C283.746 143.881 281.248 147.617 274.254 152.933C272.757 154.115 271.264 155.299 269.723 156.517C250.542 167.03 231.279 168.376 208.107 168.387C181.608 168.031 181.608 168.031 159.396 177.824L155.885 181.115L152.282 184.416C149.204 187.361 149.204 187.361 146.954 191C142.565 190.659 142.565 190.659 137.267 189.182C132.079 183.896 130 181.263 130 174.636L137.267 173.5C147.022 171.457 153.612 167.565 161.267 162.706C171.897 157.216 182.706 156.021 195.371 156.085L203.575 156.021C209.2 156.007 214.827 156.021 220.453 156.063C239.025 155.856 249.995 153.749 263.204 143.727L268.503 139.408C272.892 136.454 272.892 136.454 279.552 136Z" fill="#1A1A1A"></path>
<path d="M163.528 70.0129L174 70.1263V90.2676C173.2 89.0588 172.398 87.85 171.571 86.6054L154.572 90.2676L157.001 97.5911L171.571 99.4222C165.411 104.067 162.686 103.785 154.118 104C141.047 103.895 134.843 101.414 125.781 94.5021L123 92.0987C124.334 85.2034 127.877 82.4557 134.84 78.023C136.537 76.9205 138.235 75.819 139.982 74.6817C147.762 70.3338 154.15 69.9097 163.528 70.0129Z" fill="#F5F5F5"></path>
<path d="M251 65.4771V81.2893H236.23V91.8314L246.077 93.5875C239.307 94.1375 239.307 94.1375 231.308 93.5875C221.555 87.3791 220.001 81.605 219 72.5042C239.336 64.4368 239.336 64.4368 251 65.4771Z" fill="#F1F1F1"></path>
</svg>
