<svg xmlns="http://www.w3.org/2000/svg" viewBox="0 0 500 500">
  <path fill="#F8F8F8" d="M331.903 12.408h3.208c.377 1.212.753 2.423 1.14 3.671 2.457 5.166 4.698 6.724 9.486 9.762 16.548 11.151 26.211 23.298 37.131 39.803 2.414 3.562 5.012 6.948 7.681 10.322 3.699 4.799 5.197 9.277 7.117 15.037 3.781 5.664 8.091 10.912 12.338 16.229 2.098 3.019 2.098 3.019 2.098 6.227.954.422 1.907.843 2.889 1.278 5.74 3.141 9.54 7.759 13.151 13.158 1.403 5.514 1.403 5.514 1.604 9.624h-3.208c-2.249-3.045-2.249-3.045-4.711-7.018-3.093-4.983-4.748-7.308-9.725-10.626 1.569 4.212 3.141 8.422 4.713 12.631.445 1.198.89 2.395 1.35 3.628 2.36 6.402 2.36 6.402 5.165 12.613.985.442 1.97.885 2.983 1.34 7.252 3.945 10.654 12.571 14.661 19.511.556.916 1.113 1.831 1.686 2.772 8.621 14.316 12.758 27.428 14.196 44.116.661 7.204 1.673 14.022 3.662 20.982 6.161 21.599 7.047 41.381 6.521 63.758-.081 4.981-.15 9.961-.211 14.942-.041 3.06-.096 6.12-.166 9.179-.188 10.205.474 20.172 1.58 30.314 1.588.529 3.175 1.059 4.812 1.604-2.753 11.533-7.005 22.624-11.228 33.684 1.058.529 2.117 1.058 3.208 1.604-3.147 7.832-6.567 14.931-11.429 21.854-4.22 6.055-6.074 11.125-7.819 18.245l-3.208 3.208h-4.812c-.297 2.482-.297 2.482-.602 5.013-2.16 13.404-6.242 19.065-17.042 27.067-4.51 2.708-4.51 2.708-9.624 4.812-1.192.507-2.385 1.014-3.614 1.535-22.813 9.079-46.341 10.49-70.593 11.443-10.971.545-19.729 1.838-29.746 6.377-9.56 4.073-20.521 4.041-30.782 4.705-1.999.138-1.999.138-4.037.279-24.947 1.485-47.459-2.89-71.35-9.903-1.351-.393-2.702-.786-4.094-1.192-7.097-2.2-12.514-4.603-18.362-9.333-12.505-9.555-26.221-17.137-39.904-24.859-5.818-3.29-11.454-6.759-17.038-10.429-6.531-4.199-12.793-7.585-20.05-10.327.579 1.529 1.158 3.058 1.755 4.631.752 2.032 1.505 4.065 2.255 6.097.574 1.506.574 1.506 1.16 3.041 2.116 5.771 3.322 10.558 2.85 16.707h-8.02c-1.304-4.409-2.606-8.82-3.909-13.233-.369-1.246-.737-2.492-1.118-3.777-.535-1.814-.535-1.814-1.081-3.665-.327-1.11-.656-2.219-.993-3.361-.919-3.232-.919-3.232-1.596-6.751-.304-.956-.611-1.912-.927-2.897-2.662-1.092-5.336-2.16-8.02-3.208-2.104-3.408-2.104-3.408-3.208-6.415 3.176.529 6.352 1.058 9.624 1.604-.715-1.141-1.43-2.283-2.167-3.459-2.544-4.388-4.534-8.693-6.454-13.383-.608-1.471-1.216-2.944-1.841-4.461-.793-1.987-1.582-3.975-2.37-5.965-.59-1.479-1.18-2.958-1.788-4.483-5.126-13.047-9.529-26.23-13.65-39.627-.611-1.949-1.224-3.899-1.854-5.907-.6-1.938-1.198-3.876-1.817-5.871-.793-2.562-.793-2.562-1.601-5.173-.59-2.1-1.171-4.202-1.745-6.307-.416-1.455-.831-2.909-1.261-4.409-3.819-14.584-4.206-28.521-4.077-43.459.004-2.54.008-5.081.009-7.622.008-5.278.031-10.556.066-15.834.046-6.755.063-13.509.071-20.264.008-6.478.032-12.958.054-19.437.003-1.227.006-2.452.01-3.714.011-3.473.033-6.946.057-10.418.018-2.957.018-2.957.034-5.972.199-4.61.767-8.751 1.829-13.23 3.358 5.457 3.496 9.709 3.208 16.04 10.892-9.438 12.952-28.299 16.04-41.704l-4.812 1.604c.948-7.447 2.954-13.601 6.015-20.45.785-1.811 1.571-3.622 2.381-5.489 3.361-5.382 5.067-5.611 10.851-7.744 3.64-3.019 6.864-6.407 10.126-9.825.883-.903 1.763-1.806 2.673-2.738 2.16-2.216 4.306-4.449 6.449-6.685-5.822-1.059-11.645-2.117-17.644-3.208v-3.208c6.882-1.059 13.763-2.117 20.852-3.208-.529-1.588-1.058-3.176-1.604-4.812.969-.138 1.936-.276 2.934-.419 8.748-1.522 8.748-1.522 15.613-6.999.76-1.256 1.522-2.514 2.305-3.81-.727.794-1.455 1.588-2.205 2.406-2.607 2.406-2.607 2.406-5.815 2.406 2.895-10.612 10.595-16.937 19.718-22.424 2.93-1.642 5.875-3.256 8.827-4.86 6.984-3.848 12.705-8.121 18.492-13.562 3.821-3.499 7.927-6.125 12.311-8.878 1.588-1.058 3.176-2.117 4.812-3.208 3.737-.279 7.482-.428 11.228-.5 9.938-.403 17.344-2.538 26.165-7.08 16.72-7.924 35.559-8.716 53.728-8.559 1.615.006 3.232.011 4.897.018 5.12.019 10.239.049 15.359.082 6.782.043 13.564.075 20.345.101 1.564.012 3.13.025 4.743.04 1.436.004 2.872.011 4.35.016 1.903.013 1.903.013 3.845.025 2.942.138 2.942.138 4.511-1.786Z"></path>
  <path fill="#0A0A0A" d="M331.903 12.408h3.208c.377 1.212.753 2.423 1.14 3.671 2.457 5.166 4.698 6.724 9.486 9.762 16.548 11.151 26.211 23.298 37.131 39.803 2.414 3.562 5.012 6.948 7.681 10.322 3.699 4.799 5.197 9.277 7.117 15.037 3.781 5.664 8.091 10.912 12.338 16.229 2.098 3.019 2.098 3.019 2.098 6.227.954.422 1.907.843 2.889 1.278 5.74 3.141 9.54 7.759 13.151 13.158 1.403 5.514 1.403 5.514 1.604 9.624h-3.208c-2.249-3.045-2.249-3.045-4.711-7.018-3.093-4.983-4.748-7.308-9.725-10.626 1.569 4.212 3.141 8.422 4.713 12.631.445 1.198.89 2.395 1.35 3.628 2.36 6.402 2.36 6.402 5.165 12.613.985.442 1.97.885 2.983 1.34 7.252 3.945 10.654 12.571 14.661 19.511.556.916 1.113 1.831 1.686 2.772 8.621 14.316 12.758 27.428 14.196 44.116.661 7.204 1.673 14.022 3.662 20.982 6.161 21.599 7.047 41.381 6.521 63.758-.081 4.981-.15 9.961-.211 14.942-.041 3.06-.096 6.12-.166 9.179-.188 10.205.474 20.172 1.58 30.314 1.588.529 3.175 1.059 4.812 1.604-2.753 11.533-7.005 22.624-11.228 33.684 1.058.529 2.117 1.058 3.208 1.604-3.147 7.832-6.567 14.931-11.429 21.854-4.22 6.055-6.074 11.125-7.819 18.245l-3.208 3.208h-4.812c-.297 2.482-.297 2.482-.602 5.013-2.16 13.404-6.242 19.065-17.042 27.067-4.51 2.708-4.51 2.708-9.624 4.812-1.192.507-2.385 1.014-3.614 1.535-22.813 9.079-46.341 10.49-70.593 11.443-10.971.545-19.729 1.838-29.746 6.377-9.56 4.073-20.521 4.041-30.782 4.705-1.999.138-1.999.138-4.037.279-24.947 1.485-47.459-2.89-71.35-9.903-1.351-.393-2.702-.786-4.094-1.192-7.097-2.2-12.514-4.603-18.362-9.333-12.505-9.555-26.221-17.137-39.904-24.859-5.818-3.29-11.454-6.759-17.038-10.429-6.531-4.199-12.793-7.585-20.05-10.327.579 1.529 1.158 3.058 1.755 4.631.752 2.032 1.505 4.065 2.255 6.097.574 1.506.574 1.506 1.16 3.041 2.116 5.771 3.322 10.558 2.85 16.707h-8.02c-1.304-4.409-2.606-8.82-3.909-13.233-.369-1.246-.737-2.492-1.118-3.777-.535-1.814-.535-1.814-1.081-3.665-.327-1.11-.656-2.219-.993-3.361-.919-3.232-.919-3.232-1.596-6.751-.304-.956-.611-1.912-.927-2.897-2.662-1.092-5.336-2.16-8.02-3.208-2.104-3.408-2.104-3.408-3.208-6.415 3.176.529 6.352 1.058 9.624 1.604-.715-1.141-1.43-2.283-2.167-3.459-2.544-4.388-4.534-8.693-6.454-13.383-.608-1.471-1.216-2.944-1.841-4.461-.793-1.987-1.582-3.975-2.37-5.965-.59-1.479-1.18-2.958-1.788-4.483-5.126-13.047-9.529-26.23-13.65-39.627-.611-1.949-1.224-3.899-1.854-5.907-.6-1.938-1.198-3.876-1.817-5.871-.793-2.562-.793-2.562-1.601-5.173-.59-2.1-1.171-4.202-1.745-6.307-.416-1.455-.831-2.909-1.261-4.409-3.819-14.584-4.206-28.521-4.077-43.459.004-2.54.008-5.081.009-7.622.008-5.278.031-10.556.066-15.834.046-6.755.063-13.509.071-20.264.008-6.478.032-12.958.054-19.437.003-1.227.006-2.452.01-3.714.011-3.473.033-6.946.057-10.418.018-2.957.018-2.957.034-5.972.199-4.61.767-8.751 1.829-13.23 3.358 5.457 3.496 9.709 3.208 16.04 10.892-9.438 12.952-28.299 16.04-41.704l-4.812 1.604c.948-7.447 2.954-13.601 6.015-20.45.785-1.811 1.571-3.622 2.381-5.489 3.361-5.382 5.067-5.611 10.851-7.744 3.64-3.019 6.864-6.407 10.126-9.825.883-.903 1.763-1.806 2.673-2.738 2.16-2.216 4.306-4.449 6.449-6.685-5.822-1.059-11.645-2.117-17.644-3.208v-3.208c6.882-1.059 13.763-2.117 20.852-3.208-.529-1.588-1.058-3.176-1.604-4.812.969-.138 1.936-.276 2.934-.419 8.748-1.522 8.748-1.522 15.613-6.999.76-1.256 1.522-2.514 2.305-3.81-.727.794-1.455 1.588-2.205 2.406-2.607 2.406-2.607 2.406-5.815 2.406 2.895-10.612 10.595-16.937 19.718-22.424 2.93-1.642 5.875-3.256 8.827-4.86 6.984-3.848 12.705-8.121 18.492-13.562 3.821-3.499 7.927-6.125 12.311-8.878 1.588-1.058 3.176-2.117 4.812-3.208 3.737-.279 7.482-.428 11.228-.5 9.938-.403 17.344-2.538 26.165-7.08 16.72-7.924 35.559-8.716 53.728-8.559 1.615.006 3.232.011 4.897.018 5.12.019 10.239.049 15.359.082 6.782.043 13.564.075 20.345.101 1.564.012 3.13.025 4.743.04 1.436.004 2.872.011 4.35.016 1.903.013 1.903.013 3.845.025 2.942.138 2.942.138 4.511-1.786Zm0 11.227c-14.427 9.897-14.427 9.897-24.06 24.06.827-.495 1.655-.991 2.507-1.503 4.979-2.17 9.766-2.688 15.137-3.309-2.806 5.613-9.358 7.339-14.818 10.057-10.389 6.509-12.437 14.828-15.057 26.134-.648 2.711-1.304 5.418-1.966 8.126-.279 1.192-.557 2.385-.844 3.612-1.038 3.535-2.465 6.576-4.207 9.815-.17-8.209.463-15.926 1.604-24.06-6.312 5.739-8.314 11.199-9.385 19.574-.207 1.571-.414 3.143-.627 4.762-.202 1.629-.404 3.259-.615 4.937-.214 1.655-.429 3.309-.651 5.012-.527 4.076-1.046 8.153-1.554 12.231h-1.604c-.529-3.176-1.059-6.352-1.604-9.624h-3.208c-4.565 15.87-5.38 30.136-4.812 46.515-1.588-.529-3.176-1.058-4.812-1.604-1.703-4.279-1.703-4.279-3.208-9.923-.805-3.019-.805-3.019-1.628-6.097-2.395-9.573-4.451-19.216-6.392-28.891h-4.812c-.486-9.881.586-17.724 3.441-27.173 2.107-7.536 3.429-15.221 4.831-22.913.446-1.468.893-2.937 1.352-4.45 1.588-.529 3.176-1.058 4.812-1.604v11.228c2.117.529 4.235 1.059 6.416 1.604 1.078-2.335 2.145-4.676 3.208-7.017.597-1.303 1.192-2.605 1.805-3.948 1.604-3.342 1.604-3.342 1.403-6.679h3.208c-.366 1.102-.731 2.204-1.108 3.34-.461 1.445-.923 2.89-1.397 4.38-.466 1.433-.931 2.865-1.41 4.342-1.296 4.158-1.296 4.158.707 8.79 7.845-13.748 7.845-13.748 8.02-28.872-3.205-.776-6.414-1.543-9.624-2.305-1.785-.428-3.572-.856-5.413-1.297-10.64-2.212-21.008-3.074-31.841-3.139-1.205-.01-2.411-.018-3.652-.028-2.527-.014-5.051-.025-7.578-.032-3.848-.016-7.692-.065-11.539-.115-2.47-.011-4.938-.019-7.407-.026-1.137-.019-2.276-.038-3.449-.059-7.521.034-12.493 1.593-18.944 5.397-1.665.94-1.665.94-3.364 1.899-10.901 6.957-20.072 15.601-29.364 24.522-2.43 2.329-4.886 4.628-7.346 6.925-1.431 1.369-2.862 2.738-4.336 4.148-1.264 1.204-2.526 2.407-3.829 3.647-3.511 4.287-4.865 8.079-6.297 13.395 14.816 4.445 14.816 4.445 29.874 7.92 11.899 2.522 24.676 6.651 32.682 16.14.529 1.588 1.058 3.176 1.604 4.812h-6.416c2.52 5.766 6.063 10.058 10.126 14.837 4.407 5.275 8.406 10.381 11.829 16.341 3.437 5.866 7.638 8.416 13.332 12.129 5.08 6.942 5.926 13.833 5.683 22.238-2.417 13.964-10.597 27.027-20.319 37.116-3.633 3.869-6.778 8.027-10.025 12.224-6.417 7.94-13.101 13.127-21.854 18.246-.53.529-1.059 1.058-1.604 1.604-36.112 4.024-36.112 4.024-48.32-5.513-3.364-3.521-3.364-3.521-6.216-7.319-.989-1.285-1.981-2.571-3.001-3.896-8.828-12.439-8.519-22.556-8.527-37.506-.019-2.041-.04-4.079-.059-6.182-.003-1.973-.006-3.948-.01-5.98-.006-1.801-.012-3.601-.021-5.457.793-10.448 3.897-15.881 11.618-22.783 1.121-1.05 2.243-2.099 3.397-3.182 13.804-12.736 24.7-16.346 43.119-16.466 1.273-.033 2.549-.066 3.861-.1 7.688-.051 12.167.687 18.595 5.312h3.208c-4.804-14.439-16.993-25.809-30.21-32.788-5.364-2.616-10.801-5.008-16.306-7.311-1.015-.441-2.032-.881-3.08-1.336-11.776-5.853-11.776-5.853-24.188-5.08-3.01 2.25-3.01 2.25-5.845 5.15-1.081 1.062-2.162 2.124-3.275 3.218-16.298 16.545-27.448 28.998-31.279 52.521-1.277 7.139-3.68 13.738-6.216 20.513-3.336 8.963-5.808 17.46-7.231 26.955-2.741 15.597-2.741 15.597-7.105 19.962-.116 3.508-.133 7.017-.1 10.527.015 1.92.029 3.841.043 5.821.02 1.487.037 2.972.057 4.504 1.588.529 3.176 1.058 4.812 1.604-.018 1.958-.037 3.917-.057 5.934-.563 22.79-.563 22.79 1.661 45.393 1.058.53 2.117 1.059 3.208 1.604.113-14.891-.223-29.731-.802-44.61-.076-2.048-.153-4.096-.231-6.206-.186-4.983-.377-9.965-.571-14.947h3.208c-.025 1.135-.05 2.271-.076 3.442-.704 36.739 2.148 67.802 14.152 102.657 3.397 9.884 6.002 19.373 7.686 29.686 3.204 17.359 15.554 29.517 27.421 41.581 2.68 2.85 4.935 5.952 7.258 9.097 8.984 10.561 25.192 17.721 38.194 22.055 1.083 2.134 2.151 4.272 3.208 6.416 4.146 3.664 8.815 6.588 13.433 9.624 1.312.865 2.623 1.728 3.972 2.616 9.912 6.354 19.225 10.691 30.714 13.424 2.145.571 4.288 1.145 6.429 1.724 23.696 6.262 50.827 11.326 73.997 1.07 15.597-6.223 34.26-6.408 50.802-7.505 40.213-2.347 40.213-2.347 75.324-20.2 13.285-15.463 20.171-38.777 24.761-58.277 1.266-5.031 1.266-5.031 3.033-9.41 1.736-3.734 1.736-3.734 1.441-8.453 1.257-.165 2.515-.331 3.809-.501 4.742-.744 4.742-.744 7.419-5.915.479-4.839.479-4.839.389-10.426.005-1.577.005-1.577.01-3.187.006-3.482-.011-6.965-.029-10.447-.001-2.432-.003-4.863-.003-7.297-.002-5.107-.014-10.214-.037-15.322-.027-6.501-.034-13.004-.032-19.505 0-5.032-.01-10.063-.021-15.093-.005-2.395-.008-4.788-.009-7.183.797-26.668.797-26.668-7.586-51.288-3.729-6.377-5.814-10.73-5.489-18.051.331-8.323-2.316-14.179-5.939-21.546-1.195-2.546-2.387-5.091-3.579-7.638-.579-1.221-1.158-2.442-1.756-3.699-2.024-4.347-3.819-8.769-5.593-13.225-3.551-8.641-7.674-16.927-11.899-25.25-3.661-7.228-7.166-14.508-10.557-21.867-11.898-25.956-11.898-25.956-27.242-49.942-2.676-4.174-4.119-8.103-5.64-12.814-5.912-17.591-21.397-28.75-37.435-37.06-1.408-.673-2.817-1.345-4.268-2.038Z"></path>
  <path fill="#FCFCFC" d="M330.801 223.433c10.092 3.935 19.366 9.135 28.369 15.137 3.098-.329 3.098-.329 6.416-1.203 8.388-1.015 13.795 1.071 20.984 5.351 12.042 9.962 20.927 24.141 28.74 37.556 1.102 1.677 1.102 1.677 2.225 3.39 7.245 12.248 7.245 24.488 5.795 38.313-1.647 3.973-1.647 3.973-3.208 6.416-1.064-1.119-2.129-2.241-3.226-3.395-1.416-1.46-2.832-2.92-4.292-4.424-1.395-1.452-2.791-2.903-4.23-4.398-6.079-5.414-11.119-7.505-19.228-7.231-2.928.099-2.928.099-5.916.2-1.058 7.411-2.117 14.821-3.208 22.456-5.833-2.962-8.921-4.534-12.832-9.624-.853-5.593-1.183-10.686-.98-16.317.113-6.219-.319-8.952-4.164-13.952-5.718-4.539-5.718-4.539-12.5-6.622-4.117 1.99-7.351 3.899-11.027 6.517-.999.672-2 1.344-3.03 2.035-5.02 3.399-9.8 6.981-14.513 10.796-6.737 4.095-11.856 4.071-19.549 3.107-1.588-.462-3.176-.925-4.812-1.403-9.545-.398-16.913 7.301-23.659 13.433-1.19 1.324-2.382 2.647-3.609 4.01-1.29 1.324-2.579 2.647-3.909 4.01-9.327 11.283-15.339 26.784-15.64 41.237-.405 15.849-2.544 26.554-13.833 38.262-1.158 1.025-2.316 2.051-3.51 3.107-2.577-1.224-5.15-2.464-7.718-3.709-2.149-1.033-2.149-1.033-4.342-2.087-3.98-2.224-3.98-2.224-6.403-4.9-2.339-2.462-2.339-2.462-6.147-2.844-7.298 1.213-11.956 6.299-17.544 10.89-4.361 2.65-4.361 2.65-8.921 2.242-1.143-.394-2.283-.789-3.46-1.196-.89-13.02 1.06-21.924 6.416-33.684 1.655-4.071 3.294-8.145 4.913-12.231 4.526-11.386 4.526-11.386 6.284-15.6 5.972-14.734 6.809-29.788 6.873-45.495 1.178-5.27 1.178-5.27 5.539-9.135 6.34-3.072 10.913-3.319 17.82-3.402 3.737-.406 3.737-.406 5.701-3.747 1.485-3.656 1.485-3.656-1.216-7.632-.86-1.256-1.72-2.513-2.607-3.809v-3.208h32.08v-27.268c5.997 1.5 9.391 3.187 14.537 6.416 4.328 2.707 7.874 4.797 12.731 6.416.529-7.411 1.059-14.821 1.604-22.456 8.02 3.208 8.02 3.208 11.128 5.113 5.274 2.078 7.55 1.665 12.932-.301 2.183-2.405 4.281-4.888 6.316-7.419 5.858-6.93 5.858-6.93 11.83-7.718Zm12.33-135.638c4.263 1.732 7.418 3.766 11.227 6.416v3.208c-3.175 1.588-6.351 3.176-9.624 4.812-.086 4.077-.149 8.153-.2 12.23-.026 1.144-.053 2.288-.08 3.465-.066 7.138.561 12.941 3.488 19.593 4.843 2.422 9.83 2.03 15.139 2.106 1.092.046 2.185.093 3.311.141 5.211.066 8.036.094 11.914-3.556 2.125-4.334 2.778-8.352 3.32-13.127 6.245 5.764 10.62 11.691 14.738 19.148.548.954 1.097 1.909 1.663 2.892 7.528 13.374 9.348 25.284 7.659 40.515-1.83 4.912-4.321 7.611-8.02 11.228-.76.836-1.522 1.67-2.306 2.53-9.921 9.24-21.561 8.613-34.334 8.437-3.727-.039-7.442.033-11.168.115-18.562.114-32.101-3.79-46.333-16.559-11.737-11.878-20.04-25.669-21.146-42.541.992-20.891 17.277-37.619 31.912-51.235 9.531-8.326 15.961-11.491 28.84-9.818Z"></path>
  <path fill="#FBFBFB" d="M180.677 152.407c5.428 4.592 8.838 9.629 12.28 15.788 4.551 8.094 11.918 10.87 20.25 14.235-3.6-3.878-6.985-6.791-11.428-9.723-4.611-3.109-4.611-3.109-7.819-7.921.529-1.588 1.058-3.176 1.604-4.812 3.663 2.179 7.298 4.386 10.928 6.617 1.031.608 2.061 1.216 3.123 1.843 6.825 4.242 10.43 7.766 13.216 15.6 1.497 11.743-4.401 19.967-11.228 28.872-1.182 1.626-2.364 3.251-3.583 4.926-27.816 37.785-27.816 37.785-43.259 40.64-4.092.326-8.099.401-12.204.348-2.149-.019-2.149-.019-4.343-.04-9.38-.324-16.39-1.331-23.72-7.641-.895-.972-1.792-1.943-2.714-2.945-.945-1.004-1.889-2.01-2.863-3.045-7.821-9.356-10.179-18.478-9.969-30.639 1.394-.04 2.788-.082 4.224-.125 14.435-.547 14.435-.547 26.252-7.895 4.348-6.52 4.246-11.587 3.208-19.248-2.242-6.22-4.939-11.354-9.624-16.04-3.181-1.145-6.389-2.223-9.624-3.208 12.564-16.75 37.408-24.959 57.293-15.587Z"></path>
  <path fill="#111" d="M275.463 202.681c1.957-.018 3.914-.037 5.93-.057 15.673.052 28.774 1.367 40.886 11.886 5.979 3.399 12.212 6.156 18.547 8.822 4.123 1.8 7.314 3.521 11.027 5.915 5.709 2.904 8.902 3.231 15.188 2.976 10.936-.225 17.84 2.547 26.115 9.755 9.492 9.17 16.479 19.343 23.758 30.276 1.527 2.138 1.527 2.138 3.083 4.318 9.943 15.613 10.755 32.108 8.145 50.217-1.328 4.932-2.939 9.687-4.812 14.436h-4.812c-.297-1.62-.595-3.242-.901-4.911-2.658-9.361-10.067-14.717-17.344-20.652-6.184-2.503-12.062-2.091-18.647-1.705l1.604-6.416c9.037-.466 14.728-.391 22.456 4.812 4.998 4.644 9.757 9.477 14.436 14.436 3.915-11.746 3.75-27.884-1.703-39.097-1.497-2.518-3.071-4.992-4.713-7.418-1.277-1.938-1.277-1.938-2.581-3.916-1.835-2.69-3.716-5.349-5.639-7.976-2.086-2.876-4.086-5.815-6.015-8.797-6.947-10.448-13.575-17.385-25.865-21.015-4.178-.287-7.263-.252-11.239 1.078-4.796.79-7.025-1.274-11.016-3.885-1.407-.889-2.815-1.777-4.267-2.693-1.957-1.248-1.957-1.248-3.953-2.52-6.275-3.551-10.415-5.786-17.644-4.812-3.407 3.088-3.407 3.088-6.315 7.118-5.988 7.071-5.988 7.071-11.228 9.523-7.459-.912-13.097-4.606-19.349-8.621.019 1.352.038 2.704.058 4.098.014 1.758.029 3.514.043 5.325.019 1.75.037 3.499.056 5.301-.157 4.524-.157 4.524-1.761 7.732-6.318-.892-10.266-2.719-15.438-6.416-4.095-2.907-7.028-4.815-11.83-6.416v27.268h-32.08c2.118 3.705 4.235 7.41 6.416 11.228-1.079 3.73-2.123 5.333-4.812 8.019-3.929.393-7.859.616-11.803.841-5.234.945-8.194 2.103-12.256 5.575-1.151 5.138-1.151 5.138-1.003 11.028-.805 29.276-.805 29.276-8.621 37.092h-3.208c.328-1.966.657-3.931.997-5.959 2.568-16.162 4.187-32.009 4.617-48.376.766-26.567 3.544-46.522 23.257-65.964 3.393-2.951 6.883-5.755 10.426-8.52 1.285-1.013 1.285-1.013 2.594-2.046 13.772-10.435 24.3-11.046 41.216-10.887Z"></path>
  <path fill="#FAFAFA" d="M352.297 290.193c5.032 1.798 7.064 3.254 10.081 7.724 2.122 11.549-1.021 24.083-6.935 34.061-4.908 6.852-10.312 12.314-17.124 17.267h-3.208l-1.604-12.832c9.527-5.558 9.527-5.558 19.247-11.228-7.299 1.461-10.021 2.692-16.039 6.416-13.976 7.34-29.45 6.447-44.912 6.416 3.904 1.952 7.088 2.117 11.428 2.507 1.46.135 2.921.268 4.424.408 1.121.096 2.242.194 3.396.293-2.036 4.384-3.879 7.191-7.117 10.928-4.296 4.974-6.389 10.28-8.923 16.34-3.508 4.712-3.508 4.712-6.416 8.02-3.999-1.93-7.508-3.936-11.228-6.416-3.463-.161-3.463-.161-7.117.401-1.222.141-2.444.282-3.704.427-3.766.81-6.675 2.12-10.031 3.984v3.208h-3.208c-.391-10.229.435-18.355 3.911-27.969.425-1.182.85-2.366 1.288-3.583 4.189-10.822 10.167-18.488 18.861-26.192 1.254-1.159 2.507-2.319 3.798-3.514 8.965-7.714 8.965-7.714 16.152-7.714 4.11 1.604 4.11 1.604 7.318 3.208 8.687 1.484 13.144-1.82 19.937-6.623 1.361-.989 2.722-1.979 4.123-3.001 3.325-2.396 6.666-4.768 10.025-7.117 1.563-1.122 3.126-2.245 4.738-3.402 4.484-2.313 4.484-2.313 8.839-2.017Z"></path>
  <path fill="#131313" d="M346.338 84.587c8.075 3.084 13.612 7.953 19.75 13.834.903.854 1.806 1.707 2.738 2.586 1.819 1.726 3.633 3.457 5.443 5.194 2.279 2.191 4.579 4.359 6.882 6.525 6.918 6.655 12.242 12.957 16.515 21.585 1.452 2.635 2.903 5.269 4.358 7.902 8.277 15.007 11.052 28.138 7.792 45.449-3.747 10.228-14.035 17.239-23.378 22.036-4.922 1.503-9.528 1.882-14.66 2.056-2.379.09-2.379.09-4.806.182-2.472.083-2.472.083-4.995.168-3.249.112-6.499.229-9.749.351-1.559.056-3.118.113-4.725.172-3.869.247-7.481.796-11.282 1.508-7.236.458-11.145-1.596-16.849-5.64-.959-.651-1.917-1.302-2.905-1.973-15.656-11.003-33.993-26.774-37.496-46.548-1.761-16.126-1.174-27.17 9.067-40.518 1.242-1.45 2.485-2.9 3.765-4.393 1.79-2.1 1.79-2.1 3.615-4.241 2.384-2.698 4.82-5.348 7.313-7.945 3.593-3.755 3.593-3.755 6.315-8.058 9.202-13.166 22.414-13.081 37.292-10.232Zm-33.683 14.436c-1.07.929-2.142 1.857-3.245 2.813-10.096 9.239-24.597 26.229-26.121 40.232-.789 21.668 7.163 34.675 21.108 50.676 14.528 13.002 30.189 15.387 48.855 15.177 3.724-.027 7.434.066 11.157.167 13.579.128 23.067-1.335 33.467-10.888 7.871-9.294 8.763-16.109 8.463-28.096-1.845-16.753-11.404-31.285-21.505-44.417-1.058-.53-2.117-1.059-3.208-1.604-.462 2.051-.925 4.103-1.403 6.215-1.069 4.732-1.487 6.299-5.013 9.825-4.055.362-7.875.521-11.929.502-1.639.038-1.639.038-3.312.078-4.618.003-7.972-.017-11.882-2.616-4.308-6.842-3.542-14.609-3.452-22.425.006-1.195.014-2.39.023-3.62.017-2.937.046-5.874.076-8.811l9.624-4.812c-1.159-5.082-1.159-5.082-5.512-7.518-15.564-5.734-24.545-1.909-36.191 9.122Z"></path>
  <path fill="#0F0F0F" d="M144.738 147.444c2.706 1.303 2.706 1.303 4.31 4.51-1.654.663-3.307 1.324-5.013 2.005-7.16 3.066-13.513 6.899-19.047 12.431 1.457.629 2.911 1.258 4.411 1.906 6.721 3.748 9.942 7.887 13.634 14.535 1.974 7.236 3.283 14.935-.369 21.805-3.692 4.637-7.359 7.8-12.864 9.874-5.187.314-5.187.314-10.827.201-1.877-.029-3.755-.058-5.688-.087-1.43-.039-2.863-.075-4.337-.114 2.271 13.988 5.232 25.54 16.04 35.288 9.023 6.376 16.122 7.611 27.067 7.519 2.145-.016 2.145-.016 4.333-.032 9.851-.361 16.227-1.756 23.381-8.953.977-1.104 1.955-2.207 2.963-3.346 1.094-.972 2.188-1.943 3.315-2.945 9.869-8.933 17.251-19.614 24.729-30.546.845-1.219 1.692-2.439 2.563-3.694.749-1.102 1.497-2.203 2.268-3.337 2.68-3.092 5.083-4.424 8.828-5.994-4.191 16.348-16.692 29.079-27.267 41.704-.844 1.083-1.686 2.164-2.556 3.277-5.342 6.724-11.255 11.152-18.527 15.708-2.883 1.653-2.883 1.653-4.581 3.471-36.104 4.024-36.104 4.024-48.219-5.414-3.359-3.514-3.359-3.514-6.317-7.418-1.108-1.404-2.215-2.807-3.357-4.254-9.715-13.125-9.767-22.712-9.775-38.752-.019-2.041-.04-4.079-.059-6.182-.003-1.973-.006-3.948-.01-5.98-.006-1.801-.012-3.601-.02-5.457.891-11.749 5.604-18.773 14.161-26.554 2.215-1.806 2.215-1.806 4.474-3.647 2.202-1.817 2.202-1.817 4.449-3.672 11.456-8.379 11.456-8.379 17.907-7.856Z"></path>
  <path fill="#F8F8F8" d="M326.088 342.93c7.752 2.769 10.383 10.53 13.835 17.543-1.248.678-1.248.678-2.524 1.371-3.807 2.074-7.609 4.161-11.41 6.248-1.311.712-2.62 1.423-3.97 2.156-5.353 2.946-10.339 5.76-15.11 9.598-3.418 2.717-6.199 4.284-10.105 6.103-6.883 3.308-12.035 7.691-17.633 12.819-22.638 19.928-22.638 19.928-35.688 20.05-3.077-.297-3.077-.297-6.216-.601 1.118-5.213 2.971-8.632 6.06-12.994 2.435-3.783 4.352-7.749 6.371-11.767 4.616-8.533 9.72-15.018 18.045-20.151 5.013-1.404 5.013-1.404 9.624 0 3.678 3.424 6.695 7.155 9.624 11.228 4.855-5.778 8.674-11.709 12.431-18.246 5.457-9.198 14.545-23.676 26.666-23.357Z"></path>
  <path fill="#121212" d="M195.564 342.829c-.791 9.695-2.976 17.108-7.117 25.864-7.136 15.171-7.136 15.171-9.124 31.679.029 1.551.06 3.102.088 4.7.037 1.161.076 2.324.113 3.521 6.121-1.045 9.67-2.357 14.436-6.416 1.058.529 2.117 1.058 3.208 1.604-1.818 5.452-3.409 6.501-8.02 9.624 2.69 3.437 4.484 4.72 8.722 5.915 8.323.73 16.613.622 24.961.501-.529 1.587-1.058 3.175-1.604 4.811h-3.208v3.208c9.528-1.058 19.056-2.117 28.872-3.208v-3.207c-2.117-.53-4.234-1.059-6.416-1.604 1.522-.331 3.045-.661 4.612-1.003 14.599-4.279 25.255-13.915 36.128-24.129 5.298-4.749 10.804-8.329 17.004-11.76 5.891-3.324 11.725-6.694 17.475-10.256 1.553-.958 1.553-.958 3.136-1.933 2.135-1.32 4.267-2.648 6.39-3.986 2.706-1.655 5.491-3.179 8.287-4.677l3.208 1.604c-1.68 5.203-3.342 6.498-8.107 9.399-2.035 1.025-4.079 2.036-6.129 3.032-21.84 11.192-40.703 25.442-58.388 42.4-10.814 10.284-22.446 14.421-37.349 14.843-18.136-.683-38.068-7.41-50.996-20.595-4.97-7.852-3.565-16.581-1.992-25.451 2.628-9.805 6.817-19.171 10.683-28.539.564-1.378 1.131-2.755 1.713-4.174.545-1.288 1.091-2.576 1.652-3.903.735-1.75.735-1.75 1.485-3.535 1.554-2.89 2.78-4.329 6.277-4.329Z"></path>
  <path fill="#1B1B1B" d="M248.495 358.869h1.604c.098.986.196 1.973.295 2.99.135 1.296.27 2.592.408 3.928.13 1.283.26 2.568.394 3.891.432 3.885.432 3.885 2.111 8.439h3.208v-3.208c4.193-4.36 6.273-4.804 12.431-5.112 1.721.099 3.441.199 5.213.3-2.231 4.464-5.779 5.577-9.993 7.944-8.24 4.875-11.202 11.698-15.188 20.063-1.92 3.75-4 7.006-6.498 10.389-3.787 4.629-3.787 4.629-5.213 9.724h12.832c-.802 3.007-.802 3.007-3.208 6.415-9.651 3.447-18.702 3.584-28.872 3.208 0-3.208 0-3.208 2.406-5.814.794-.727 1.588-1.455 2.406-2.205-2.382.793-2.382.793-4.812 1.604-9.882.824-20.839.838-28.77-5.815-.563-.727-1.125-1.455-1.705-2.205 2.205-2.406 2.205-2.406 4.812-4.812h3.208c.133-1.224.264-2.448.401-3.709 1.203-4.311 1.203-4.311 4.01-7.218 4.366-2.305 6.738-2.38 11.628-1.905 3.31 1.993 3.31 1.993 6.416 4.611 4.65 3.734 8.672 6.419 14.436 8.221 8.825-7.844 14.425-16.414 15.415-28.42.104-2.557.179-5.112.224-7.67.072-1.978.072-1.978.145-3.997.112-3.211.189-6.424.256-9.637Z"></path>
  <path fill="#F9F9F9" d="M234.059 222.53c6.719 3.262 10.295 5.333 12.832 12.631.53 1.656 1.059 3.309 1.604 5.013.862 1.158 1.721 2.316 2.607 3.509 3.448 7.051 2.88 14.43 2.205 22.155-3.019 3.02-7.891 2.022-11.929 2.106-10.676-.034-18.729-2.045-28.171-6.918-.965-8.729-1.223-15.556 4.111-22.857 5.003-5.874 10.67-10.896 16.741-15.639Z"></path>
  <path fill="#F5F5F5" d="M288.495 18.623c2.673.016 5.345.032 8.017.045 6.451.034 12.901.09 19.351.155-1.128 6.078-1.128 6.078-5.414 9.124-4.21 2.104-4.21 2.104-9.022 3.708-1.976 2.985-1.976 2.985-3.508 6.517-.552 1.176-1.104 2.353-1.673 3.564-.611 1.362-.611 1.362-1.235 2.751h-3.208c2.475-7.571 4.937-15.103 8.02-22.456-4.477 1.936-7.385 3.556-9.624 7.99-1.171 3.182-2.199 6.417-3.208 9.654-8.35.425-15.273-.048-23.357-2.205-16.454-4.153-33.549-4.665-50.427-5.815 16.882-16.88 53.218-13.268 75.288-13.032Z"></path>
  <path fill="#F7F7F7" d="M261.346 207.938c1.822.009 1.822.009 3.682.015 1.891.021 1.891.021 3.819.042 1.278.006 2.556.014 3.875.022 3.152.018 6.305.047 9.457.077 1.45 4.35 1.811 6.904 1.817 11.372.003 1.888.003 1.888.007 3.813-.007 1.307-.013 2.616-.02 3.963.01 1.953.01 1.953.02 3.945-.002 1.26-.004 2.52-.007 3.819-.001 1.145-.003 2.29-.005 3.469-.214 3.412-.882 6.437-1.812 9.719-6.674-1.492-12.413-4.374-18.446-7.518-1.063-.525-2.128-1.049-3.226-1.588-7.339-3.832-10.976-7.638-15.22-14.954-1.058-1.059-2.117-2.117-3.208-3.208.292-4.518 1.227-6.076 4.612-9.122 4.964-3.067 8.94-3.909 14.655-3.866Z"></path>
  <path fill="#161616" d="M342.63 224.436c3.708 1.302 3.708 1.302 8.921 4.611 5.297 3.144 9.283 3.428 15.49 3.176 10.936-.225 17.84 2.547 26.115 9.755 9.492 9.17 16.479 19.343 23.758 30.276 1.018 1.424 2.035 2.85 3.083 4.318 9.943 15.613 10.755 32.108 8.145 50.217-1.328 4.932-2.939 9.687-4.812 14.436h-4.812c-.446-2.432-.446-2.432-.901-4.911-2.658-9.361-10.067-14.717-17.344-20.652-6.184-2.503-12.062-2.091-18.647-1.705.53-2.117 1.059-4.234 1.604-6.416 9.037-.466 14.728-.391 22.456 4.812 4.998 4.644 9.757 9.477 14.436 14.436 3.915-11.746 3.75-27.884-1.703-39.097-1.497-2.518-3.071-4.992-4.713-7.418-.852-1.292-1.703-2.584-2.581-3.916-1.835-2.69-3.716-5.349-5.639-7.976-2.086-2.876-4.086-5.815-6.015-8.797-6.947-10.448-13.575-17.385-25.865-21.015-4.173-.287-7.256-.255-11.228 1.078-4.837.794-7.177-1.291-11.228-3.885-1.355-.852-2.712-1.704-4.109-2.581-3.534-2.379-6.948-4.849-10.326-7.444 3.208-1.604 3.208-1.604 5.915-1.302Z"></path>
  <path fill="#F8F8F8" d="M390.549 311.652c7.999 1.019 12.38 5.141 18.345 10.325.977.807 1.952 1.614 2.958 2.445 4.273 3.808 6.506 6.462 7.769 12.092-1.56 6.665-3.389 8.947-9.123 12.731-5.672.624-10.588.061-16.04-1.604-4.911-4.01-4.911-4.01-8.02-8.02-.529-.529-1.058-1.059-1.604-1.604-.159-4.027-.221-8.002-.2-12.03-.005-1.126-.012-2.253-.018-3.415.019-9.911.019-9.911 5.933-10.92Z"></path>
  <path fill="#F6F6F6" d="M128.196 174.41c5.398 3.481 9.144 6.578 11.228 12.832.602 5.414.602 5.414 0 11.228-4.076 5.069-6.65 7.565-12.832 9.624-2.736.149-5.479.209-8.22.201-1.426.004-2.852.008-4.323.012-3.497-.213-3.497-.213-5.101-1.817-.649-9.718-1.331-20.016 3.208-28.872 5.133-5.681 8.938-5.481 16.04-3.208Z"></path>
  <path fill="#1A1A1A" d="M353.802 284.591c5.413 3.018 10.564 6.072 13.388 11.722.116 4.094.15 8.141.101 12.231-.008 1.134-.014 2.266-.022 3.434-.019 2.799-.047 5.598-.079 8.395h-1.604l-1.604-14.436h-1.604c-.644-2.232-.644-2.232-1.302-4.51-2.122-5.996-2.122-5.996-6.718-9.926-6.606.681-10.953 3.083-16.44 6.718-1.535 1.001-3.072 2.002-4.655 3.032-2.887 1.95-5.754 3.934-8.583 5.965-9.236 6.563-9.236 6.563-15.734 7.543-4.311-.802-4.311-.802-7.519-2.505-4.849-2.275-7.699-1.285-12.832.099-3.606 2.652-6.633 5.152-9.825 8.221-.819.741-1.64 1.48-2.486 2.244-15.388 14.397-21.448 36.62-24.581 56.903h-1.604c-2.168-22.663 3.417-39.784 17.444-57.843 8.496-8.798 18.255-16.475 30.676-17.545 1.058.53 2.117 1.059 3.208 1.604 6.695 1.271 12.269 1.174 18.333-2.11 4.126-2.947 8.136-6.012 12.143-9.118 3.074-2.218 6.183-4.391 9.324-6.515 1.4-.978 2.799-1.957 4.241-2.964 4.078-1.748 4.078-1.748 8.334-.639Z"></path>
  <path fill="#0D0D0D" d="M351.741 324.045c.863.377 1.727.754 2.617 1.14-2.3 1.579-4.606 3.147-6.916 4.713-1.926 1.312-1.926 1.312-3.891 2.65-3.628 2.261-3.628 2.261-8.44 3.865v14.436h-3.208c-1.059-2.117-2.118-4.235-3.208-6.416-8.445.212-13.115 3.41-19.11 8.923-4.817 5.63-8.277 11.834-11.703 18.383-3.007 5.719-6.06 10.091-10.891 14.398-.602-.754-1.203-1.51-1.822-2.286-4.836-5.883-8.995-10.139-15.822-13.754v-1.604c10.519.993 10.519.993 14.136 4.111.629.76 1.258 1.522 1.904 2.305h3.208c4.43-5.564 7.62-10.254 10.326-16.842 3.019-6.761 7.103-11.488 12.13-16.842-1.102.056-2.204.112-3.34.17-1.445.043-2.89.087-4.379.132-2.149.083-2.149.083-4.342.168-4.741-.56-5.679-1.854-8.791-5.282.953.011 1.904.021 2.884.032 19.01.06 34.16-.475 50.562-10.62 4.297-2.244 4.297-2.244 8.096-1.78Z"></path>
  <path fill="#F7F7F7" d="M354.459 101.228c8.487 1.348 11.082 5.234 16.422 11.655 4.385 6.09 6.941 10.565 5.933 18.22-5.527 3.686-7.912 3.686-14.436 3.71-1.685.027-3.373.053-5.112.081-4.512-.583-4.512-.583-7.493-2.205-2.942-5.13-2.392-10.484-2.232-16.223.01-1.188.018-2.377.026-3.602.151-10.259.151-10.259 6.892-11.636Zm11.127 225.561c4.928 2.361 8.511 4.785 12.431 8.622.985.94 1.97 1.878 2.984 2.845 2.229 2.969 2.229 2.969 2.229 9.385-.953.176-1.905.351-2.887.533-9.114 1.743-17.973 3.926-26.873 6.547-3.924.94-3.924.94-10.339.94.944-5.324 2.611-8.062 6.322-11.955.936-.992 1.871-1.984 2.835-3.007.981-1.017 1.963-2.034 2.973-3.083.987-1.041 1.975-2.083 2.992-3.157 2.435-2.566 4.879-5.123 7.333-7.67Z"></path>
  <path fill="#F8F8F8" d="M316.66 216.998c.795.767 1.591 1.535 2.411 2.324 0 7.431 0 7.431-4.01 11.73-2.995 2.789-4.769 4.169-8.827 4.849-5.989-.432-9.393-1.992-14.431-5.351-4.347-6.52-3.954-11.635-3.208-19.248 10.854-3.067 18.767.103 28.065 5.696Z"></path>
  <path fill="#161616" d="m222.831 198.47 1.604 3.208c-4.269 10.229-10.257 19.064-17.799 27.119-3.535 3.889-6.661 8.016-9.869 12.179-2.501 2.974-5.04 5.915-7.619 8.822-1.152 1.313-2.304 2.625-3.489 3.979-11.839 10.947-24.592 9.926-39.856 9.509-4.27-.175-8.53-.388-12.795-.656v-1.604c2.355-.09 2.355-.09 4.756-.182 27.598-1.384 40.3-9.832 58.802-29.993 5.779-6.816 10.851-14.193 15.9-21.559 3.21-4.627 5.622-7.659 10.365-10.822Z"></path>
  <path fill="#F6F6F6" d="M208.096 400.874c4.629 1.72 7.697 4.618 11.527 7.719 3.173 1.676 6.373 3.299 9.624 4.812v3.208c-11.025 5.631-19.802 6.04-31.879 3.509-4.786-1.819-6.496-3.08-9.824-6.717 2.337-1.842 4.677-3.678 7.017-5.513 1.955-1.535 1.955-1.535 3.948-3.102 5.732-4.315 5.732-4.315 9.587-3.916Z"></path>
  <path fill="#101010" d="M355.962 381.325v4.812c-1.318.005-2.637.008-3.997.013-14.891.516-24.854 3.771-35.85 13.953-5.533 6.007-8.463 12.11-11.48 19.718-2.571 4.871-5.279 9.659-8.02 14.435h-3.208c3.012-20.991 12.447-33.911 28.503-47.272 10.034-7.387 22.213-5.848 34.052-5.659Z"></path>
  <path fill="#080808" d="M307.843 195.262c10.641 4.469 10.641 4.469 15.427 7.263 6.336 2.757 11.858 3.123 18.646 3.182 1.232.029 2.464.058 3.734.087 3.906.087 7.81.141 11.716.196 2.661.053 5.322.109 7.983.165 6.495.136 12.991.244 19.485.335v3.208c-4.675 1.559-8.015 1.891-12.901 2.056-2.385.09-2.385.09-4.82.182-1.661.056-3.323.11-5.035.168-3.264.112-6.529.229-9.794.351-1.57.056-3.142.111-4.76.169-3.869.248-7.444.818-11.241 1.56-7.925.432-11.701-2.033-18.014-6.491-1.012-.654-2.026-1.31-3.07-1.986-2.894-1.949-2.894-1.949-7.356-5.633v-4.812Z"></path>
  <path fill="#161616" d="M353.815 284.585c5.402 3.03 10.552 6.081 13.375 11.728.116 4.094.15 8.141.101 12.231-.008 1.134-.014 2.266-.022 3.434-.019 2.799-.047 5.598-.079 8.395h-1.604l-1.604-14.436h-1.604c-.43-1.488-.859-2.977-1.302-4.51-2.122-5.996-2.122-5.996-6.718-9.926-6.606.681-10.953 3.083-16.44 6.718-1.535 1.001-3.072 2.002-4.655 3.032-2.887 1.95-5.754 3.934-8.583 5.965-9.247 6.571-9.247 6.571-15.934 7.543-4.111-.802-4.111-.802-7.319-4.01h3.208v-3.208c.893-.118 1.787-.239 2.707-.362 8.763-1.51 14.197-4.13 21.072-9.68 4.087-3.266 8.283-6.267 12.612-9.206 1.429-.991 2.857-1.984 4.329-3.007 4.191-1.804 4.191-1.804 8.46-.701Z"></path>
  <path fill="#151515" d="M195.564 342.829c-.791 9.695-2.976 17.108-7.117 25.864-4.982 10.786-9.122 20.45-9.926 32.481-.118 1.7-.239 3.401-.362 5.151-.079 1.278-.157 2.556-.239 3.872-1.588-.53-3.176-1.059-4.812-1.604-.963-18.77 4.266-32.707 11.329-49.823.564-1.378 1.131-2.755 1.713-4.174.545-1.288 1.091-2.576 1.652-3.903.735-1.75.735-1.75 1.485-3.535 1.554-2.89 2.78-4.329 6.277-4.329Z"></path>
  <path fill="#F4F4F4" d="M209.999 261.026c6.768 6.368 12.212 13.327 17.644 20.852-2.503.773-5.01 1.541-7.518 2.306-1.395.428-2.79.857-4.229 1.296-4.084 1.152-8.142 2.04-12.312 2.813.139-3.642.314-7.285.502-10.926.093-2.029.186-4.056.282-6.146.82-5.383.82-5.383 3.294-8.51.772-.556 1.544-1.111 2.337-1.685Z"></path>
  <path fill="#151515" d="M235.663 81.379c-1.604 4.812-1.604 4.812-6.616 7.319-3.903 1.541-7.661 2.7-11.729 3.809-7.519 2.243-15.497 4.973-21.058 10.715-2.3 2.217-2.3 2.217-6.61 2.518-1.224-.099-2.448-.199-3.71-.301.17-2.794.17-2.794 1.604-6.416 3.36-2.483 6.523-4.559 10.126-6.617.933-.555 1.867-1.111 2.829-1.684 4.682-2.768 9.407-5.389 14.312-7.739v3.208c1.953-.794 3.905-1.588 5.916-2.406 5.192-1.963 9.324-2.932 14.936-2.406Z"></path>
  <path fill="#0E0E0E" d="M150.652 357.265h3.208c-.231 1.705-.462 3.408-.701 5.163-.302 2.289-.602 4.578-.903 6.867-.152 1.116-.305 2.234-.464 3.384-1.272 9.817-1.976 19.668-.338 29.498.265 1.588.529 3.176.802 4.812-4.121-1.511-6.07-2.653-8.421-6.416-3.678-14.717-.024-27.759 5.213-41.704l1.604-1.604Z"></path>
  <path fill="#181818" d="M165.088 318.769h3.208c7.502 15.002-3.628 39.304-8.02 54.536h-3.208c.184-3.543.39-7.085.601-10.627.113-1.971.225-3.944.339-5.976.64-5.628 2.079-10.136 3.872-15.477.406-3.631.707-7.277.903-10.926.54-9.764.54-9.764 2.305-11.53Z"></path>
  <path fill="#0F0F0F" d="M280.575 142.331h1.604c.12 1.05.241 2.101.364 3.183 2.823 19.598 11.445 34.218 25.3 48.144-.53 1.588-1.059 3.176-1.604 4.812-24.848-23.08-24.848-23.08-26.24-38.439-.115-5.919.151-11.795.576-17.7Z"></path>
  <path fill="#141414" d="M234.059 116.667c4.981 4.218 7.209 9.173 9.926 15.037.85 1.8 1.7 3.598 2.574 5.452 1.83 4.889 2.371 8.054 1.936 13.195-3.044-.419-3.044-.419-6.416-1.604-1.565-2.738-1.565-2.738-2.606-6.115-1.174-3.625-2.159-6.64-4.11-9.925-2.136-5.258-1.491-10.407-1.304-16.04Zm104.26 275.886h4.812v6.416c-2.695 1.957-5.403 3.899-8.195 5.715-4.91 3.732-7.72 8.384-11.053 13.533-1.588-.53-3.176-1.059-4.812-1.604.997-6.476 4.063-10.904 8.02-16.04 5.113-3.709 5.113-3.709 9.624-6.416.529-.53 1.058-1.059 1.604-1.604Z"></path>
  <path fill="#101010" d="M221.227 132.707c6.618 2.207 8.293 6.648 11.53 12.431.885 1.494.885 1.494 1.788 3.02 3.272 5.755 5.101 9.978 4.326 16.628h-4.812c-2.154-4.135-4.289-8.279-6.416-12.431-.917-1.754-.917-1.754-1.854-3.546-.579-1.137-1.158-2.274-1.755-3.445-.537-1.041-1.074-2.084-1.628-3.157-1.179-3.084-1.179-3.084-1.179-9.5Z"></path>
  <path fill="#1A1A1A" d="M296.615 366.889c.529 1.588 1.058 3.176 1.604 4.812-1.947 3.628-1.947 3.628-4.711 7.519-1.362 1.944-1.362 1.944-2.751 3.929-.714.986-1.426 1.972-2.162 2.988-4.664-3.559-7.945-6.302-11.228-11.228-2.65-1.641-5.322-3.25-8.02-4.812v-1.604c10.519.993 10.519.993 14.136 4.111.629.76 1.258 1.522 1.904 2.305 3.79.369 3.79.369 7.418-4.01 1.258-1.323 2.515-2.647 3.81-4.01Z"></path>
  <path fill="#090909" d="M259.723 339.621c2.002 6.007.857 7.882-1.302 13.735-3.067 8.713-5.188 17.265-6.718 26.365h-1.604c-1.201-27.517-1.201-27.517 6.416-38.496 1.059-.529 2.117-1.059 3.208-1.604Z"></path>
  <path fill="#fff" d="M246.891 421.425v3.207c-9.869 2.926-18.6 3.589-28.872 3.208v-3.208c8.368-7.017 18.884-6.016 28.872-3.207Z"></path>
  <path fill="#353535" d="M349.546 283.482c7.185 2.463 14.124 5.788 17.644 12.831.116 4.094.15 8.141.101 12.231-.008 1.134-.014 2.266-.022 3.434-.019 2.799-.047 5.598-.079 8.395h-1.604c-.529-4.764-1.058-9.527-1.604-14.436h-1.604c-.43-1.488-.859-2.977-1.302-4.51-2.125-6.001-2.125-6.001-6.718-9.926-5.012-.401-5.012-.401-9.624 0 1.588-2.646 3.176-5.293 4.812-8.019Z"></path>
  <path fill="#1F1F1F" d="M290.199 121.479c.529 1.588 1.059 3.176 1.604 4.812-1.614 2.582-3.227 5.165-4.843 7.744-2.51 5.561-2.438 11.16-2.58 17.193-.69 4.55-1.869 5.931-5.409 8.746-.173-4.079-.3-8.149-.401-12.23-.053-1.144-.107-2.286-.162-3.465-.154-8.36 1.45-12.968 6.979-19.592 1.588-1.059 3.176-2.118 4.812-3.208Z"></path>
  <path fill="#1A1A1A" d="M407.29 184.034c1.604 4.812 1.604 4.812.101 8.522-5.911 7.701-13.82 13.018-22.557 17.142 1.955-7.598 5.632-10.033 11.855-14.121 3.167-2.353 4.299-4.731 5.789-8.335 1.588-1.058 3.176-2.117 4.812-3.208Z"></path>
  <path fill="#222" d="M176.316 386.137h1.604v24.06c-1.588-.53-3.176-1.059-4.812-1.604-.087-2.839-.148-5.68-.201-8.521-.037-1.581-.074-3.163-.112-4.793.313-4.33.313-4.33 3.521-9.142Z"></path>
  <path fill="#383838" d="M253.307 203.282c3.375-.13 6.75-.223 10.126-.3 1.88-.056 3.758-.112 5.696-.17 5.03.47 5.03.47 9.842 5.282h-25.664v-4.812Z"></path>
  <path fill="#030303" d="M149.048 145.539c4.473-.355 8.576-.451 13.032-.3 1.211.02 2.421.043 3.667.065 2.988.056 5.977.143 8.965.235v3.208c-9.528.529-19.056 1.058-28.872 1.604 1.059-1.588 2.117-3.176 3.208-4.812Z"></path>
  <path fill="#272727" d="M319.071 307.541c-1.604 4.812-1.604 4.812-4.812 6.416-4.812.302-4.812.302-9.624 0-1.059-1.058-2.117-2.117-3.208-3.208h3.208v-3.208c10.827-1.804 10.827-1.804 14.436 0Z"></path>
  <path fill="#1B1B1B" d="M354.358 325.185c-2.332 1.614-4.672 3.216-7.017 4.812-1.954 1.341-1.954 1.341-3.947 2.708-3.471 2.104-3.471 2.104-6.679 2.104v-6.416c11.171-5.37 11.171-5.37 17.643-3.208Z"></path>
  <path fill="#242424" d="M339.923 224.134c5.875.63 10.871 3.715 16.039 6.416l-3.208 4.812c-5.293-2.647-10.586-5.293-16.039-8.02 1.058-1.059 2.117-2.117 3.208-3.208Z"></path>
  <path fill="#343434" d="M150.652 357.265h3.208c-.529 5.822-1.059 11.645-1.604 17.644-1.059-2.117-2.117-4.235-3.208-6.416l-3.208 1.604c3.007-11.028 3.007-11.028 4.812-12.832Z"></path>
  <path fill="#212121" d="M346.338 285.086c1.059.529 2.118 1.058 3.208 1.603-1.82 5.281-3.195 6.41-8.22 9.223-2.282.993-2.282.993-4.611 2.005 2.037-6.278 4.029-9.287 9.623-12.831Z"></path>
  <path fill="#CECECE" d="M288.595 76.567c1.419 3.975 1.792 5.872.401 9.926-2.005 2.906-2.005 2.906-6.817 4.51 1.699-5.458 3.222-9.645 6.416-14.436Z"></path>
  <path fill="#1D1D1D" d="M298.219 423.028c1.002 2.909 1.002 2.909 1.604 6.416l-3.208 4.812h-3.208c.601-4.711.601-4.711 1.604-9.624 1.058-.529 2.117-1.058 3.208-1.604Z"></path>
  <path fill="#2A2A2A" d="M195.564 342.829c-.53 4.235-1.059 8.469-1.604 12.832-1.588-1.059-3.176-2.117-4.812-3.208.601-3.909.601-3.909 1.604-8.02 3.208-1.604 3.208-1.604 4.812-1.604Z"></path>
  <path fill="#070707" d="M293.407 305.937c3.705.53 7.41 1.059 11.228 1.604v3.208c-4.235-.529-8.469-1.058-12.832-1.604.529-1.058 1.059-2.117 1.604-3.208Z"></path>
</svg>