<svg xmlns="http://www.w3.org/2000/svg" viewBox="0 0 500 500">
  <path fill="#FDFDFD" d="M242.832 47.77c12.126 1.347 12.126 1.347 13.858 3.079 4.38.199 8.705.293 13.087.29 1.906.001 1.906.001 3.853.003 7.512-.067 14.222-.736 21.497-2.656 20.233-4.621 41.041 4.354 59.045 12.853 10.251 4.838 18.886 6.271 30.314 4.907v4.619c-2.033 1.016-4.065 2.033-6.159 3.08 1.975 5.524 4.272 9.617 7.986 14.147 20.15 25.386 28.098 47.279 28.1 79.582.003 1.127.006 2.253.009 3.414-.009 18.456-2.32 34.747-8.381 52.208-.682 2.821-1.358 5.643-2.021 8.469-5.9 18.881-24.365 37.141-41.349 46.582-19.617 8.632-40.425 9.665-61.522 10.484-1.62.066-3.24.132-4.909.2-3.944.162-7.891.319-11.835.473-4.658 8.788-21.767-14.9-37.997-12.715-46.552 6.268-106.687-49.677-105.081-85.212-.862-1.962-3.988-10.818-4.85-12.82-5.065-14.007-5.258-28.437.116-41.684 7.059-13.875 16.761-25.961 27.714-36.953 1.526-1.582 1.526-1.582 3.084-3.194 20.846-20.133 52.427-32.671 80.061-39.918 0-4.253-2.025-5.994-4.62-9.238Z"></path>
  <path fill="#0B0B0B" d="M242.832 47.77c12.126 1.347 12.126 1.347 13.858 3.079 4.38.199 8.705.293 13.087.29 1.906.001 1.906.001 3.853.003 7.512-.067 14.222-.736 21.497-2.656 20.233-4.621 41.041 4.354 59.045 12.853 10.251 4.838 18.886 6.271 30.314 4.907v4.619c-2.033 1.016-4.065 2.033-6.159 3.08 1.975 5.524 4.272 9.617 7.986 14.147 20.15 25.386 28.098 47.279 28.1 79.582.003 1.127.006 2.253.009 3.414-.009 18.456-2.32 34.747-8.381 52.208-.682 2.821-1.358 5.643-2.021 8.469-5.9 18.881-24.365 37.141-41.349 46.582-19.617 8.632-40.425 9.665-61.522 10.484-1.62.066-3.24.132-4.909.2-3.944.162-7.891.319-11.835.473.637 8.681 3.088 14.179 8.275 20.978.686.927 1.372 1.854 2.079 2.809 15.839 21.129 33.65 42.834 54.313 59.357 1.449 1.181 2.898 2.362 4.39 3.578 22.338 17.899 46.749 31.74 74.345 39.739 3.521 1.065 6.748 2.224 10.086 3.741 4.321 1.874 8.386 3.23 12.895 4.522 6.03 1.745 11.242 4.07 16.842 6.929 3.5 1.125 7.007 2.182 10.548 3.17 6.969 3.053 10.606 8.949 14.375 15.306.784 1.303 1.567 2.604 2.376 3.947 3.771 7.238 3.689 13.792 3.59 21.843-.006 1.075-.013 2.148-.021 3.254-.017 2.637-.045 5.273-.074 7.909-2.541.508-5.081 1.017-7.699 1.54-1.524-3.557-3.048-7.113-4.619-10.778-.508 2.033-1.016 4.065-1.539 6.159-3.049-.508-6.098-1.016-9.239-1.54-2.041-9.386-.719-16.903 1.54-26.175-2.032.508-4.065 1.016-6.159 1.54-.508 7.621-1.016 15.243-1.54 23.096-2.54-.509-5.081-1.017-7.698-1.54-.322-9.021.029-16.061 3.079-24.636.116-3.59.144-7.187 0-10.777-10.662-5.691-21.348-9.992-32.815-13.761-13.153-4.456-25.54-9.38-38.011-15.494-2.139-.965-4.281-1.923-6.424-2.875-1.136-.512-2.271-1.023-3.441-1.552-2.173-.979-4.351-1.947-6.536-2.899-16.684-7.643-29.803-19.7-42.493-32.706-1.303-1.311-2.605-2.619-3.946-3.97-21.184-21.446-39.255-44.66-54.641-70.568-2.221-4.112-2.221-4.112-5.696-5.527 8.341 65.613 24.246 128.09 49.271 189.384 1.221 3.047 2.44 6.094 3.657 9.143.488 1.219.976 2.44 1.478 3.698.506 1.266.506 1.266 1.024 2.556h-12.318c-.933-2.533-1.863-5.067-2.791-7.602-.518-1.411-1.037-2.822-1.569-4.277-5.2-14.624-9.681-29.459-14.178-44.311-3.263-10.715-3.263-10.715-7.06-21.247-2.258-6.089-3.801-12.08-5.196-18.41-.481-2.125-.961-4.251-1.444-6.374-.254-1.127-.509-2.254-.77-3.415-.961-4.088-2.019-8.147-3.074-12.212-2.615-10.414-4.622-20.918-6.529-31.479-.404-2.225-.812-4.45-1.223-6.673-2.607-14.073-5.161-28.144-5.269-42.505-.054-3.323-.054-3.323-1.707-7.816-14.671-11.266-37.746-12.866-55.565-11.395-23.367 3.216-47.684 10.719-69.207 20.213-4.37 1.877-8.659 3.155-13.217 4.462-11.563 4.096-20.016 13.403-28.3 22.133-.754.783-1.524 1.563-2.309 2.369-7.222 7.854-11.841 16.89-16.752 26.309-5.451 10.309-10.901 20.532-17.122 30.409-10.624 15.452-10.624 15.452-13.087 33.296.508 1.524 1.016 3.049 1.539 4.619 1.232.132 2.448.266 3.711.403 10.316 1.366 16.937 2.522 24.004 10.375v3.079c1.34.524 1.34.524 2.695 1.06 4.465 2.606 6.836 5.379 9.623 9.718-.385 3.562-.385 3.562-1.54 6.159-6.005-.907-9.392-3.844-14.058-7.601-7.944-5.981-14.581-8.481-24.435-9.336 2.772 12.233 7.961 24.987 16.937 33.874-.477 3.369-.477 3.369-1.54 6.159-2.54.508-5.081 1.016-7.698 1.54-10.116-11.397-16.768-23.244-23.096-36.953h-3.079c-.478 11.59-.585 20.379 4.619 30.794.292 4.523.292 4.523 0 7.698-2.033.508-4.065 1.016-6.159 1.54-6.528-6.702-9.1-12.393-11.425-21.442-.6-3.152-.6-3.152-2.432-4.733-2.541 5.081-2.125 10.764-2.402 16.359-.077 1.235-.139 2.47-.2 3.742-.17 3.05-.324 6.102-.478 9.153-2.894-.48-2.894-.48-6.159-1.539-4.649-6.966-3.895-13.393-3.079-21.556 3.972-17.578 17.507-33.295 28.3-47.331 14.304-18.609 26.452-38.44 36.66-59.582 11.656-24.047 27.777-45.583 52.058-57.836 1.232-.657 2.479-1.313 3.757-1.991 19.531-9.678 41.757-13.757 62.868-18.624 1.307-.302 2.614-.605 3.96-.916 1.162-.267 2.325-.531 3.521-.806 2.99-.683 2.99-.683 5.959-2.298.508-1.525 1.016-3.049 1.539-4.619-1.284-.599-1.284-.599-2.593-1.209-32.88-17.245-53.227-49.408-65.154-83.475-.862-1.962-.862-1.962-1.724-3.964-5.066-14.006-.57-30.52 4.804-43.767 7.059-13.875 16.761-25.961 27.714-36.953 1.526-1.582 1.526-1.582 3.084-3.194 20.846-20.133 52.427-32.671 80.061-39.918 0-4.253-2.025-5.994-4.62-9.238Zm58.509 9.238c-.508 1.016-1.016 2.032-1.539 3.079-1.271-.254-2.541-.508-3.85-.77-6.025-.86-11.628-.874-17.706-.769v3.079c5.834 2.06 11.674 4.111 17.514 6.159 1.663.588 3.326 1.175 5.039 1.78 2.382.834 2.382.834 4.812 1.684 1.467.516 2.935 1.032 4.447 1.565 3.461 1.284 3.461 1.284 6.68 1.13v-4.619c4.065 1.016 8.13 2.032 12.318 3.079-1.524 1.207-3.049 2.414-4.619 3.657-1.524 1.333-3.049 2.668-4.619 4.042v3.079c-3.557-1.016-7.114-2.032-10.778-3.079-1.192 2.143-1.192 2.143-2.407 4.331-4.402 6.617-10.59 8.588-18.148 10.387-8.001 1.33-16.102 1.094-24.194 1.161-1.793.044-3.586.089-5.433.135-14.024.1-28.015-1.677-39.603-10.241-5.542-3.609-8.373-3.566-14.915-2.694-21.592 6.248-43.389 21.705-55.045 41.042-.636 1.192-1.27 2.382-1.924 3.609-.636 1.192-1.271 2.382-1.925 3.61-8.473 19.061-6.105 41.522 1.196 60.518 12.283 27.953 32.214 51.267 56.638 69.442 1.3.995 1.3.995 2.624 2.011 6.379 4.531 10.738 5.475 18.452 4.533 4.476-1.169 8.761-2.695 13.087-4.33 1.109-.402 2.219-.804 3.362-1.218 5.298-1.94 10.493-4.006 15.643-6.306 4.861-2.004 4.861-2.004 9.48-2.004.373 1.374.745 2.747 1.13 4.162.775 2.704.775 2.704 1.565 5.462.749 2.679.749 2.679 1.515 5.413 2.067 5.285 3.553 7.794 8.108 11.139 8.011 2.272 16.55 1.776 24.828 1.732 2.161-.011 2.161-.011 4.368-.023 27.279-.236 49.392-4.278 70.307-23.361 21.407-22.9 30.433-49.823 30.148-80.662-.028-3.15-.031-6.302-.031-9.454 1.033-20.791 1.033-20.791-6.444-39.124-1.091-3.573-2.126-7.166-3.079-10.778-3.646-3.644-14.172-2.171-19.388-2.336-12.288-.508-23.142-1.907-32.962-9.981-5.977-6.493-9.411-12.457-9.238-21.556 4.245-6.461 11.626-9.192 18.476-12.318-1.84-4.598-1.84-4.598-5.6-7.608-15.74-4.767-31.773-8.657-48.29-7.789Z"></path>
  <path fill="#0A0A09" d="M242.832 47.77c12.126 1.347 12.126 1.347 13.858 3.079 4.38.199 8.705.293 13.087.29 1.906.001 1.906.001 3.853.003 7.512-.067 14.222-.736 21.497-2.656 20.233-4.621 41.041 4.354 59.045 12.853 10.251 4.838 18.886 6.271 30.314 4.907v4.619c-2.033 1.016-4.065 2.033-6.159 3.08 1.975 5.524 4.272 9.617 7.986 14.147 19.461 24.516 28.007 45.904 27.827 77.133-.015 3.406 0 6.808.02 10.214.01 11.189-.423 21.616-3.499 32.46-1.525-.508-3.049-1.016-4.62-1.539.008-1.599.016-3.197.024-4.844.029-5.998.046-11.995.06-17.992.007-2.583.018-5.167.032-7.751 1.695-24.549 1.695-24.549-6.274-46.399-1.129-3.561-2.174-7.153-3.08-10.778-1.969-.075-3.938-.151-5.966-.228-2.632-.115-5.261-.232-7.891-.349-1.294-.048-2.585-.096-3.916-.145-13.604-.633-25.859-2.339-35.605-12.816-5.231-6.423-8.697-11.739-8.21-20.335 4.614-6.153 9.905-9.349 16.937-12.318h3.079c-11.517-13.625-37.096-13.72-53.89-15.397-.508 1.524-1.016 3.049-1.539 4.619-7.114-1.016-14.227-2.032-21.556-3.079v3.079c1.245.159 2.493.317 3.777.482 6.59 1.276 12.636 3.387 18.933 5.677 1.181.42 2.362.842 3.579 1.275 8.608 3.087 8.608 3.087 12.203 4.884v-4.619c8.527-.569 8.527-.569 12.126 2.309.571.762 1.142 1.524 1.732 2.31-1.494.953-2.986 1.906-4.524 2.887-4.759 2.743-4.759 2.743-6.254 6.351-7.314-1.347-7.314-1.347-10.778-3.079-.35 1.174-.699 2.349-1.059 3.561-3.312 6.779-8.892 8.591-15.65 11.157-9.388 3.071-18.629 2.953-28.425 2.893-1.766.03-3.53.061-5.35.092-13.85-.008-27.873-1.934-39.301-10.39-5.542-3.609-8.373-3.566-14.915-2.694-10.544 3.051-19.377 8.379-28.419 14.494-3.784 2.361-7.432 4.005-11.614 5.522 1.375-1.64 2.755-3.275 4.138-4.907.768-.912 1.536-1.823 2.328-2.761 18.886-21.182 49.637-32.97 76.679-40.063 0-4.253-2.025-5.994-4.62-9.238Z"></path>
  <path fill="#0A0A09" d="M259.581 116.39c1.557-.009 3.114-.017 4.718-.025 3.278-.011 6.555-.008 9.833.005 4.93.014 9.857-.031 14.785-.08 27.068-.094 53.49 1.823 75.263 19.725 5.721 7.029 10.65 14.533 15.109 22.421 2.322 3.591 4.844 5.408 8.276 7.891v3.08c-4.139.577-4.139.577-9.238 0-5.317-5.051-8.506-10.598-12.125-16.937-8.823-14.806-21.222-20.561-37.146-26.175-8.645-1.936-17.228-1.762-26.038-1.745-2.413-.001-2.413-.001-4.875-.004-3.392 0-6.784.003-10.176.009-5.187.008-10.373 0-15.558-.011-3.301.002-6.603.003-9.904.006-1.547-.003-3.096-.006-4.691-.009-1.449.005-2.898.009-4.391.015-1.268.002-2.536.002-3.842.004-3.742.106-3.742.106-7.622 1.02-5.078.969-9.473.067-14.524-.825v-3.079c10.902-3.871 20.612-5.323 32.146-5.286Z"></path>
  <path fill="#ECECEB" d="M228.975 80.104c6.056.144 12.11.307 18.166.489 3.07.088 6.143.16 9.215.233 1.929.06 3.86.118 5.849.18 1.781.048 3.563.097 5.4.146 4.482.491 4.482.491 9.101 3.571v6.158c-13.971 4.307-29.729 2.318-43.149-2.669-3.042-1.95-3.042-1.95-4.003-5.151-.191-.976-.382-1.952-.579-2.957Z"></path>
  <path fill="#F3F3F2" d="M253.033 65.861c1.238.009 2.477.019 3.754.028 22.858.38 22.858.38 32.237 8.056-18.506 1.327-36.881 1.723-55.43 1.539v-6.158c6.014-4.053 12.47-3.546 19.439-3.465Z"></path>
  <path fill="#181817" d="M320.78 135.245c1.654.38 1.654.38 3.341.77 7.157 1.752 13.633 4.148 20.332 7.217v4.619c-5.458-.699-10.319-1.883-15.446-3.802-8.147-2.761-16.142-3.538-24.683-4.185-1.48-.126-2.96-.252-4.484-.382-3.604-.305-7.21-.594-10.816-.87v-4.619c10.788-3.596 21.014-1.248 31.756 1.252Z"></path>
  <path fill="#F1F1F0" d="M366.009 81.643c5.873 3.34 9.993 5.81 12.318 12.318-9.225.998-18.015-2.002-26.175-6.159-.508-1.524-1.017-3.049-1.54-4.619 5.837-2.835 9.201-3.655 15.397-1.54Z"></path>
  <path fill="#EDEDEC" d="M349.072 93.961c6.987.822 11.422 3.383 16.937 7.698 2.887 4.235 2.887 4.235 4.619 7.699-8.43-1.745-14.832-3.521-21.556-9.238v-6.159Z"></path>
  <path fill="#090909" d="M213.578 121.676h6.159c4.736 8.339 4.736 8.339 4.137 12.895-.349.825-.699 1.652-1.058 2.502h-7.698c-2.476-4.949-1.629-9.91-1.54-15.397Z"></path>
  <path fill="#1B1B1A" d="M170.466 93.961c1.016.508 2.033 1.016 3.08 1.54-1.828 2.192-3.656 4.383-5.493 6.568-1.451 1.757-2.876 3.537-4.269 5.341-1.78 2.27-3.7 4.428-5.635 6.567h-4.62c2.365-5.668 5.822-9.22 10.201-13.472 1.258-1.231 2.516-2.461 3.812-3.73 1.448-1.393 1.448-1.393 2.924-2.814ZM407.581 204.82h1.54c-1.321 13.198-1.321 13.198-4.619 18.476-1.016-.508-2.033-1.016-3.08-1.539.435-2.248.887-4.493 1.348-6.737.249-1.25.498-2.5.757-3.789.975-3.332.975-3.332 4.054-6.411Z"></path>
</svg>