<svg xmlns="http://www.w3.org/2000/svg" viewBox="0 0 500 500">
  <path fill="#FDFDFD" d="M291.684 40.707v2.17c1.409-.087 1.409-.087 2.848-.181 3.323-.015 5.446.875 8.36 2.372 2.007.781 3.429.781 5.57.759 5.234.398 7.657 3.327 11.02 7.088 1.112 1.186 2.226 2.379 3.341 3.565.48.528.959 1.056 1.453 1.605 1.363 1.468 1.363 1.468 3.022 2.611.418.326.837.651 1.268.984v1.446c1.432.716 1.432.716 2.893 1.446v1.447c.582.246.582.246 1.175.499 3.634 2.01 6.103 4.585 8.656 7.8 1.167 1.268 2.415 2.187 3.819 3.184 2.696 1.931 4.687 4.108 6.805 6.644 1.184 1.337 2.394 2.441 3.772 3.571 2.377 1.955 4.336 4.133 6.311 6.489 1.309 1.534 1.309 1.534 2.969 3.113 2.289 2.336 4.29 4.825 6.315 7.393.369.47.745.941 1.129 1.426.723.914 1.446 1.831 2.169 2.749.882 1.105 1.794 2.185 2.712 3.26 1.172 1.604 1.172 1.604 1.172 3.774h1.446c9.257 11.407 17.357 30.777 17.357 45.561 1.374-.554 2.748-1.112 4.114-1.672.767-.311 1.526-.621 2.315-.941 2.242-.926 2.242-.926 4.071-2.187 3.276-1.797 6.856-1.531 10.472-.986 1.859 1.537 1.859 1.537 2.893 3.616.499.94.499.94.998 1.899.39.805.774 1.611 1.171 2.44.326.558.644 1.116.977 1.69 3.03 5.267 5.098 10.625 6.978 16.39.246.718.492 1.436.745 2.175 10.682 32.737 11.101 67.893 11.55 101.964.007.518.014 1.036.021 1.57.109 8.028.051 16.035-.282 24.058-.535 13.243-.542 26.473-.506 39.725.007 3.002.007 6.005.014 9.007.008 5.829.015 11.657.029 17.485 2.076 1.038 4.152.998 6.444 1.173 1.512.274 1.512.274 2.958 1.72.159 2.684-.174 5.37-.405 8.045-.065.808-.138 1.615-.203 2.447-1.468 15.553-5.38 30.399-11.578 44.719-.788 1.831-1.511 3.676-2.227 5.537-1.345 3.383-2.951 6.599-4.6 9.842-2.191 4.367-4.238 8.8-6.306 13.226-.665 1.415-1.331 2.826-2.003 4.235-4.571 9.632-9.062 19.345-11.947 29.631-.506 1.644-.506 1.644-1.23 2.367-1.779.072-3.543.096-5.322.089-.854.002-.854.002-1.722.003-1.93.002-3.854-.001-5.778-.005-1.381.001-2.77.002-4.158.002-3.819.002-7.644-.001-11.47-.005-4.115-.003-8.23-.002-12.352-.001-7.136 0-14.276-.002-21.414-.006-10.322-.006-20.644-.008-30.967-.009-16.744-.001-33.489-.006-50.234-.013-16.271-.007-32.541-.012-48.811-.015h-1.52c-5.033-.001-10.066-.002-15.101-.003-42.235-.008-84.471-.02-126.707-.037l-1.731-4.137c-.321-.768-.643-1.536-.973-2.327-1.32-3.208-2.513-6.454-3.694-9.714-1.071-2.912-2.33-5.642-3.726-8.41-1.562-4.271-2.585-8.749-3.707-13.153-.123-.481-.246-.962-.373-1.457-1.086-4.349-1.746-8.47-1.706-12.95.239-9.1.239-9.1-3.841-16.871-.846-.804-.846-.804-1.709-1.624-2.025-2.018-3.257-4.235-4.574-6.738-.418-.763-.418-.763-.845-1.541-3.853-7.032-7.45-13.983-10.003-21.601-.24-.703-.481-1.406-.729-2.13-9.196-28.311-11.937-59.35-12.289-88.992-.007-.51-.013-1.019-.021-1.544-.369-26.565.423-53.132 2.598-79.613.409-5.095.618-10.196.793-15.302.022-.611.045-1.223.068-1.852.018-.535.035-1.069.053-1.62.125-1.315.125-1.315.849-2.761 1.355.226 1.355.226 2.892.723 1.507 2.259 1.619 2.559 1.43 5.071-.038.547-.074 1.095-.113 1.659-.047.569-.093 1.137-.142 1.722-.04.577-.081 1.153-.124 1.748-.102 1.421-.214 2.842-.328 4.263.716-.238 1.432-.477 2.17-.723.807-1.576.807-1.576 1.402-3.525.245-.727.49-1.455.742-2.204.248-.734.494-1.469.749-2.226.481-1.236.963-2.471 1.446-3.706 1.946-5.392 3.142-10.948 4.339-16.543.147-.681.294-1.363.445-2.065 2.149-10.095 3.892-20.174 5.117-30.423.224-1.498.555-2.932.947-4.395h3.616c1.318 2.636.746 5.934.695 8.849-.107 2.9-.107 2.9.751 5.615 1.698.284 1.698.284 3.616 0 1.468-1.45 1.468-1.45 2.622-3.39.412-.629.824-1.259 1.249-1.907.8-1.299 1.58-2.612 2.339-3.937 1.022-1.614 1.022-1.614 2.469-2.337.74-1.195 1.46-2.402 2.169-3.616 3.597-5.096 7.482-9.92 11.544-14.647 2.628-3.062 5.128-6.207 7.579-9.413.371-.413.743-.826 1.126-1.251h1.447c.164-.388.328-.776.497-1.176 1.279-2.313 2.784-4.097 4.565-6.056h1.446c.18-.403.358-.806.543-1.22 2.238-4.141 5.7-7.24 9.04-10.487 1.758-1.798 3.434-3.637 5.108-5.514 2.066-2.313 4.163-4.56 6.372-6.735 3.428-3.38 6.599-6.944 9.538-10.757.403-.478.805-.955 1.22-1.447h1.446c.179-.403.358-.805.543-1.22 1.89-3.497 4.626-6.117 7.412-8.904.297-.45.593-.899.898-1.362 4.101-5.829 10.652-6.957 17.182-8.765.576-.159 1.151-.318 1.744-.485 2.244-.629 4.489-1.251 6.738-1.858 3.605-.984 7.092-2.141 10.586-3.464 5.742-2.112 11.63-3.71 17.569-5.157 4.466-1.121 8.893-2.386 13.327-3.63 1.664-.47 3.328-.933 4.993-1.396.528-.145 1.056-.289 1.6-.441 1.125-.311 2.251-.622 3.378-.933 2.741-.759 5.477-1.526 8.203-2.336 21.579-6.378 42.566-6.35 64.929-5.612Z"></path>
  <path fill="#040404" d="M291.684 40.707v2.17c1.409-.087 1.409-.087 2.848-.181 3.323-.015 5.446.875 8.36 2.372 2.007.781 3.429.781 5.57.759 5.234.398 7.657 3.327 11.02 7.088 1.112 1.186 2.226 2.379 3.341 3.565.48.528.959 1.056 1.453 1.605 1.363 1.468 1.363 1.468 3.022 2.611.418.326.837.651 1.268.984v1.446c1.432.716 1.432.716 2.893 1.446v1.447c.582.246.582.246 1.175.499 3.634 2.01 6.103 4.585 8.656 7.8 1.167 1.268 2.415 2.187 3.819 3.184 2.696 1.931 4.687 4.108 6.805 6.644 1.184 1.337 2.394 2.441 3.772 3.571 2.377 1.955 4.336 4.133 6.311 6.489 1.309 1.534 1.309 1.534 2.969 3.113 2.289 2.336 4.29 4.825 6.315 7.393.369.47.745.941 1.129 1.426.723.914 1.446 1.831 2.169 2.749.882 1.105 1.794 2.185 2.712 3.26 1.172 1.604 1.172 1.604 1.172 3.774h1.446c9.257 11.407 17.357 30.777 17.357 45.561 1.374-.554 2.748-1.112 4.114-1.672.767-.311 1.526-.621 2.315-.941 2.242-.926 2.242-.926 4.071-2.187 3.276-1.797 6.856-1.531 10.472-.986 1.859 1.537 1.859 1.537 2.893 3.616.499.94.499.94.998 1.899.39.805.774 1.611 1.171 2.44.326.558.644 1.116.977 1.69 3.03 5.267 5.098 10.625 6.978 16.39.246.718.492 1.436.745 2.175 10.682 32.737 11.101 67.893 11.55 101.964.007.518.014 1.036.021 1.57.109 8.028.051 16.035-.282 24.058-.535 13.243-.542 26.473-.506 39.725.007 3.002.007 6.005.014 9.007.008 5.829.015 11.657.029 17.485 2.076 1.038 4.152.998 6.444 1.173 1.512.274 1.512.274 2.958 1.72.159 2.684-.174 5.37-.405 8.045-.065.808-.138 1.615-.203 2.447-1.468 15.553-5.38 30.399-11.578 44.719-.788 1.831-1.511 3.676-2.227 5.537-1.345 3.383-2.951 6.599-4.6 9.842-2.191 4.367-4.238 8.8-6.306 13.226-.665 1.415-1.331 2.826-2.003 4.235-4.571 9.632-9.062 19.345-11.947 29.631-.506 1.644-.506 1.644-1.23 2.367-1.453.053-2.921.061-4.382.046-.796-.007-1.598-.013-2.423-.02-.926-.013-.926-.013-1.873-.026.485-2.481 1.49-4.354 2.712-6.553 3.826-7.586 5.308-15.91 7.217-24.137.109-.472.217-.943.333-1.429.542-2.346 1.085-4.694 1.613-7.044 1.793-7.877 3.652-15.75 7.427-22.941.246-.477.492-.954.745-1.446 3.283-6.318 6.986-12.416 10.92-18.351 4.267-6.94 5.019-14.137 5.373-22.102l.174-2.979c.528-9.75.419-19.455 0-29.209-.029-.71-.029-.71-.058-1.434-.152-3.573-.311-7.146-.477-10.719-.022-.523-.044-1.048-.065-1.587-.796-31.947-.796-31.947-8.433-62.686-9.358-25.391-9.358-25.391-5.424-36.114.543-1.096.543-1.096 1.085-2.215 1.208-.031 2.416-.029 3.616 0 .239.238.485.477.723.723-.101-1.115-.202-2.23-.311-3.345-.058-.62-.115-1.241-.181-1.881-.151-1.351-.347-2.699-.585-4.038-.347-2.18-.543-4.303-.673-6.505-.058-.813-.108-1.626-.159-2.463-.058-.875-.108-1.749-.166-2.65-.261-3.888-.535-7.774-.818-11.661-.028-.487-.065-.975-.101-1.476-1.33-18.678-3.587-36.587-12.193-53.487-1.106-.079-2.227-.134-3.341-.181-.622-.033-1.244-.067-1.88-.101-2.813.396-4.18 1.331-6.35 3.175-1.273 1.912-2.227 3.935-3.203 6.012-2.264 4.541-4.289 8.168-8.368 11.344h-2.169c-.167-.681-.333-1.364-.499-2.067-3.132-12.475-8.736-23.011-15.52-33.856-6.556-10.522-13.097-21.921-13.9-34.587-.932-5.224-5.42-8.274-9.392-11.444-1.356-1.389-1.68-2.194-1.907-4.105.134-.701.269-1.402.407-2.124.359-2.517-.112-3.555-1.131-5.831V86.27c-.637-.185-1.275-.371-1.932-.562-8.364-3.073-15.277-10.804-21.435-17.035-14.411-14.247-29.851-22.368-50.339-22.361-15.396.159-29.956 3.811-44.618 8.223-4.524 1.359-9.082 2.567-13.653 3.746-3.271.846-6.523 1.735-9.768 2.675.44.058.88.109 1.332.167 14.851 1.851 14.851 1.851 22.218 3.138.484.08.969.167 1.468.246 2.854.514 5.51 1.295 8.249 2.235 1.065.239 2.136.448 3.21.636 5.027.955 9.939 2.351 14.87 3.705.192-.654.384-1.309.582-1.983.822-2.242 1.576-3.559 3.124-5.338.585-.701.585-.701 1.181-1.41 5.423-4.664 10.688-4.744 17.668-4.65.477.007.955.007 1.447.015 7.539.05 14.666.867 22.003 2.589 2.756.629 5.264.694 8.099.607 2.764.166 3.49.477 5.378 2.567 1.302 2.061 2.439 4.094 3.504 6.279 1.038 2.099 2.219 4.119 3.366 6.161 2.038 3.852 3.741 7.71 5.243 11.797.508 1.358 1.016 2.717 1.524 4.075.373.995.744 1.989 1.115 2.984 1.929 5.155 3.959 10.264 6.04 15.359.499 1.249.499 1.249 1.009 2.523 5.252 12.776 11.629 22.764 22.201 31.733 4.481 3.838 8.671 7.832 10.776 13.475.094 2.003.094 2.003 0 3.616-9.456 1.082-18.386-2.792-25.709-8.597-10.555-9.122-17.015-20.502-23.814-32.501-.431-.748-.862-1.496-1.307-2.267-.81-1.44-1.587-2.898-2.325-4.376-.971-1.86-1.864-3.478-3.25-5.052-2.398-.459-3.493-.494-5.786-.135-8.815.698-14.8-3.375-21.862-8.425-2.859-1.881-5.928-1.977-9.235-1.565-3.316.996-5.317 2.251-7.367 5.063-1.519 3.097-2.739 6.344-4.04 9.537-1.045 2.398-2.187 4.303-3.78 6.373-.327.432-.656.865-.994 1.311-1.703 1.245-3.456 1.279-5.514 1.582.004-.541.008-1.081.011-1.637.015-2.438.025-4.875.034-7.313.006-.85.012-1.7.018-2.576.002-.811.005-1.622.007-2.458.006-1.124.006-1.124.012-2.272.042-1.821.042-1.821-.806-3.27-1.416.088-1.416.088-2.892.723-.89 1.563-.89 1.563-1.447 3.525-.237.715-.475 1.429-.72 2.164-.239.748-.479 1.496-.726 2.266-.488 1.449-.985 2.895-1.491 4.339-.218.641-.435 1.283-.658 1.944-.775 1.743-1.374 2.718-2.913 3.841-4.661-.321-4.661-.321-5.786-1.446-.468-12.983 5.248-26.31 11.325-37.498.454-.836.907-1.672 1.374-2.533.344-.632.687-1.263 1.042-1.914-.608-.076-1.216-.152-1.842-.231-2.304-.291-4.608-.587-6.911-.885-.988-.128-1.976-.253-2.964-.377-5.802-.728-11.458-1.682-17.147-3.064-3.608-.815-7.242-1.287-10.912-1.725-.755-.092-1.509-.184-2.287-.278-5.308-.614-10.447-.976-15.792-.672-1.119.047-1.119.047-2.26.094-4.614.271-8.636 1.076-12.927 2.799.909.149 1.82.299 2.757.452 10.282 2.362 18.783 10.117 24.402 18.803.517.85.517.85 1.045 1.717.315.493.631.985.955 1.492 7.012 11.642 10.49 26.674 7.294 40.085-.964 2.734-2.281 5.207-3.91 7.6-4.336-2.168-6.986-13.925-8.529-18.297-.784-2.405-1.481-4.812-2.153-7.249-3.319-11.95-8.463-23.086-19.635-29.489-3.538-1.675-6.497-1.878-10.182-.65v1.446c-.506.463-1.013.925-1.536 1.402-4.136 4.054-6.249 9.168-7.531 14.716-1.864 7.873-5.44 11.119-11.905 15.702-3.497 2.855-6.599 5.853-9.523 9.292-2.544 2.989-5.2 5.878-7.834 8.788-.642.72-1.286 1.441-1.929 2.161-16.041 17.881-16.041 17.881-25.552 19.535-.327-.611-.656-1.223-.994-1.853-1.888-2.884-4.576-4.478-7.438-6.311-1.726-1.262-2.786-2.288-3.862-4.13v-2.893c.639-.071 1.277-.142 1.935-.215 11.986-1.493 21.245-5.61 29.162-14.972 9.472-12.796 16.536-29.814 18.803-45.561-5.882 6.645-11.646 13.373-17.085 20.385-2.766 3.567-5.663 6.939-8.723 10.26-1.982 2.25-3.817 4.59-5.651 6.961-2.832 3.66-5.782 7.138-8.915 10.548-2.211 2.458-4.277 5.024-6.359 7.591-1.864 2.287-3.752 4.554-5.652 6.811-.33.395-.659.79-.998 1.197-1.652 1.962-3.333 3.842-5.164 5.639-3.45 3.245-3.45 3.245-5.509 7.379.119 1.811.541 3.232 1.139 4.949.282.88.565 1.758.856 2.665.612 1.885 1.256 3.747 1.924 5.615 2.045 6.281 3.185 14.479.112 20.557-.477.746-.954 1.492-1.446 2.26-2.169-.723-2.169-.723-3.616-2.892-.219-1.872-.219-1.872-.274-4.091-.025-.799-.049-1.598-.074-2.421-.029-1.251-.029-1.251-.058-2.528-.044-1.65-.09-3.299-.139-4.95-.017-.732-.034-1.464-.052-2.218-.052-1.956-.052-1.956-.849-4.042-5.449.126-9.241 1.265-13.741 4.34-.438.288-.876.576-1.328.872-11.434 8.564-14.574 25.756-16.752 38.903-.122.719-.245 1.438-.372 2.179-3.166 19.151-2.956 38.346-2.969 57.707-.007 6.952-.033 13.905-.068 20.858-.008 2.394-.008 4.788-.006 7.182-.016 7.121-.114 14.09-1.305 21.129-.34 2.199-.447 3.525.471 5.584 1.075 1.34 2.123 2.257 3.526 3.241 3.616 2.892 3.616 2.892 4.339 5.062.068 1.336.133 2.673.173 4.01.404 12.445 2.877 24.269 7.074 35.959 6.096 16.986 11.791 33.556 10.833 51.876.519.181 1.037.362 1.571.548 9.943 4.367 15.966 14.26 20.315 23.729 2.502 5.375 5.448 7.315 10.613 9.758 1.017.489 2.033.98 3.048 1.472.48.232.96.465 1.454.704 1.703.861 3.318 1.847 4.944 2.841 1.171.502 2.342 1.002 3.518 1.495 9.788 4.277 21.482 9.77 26.856 19.478-3.967.167-7.307-.367-11.119-1.447-.563-.159-1.126-.318-1.707-.482-9.587-2.851-18.131-7.414-26.226-13.258-.65-.452-1.3-.904-1.969-1.37-11.867-8.384-21.783-18.183-30.575-29.727 2.338 12.791 5.529 25.726 10.848 37.605.462 1.042.462 1.042.932 2.105 1.385 3.088 2.815 6.138 4.357 9.15 1.22 2.486 1.22 2.486 1.22 3.932h-9.402c-2.275-5.354-4.42-10.723-6.404-16.192-1.068-2.908-2.327-5.633-3.72-8.396-1.562-4.271-2.585-8.749-3.707-13.153-.123-.481-.246-.962-.373-1.457-1.086-4.349-1.746-8.47-1.706-12.95.239-9.1.239-9.1-3.841-16.871-.846-.804-.846-.804-1.709-1.624-2.025-2.018-3.257-4.235-4.574-6.738-.418-.763-.418-.763-.845-1.541-3.853-7.032-7.45-13.983-10.003-21.601-.24-.703-.481-1.406-.729-2.13-9.196-28.311-11.937-59.35-12.289-88.992-.007-.51-.013-1.019-.021-1.544-.369-26.565.423-53.132 2.598-79.613.409-5.095.618-10.196.793-15.302.022-.611.045-1.223.068-1.852.018-.535.035-1.069.053-1.62.125-1.315.125-1.315.849-2.761 1.355.226 1.355.226 2.892.723 1.507 2.259 1.619 2.559 1.43 5.071-.038.547-.074 1.095-.113 1.659-.047.569-.093 1.137-.142 1.722-.04.577-.081 1.153-.124 1.748-.102 1.421-.214 2.842-.328 4.263.716-.238 1.432-.477 2.17-.723.807-1.576.807-1.576 1.402-3.525.245-.727.49-1.455.742-2.204.248-.734.494-1.469.749-2.226.481-1.236.963-2.471 1.446-3.706 1.946-5.392 3.142-10.948 4.339-16.543.147-.681.294-1.363.445-2.065 2.149-10.095 3.892-20.174 5.117-30.423.224-1.498.555-2.932.947-4.395h3.616c1.318 2.636.746 5.934.695 8.849-.107 2.9-.107 2.9.751 5.615 1.698.284 1.698.284 3.616 0 1.468-1.45 1.468-1.45 2.622-3.39.412-.629.824-1.259 1.249-1.907.8-1.299 1.58-2.612 2.339-3.937 1.022-1.614 1.022-1.614 2.469-2.337.74-1.195 1.46-2.402 2.169-3.616 3.597-5.096 7.482-9.92 11.544-14.647 2.628-3.062 5.128-6.207 7.579-9.413.371-.413.743-.826 1.126-1.251h1.447c.164-.388.328-.776.497-1.176 1.279-2.313 2.784-4.097 4.565-6.056h1.446c.18-.403.358-.806.543-1.22 2.238-4.141 5.7-7.24 9.04-10.487 1.758-1.798 3.434-3.637 5.108-5.514 2.066-2.313 4.163-4.56 6.372-6.735 3.428-3.38 6.599-6.944 9.538-10.757.403-.478.805-.955 1.22-1.447h1.446c.179-.403.358-.805.543-1.22 1.89-3.497 4.626-6.117 7.412-8.904.297-.45.593-.899.898-1.362 4.101-5.829 10.652-6.957 17.182-8.765.576-.159 1.151-.318 1.744-.485 2.244-.629 4.489-1.251 6.738-1.858 3.605-.984 7.092-2.141 10.586-3.464 5.742-2.112 11.63-3.71 17.569-5.157 4.466-1.121 8.893-2.386 13.327-3.63 1.664-.47 3.328-.933 4.993-1.396.528-.145 1.056-.289 1.6-.441 1.125-.311 2.251-.622 3.378-.933 2.741-.759 5.477-1.526 8.203-2.336 21.579-6.378 42.566-6.35 64.929-5.612Z"></path>
  <path fill="#080808" d="M408.837 171.606h1.446c8.577 10.862 11.998 29.958 10.631 43.41-.796 6.219-2.3 11.847-4.39 17.745-.564 1.628-1.128 3.256-1.692 4.885-.268.792-.543 1.586-.825 2.403-2.668 7.492-2.668 7.492-4.129 15.267-.803 3.892-3.753 5.587-6.784 7.882-7.427 5.712-12.93 12.975-18.455 20.448-1.801 2.438-3.631 4.861-5.453 7.287 1.33 2.968 2.994 4.209 5.655 6.102 7.782 5.559 7.782 5.559 8.599 9.166.029.764.05 1.528.079 2.314.037.773.066 1.546.102 2.342.014.584.021 1.169.029 1.771-.991-.662-1.989-1.325-2.98-1.989-.6-.397-1.2-.794-1.822-1.203-1.266-.85-2.488-1.754-3.696-2.684-8.114-4.684-17.91-5.769-27-3.618-2.422.682-4.794 1.426-7.167 2.262-.716.239-1.432.478-2.169.724 1.907 7.27 6.069 12.449 11.074 17.944 2.939 3.257 4.919 5.896 5.016 10.396-.18 2.757-.18 2.757-.904 4.926-4.143-.597-6.212-4.131-8.678-7.232-.854-1.243-1.698-2.493-2.531-3.751-3.016-4.399-6.327-7.464-11.571-8.814-.835-.149-1.671-.298-2.531-.452-.172.503-.343 1.007-.519 1.526-5.011 11.303-15.704 19.437-26.962 23.786-3.08.981-6.213 1.645-9.402 2.169.112.548.222 1.095.337 1.658.413 2.093.767 4.192 1.11 6.297-6.712-.668-12.07-8.272-16.118-13.198-2.425-3.008-4.808-6.047-7.16-9.113-1.779-2.109-2.944-2.942-5.709-3.243-9.626-.101-18.015 1.776-25.976 7.474-.687.49-.687.49-1.39.989-7.501 5.875-11.302 14.66-12.731 23.893-.173 1.836-.3 3.65-.342 5.492-2.333-.375-3.439-.574-5.288-2.124-1.732-3.143-1.466-5.934-1.221-9.447-7.9 2.283-14.286 6.201-18.585 13.382-7.37 14.144-7.887 30.24-7.992 45.875-.021 1.561-.042 3.123-.065 4.685-.053 3.757-.089 7.513-.116 11.27-3.376-1.592-5.112-3.251-6.45-6.848-1.694-5.919-1.851-11.628-1.505-17.74.031-.549.061-1.097.093-1.662.924-14.549 4.116-27.817 11.537-40.444.775-1.259.775-1.259.664-2.732-4.87-2.165-9.42-3.264-14.661-1.669-4.234 1.88-6.101 4.585-7.939 8.81-.178.507-.358 1.015-.542 1.537-3.053-2.316-3.65-4.943-4.548-8.503-.417-1.746-.417-1.746-1.961-3.068-2.341-.787-2.341-.787-5.062 0-9.375 8.908-12.756 23.295-15.187 35.436-2.777-1.291-3.871-2.144-5.062-5.062-1.868-10.632 5.217-21.153 10.847-29.651.541-.649 1.082-1.299 1.639-1.968 1.483-1.621 1.483-1.621 1.345-4.043-1.207-3.955-3.635-6.624-6.244-9.766-2.345-2.996-2.926-4.873-2.525-8.811-11.79 4.214-19.585 12.279-27.306 21.871-4.848 5.963-10.081 11.635-16.085 16.458h-1.447c1.208-3.295 2.821-6.297 4.52-9.356.402-.749.402-.749.811-1.513 1.917-3.451 3.996-6.038 6.963-8.657h1.447c-1.652-1.904-3.592-3.091-5.741-4.381-5.539-3.341-9.386-6.385-11.887-12.524-1.379-7.999-1.379-7.999.271-11.3-10.607-1.973-18.312-.412-27.383 5.158-2.9 1.75-5.519 2.721-8.776 3.521-.255-7.545-.255-7.545 2.415-10.458 3.354-3.109 7.19-5.018 11.325-6.899-.859-3.225-1.52-4.721-4.339-6.509-1.566-.649-1.566-.649-3.237-1.11-.604-.182-1.208-.364-1.831-.552-.624-.182-1.249-.365-1.892-.552-1.246-.366-2.491-.736-3.735-1.11-.55-.161-1.099-.321-1.665-.487-1.38-.528-1.38-.528-2.827-1.974.185-2.766 1.703-3.934 3.616-5.786v-1.446c-.986-.915-.986-.915-2.26-1.853-7.273-6.161-10.973-16.327-12.113-25.673-.057-1.19-.083-2.38-.09-3.571-.019-.903-.037-1.804-.057-2.734-.047-3.189-.003-6.372.057-9.56.012-.92.024-1.84.036-2.788.241-6.867 1.252-13.538 2.404-20.309.151-.891.303-1.783.459-2.702.676-3.81 1.388-7.474 2.646-11.137 1.595-5.004 1.034-10.134.815-15.315-.019-.773-.038-1.547-.058-2.344-.029-.697-.058-1.393-.087-2.11.384-2.452 1.239-3.277 3.186-4.766 2.35-.181 2.35-.181 4.339 0 2.272 12.188-.136 21.327-5.641 32.23-3.133 6.81-3.423 13.262-3.399 20.653.002.491.002.982.004 1.488.132 19.867 5.444 36.428 19.297 50.943 10.601 10.238 23.599 16.116 37.47 20.521.864.274 1.728.55 2.618.833 10.273 3.09 20.596 4.539 31.248 5.495 1.192.137 2.378.329 3.557.548 2.322.351 4.494.447 6.841.449.875.003 1.75.005 2.652.007.94-.001 1.879-.003 2.848-.004.993 0 1.987.001 2.981.002 2.085.001 4.172-.001 6.258-.004 2.624-.004 5.248-.002 7.872.002 21.374.2 21.374.2 42.603-1.884 3.141-.459 6.28-.738 9.441-1.015 14.422-1.308 28.768-3.339 43.075-5.559 1.388-.215 1.388-.215 2.804-.433 8.361-1.322 16.718-2.754 24.852-5.13 1.595-.431 3.21-.786 4.828-1.116 4.814-1.056 9.453-2.684 14.117-4.259.481-.163.963-.325 1.459-.493 3.27-1.103 6.533-2.223 9.795-3.35.667-.228 1.333-.457 2.021-.692 26.741-9.306 51.947-27.392 64.595-53.239 7.305-15.581 9.481-30.442 9.59-47.496.007-.544.014-1.089.022-1.65.05-7.158-.572-13.872-1.996-20.889-.391-2.155-.564-4.031-.47-6.208Z"></path>
  <path fill="#070707" d="M342.222 159.513c14.531 12.441 22.755 31.184 26.12 49.699.136.597.272 1.194.413 1.808.371 2.152.379 4.191.357 6.374-.007.772-.015 1.545-.022 2.341-.014.877-.014.877-.029 1.771-.742-.581-1.487-1.163-2.256-1.762-2.791-2.091-5.663-4.027-8.588-5.921-.617-.404-.617-.404-1.246-.815-12.271-7.872-26.445-11.073-40.699-13.197-.783-.127-1.566-.253-2.373-.383-2.895-.366-5.748-.482-8.661-.512-.562-.008-1.124-.015-1.703-.022-11.96-.119-23.371-.07-34.993 3.086-1.086.266-2.171.53-3.258.794-6.409 1.643-11.999 4.109-17.732 7.399-2.152 1.209-2.152 1.209-4.322 1.932.4-3.651 1.221-6.689 2.622-10.079.193-.467.385-.934.584-1.415.612-1.475 1.234-2.945 1.856-4.416.193-.464.385-.928.583-1.406 3.414-8.233 7.427-16.095 11.712-23.906.34-.623.68-1.247 1.031-1.89 1.03-1.878 2.076-3.746 3.127-5.613.315-.571.63-1.143.954-1.733 5.492-9.59 16.472-13.035 26.623-15.951 18.656-3.993 35.363 2.333 49.9 13.817Zm-187.221-5.986c.519.037 1.038.074 1.572.111 9.376.753 9.376.753 12.892 4.228 1.15 1.57 2.195 3.096 3.209 4.746.422.676.422.676.853 1.366.824 1.332 1.636 2.672 2.446 4.013.407.66.813 1.32 1.232 2 3.097 5.312 4.992 10.95 6.933 16.755.744 2.163 1.589 4.286 2.412 6.421 2.536 7.049 4.61 15.039 4.61 22.554-2.085-.465-3.927-1.122-5.87-2.008-.837-.379-.837-.379-1.692-.765-.577-.263-1.154-.526-1.749-.797-11.404-5.2-22.067-6.765-34.532-6.78-1.394-.006-1.394-.006-2.816-.012-12.319.089-23.161 2.165-34.338 7.469-.472.206-.945.41-1.432.622-6.31 2.871-11.368 7.451-15.723 12.78-.305.35-.61.701-.924 1.062h-.724c-.303-7.442-.18-13.832 2.173-20.958.597-1.81.994-3.477 1.308-5.348 3.308-15.372 14.345-30.327 27.21-39.044.611-.39 1.223-.781 1.853-1.183.761-.508.761-.508 1.537-1.026 9.222-5.676 18.977-6.966 29.56-6.206Z"></path>
  <path fill="#FAFAFA" d="M307.955 152.713c.996.01.996.01 2.012.02 1.619.017 3.239.041 4.859.071-.478.716-.955 1.431-1.447 2.169-.343 3.712.041 5.657 2.17 8.678 1.802 1.68 3.682 3.227 5.585 4.789 1.856 1.939 2.437 3.482 3.093 6.059 3.481-.626 5.072-1.183 7.187-4.068.29-.456.58-.913.879-1.384 1.797-1.421 3.435-1.566 5.691-1.456 2.167.606 3.064 2.077 4.144 3.964.268.524.536 1.048.812 1.588.295.54.59 1.079.893 1.635.974 1.82 1.899 3.657 2.813 5.507.339.685.678 1.369 1.027 2.074 1.033 2.117 2.044 4.244 3.041 6.378.317.674.634 1.348.96 2.041 1.513 3.359 2.641 5.987 2.204 9.756-2.346-.302-4.258-.984-6.373-1.989-16.917-7.728-34.661-8.409-52.929-8.136-.791.008-.791.008-1.598.016-9.346.139-18.431 2.164-27.561 4.003-1.938.32-1.938.32-4.83.32-.763-9.577 2.802-17.019 8.754-24.274 3.269-3.775 6.625-6.94 10.772-9.715.67-.478 1.34-.955 2.031-1.447 2.387-1.496 4.62-2.426 7.28-3.344 1.25-.439 1.25-.439 2.525-.887 5.585-1.766 10.167-2.478 16.006-2.368Z"></path>
  <path fill="#F9F9F9" d="M150.391 162.251c4.006 3.268 4.936 7.445 6.056 12.248 1.716 2.574 2.124 2.493 5.018 3.074 5.641 1.423 10.984 4.182 14.554 8.904 2.164 3.839 3.058 6.748 2.847 11.164-3.564-.387-6.778-1.183-10.184-2.302-5.769-1.615-11.263-2.299-17.251-2.263-1.083.006-1.083.006-2.187.013-13.363.215-28.371 2.558-39.171 11.107-1.439 1.136-2.724 2.086-4.375 2.889-1.715.885-1.964 1.861-2.767 3.574l-2.169 1.446c-.313-4.814.626-8.142 2.577-12.52.264-.605.527-1.21.799-1.834 2.088-4.678 4.406-9.008 7.472-13.127.776-1.053.776-1.053 1.568-2.127 7.149-9.132 24.403-25.432 37.213-20.246Z"></path>
  <path fill="#070707" d="M251.185 231.631c1.937.929 3.693 1.96 5.47 3.164 18.924 11.755 48.509 10.568 69.326 5.839 2.538-.62 5.051-1.287 7.563-2.008 2.123-.458 3.157-.535 5.147.237l-1.446 1.446c-.465 1.497-.465 1.497-.724 2.893 2.338-.67 4.673-1.351 7.007-2.033.989-.284.989-.284 1.998-.573 3.331-.981 6.149-1.98 9.075-3.903h1.446v-1.446h1.447c-.175 3.585-1.261 5.559-3.636 8.108-9.497 8.614-22.508 11.658-34.693 14.311-.817.18-1.635.36-2.477.545-11.91 2.21-26.76 2.267-38.022-2.715v-5.785c-6.107-1.943-6.107-1.943-12.288-3.627-.714-.179-.714-.179-1.442-.362-1.349-.335-2.701-.659-4.053-.983-4.11-1.356-7.476-3.563-9.698-7.322-.23-1.996-.137-3.765 0-5.786Z"></path>
  <path fill="#060606" d="M180.677 227.766c1.805.249 1.805.249 3.975 1.696.639 2.233.491 4.253 0 6.508-6.058 10.564-21.258 16.097-32.323 19.45-1.037.273-2.074.538-3.114.8-.721.188-1.442.376-2.184.57-6.231 1.499-12.095 1.939-18.463 1.882-1.552-.012-3.102 0-4.654.014-11.521.018-20.965-2.83-29.463-10.845-5.983-6.354-5.983-6.354-5.983-10.424.388.123.776.246 1.175.373 8.881 2.746 17.797 4.983 27.029 6.135.451.063.901.126 1.365.191 12.567 1.614 26.101 1.523 38.41-1.637.78-.193 1.56-.386 2.362-.584 7.611-2.196 14.243-6.356 18.902-12.817 1.155-1.063 1.155-1.063 2.966-1.312Z"></path>
  <path fill="#FCFCFC" d="M202.022 333.514c.641.001 1.281.003 1.942.005h2.193c.787.004 1.575.007 2.385.012 1.203.001 1.203.001 2.429.002 2.572.004 5.144.013 7.716.023 1.739.003 3.477.006 5.216.009 4.273.008 8.546.021 12.818.036-2.669 7.062-8.419 12.072-15.187 15.187-7.125 2.959-14.089 3.433-21.695 3.616-.021-2.999-.034-5.996-.045-8.995-.007-.856-.012-1.712-.019-2.594-.002-.814-.004-1.628-.006-2.465-.005-.754-.008-1.508-.012-2.284.114-2.424.114-2.424 2.265-2.552Z"></path>
  <path fill="#F5F5F5" d="M330.013 316.244c-3.91 8.63-8.776 15.824-17.812 19.597-4.952 1.55-10.313 2.281-15.455 1.376-1.762-1.944-1.762-1.944-2.893-4.339-1.731-1.727-3.59-3.242-5.785-4.34 1.101-3.303 3.589-4.318 6.551-5.813 5.537-2.446 11.379-3.365 17.314-4.311.929-.15.929-.15 1.877-.303 1.95-.312 3.901-.616 5.852-.917.614-.096 1.228-.19 1.862-.289 2.854-.425 5.594-.784 8.489-.661Z"></path>
  <path fill="#F8F8F8" d="M171.002 333.465c.737.007.737.007 1.49.014 6.231.091 12.449.479 18.668.845v15.187c-5.93 2.224-11.654 3.844-17.805 1.424-5.163-3.222-8.995-8.15-12.569-12.995.706-1.925 1.149-2.737 2.992-3.704 2.505-.768 4.602-.8 7.224-.771Z"></path>
  <path fill="#0B0B0B" d="M316.272 209.212c.474.175.947.35 1.436.53 6.643 2.481 12.855 5.319 17.367 11.041.91 2.371.91 2.371 1.446 4.339-2.29-.277-3.707-.779-5.695-1.994-9.835-5.736-22.751-9.085-34.08-9.577-.715-.036-1.429-.073-2.165-.11-5.063-.256-10.125-.457-15.192-.613 1.723-2.348 2.936-3.97 5.741-4.881.469-.161.938-.321 1.421-.486 9.684-2.669 20.428-1.818 29.721 1.751Z"></path>
  <path fill="#EFEFEF" d="M34.228 343.725c4.201 1.644 5.479 5.489 7.232 9.402 2.251 5.844 3.7 11.804 4.898 17.941 1.047 5.347 2.221 10.665 3.405 15.982.378 1.702.752 3.404 1.127 5.107 1.292 5.836 2.649 11.634 4.311 17.379-12.994-11.848-15.52-32.584-18.021-49.172-.841-5.574-1.875-11.106-2.952-16.639Z"></path>
  <path fill="#F4F4F4" d="M112.333 327.815c9.633-.326 18.317-.35 27.481 2.893-.4 3.293-.4 3.293-1.875 4.766-.456.322-.911.643-1.379.975-2.066 1.625-2.471 1.999-3.209 4.655-.015.626-.03 1.253-.046 1.898-5.829.441-11.442-.986-16.226-4.474-2.761-3.031-4.746-6.545-4.746-10.713Z"></path>
  <path fill="#161616" d="M67.495 191.856c2.277 12.222-.19 21.271-5.615 32.23-4.555 10.07-3.8 21.275-3.786 32.134h-.724v-19.527h-1.446c.31-4.438.949-8.783 1.763-13.152.088-.481.177-.961.268-1.457.427-2.237.916-4.35 1.662-6.504 1.113-4.735.646-9.562.463-14.397-.016-.784-.032-1.567-.048-2.375-.025-.71-.049-1.42-.074-2.152.703-4.39 3.516-5.165 7.537-4.8Z"></path>
  <path fill="#0A0A0A" d="M156.447 214.998c2.17 1.763 2.17 1.763 3.616 3.616v2.892c-.387-.104-.775-.209-1.175-.316-12.33-2.921-24.166-.551-35.989 3.376-1.888.556-1.888.556-4.057.556.961-4.083 3.854-5.848 7.231-7.955 8.669-4.701 21.362-7.101 30.374-2.169Z"></path>
  <path fill="#EAEAEA" d="M309.04 77.592c3.245.991 4.558 2.324 6.509 5.062.638 1.379 1.225 2.783 1.763 4.204 1.304 3.278 2.753 6.173 4.735 9.088.734 1.172.734 1.172 1.457 3.342-2.781-.194-4.091-.511-6.238-2.351-.566-.656-1.133-1.312-1.717-1.989-.507-.581-1.014-1.163-1.537-1.762-3.442-4.704-5.258-9.74-4.972-15.594Z"></path>
  <path fill="#EFEFEF" d="M297.986 91.881c2.688.198 4.097.886 6.399 2.254 2.474 1.453 4.857 2.704 7.548 3.706-1.356 2.803-1.356 2.803-2.17 3.616-6.121 1.06-10.356-2.487-15.187-5.785.804-3.559.804-3.559 3.41-3.791Z"></path>
  <path fill="#EAEAEA" d="M160.786 83.377c.716.478 1.432.955 2.17 1.447-.338 3.25-1.3 4.458-3.797 6.509-.584.492-1.168.984-1.771 1.491-.824.694-.824.694-1.664 1.401-1.238 1.179-2.426 2.388-3.616 3.616-.716-.238-1.432-.477-2.169-.723.413-2.356 1.026-3.435 2.825-4.997.418-.373.837-.745 1.268-1.129.44-.38.879-.759 1.331-1.151.87-.758 1.736-1.52 2.599-2.285.385-.334.771-.668 1.168-1.012 1.122-1.059 1.122-1.059 1.656-3.167Z"></path>
  <path fill="#E7E7E7" d="M379.186 139.063c1.627.09 1.627.09 3.616.723 3.182 3.813 4.643 8.055 4.339 13.018-1.193-.239-2.379-.478-3.616-.724-.203-.73-.412-1.461-.629-2.214-.13-.461-.268-.921-.398-1.396-.39-1.37-.767-2.744-1.143-4.118-.578-1.925-1.186-3.545-2.169-5.289Z"></path>
  <path fill="#fff" d="M272.158 89.886c.954.239 1.909.477 2.892.723-1.08 2.634-2.586 4.053-4.745 5.876-2.304 1.859-2.304 1.859-3.933 4.249-.955-.477-1.909-.955-2.893-1.446.261-2.063.644-2.816 2.167-4.283.583-.436 1.166-.872 1.766-1.322.581-.443 1.161-.887 1.759-1.345 1.54-1.005 1.54-1.005 2.987-1.005v-1.447Zm160.544 169.949c2.502 2.502 2.893 5.221 2.893 8.679h-2.17c-.911-1.826-.788-3.119-.767-5.153.008-.658.015-1.316.022-1.995.007-.504.015-1.01.022-1.531Z"></path>
</svg>