<svg xmlns="http://www.w3.org/2000/svg" viewBox="0 0 500 500"><path fill="#FBFBFB" d="M338 16h3l37 34 8 8 9 13c5 6 18 15 13 21-4 4 3 1 4 3 12 15 20 23 24 42a77 77 0 0 0 12 29 1170 1170 0 0 0 16 27l4 8 2 3c5 10 7 19 9 30v2a218 218 0 0 1 4 46l-1 12-1 6v35c0 6 0 9 3 14v12c2 16 1 34-5 49l-1 4-5 10-1 1-3 7-4 8-1 2c-6 13-9 24-9 39 0 8 1 19-1 22 0-4-195 12-204-10l-2-5-3-7-1-6h-3a24568 24568 0 0 1-99 0c-4 0-26-13-32-16-5-8-16-5-17-14 0-4-41-50-49-112-3-25 0-49 5-67 4-12 2-27 5-31 11-15 8-39 13-58 7-27 20-48 28-48 2 0 17-26 11-28l3-1c6-3 12-4 19-5 9-1 8-12 14-18 2-4 8-10 11-13 12-19 31-22 51-29l3-1a316 316 0 0 1 131-18Z"></path><path fill="#090909" d="M306 15h3l51 1 1 3c-6 3-6 3-10 3l10 11c16 12 30 26 43 42l3 4c28 34 28 34 31 52 3 20 14 37 24 54l16 27 1 2c4 7 5 15 6 23l1 4 1 2 1 5 1 26v16h-1c-3 39-3 39 2 78 7 26-3 51-14 74l-1 2-5 10a92 92 0 0 0-12 41v9h-8v-11l-1-9-19-3 4-9 2-2 2-3 3-5 2-3c4-6 4-11 4-18l-5-7c-5-1-9-1-14 1l-19 14c-5 4-10 5-16 5h-7c6-13 20-20 31-27 15-10 27-19 33-37v-23c-18 8-33 21-48 34l-24 20-3 2c-25 19-55 35-88 32-15-2-28-13-40-22-16-13-32-24-53-22l-9 2 1 8c8 5 17 8 27 11 17 6 28 16 37 33 13 27 13 27 13 39h-7l-5-7-1-2c-4-6-6-11-8-17-6-17-14-28-30-36a215 215 0 0 0-20-7c-9-4-16-7-21-15 0-6 1-10 5-14l2-2c3-4 5-5 10-6 28-1 55 12 75 30l8 7 2 2c7 4 13 5 21 5h3c40-1 68-22 95-49a120 120 0 0 1 15-13c13-9 29-21 45-20h6c4 15 6 28 0 43l-13 17 6 8a47 47 0 0 1 8 12l1 2a1176 1176 0 0 1 17-31l2-3c5-9 6-20 3-30-2-6-2-13-2-19v-27a260 260 0 0 0-13-93c-4-14-9-27-15-40l-1-3a446 446 0 0 0-38-77l-3-9h3l14 20c0-7-1-14-7-19l-16-8-3-7a133 133 0 0 0-22-41c-14-16-33-27-54-33l-2-1c-5-2-10-2-15-2-5 7-3 16-2 23l3-2 3-2 4-3c2-2 2-2 6-2 7 5 14 11 19 18v2l-31 1-4 11v3l-2 4-2 6c-4 2-7 1-11-1l-19 34a83 83 0 0 1-13 22l-5 3c-2-28-2-28 8-41l1-2c6-9 14-16 22-23l2-1 4-3c5-4 9-9 12-15h-3l-15-2h-3l-31-5c-12-2-23-2-34-2h-3c-22 0-37 4-54 19l-2 2c-10 9-18 21-26 32l-1 2-3 6 18 9-2 7-11-2c-7-1-14-2-20 1l-8 7-2 2c-23 23-23 23-33 52v11c-1 11-4 20-8 30-21 50-2 129 16 179v5c-25-39-31-84-30-130h-2a7885 7885 0 0 1-1 12v22c1 30 7 58 18 86l1 2 3 6 1 3 2 3a11709 11709 0 0 1 9 3 136 136 0 0 1 8 14l2 3c15 25 34 38 59 51v1c-20-1-34-11-48-25a951 951 0 0 0-17-15l1 2 2 10 1 6 4 22c-9-7-11-17-13-28l-1-3c-2-8-2-8 0-13-1-13-11-27-18-37-5-9-7-18-10-28l-1-3c-4-18-8-35-8-54v-3l1-14v-10c-4-22-1-44 2-65h1v41h4v-4c0-17 2-35 9-52 2-6 2-12 2-20 0-10 1-17 7-25l2-4 18-23c7-8 12-16 17-25H75c2-4 6-4 10-6l2-1c7-3 14-4 21-5 10-1 17-6 23-14l8-12c27-38 78-47 121-55 15-2 30-2 46-2Z"></path><path fill="#0A0A0A" d="M332 87h16c12 0 21 4 31 12l2 2c7 6 12 14 17 22l2 2c7 10 13 19 18 29l4 6 2 5 1 2c7 12 8 30 4 44-5 11-14 19-26 24a109 109 0 0 1-63-5c-23-8-43-24-53-46-4-11-4-26 0-36 5-11 13-19 22-26 9-8 14-17 19-28 1-4 1-4 4-7Z"></path><path fill="#0C0C0C" d="M295 15h2l11 1-3 6 1 20 3-2 3-2 4-3c2-2 2-2 6-2 7 5 14 11 19 18v2l-31 1-4 11v3l-2 4-2 6c-4 2-7 1-11-1l-19 34a83 83 0 0 1-13 22l-5 3c-2-28-2-28 8-41l1-2c6-9 14-16 22-23l2-1 4-3c5-4 9-9 12-15h-3l-15-2h-3l-31-5c-12-2-23-2-34-2h-3c-22 0-37 4-54 19l-2 2c-10 9-18 21-26 32l-1 2-3 6 18 9-2 7-11-2c-7-1-14-2-20 1l-8 7-2 2c-23 23-23 23-33 52v11c-1 11-4 20-8 30-21 50-2 129 16 179v5c-25-39-31-84-30-130h-2a7885 7885 0 0 1-1 12v22c1 30 7 58 18 86l1 2 3 6 1 3 2 3a11709 11709 0 0 1 9 3 136 136 0 0 1 8 14l2 3c15 25 34 38 59 51v1c-20-1-34-11-48-25a951 951 0 0 0-17-15l1 2 2 10 1 6 4 22c-9-7-11-17-13-28l-1-3c-2-8-2-8 0-13-1-13-11-27-18-37-5-9-7-18-10-28l-1-3c-4-18-8-35-8-54v-3l1-14v-10c-4-22-1-44 2-65h1v41h4v-4c0-17 2-35 9-52 2-6 2-12 2-20 0-10 1-17 7-25l2-4 18-23c7-8 12-16 17-25H75c2-4 6-4 10-6l2-1c7-3 14-4 21-5 10-1 17-6 23-14l8-12c27-38 78-47 121-55 11-2 23-2 35-2Z"></path><path fill="#FAFAFA" d="M361 127a316719 316719 0 0 0 14 2l1 4v8c0 8 1 13 6 19 6 5 11 6 19 6 5 0 9-2 14-3 6 8 8 17 8 28-1 4-2 5-5 8l-5 1-2 1a200 200 0 0 1-65 6c-30 0-30 0-35-4l-4-6-2-5-2-2-5-8c-3-5-5-7-5-13 7-17 25-31 41-38 9-3 17-4 27-4Z"></path><path fill="#FBFBFB" d="M177 177v3c0 12 0 12 6 21l2 2 2 2c6 4 10 6 17 5 8-1 13-5 18-11l2 1c-9 25-27 37-51 48l-24 8-4 1c-9 2-18 3-28 3-3-6-4-12-4-19l-1-3v-14c0-2 0-2-3-4l-2-2c4-13 23-23 34-29s24-12 36-12Z"></path><path fill="#0E0E0E" d="M142 160c-1 5-3 6-8 8-10 5-18 12-21 23v12l1-1c20-15 48-35 74-33l-2 3v13c0 6 3 9 7 13 6 3 12 2 18 2v-3l-1-3 3-1h8l2-9 5 3a76 76 0 0 1-22 61l-4 4c-7 8-14 16-23 22l-2 2-3 2-2 2c-6 4-11 4-18 4h-3c-13 0-23-4-33-13-6-7-9-14-12-23l-1-2c-6-19-6-45 2-63 5-9 24-26 35-23Zm-31 52-4 6 2 2c3 2 3 2 3 4v10c0 14 0 14 5 26 32 0 64-12 89-32l3-2c8-8 12-17 15-27l-10 7c-5 4-10 4-16 4-7-1-11-5-16-10-3-5-4-8-4-15v-2l-1-6c-24 0-50 19-66 35Z"></path><path fill="#0D0D0D" d="M199 160c8 6 15 14 21 22l-2 1c-5 4-5 4-8 9l2 1v2l-1 5c-5 1-11 2-16 0-5-3-8-6-10-11v-11c0-5 0-5 2-8a979 979 0 0 0-20 4c-15 5-29 11-42 21l-7 5-3 3-3 1c-1-11 0-17 7-26 4-5 9-7 14-10s5-3 8-8v-2c18-5 41-9 58 2Z"></path><path fill="#0C0C0C" d="M43 294h1l1 14c1 30 7 58 18 86l1 2a305 305 0 0 0 4 9l2 3a11709 11709 0 0 1 9 3 136 136 0 0 1 8 14l2 3c15 25 34 38 59 51v1c-20-1-34-11-48-25a951 951 0 0 0-17-15l1 2 2 10 1 6 4 22c-9-7-11-17-13-28l-1-3c-2-8-2-8 0-13-1-13-11-27-18-37-5-9-7-18-10-28l-1-3c-4-18-8-35-8-54v-3c0-6 1-11 3-17Z"></path><path fill="#F5F5F5" d="M369 102c8 5 12 12 15 20h-2c-15-2-33-4-47 3l-4 2c-11 6-21 13-30 20l-4 2c5-14 17-26 29-36l3-2c12-9 26-17 40-9Z"></path><path fill="#F7F7F7" d="M424 202c-3 9-8 15-16 20-11 6-23 6-36 6h-2c-11 0-20-1-31-5l-3-1-5-4-2-5h3c44 0 44 0 86-10l6-1ZM163 160h3c7 0 15 1 21 6l1 2-2 1c-23 6-43 13-62 27l-12 8c-1-11 0-17 7-26 12-12 27-18 44-18Z"></path><path fill="#F5F5F5" d="M200 235h2c1 6 0 10-4 15-11 14-25 26-43 28a41 41 0 0 1-32-13c3-2 6-2 10-3l4-1 8-1c12-2 22-5 32-11l3-1c11-5 11-5 20-13Z"></path><path fill="#F4F4F4" d="m296 18-2 9v3l-4 12c-14 1-27-1-40-3l-28-3v-3c21-11 50-15 74-15Z"></path><path fill="#080808" d="m188 169-2 3v13c0 6 3 9 7 13 6 3 12 2 18 2v-3l-1-3 3-1h8l2-9 5 3v13h-6l-4 3c-5 6-10 8-17 8-8 0-13-3-18-9-4-5-6-8-6-15v-3l1-8-5-1c4-6 8-6 15-6Z"></path><path fill="#191919" d="M43 294h1l1 14c1 33 8 66 23 95v5l-1 2a89 89 0 0 1-18-39l-1-3c-4-18-8-35-8-54v-3c0-6 1-11 3-17Z"></path><path fill="#F3F3F3" d="M185 172h9c4 1 6 2 8 6l5 10 1 3 3 9c-5 1-11 2-16 0-5-3-8-6-10-11v-17Z"></path><path fill="#F2F2F2" d="M387 130c5 0 10 2 14 5 5 7 6 15 7 23l-8 1h-2c-4 0-6-1-9-3-4-5-5-9-5-15 0-4 2-8 3-11Z"></path><path fill="#ECECEC" d="M456 191c14 9 21 32 24 48v13c-6-5-8-14-11-22l-1-2a18722 18722 0 0 1-12-37Z"></path><path fill="#141414" d="M316 348v6c-8 4-16 7-25 7 3-5 5-7 10-9l3-2c5-2 7-2 12-2Z"></path><path fill="#1C1C1C" d="m175 172-1 3 4 1-1 4v-3c-10 2-20 6-30 10v-4l-4-1 11-4 3-1c15-6 15-6 18-5Z"></path><path fill="#191919" d="m201 230 3 2c-3 6-11 10-16 13l-3 1-1-5 3-2 5-2 2-2 7-5Z"></path><path fill="#222" d="M137 475c4 1 7 2 11 5a520 520 0 0 1-8-1l-6-2 3-2Z"></path><path fill="#191919" d="m68 403 1 5-3 2-3-6 5-1Z"></path></svg>