<svg xmlns="http://www.w3.org/2000/svg" viewBox="0 0 500 500">
  <path fill="#fff" d="M124.678 115.983c164-1 256 57 313 114-6 71 24 0-9 70-6 13-22 6-18 20 14 60-69 174-136 172-23-11-159 40-218-48-81-64 4-172 68-328"></path>
  <path fill="#F6F6F6" d="M173.678-1.017h92c37.001.087 73.999.087 111 0 8 0 16 1 24 4l1 1 26 11 5 2 13 7 2 1 15 9 1 1 2 2-1 4v1c-.746 7.698-1.746 15.369-3 23l-1 1v3l-1 8-1 3v2l-1 5c-1.351 9.331-2.684 18.664-4 28l-1 7c-1.965 14.723-4.299 29.394-7 44l-10 59-3-4c-7.1-10.068-15.507-19.147-25-27l-1-1c-23-19-50-34-78-45l-1-1c-32.114-13.239-65.68-22.637-100-28h-2l-42-5-16-1h-38l2-6 1-2c4.154-13.961 9.164-27.654 15-41l4-11 20-49 1-3 1-1v-1Z"></path>
  <path fill="#101010" d="M165.678-1.017h8l-3 9c-7 14-12 28-17 41l-23 64h18c62.711.487 124.777 12.697 183 36 38 15 75 36 104 76 2.76-11.523 4.764-23.215 6-35l4-27 3-18 11-70c1-8 5-38 4-39-18-17-54-32-79-37 4.667-.047 9.333-.047 14 0 8-1 14 0 21 3l4 2 3 1 1 1 33 18c12 6 12 6 13 11s0 10-1 14c-7.097 42.932-13.764 85.935-20 129l-12 70c0 3 0 4 2 6 5 8 4 19 3 28-3 13-10 25-21 32l-14 6 2 14c2 20 2 40-7 59l-1 1c-5 9-12 17-19 25l-2 1c-8.247 10.072-16.581 20.072-25 30l-10 12c-9 10-24 18-36 23h-2l-24 8c-16 5-32 5-48 5h-12c-14.334.064-28.666.064-43 0h-51c-18 0-51-19-51-19l-10-11-7-10-9-12-16-17c-11.797-9.827-20.195-23.124-24-38 0 0 0-19 3-36 4-19 11-36 11-37 4-14 30-63 31-65l16-30 15-33c6-10 9-19 10-31l1-6c1-11 7-18 14-26l2-6 14-41 30-76 3-5m-36 123-7 9c-8 9-12 17-13 29-2 15-6 28-14 41-25.603 50.271-48.96 101.655-70 154 0 0-4 26-1 37v1c5 14 13 23 24 33 8.818 10.206 17.485 20.54 26 31l8 11c3.209 17.742 57.262 26.091 110.881 26.565 51.156.451 101.985-6.401 105.119-13.565 16-6 33-14 45-26l22-25 12-14c14-15 25-32 27-53l-2-43h-2l-4-2s-6-6-6-10v-4l2-1 3 1 3 6 2 2c8 1 15-3 22-7 7-6 15-24 15-24 1-7 2-16-1-23-3-4-6-6-11-7s-14 3-14 3c-4 3-8 8-10 13l-3 2-3-1 3-9c4-7 9-12 16-15 6-2 18 1 18 1l1-5c0-6-12-21-12-21l-12-13-10-9c-12-10-41-27-41-27-19-10-59-25-59-25-37-12-76-21-114-24-1 0-30-4-56 1"></path>
  <path fill="#C12830" d="M292.678-2.017c24-1 44 3 46 5 2 3-8 38-9 43 0 0 34 7 36 9 0 3-10 42-12 43l-38-8s-9 35-11 36c-4 0-40-9-42-12-1-5 8-32 9-35 0 0-36-8-38-10 0-4 10-40 11-41 5-1 34 5 38 6l10-36"></path>
  <path fill="#D5D5D7" d="M463.678 39.983c-7.235 61.966-16.573 123.669-28 185l-28-31c0-1-55-37-85-49h7c28 5 57 2 81-15l22-22c15-20 24-44 31-68"></path>
  <path fill="#101010" d="M165.678 196.983c9 8 15 18 17 31 2 25-11 50-21 72-6 13-9 24-9 38h8c5-2 10-2 16 0 3 1 6 2 10 0 0 0 15-8 22-6l6 2c8 2 8 2 15 1l4-8c0-9-1-17-3-26 0-1-1-34 6-46 6.145-10.258 13.172-19.961 21-29 15-16 39-28 61-29h8c5 0 11 0 15 3l2 2-2 3-6 1-33 3-13 4s-18 11-25 17l-3 3c-14.172 11.92-23.433 28.661-26 47l2 21c1.328 7.334 2.662 14.668 4 22 0 6-1 12-5 17-4 3-8 4-12 4l-6-1-8-2c-5-2-9-3-14 0l-9 4c-5 2-10 1-15 0-4-2-7-1-11 0-11 2-11 2-14 0l-4-6c-2-21 10-41 18-59s17-39 11-59c-3-6-6-11-10-15l-1-1c-5-5-12-7-19-9l-2-1-18-3v-3c9-9 34 2 43 8"></path>
  <path fill="#111010" d="M292.678-2.017c24 0 44 3 46 5 2 4-8 39-9 43 0 0 34 7 36 10 0 3-10 41-12 42l-38-8c0 1-9 35-11 36-4 0-40-8-42-12-1-4 8-32 9-35l-38-9c0-4 10-41 11-42 5-1 34 6 38 7l10-37m6 6s-9 37-11 38c-3 1-37-6-39-6l-6 29 36 9-1 8-8 28 31 8c3-9 9-34 11-35s37 7 39 7l7-30c0-1-34-8-36-10-1-4 9-41 9-42-5-1-29-5-32-4"></path>
  <path fill="#F5F5F6" d="M312.678 223.983c5 4 8 10 9 16 0 6-3 12-6 16-4 4-10 8-16 8-8 0-13 0-19-6-4-4-6-11-5-17 0-5 5-13 5-13 8-9 22-11 32-4"></path>
  <path fill="#F5F5F5" d="M141.678 211.983c1 1 10 11 10 17s-3 11-7 16c-4 4-11 6-18 6-5-1-9-3-12-7l-3-6-1-1c-1-5-1-12 2-17s24-11 29-8"></path>
  <path fill="#101010" d="M313.678 222.983c6 5 11 11 13 18 1 8 0 17-5 23l-5 5s-16 9-25 9l-10-2c-6-3-10-7-13-13-3-7-4-16-1-24 4-8 10-14 18-18 9-3 19-3 28 2m-36 12c-4 5-5 11-4 18 1 6 4 11 9 15 6 3 13 3 19 2l3-2c7-3 12-8 14-15 2-5 1-10-1-15l-4-5c-4-4-9-6-14-7-9 0-16 3-22 9m-133-24 6 6c5 5 6 12 6 19 0 9-4 15-10 21-7 6-16 7-25 7-6-1-12-4-16-9l-5-12c-2-8 0-16 4-23 4-6 11-10 18-12s15-1 22 3m-31 10c-5 6-6 11-5 18 1 6 3 10 7 14l7 3c6 0 12-1 18-5 5-3 8-8 9-14 0-7-2-11-6-16-3-3-7-6-12-6-7 0-14 1-18 6m144 111 3 4 3 8 1 1c4 11 10 21 15 31 17 30 17 30 13 46-2 9-15 24-15 24l-10 7c-2 2-4 2-6 2l-2-1 1-4 9-7c9-8 14-18 16-29 0-12-8-25-14-36-7-12-20-43-19-45s2-2 5-1m-140 65s88 4 108 7l13 1 10 2c1 2-2 7-3 7l-21-2-102-7-11-2v-3c2-2 3-3 6-3m5-70h2l1 4-11 16-9 11s-19 26-24 54c0 4 2 7 3 10l1 5c-1 2-1 2-3 2l-4-4s-7-15-5-23c4-19 16-35 27-50l11-14 11-11m112-176c15 3 15 9 15 11l-1 1c-3 0-5 0-7-2l-14-5-17-2-19 2-20 7-3 1-2-2 1-3c7-8 21-10 32-12h1"></path>
  <path fill="#10100F" d="m363.678 332.983 3 1c8 12 10 29 8 43-1 6-4 13-9 17h-2l-1-3 2-7c7-13 2-29-3-42v-1c-.326-2.001-.659-4.001-1-6l3-2"></path>
  <path fill="#101010" d="m422.678 268.983 3 3c1 7-2 14-5 20-4 5-4 5-7 6l-6-1c-2-3-2-5-2-8 1-7 3-14 8-18 3-2 6-3 9-2"></path>
  <path fill="#111110" d="m71.678 312.983 2 2c0 3-1 4-3 5 0 0-18 21-22 32l-2 3h-3c-2-3-2-6-1-10l2-6s18-28 27-26"></path>
  <path fill="#101010" d="M302.678 234.983c2 2 5 3 5 6s0 6-2 8l-8 4-8-4-2-6c1-3 3-6 7-8h8m-170-12c3 1 4 3 5 6 0 3 0 6-2 9-2 1-12 2-13 1l-2-12c2-5 7-6 12-4m141 50 4 3c6 6 23 9 27 6l4 2c-1 3-3 4-6 5-7 2-15 1-21-3-5-3-9-6-11-11l3-2m-65-100c1 0 21 3 30 8l-1 4-9-2-12-4h-20l-1-2 3-3 10-1"></path>
  <path fill="#10100F" d="m145.678 258.983 2 1v2c-3 6-10 9-16 10-7 2-15 1-21-2v-4c3.332-.151 6.668-.151 10 0 8 0 13-1 20-4l1-1 4-2"></path>
</svg>