<svg xmlns="http://www.w3.org/2000/svg" viewBox="0 0 500 500"><path fill="#FDFDFD" d="M244 15c12-3 89 3 90 4 5 2 12 13 15 17l14 14c21-3 73 109 101 215 10 37 3 80 10 107 10 39-38 86-28 116 7 20-24 13-107 17h-53a464499 464499 0 0 0-107 0h-9a65561 65561 0 0 0-79 0h-8a122 122 0 0 1-8 0c-2 0-2-1-3-2a60 60 0 0 1-2-4 161 161 0 0 1-2-6c-2-3-9-34-9-38v-7c0-6-2-10-6-15-21-22-28-129-23-131 2-1 1-15 1-17-2-12 3-42 11-74 3-14 3-30 9-43 6-17 30-29 28-42-3-10 12-15 29-31 16-15 34-39 57-53 30-18 58-22 79-27Z"></path><path fill="#020202" d="M306 6c2 0 23 6 26 8l4 2c5 3 8 7 11 12l14 12 1 1 2 1 1 1 3 3 6 4c4 2 7 4 9 9l8 10 5 5 3 4c12 14 19 28 23 46v2l1 3a131 131 0 0 0 10 26c2 7 5 12 9 18l1 1 6 8c4 5 8 10 8 17v8l-1 3-6-1a254 254 0 0 0 14 30 46 46 0 0 0 0-4l-1-2v-6h7c5 18 7 33 6 51l2 65v66c0 9 0 17-4 25v2a498 498 0 0 1-7 16l-1 3-7 17-1 1-2 8-5 12-1 1c-1 3-3 5-6 7l-9 4 2-11v-1l2-5v-2a154 154 0 0 1 5-14 424 424 0 0 1 20-47v-1c2-3 3-5 3-8l1-2c2-5 2-11 2-16v-3a130 130 0 0 0-3-30v-48c1-10 0-19-2-28v-2l-1-4v-1c-4-19-10-36-16-54l-1-4-4-11-1-1-2-7-6-16-1-5-2-3c-1-6-3-11-6-16l-1-2c-3-5-7-9-12-13a58 58 0 0 1-7-9c-6-8-9-17-13-26-4-10-8-20-14-28l-1-1c-8-11-23-16-34-21l-29-16c-11-7-21-14-35-14l-6-1v13l-15-3c-17-4-33-6-50-6h-1c-10 0-20 0-29 3h-2c-19 5-33 17-44 33-7 10-15 21-25 29-6 5-10 11-14 18-5 8-12 16-20 22-9 8-18 17-20 29v16c0 11-1 20-6 29-4 8-7 16-9 25v2l-1 25a2170 2170 0 0 1 0 32 79 79 0 0 0 3 28l1 1c2 8 4 17 4 25l3 16v1l7 18 9 27c2 11 6 19 13 29a164 164 0 0 1 14 22l1 1c5 7 16 10 24 13 11 5 20 11 26 22v1h-21a5522 5522 0 0 1-49-2 60 60 0 0 1-2-4 161 161 0 0 1-2-6c-2-3-9-34-9-38v-7c0-6-2-10-6-15-17-21-26-43-27-70v-2a302 302 0 0 1-2-13 49 49 0 0 1-1-16v-13a3252 3252 0 0 1 0-37v-7c-1-25-1-25 3-35h1v2a917 917 0 0 0 2 31l1-3v-13c1-19 1-19 3-27v-1l5-17 1-1a678 678 0 0 1 2-10l-7-4 2-10 1-2 11-31 1-1 1-2 1-2 2-2 3 1 1 1h1l1-1 3-5 1-2a503 503 0 0 1 35-44l1-1a97 97 0 0 0 9-9l1-1 2-2 13-17 1-1 8-11h1l12-12v-1c9-7 18-10 28-13l6-1 11-3 12-3 2-1 6-2c31-11 57-13 60-13h8a1069 1069 0 0 0 13 0h14ZM31 341l1 13 1 2c0 7 2 13 3 20v1l3 15 1 1c2 7 5 12 10 17v-5l-1-2v-2a459 459 0 0 0-6-27c-4-17-4-17-11-33h-1Z"></path><path fill="#040404" d="M161 121h2c10 0 16 3 24 10l2 3 15 12c10 6 14 15 16 26l1 5v2c2 13 2 28-2 40v1l-9 15-1 1c-7 8-17 13-26 17h-2c-8 4-16 5-25 5h-1a52 52 0 0 1-25-6c-17-7-36-19-43-37-3-7-4-14-3-21v-2c0-18 10-35 23-49 15-13 34-22 54-22Z"></path><path fill="#050505" d="m339 129 4-1c8 0 16 1 22 6 5 5 7 13 10 20a152 152 0 0 0 14 25c4 8 3 19 0 27l-1 3-4 11-1 1c-7 14-17 25-32 30a90 90 0 0 1-80-16c-5-4-9-10-11-16l-1-1c-3-7-1-17 2-24 3-8 8-16 13-23l1-1 16-19 1-1a102 102 0 0 1 15-13l14-7h2c5-1 10-2 16-1Z"></path><path fill="#FCFCFC" d="M158 186a968 968 0 0 0 43 1h13c0 17-2 32-14 45a53 53 0 0 1-18 12l-9 2-2 1a71 71 0 0 1-58-15l-2-1c-9-8-13-17-17-28v-3l3 1 1 1 4 1c8 2 19 4 28 0 4-2 8-5 10-10 3-8 10-7 18-7ZM352 186h1c25 0 25 0 34 4l-2 11-1 2a87 87 0 0 1-18 31c-7 7-15 10-24 11h-8c-19-1-41-5-56-19-5-5-7-11-7-18s3-13 8-18l2-1c-4 11 22 27 36 8 3-4 5-7 10-8l2-1c7-2 15-2 23-2ZM174 130c4 2 6 6 9 10s7 6 12 8c7 4 9 8 11 15l1 4 1 2 1 2v1l1 1v3a1758 1758 0 0 1-47 3h-9l-8-1h-9l-23-1H97c3-10 10-19 17-27l3-3 3-3 3-3 11-7 1-1c11-5 29-9 39-3Z"></path><path fill="#FBFBFB" d="M345 136h2l12 1v4l-4 3-2 1-2 1-6 6 16-1h4l3 4 1 1 9 16 1 1 2 4h-2l-34 1h-2l-13 1-44 1c3-14 18-28 29-35 10-6 19-9 30-9Z"></path><path fill="#F9F9F9" d="M335 25c6 6 11 14 16 21a410 410 0 0 0 3 6l2 3 1 1 1 1 1 2c-4 0-7-1-10-3h-2c-10-4-19-9-28-15l-22-10h-1l-11-4h-2c-12-3-24-4-36-4h-5c-2 0-4 0-6-2 30-8 72-18 99 4Z"></path><path fill="#FCFCFC" d="m67 450 10 13c7 11 15 17 27 23a144 144 0 0 1 26 15l2 1 2 2v1H81l-3-8-2-6c-9-23-9-23-9-31v-4a1042 1042 0 0 0 0-6Z"></path><path fill="#F1F1F1" d="M405 113c5 1 8 5 10 9 2 3 3 7 2 10-6-3-8-8-11-14l-1-5Z"></path><path fill="#171717" d="M192 25h2l-3 2h-2l-1 1h-3a291 291 0 0 0-10 2l6-3h2l9-2Z"></path><path fill="#EFEFEF" d="m253 31 9 2-5 4h-1l-1-2-1-2-1-2Z"></path><path fill="#DFDFDF" d="m125 139 1 1-14 14-1-1 1-1 5-5 4-4 4-4Z"></path><path d="M354 318h-6l-6 2-5 2-13 5-13 5a209 209 0 0 1-20 7l-6 1-9 1h-41l-10-1-15-1h-12l-27-3h-12c-2-1-20-1-25 1h-3l1 1 1 2 5 2 11 2 15 2 13 2c15 1 35 7 62 5h28l12-1 27-5 8-3a161 161 0 0 0 28-12l7-6c3-2 5-5 5-8"></path></svg>