<svg width="52" height="36" viewBox="0 0 52 36" fill="none" xmlns="http://www.w3.org/2000/svg">
<path d="M0.0737305 0C5.0625 9.27666 13.8198 12.0271 24.5112 12.2387C30.8198 12.3689 42.5736 11.8562 42.5736 15.1682C42.5736 17.6582 35.5347 24.1193 35.5347 25.7143C35.5347 25.7143 41.9181 20.4412 45.4958 17.3165C49.073 14.1917 51.0737 12.3282 51.0737 10.481C51.0737 6.72153 36.2319 7.42134 24.2456 7.42134C12.2593 7.42134 5.70996 5.17539 0.0737305 0ZM12.8237 27.6673C10.4746 27.6673 8.57374 29.5308 8.57374 31.8336C8.57374 34.1365 10.4746 36 12.8237 36C15.1728 36 17.0737 34.1365 17.0737 31.8336C17.0737 29.5308 15.1728 27.6673 12.8237 27.6673ZM29.8237 27.6673C27.4746 27.6673 25.5737 29.5308 25.5737 31.8336C25.5737 34.1365 27.4746 36 29.8237 36C32.1729 36 34.0737 34.1365 34.0737 31.8336C34.0737 29.5308 32.1729 27.6673 29.8237 27.6673Z" fill="#2BAD72"/>
</svg>
