<svg xmlns="http://www.w3.org/2000/svg" viewBox="0 0 500 500">
  <path fill="#FCFAF6" d="M384.069 71.701c3.036 2.716 5.987 5.515 8.934 8.324 1.144 1.049 1.144 1.049 2.311 2.117 8.228 7.774 15.501 17.161 21.005 27.052 3.762 7.606 3.762 7.606 10.269 12.399 2.927.269 2.927.269 5.683-.066.734-.017 1.468-.034 2.222-.05 1.976 2.961 1.976 2.961 1.916 4.874-1.303 2.862-3.346 4.175-5.867 5.982 1.27 3.918 2.675 7.761 4.156 11.602 28.301 74.189 42.635 163.424 9.675 238.095 1.095.397 1.095.397 2.211.803 11.391 4.396 23.025 11.139 28.685 22.441 5.068 12.149 5.414 25.487 1.047 37.903-4.524 10.315-9.869 17.218-20.459 21.449-9.268 3.333-17.424 4.672-27.29 5.242v1.974c-2.263.026-4.528.045-6.792.062-1.26.011-2.522.023-3.821.035-3.218-.097-3.218-.097-5.194-1.084-4.589-1.233-9.049-2.282-13.83-1.973v-1.974c-.938-.102-1.875-.204-2.84-.308-5.4-.762-11.038-2.185-15.93-4.627v-1.974h-3.952c-2.407-2.22-2.407-2.22-4.939-4.934-1.635-1.33-3.28-2.649-4.939-3.949-.652-.651-1.304-1.302-1.976-1.973-5.549-1.657-9.806.091-15.127 1.85-.932.307-1.866.615-2.828.932-7.12 2.532-11.553 5.544-15.634 12.022-2.398 2.395-5.066 4.074-7.901 5.921.133.941.133.941.271 1.898.407 2.863.809 5.727 1.21 8.589.141.985.281 1.971.429 2.986.662 4.755 1.25 9.348 1.053 14.162-3.285 1.095-5.554.833-8.891 0-.327.652-.652 1.303-.989 1.974-3.058 1.964-5.315 2.068-8.891 1.973-.652.326-1.304.652-1.976.987-2.661-.165-5.259-.603-7.902-.987v1.974c-1.276-.005-2.554-.01-3.869-.015-4.723-.018-9.447-.029-14.171-.038-2.047-.005-4.095-.012-6.14-.02-2.939-.012-5.876-.018-8.814-.023-.919-.005-1.838-.01-2.785-.015h-2.577c-.75-.003-1.499-.005-2.273-.007-1.942.004-1.942.004-3.826 1.104v-1.973c-6.426.55-6.426.55-12.78 1.605-2.039.368-2.039.368-5.002-.618-1.657-.069-3.314-.082-4.97-.06-1.52.012-1.52.012-3.071.024-1.644.018-1.644.018-3.32.036-10.872.075-21.694-.198-32.553-.722-1.063-.048-2.127-.096-3.222-.145-1.409-.07-1.409-.07-2.844-.142-2.523-.099-2.523-.099-5.342 1.009-.977-.326-1.956-.651-2.963-.987-.327-.651-.652-1.303-.989-1.974-.977-.325-1.956-.651-2.963-.986-.978-.326-1.956-.651-2.963-.987-.327-.652-.652-1.303-.989-1.974-1.304-.651.057-.637-1.287-1.308.327-3.257 19.478-45.053 15.119-50.014-.688-.122-1.376-.246-2.085-.373-3.088-.663-6.026-1.546-9.029-2.525-1.045-.335-2.09-.669-3.166-1.015-2.515-1.021-2.515-1.021-3.504-2.994-.977.325-1.956.651-2.963.986-1.653-.974-3.3-1.962-4.939-2.96h-3.951c-.327-.653-.652-1.305-.989-1.976-2.38-1.23-2.38-1.23-4.939-1.973-.652.326-1.304.651-1.976.987-.38-.439-.76-.88-1.153-1.333-2.214-1.991-4.317-2.857-7.078-3.971-1.55-.634-1.55-.634-3.132-1.28-1.079-.433-2.159-.865-3.269-1.312-2.128-.861-4.254-1.724-6.379-2.59-.993-.404-1.985-.808-3.006-1.224-2.124-.896-4.179-1.831-6.23-2.878-2.269-1.287-2.269-1.287-4.636-1.696-.552-.163-1.101-.326-1.669-.493-.488-1.466-.488-1.466-.987-2.962-1.633-.692-3.282-1.345-4.939-1.973-1.624-1.141-3.211-2.335-4.755-3.578-.781-.623-1.561-1.247-2.366-1.889-.584-.475-1.168-.952-1.772-1.442-.618.712-1.237 1.425-1.874 2.159-.808.915-1.616 1.832-2.448 2.776-.801.915-1.603 1.832-2.431 2.776-.704.712-1.41 1.424-2.137 2.157h-1.976c-.325.979-.652 1.956-.987 2.962H76.88c-.327-.651-.652-1.302-.989-1.973-1.711-.702-1.711-.702-3.458-1.419-1.141-.509-2.281-1.018-3.457-1.543-.926-2.776-1.122-4.526-1.112-7.402-.004-1.145-.004-1.145-.008-2.312.132-2.129.132-2.129 1.12-5.09h1.976c0-.651 3.468.738 3.468.067 1.606-1.364 3.253-3.296 4.939-4.56-1.163-5.17-7.072-9.402-10.567-13.171-2.285-2.645-3.989-5.484-5.701-8.52-.339-.479-.68-.957-1.03-1.45h-1.976c-.082-.53-.162-1.059-.247-1.604-.999-3.162-2.831-5.536-4.692-8.266-.669-2.004-1.306-4.02-1.915-6.045-.725-2.957-.725-2.957-3.026-3.824v-2.961c-.652-.325-1.304-.651-1.975-.986-1.008-2.434-1.008-2.434-2.068-5.649-.385-1.162-.773-2.327-1.17-3.525-.597-1.841-.597-1.841-1.207-3.719-.398-1.201-.798-2.4-1.208-3.637-5.214-15.841-5.214-15.841-5.214-21.962-.652-.325-1.304-.651-1.976-.986-.882-3.106-1.147-6.362-1.542-9.561-.128-1.017-.254-2.032-.386-3.078-1.154-10.284-1.508-20.573-1.777-30.91-.021-.83-.044-1.66-.068-2.516-.062-2.391-.115-4.784-.162-7.176-.017-.715-.034-1.43-.052-2.166-.063-4.029.287-7.751 1.024-11.706-.02-.915-.041-1.832-.062-2.775.064-3.224.716-6.043 1.476-9.165.888-4.526 1.319-9.104 1.761-13.693.416-3.964 1.157-7.241 2.753-10.884.165-2.673.165-2.673 0-4.934h1.976v-7.896h1.976c-.082-.774-.165-1.546-.248-2.344.288-4.178 1.566-7.198 3.196-11.019 1.258-3.046 2.105-6.162 2.978-9.337.634-1.653 1.283-3.302 1.975-4.935h1.976c.083-.647.163-1.295.248-1.962.997-4.002 2.801-7.402 4.692-11.053.365-.713.729-1.428 1.103-2.164.945-1.852 1.897-3.699 2.848-5.546.327-.652.652-1.303.989-1.974 1.726-2.482 3.485-4.936 5.245-7.394 1.42-2.104 2.535-4.151 3.646-6.423 1.746-2.307 3.47-4.472 5.556-6.476 1.456-1.369 1.456-1.369 2.223-3.271 1.528-2.882 3.72-4.757 6.051-7.031.897-1.06 1.782-2.129 2.655-3.209 2.285-2.714 2.285-2.714 4.26-3.7.489-1.465.489-1.465.988-2.961h1.976V97.79c1.667-1.461 1.667-1.461 3.952-3.145 2.276-1.687 4.506-3.36 6.581-5.293 5.613-5.21 11.774-8.771 18.485-12.411 1.062-.586 2.121-1.173 3.212-1.778 5.673-3.121 11.383-6.114 17.225-8.909 2.068-.998 2.068-.998 3.892-3.007 2.305-.658 4.609-1.315 6.914-1.974.652-.651 1.304-1.302 1.976-1.973 1.638-.366 3.287-.691 4.939-.987 1.445-.493 2.879-1.02 4.299-1.581 22.679-8.716 45.694-14.162 69.792-17.171 1.105-.154 1.105-.154 2.232-.308 47.235-5.778 108.587.088 145.909 32.448ZM78.512 391.15c.987 1.974-.645.75-.645.75l.645-.75Zm345.115 78.718 3.952.987-3.952-.987Z"></path>
  <path fill="#151515" d="M387.088 69.116c3.073 2.751 6.059 5.587 9.043 8.433 1.158 1.062 1.158 1.062 2.34 2.145 8.328 7.876 15.691 17.388 21.262 27.41 3.807 7.706 3.807 7.706 10.394 12.562 2.964.273 2.964.273 5.754-.066.743-.017 1.485-.034 2.25-.051 2 3 2 3 1.938 4.938-1.319 2.901-3.387 4.23-5.938 6.062 1.284 3.969 2.708 7.864 4.207 11.756 28.648 75.17 43.158 165.585 9.793 241.244 1.108.402 1.108.402 2.238.813 11.532 4.454 23.307 11.287 29.037 22.738 5.13 12.31 5.48 25.824 1.06 38.406-4.58 10.451-9.99 17.444-20.71 21.731-9.382 3.377-17.637 4.734-27.625 5.312v2c-2.291.027-14 0-16-1-4.645-1.25-15.897-4.206-16.875-4.312-5.467-.772-18.765-6.688-20.125-6.688-2.437-2.25-3.457-1.842-6.02-4.592-1.655-1.347-2.3-3.091-3.98-4.408l-2-2c-5.616-1.678-9.927.092-15.312 1.875-.945.312-1.89.623-2.863.944-7.207 2.566-11.695 5.619-15.825 12.181-2.428 2.428-5.13 4.128-8 6 .136.953.136.953.276 1.924.412 2.9.818 5.801 1.224 8.701.143.999.286 1.998.434 3.027.67 4.818 1.266 9.47 1.066 14.348-3.325 1.109-5.622.845-9 0l-1 2c-3.095 1.99-5.381 2.095-9 2l-2 1c-2.695-.168-5.324-.611-8-1v2c-1.292-.005-2.584-.01-3.915-.016-4.782-.018-9.564-.029-14.347-.039-2.071-.005-4.143-.012-6.215-.02-2.974-.012-5.948-.018-8.921-.023-.931-.005-1.861-.01-2.819-.015h-2.609c-.759-.003-1.518-.005-2.301-.007-1.965.004-1.965.004-3.873 1.12v-2c-6.505.556-6.505.556-12.937 1.625-2.063.375-2.063.375-5.063-.625-1.676-.071-3.354-.084-5.031-.062-1.539.012-1.539.012-3.109.025-1.663.018-1.663.018-3.36.037-11.005.076-21.961-.201-32.953-.732-1.076-.049-2.153-.097-3.262-.147-1.425-.07-1.425-.07-2.878-.143-2.553-.1-2.553-.1-5.407 1.022l-3-1-1-2-3-1-3-1-1-2-4-2c.33-3.3 3.32-14 4-14 .99-5.94 8.918-23.931 9.5-26.25 1.09-3.617 2.364-6.597 4.5-9.75-.696-.125-1.392-.25-2.109-.379-3.126-.672-17.871-5.961-18.891-5.621-1.674-.987-17.77-6.892-18.167-7.351-2.242-2.017-4.37-2.895-7.165-4.024-1.569-.642-1.569-.642-3.17-1.297-1.092-.438-2.185-.876-3.31-1.328-2.153-.873-4.306-1.748-6.457-2.625-1.004-.409-2.009-.818-3.043-1.24-2.149-.907-17.01-9.498-18.688-10.135-1.643-1.155-3.249-2.365-4.812-3.625-.791-.632-1.581-1.263-2.395-1.914-.592-.482-1.183-.964-1.793-1.461-.626.722-1.253 1.444-1.898 2.188-.818.928-1.635 1.856-2.477 2.812-.812.928-1.624 1.856-2.461 2.813-.714.721-1.428 1.443-2.164 2.187.382 2.431-10.081 2.133-12.5-.437-.867-.921-2.31-1.032-3.5-1.563-.937-2.812-1.135-4.587-1.125-7.5-.004-1.16-.004-1.16-.008-2.344-1.676-5.28 5.396-11.655 8.133-11.156-1.178-5.237-3.649-8.08-7.187-11.898-2.312-2.681-4.037-5.557-5.77-8.633-1.855-.485-14.394-25.129-15.043-25.469-1.021-2.465-1.021-2.465-2.094-5.723-.39-1.178-.781-2.357-1.183-3.572-.605-1.865-.605-1.865-1.223-3.767-.403-1.217-.807-2.433-1.222-3.686-5.278-16.05-8.44-29.698-8.84-32.939-.129-1.03-.257-2.059-.39-3.119-1.169-10.419-1.526-20.844-1.798-31.319-.023-.841-.046-1.682-.07-2.548-.063-2.424-.116-4.848-.164-7.272-.018-.724-.035-1.449-.053-2.195-.063-4.082.292-7.852 1.037-11.86-.02-.928.662-8.935 1.43-12.098.901-4.585 1.336-9.225 1.785-13.874.419-4.017 8.119-33.696 9.77-37.567 1.274-3.087 10.101-23.95 12.015-27.648.369-.724.738-1.448 1.117-2.194.956-1.875 1.919-3.747 2.883-5.619l1-2c1.747-2.514 3.528-5.002 5.309-7.492 1.438-2.132 15.331-21.203 17.691-23.508.908-1.073 1.804-2.157 2.688-3.25 2.312-2.75 9-10.23 11.312-11.937 2.305-1.709 4.562-3.405 6.663-5.362 5.68-5.28 11.918-8.887 18.712-12.576 1.073-.594 2.145-1.188 3.25-1.801 5.742-3.164 11.523-6.195 17.436-9.027 2.094-1.011 8.606-4.38 10.939-5.047.66-.66 5.327-2.7 7-3 1.463-.499 2.914-1.034 4.352-1.601 22.956-8.831 46.254-14.349 70.648-17.399 1.118-.155 1.118-.155 2.259-.312 47.813-5.855 109.918.089 147.698 32.879ZM221.131 45.549c-1.045.199-2.091.397-3.168.602-42.268 8.192-89.048 25.02-119.832 56.398-.92.933-1.841 1.867-2.789 2.828-40.062 42.255-57.381 97.036-57.523 154.547-.004.84-.008 1.679-.012 2.545-.097 42.831 11.345 84.311 38.324 118.08 2.018 2.654 4.008 5.327 6 8 3.51-1.305 6.534-2.863 9.688-4.875 24.226-14.737 53.608-9.934 79.859-3.582 18.647 4.733 37.333 10.291 54.395 19.305 3.636 1.37 5.364 1.277 9.058.152 2.689-1.459 2.689-1.459 5.25-3.312 13.344-8.8 26.767-10.032 42.357-9.949 2.389.011 4.777 0 7.167-.012 16.525-.016 31.448 1.911 43.843 13.828 4.485 4.856 7.397 10.59 10.383 16.445 2.959.054 5.916.094 8.875.125.842.017 1.684.034 2.551.051.806.006 1.611.013 2.441.019.744.011 1.488.021 2.254.032 2.124-.06 2.124-.06 3.879-2.227.576-1.508 1.112-3.032 1.625-4.562 4.1-10.309 11.125-15.572 20.985-20.004 12.837-5.428 25.185-6.74 39.078-7.059 1.395-.038 2.79-.077 4.185-.117 3.376-.094 6.751-.179 10.127-.258 30.515-63.575 22.765-138.045 3-204-.509-1.729-.509-1.729-1.028-3.494-5.689-24.46-5.689-24.46-17.972-45.506-4.64-.585-9.38.378-14 1-.875.114-1.75.228-2.652.345-24.614 3.3-48.322 9.699-71.866 17.454-.655.213-1.31.425-1.985.644-1.776.577-3.549 1.163-5.323 1.75-3.194.812-5.893.961-9.174.807v-5c30.781-14.517 66.363-21.067 100-25-.944-4.461-3.088-7.745-5.5-11.562-.448-.713-.897-1.425-1.359-2.159-3.942-6.154-8.314-11.789-13.141-17.279-.753-.874-1.505-1.748-2.281-2.648-4.587-5.231-9.352-9.934-14.719-14.352-.604-.55-1.209-1.101-1.832-1.668-38.733-33.385-111.859-35.668-159.168-26.332Zm-145 346 1 2-1-2Z"></path>
  <path fill="#FAF8F3" d="M229.631 430.612c1.5 1.937 1.5 1.937 2.25 5.125-1.246 6.332-5.924 9.404-10.676 13.453-15.914 13.575-27.419 30.405-36.074 49.359h4c.235-.83.469-1.66.711-2.516 1.522-4.113 3.566-7.548 5.914-11.234.447-.706.893-1.412 1.353-2.139 6.094-9.497 13.355-17.855 21.022-26.111.578-.643 1.155-1.286 1.75-1.949 6.951-7.401 19.385-20.16 29.906-21.352.939-.004 1.877-.007 2.844-.011.939-.017 1.877-.034 2.844-.051 3.17.433 4.521.971 6.656 3.363.796 5.771-1.189 8.97-4.301 13.641-3.971 5.227-8.933 9.609-13.641 14.158-7.489 7.361-13.558 15.45-19.54 24.05-2.428 3.442-4.969 6.798-7.518 10.151 4.393-1.372 6.377-3.21 9.188-6.812 1.15-1.46 1.15-1.46 2.324-2.95.83-1.078 1.66-2.158 2.488-3.238.923-1.194 1.846-2.388 2.77-3.582 1.761-2.282 3.514-4.57 5.261-6.863 1.969-2.555 1.969-2.555 2.969-3.555 5.873.412 10.564 1.767 16 4-.466 7.819-1.224 15.364-3 23l3-1c.704-1.733.704-1.733 1-3.875.676-3.709 1.555-7.313 2.563-10.945.269-.975.539-1.95.816-2.954.205-.734.41-1.469.621-2.226 1.094.011 2.187.021 3.314.032 4.106.036 8.211.059 12.317.078 1.768.01 3.536.024 5.304.041 13.035.144 13.035.144 25.91-1.71 2.741-.561 5.368-.592 8.155-.441.508 2.686 1.006 5.374 1.5 8.063.143.752.286 1.504.434 2.279 2.187 12.032 2.187 12.032-.184 15.471-3.79 2.572-4.504 5.553-9.118 5.431-.99.495-129.385 1.596-130.9 1.123-4.064-2.059-13.057-13.751-5.61-12.138.292-.767.585-1.533.886-2.323.342-.857.683-1.714 1.035-2.597.536-1.39.536-1.39 1.082-2.809 6.299-15.466 14.742-29.256 24.875-42.5.643-.842.643-.842 1.299-1.702 14.168-18.349 14.168-18.349 26.201-13.235Z"></path>
  <path fill="#FCFAF5" d="M128.069 391.237c1.236.006 1.236.006 2.497.012 8.403.152 16.379 1.491 24.565 3.3 1.234.255 2.467.511 3.738.774 17.749 4.017 34.782 10.786 51.2 18.539 1.078.503 2.156 1.006 3.267 1.525.993.483 1.987.966 3.01 1.463.878.424 1.756.849 2.66 1.286 2.371 1.577 3.12 2.786 4.125 5.413-5.956 4.954-13.852 6.729-21.375 7.938-5.861 1.063-8.758 3.759-12.5 8.375-.371.556-.742 1.113-1.125 1.687-5.426-.581-10.064-1.923-15.144-3.879-.769-.29-1.538-.581-2.33-.88-1.626-.616-3.25-1.235-4.873-1.858-2.417-.927-4.838-1.84-7.26-2.752-14.059-5.329-28.1-11.011-41.33-18.193-.689-.369-1.378-.738-2.088-1.117-5.841-3.164-11.459-6.616-16.975-10.321 1-3 1-3 3.442-4.535 1.03-.504 2.059-1.008 3.121-1.527 1.012-.507 2.023-1.014 3.066-1.536 6.767-2.814 13.004-3.766 20.309-3.714Z"></path>
  <path fill="#FAF8F4" d="M235.131 162.549c.873.257 1.746.513 2.645.777 10.372 3.381 18.99 9.27 25.355 18.223 1.359 4.078 1.647 7.741 1 12-2.228 4.383-5.428 6.472-10 8-19.83 4.151-39.554 2.837-57-8-3.166-2.414-5.724-5.172-7-9-.55-4.217-.028-6.92 2.551-10.359 11.703-13.248 25.477-16.824 42.449-11.641Z"></path>
  <path fill="#F9F7F3" d="M403.205 158.987c3.08 3.101 4.29 5.754 4.489 10.125-.433 5.665-2.235 9.139-6.313 13.125-7.76 5.521-14.072 5.833-23.437 5.812-1.156.028-2.312.057-3.502.086-11.56.026-21.776-3.612-30.311-11.586-1.663-3.326-1.867-6.447-1-10 5.738-7.771 15.095-10.619 24.188-12.312 10.88-1.434 26.462-1.782 35.886 4.75Z"></path>
  <path fill="#1C1C1C" d="M307.131 164.549c8.837 1.117 17.579 9.157 23 16 3.797 5.623 5.921 11.018 5.637 17.856-1.126 5.558-3.563 10.551-6.008 15.64-5.058 10.882-3.165 23.466.608 34.517 2.668 6.949 6.237 13.661 9.986 20.081 2.212 5.424 1.261 12.265-.348 17.719-6.374 10.835-16.506 16.913-28.48 20.523-11.032 2.158-20.945 1.547-31.227-3.105-3.568-1.386-6.808-1.861-10.605-2.293-6.624-.788-9.927-1.938-14.375-7-2.722-4.442-2.661-8.895-2.188-13.938.801-3.086 1.824-6.038 3-9-1.67.495-1.67.495-3.375 1-4.876 1.178-9.647 1.95-14.625 1-3.96-3.152-5.203-5.62-6.062-10.562-.179-3.229-.006-4.309 1.562-7.25 5.696-4.985 10.086-6.668 17.5-7.188v4c-1.264.507-1.264.507-2.555 1.024-1.095.446-2.191.892-3.32 1.351-1.09.441-2.181.882-3.305 1.336-2.883 1.12-2.883 1.12-4.82 3.289.239 5.035.239 5.035 3 9 5.875.129 11.407-1.355 17-3 2.938-.125 2.938-.125 5 0-.758 6.442-.758 6.442-2.012 9.332-1.868 5.043-1.672 10.384-.988 15.668 1.669 3.053 3.898 4.449 7 6 1.791.105 3.583.184 5.375.25 4.723.331 8.128 1.247 12.375 3.313 11.184 5.001 22.638 3.148 33.754-1.004 7.161-3.193 13.878-6.323 17.496-13.559 1.837-5.684 2.226-11.438-.387-16.898-1.222-2.021-2.466-4.029-3.73-6.024-8.081-13.21-11.102-28.765-8.348-44.047 1.113-3.939 2.578-7.267 4.653-10.781 2.987-5.743 2.697-11.979 1.812-18.25-3.347-10.377-13.368-16.245-22-22v-3Z"></path>
  <path fill="#191919" d="M161.956 137.296c13.169.11 26.13 1.541 39.175 3.253 1.356.176 1.356.176 2.74.356 19.027 2.531 37.954 6.158 56.698 10.269.911.194 1.822.388 2.761.588 7.625 1.726 7.625 1.726 10.801 4.787-.875 4.875-.875 4.875-2 6-6.462-.517-12.714-1.645-19.055-2.961-.941-.191-1.882-.382-2.851-.579-3.978-.809-7.953-1.626-11.929-2.443-22.914-4.699-45.276-7.684-68.62-9.322-3.328-.236-6.655-.483-9.982-.73-1.019-.068-2.038-.136-3.087-.205-.94-.071-1.879-.141-2.847-.213-.824-.058-1.649-.115-2.498-.175-2.131-.372-2.131-.372-5.131-2.372-.25-2.562-.25-2.562 0-5 2.894-2.893 11.941-1.25 15.825-1.253Z"></path>
  <path fill="#1B1B1B" d="M300.701 313.389c15.408-.542 30.591 2.676 42.805 12.41 8.676 8.19 13.674 20.071 14.645 31.817-.02 1.933-.02 1.933-1.02 2.933-1.666.041-3.334.043-5 0-.363-1.183-.727-2.367-1.101-3.586-5.724-18.271-5.724-18.271-19.899-30.414-.949-.577-1.897-1.155-2.875-1.75-15.935-6.374-39.17-5.356-54.871 1.262-13.556 6.159-21.237 14.665-27.441 28.113-1.813 3.375-1.813 3.375-3.864 4.149-.643.074-1.286.149-1.949.226-1-1-1-1-1.246-3.672.751-10.154 9.068-19.644 16.246-26.328 6.124-5.086 12.454-8.523 20-11 .875-.287 1.751-.575 2.653-.871 7.624-2.286 15.02-2.797 22.917-3.289Z"></path>
  <path fill="#212121" d="m386.131 113.549-1 3c-1.68.809-1.68.809-3.875 1.438-3.454 1.018-6.813 2.172-10.18 3.449-54.928 20.08-124.93 26.73-181.945 12.113l1-4c2.917.309 5.834.622 8.75.938.825.087 1.65.174 2.5.263.799.087 1.599.174 2.422.264.733.079 1.466.157 2.222.238 2.106.297 2.106.297 4.058.797 44.855 10.949 101.643 1.324 145.048-11.5 1.385-.403 1.385-.403 2.798-.814 10.351-2.999 10.351-2.999 20.581-6.381 2.968-.911 4.675-.672 7.621.195Z"></path>
  <path fill="#F8F6F2" d="M321.006 395.737c3.18.826 5.417 1.98 8.125 3.812-1.507 4.122-4.373 5.959-7.875 8.313-1.276.884-2.551 1.771-3.824 2.66-.691.482-1.383.964-2.095 1.461-4.025 2.858-7.954 5.842-11.893 8.816-7.556 5.693-15.146 11.334-22.782 16.919-5.251 3.851-10.41 7.809-15.531 11.831l-2-1c.464-.928.464-.928.938-1.875 1.206-2.924 1.206-2.924.961-5.332-.102-2.947.11-5.001 1.101-7.793 3.284-3.416 7.051-5.995 10.967-8.621 2.874-1.949 5.668-4.004 8.473-6.052 2.267-1.654 4.545-3.293 6.826-4.928 3.265-2.342 6.525-4.692 9.781-7.047.819-.593 1.638-1.185 2.482-1.796 1.574-1.139 3.148-2.279 4.722-3.418.71-.514 1.42-1.027 2.152-1.556.623-.451 1.247-.903 1.89-1.368 4.535-3.225 4.535-3.225 7.582-3.026Z"></path>
  <path fill="#1A1A1A" d="M235.131 162.549c.873.257 1.746.513 2.645.777 10.372 3.381 18.99 9.27 25.355 18.223 1.359 4.078 1.647 7.741 1 12-2.228 4.383-5.428 6.472-10 8-19.83 4.151-39.554 2.837-57-8-3.166-2.414-5.724-5.172-7-9-.55-4.217-.028-6.92 2.551-10.359 11.703-13.248 25.477-16.824 42.449-11.641Zm-38.547 12.781c-2.008 3.067-2.333 5.431-2.32 9.043 1.846 4.633 6.119 6.808 10.383 8.907 1.24.497 2.485.983 3.734 1.457 1.222.488 2.444.977 3.703 1.48 8.037 2.825 16.066 3.722 24.547 3.707.918-.001 1.835-.002 2.781-.003 7.268-.127 13.747-.945 19.426-5.845 1.512-1.542 1.512-1.542 1.856-4.152-1.065-6.385-5.084-11.463-10-15.562-16.217-10.944-39.625-14.812-54.11.968Z"></path>
  <path d="M361.131 105.549v3c-5.993 1.693-11.993 3.358-18 5-.677.187-1.354.373-2.052.565-11.268 3.071-22.663 5.06-34.178 6.964-2.803.477-5.596.994-8.391 1.518-29.457 5.365-63.774 5.54-93.379.953v-4c1.637.104 1.637.104 3.306.21 12.25.735 24.474 1.007 36.744 1.03 3.117.01 6.234.041 9.351.073 21.594.112 42.5-2.906 63.599-7.313.959-.199 1.917-.398 2.905-.602 10.818-2.258 21.544-4.622 32.134-7.796 3.064-.623 4.981-.455 7.961.398Z"></path>
  <path fill="#F4F3EF" d="M444.131 387.549v2c-.637.356-1.274.712-1.93 1.079-11.536 6.451-23.067 12.91-34.57 19.421-3.833 2.168-7.666 4.334-11.5 6.5-1.106.626-2.213 1.251-3.352 1.896-3.423 1.934-6.847 3.863-10.273 5.792-1.061.6-2.123 1.201-3.217 1.82-.993.558-1.986 1.116-3.009 1.691-1.313.74-1.313.74-2.651 1.495-2.451 1.282-4.913 2.327-7.498 3.306-.539-2.625-.539-2.625 0-6 2.548-2.494 5.571-4.187 8.625-6 .897-.557 1.795-1.114 2.719-1.687 1.908-1.184 3.821-2.36 5.739-3.528 3.757-2.299 7.469-4.664 11.179-7.036 1.828-1.168 3.66-2.33 5.495-3.486 4.64-2.926 9.219-5.911 13.728-9.036.885-.605 1.771-1.209 2.683-1.832 1.667-1.143 3.322-2.303 4.961-3.485 7.496-5.095 14.182-4.739 22.871-2.91Z"></path>
  <path fill="#161716" d="M403.205 158.987c3.08 3.101 4.29 5.754 4.489 10.125-.433 5.665-2.235 9.139-6.313 13.125-7.76 5.521-14.072 5.833-23.437 5.812-1.156.028-2.312.057-3.502.086-11.56.026-21.776-3.612-30.311-11.586-1.663-3.326-1.867-6.447-1-10 5.738-7.771 15.095-10.619 24.188-12.312 10.88-1.434 26.462-1.782 35.886 4.75Zm-54.386 7.062c-1.796 2.374-1.796 2.374-2.375 5 1.041 3.788 3.491 5.498 6.687 7.5 8.264 4.335 15.518 5.22 24.75 5.313 1.427.043 1.427.043 2.883.088 6.544.058 11.74-.932 17.367-4.401 2.977-3.125 4.833-5.499 5.313-9.812-.394-4.016-1.402-5.43-4.313-8.188-13.995-6.362-38.401-5.865-50.312 4.5Z"></path>
  <path fill="#1C1C1C" d="M172.131 193.549c6.163.608 11.57 3.065 17.25 5.375 17.804 7.215 33.582 10.05 52.801 9.464 1.501-.031 1.501-.031 3.031-.062.9-.028 1.799-.056 2.726-.086.723.102 1.447.204 2.192.309l2 3c-4.794 4.794-13.276 3.306-19.596 3.319-21.706-.26-41.402-7.256-60.404-17.319v-4Z"></path>
  <path fill="#1A1A1A" d="M243.131 234.549v3c-1.039.242-2.078.485-3.148.734-7.887 1.878-15.461 3.863-22.852 7.266-.952.419-1.905.838-2.887 1.27-18.883 8.777-29.803 23.506-37.05 42.605-.351 1.031-.702 2.063-1.063 3.125h-3c0-13.653 9.034-26.745 18.168-36.258 10.678-10.277 36.557-26.977 51.832-21.742Z"></path>
  <path fill="#1E1E1E" d="M236.131 299.549c-.152 1.766-.152 1.766-1 4-2.441 1.859-2.441 1.859-5.562 3.75-9.83 6.351-16.483 12.569-19.438 24.25-.969 8.705.007 16.692 2.344 25.098.691 3.056.768 5.779.656 8.902-1.875-.187-1.875-.187-4-1-1.125-1.937-1.125-1.937-2-5-.185-.622-.371-1.245-.562-1.887-3.25-12.929-3.274-27.458 3.562-39.113.423-.733.846-1.467 1.281-2.223 3.99-6.019 9.755-9.862 15.719-13.777.855-.571 1.709-1.142 2.59-1.73 2.41-1.27 2.41-1.27 6.41-1.27Z"></path>
  <path fill="#1D1D1D" d="M413.131 188.549c-.031 1.805-.031 1.805-1 4-2.532 1.26-4.843 2.222-7.5 3.125-.73.259-1.46.519-2.213.786-5.028 1.75-10.012 3.293-15.287 4.089-.698.11-1.397.219-2.117.332-11.789 1.573-22.387.306-33.883-2.332l-1-5c10.172.865 10.172.865 14.438 1.563 14.301 1.756 27.007-1.757 40.535-6.036 2.711-.705 5.246-.746 8.027-.527Z"></path>
  <path fill="#1F1F1F" d="m327.131 98.549-1 4c-9.329 2.84-18.56 5.066-28.187 6.688-1.889.32-1.889.32-3.817.647-14.446 2.354-28.428 3.365-42.996 1.665l-1-4c.768-.009 1.535-.019 2.326-.028 22.144-.336 44.814-1.046 65.975-8.238 2.998-.815 5.606-.862 8.699-.734Z"></path>
  <path fill="#1D1D1D" d="M354.131 240.549c12.336 2.262 22.298 7.053 32 15 .971.781.971.781 1.961 1.578 8.228 7.372 14.41 19.784 17.039 30.422.094 2.809.094 2.809 0 5h-4c-.352-1.099-.704-2.199-1.066-3.332-5.504-16.692-12.939-29.34-28.68-38.125-5.233-2.482-10.658-4.09-16.254-5.543l-1-5Z"></path>
  <path fill="#EAE9E7" d="M468.126 401.549c-6.33 4.369-12.832 8.266-19.557 12-9.123 5.11-18.181 10.319-27.203 15.605-5.428 3.178-10.864 6.34-16.317 9.473-.59.339-1.18.679-1.787 1.028-2.859 1.643-5.718 3.284-8.579 4.921-6.173 3.525-6.173 3.525-12.114 7.418-2.438 1.555-2.438 1.555-5.313 1.305-.701-.247-1.402-.495-2.125-.75v-2c.607-.326 1.213-.651 1.838-.987 12.166-6.541 24.277-13.161 36.286-19.985 8.723-4.955 17.488-9.834 26.268-14.688 4.946-2.736 9.883-5.481 14.768-8.324.747-.432 1.495-.865 2.264-1.31 1.338-.777 2.671-1.562 3.998-2.357 4.243-2.46 4.243-2.46 7.573-1.349Z"></path>
  <path fill="#1C1C1C" d="M348.131 292.549c8.022.864 14.306 8.016 19.5 13.77 7.587 9.628 18.747 26.347 17.5 39.23-1.881-.231-1.881-.231-4-1-1.077-1.867-1.077-1.867-1.894-4.305-.312-.888-.624-1.776-.945-2.692-.321-.95-.642-1.899-.973-2.878-5.853-16.208-14.355-26.847-27.789-37.652-1.399-1.473-1.399-1.473-1.399-4.473Z"></path>
  <path fill="#212121" d="M147.651 181.451c1.021.004 2.043.007 3.095.01 1.055.009 2.111.017 3.198.026 1.074.004 2.149.009 3.255.013 2.644.012 5.288.028 7.932.049l2 4c-.583.009-1.165.019-1.765.028-17.942.36-32.617 2.874-48.907 10.484-2.508 1.121-4.652 1.981-7.328 2.488.074-2.277.074-2.277 1-5 2.316-1.471 4.314-2.517 6.813-3.562 1.009-.445 1.009-.445 2.038-.899 9.188-3.974 18.549-7.693 28.669-7.637Z"></path>
  <path fill="#F1EFEC" d="M206.131 434.549c-.366.485-.731.969-1.108 1.469-11.425 15.182-21.457 30.492-29.892 47.531-2.414-7.243 3.493-16.379 6.75-22.937 13.403-26.348 13.403-26.348 24.25-26.063Z"></path>
  <path fill="#E6E5E3" d="M339.131 416.549c-1.539 4.218-4.656 6.342-8.125 8.938-1.274.976-2.548 1.954-3.82 2.933-.666.511-1.331 1.021-2.017 1.547-3.394 2.635-6.713 5.36-10.038 8.082-5.517 4.504-11.08 8.942-16.695 13.323-5.302 4.147-10.518 8.396-15.713 12.675-11.6 9.502-11.6 9.502-15.592 9.502 1.088-3.264 1.604-3.726 4.254-5.68.682-.51 1.363-1.02 2.066-1.545.74-.545 1.48-1.089 2.243-1.65 1.56-1.168 3.118-2.339 4.675-3.512 1.193-.898 1.193-.898 2.409-1.814 3.598-2.751 7.103-5.612 10.603-8.486 5.764-4.722 11.6-9.321 17.524-13.84 3.518-2.687 6.998-5.422 10.476-8.16.586-.46 1.172-.921 1.775-1.395 2.604-2.046 5.202-4.099 7.788-6.168.804-.639 1.608-1.279 2.437-1.937.686-.551 1.372-1.101 2.078-1.668 1.672-1.145 1.672-1.145 3.672-1.145Z"></path>
  <path fill="#212221" d="m123.131 122.549 4 1c.782 14.49-1.942 27.449-11.496 38.774-1.504 1.226-1.504 1.226-4.504 1.226.545-3.782 1.491-5.99 3.813-9 6.639-9.656 7.843-20.537 8.187-32Z"></path>
  <path fill="#202020" d="M197.131 217.549c2.732.36 5.339.748 7.922 1.734 9.023 3.392 18.592 2.535 28.078 2.266v4c-10.436 3.63-20.426 2.338-30.472-2.09-1.866-.924-3.701-1.91-5.528-2.91v-3Z"></path>
  <path fill="#171717" d="M311.131 347.549v4c-2.908-.545-5.663-1.201-8.5-2.062-8.957-2.24-17.102-1.45-25.5 2.062-2.215-.41-2.215-.41-4-1 1-3 1-3 3.75-4.625 10.694-4.524 24.096-3.842 34.25 1.625Z"></path>
  <path fill="#1D1E1D" d="M398.131 204.549v3c-11.321 5.04-19.915 5.824-32 4v-4c1.256-.037 2.511-.075 3.805-.113 11.917-.345 11.917-.345 23.383-3.363 1.812-.524 1.812-.524 4.812.476Z"></path>
  <path fill="#F3F1EE" d="M346.897 438.436c.749.005 1.498.01 2.269.015.809.004 1.618.007 2.452.01.85.009 1.7.017 2.576.026.854.004 1.708.009 2.588.013 2.116.012 4.233.03 6.349.049v4l-20 7c1.094-10.942 1.094-10.942 3.766-11.113Z"></path>
  <path fill="#1F1F1F" d="M91.131 238.549v4c-1.715 1.22-3.434 2.436-5.183 3.606-6.159 4.728-6.828 12.201-7.817 19.394l-4-1c-.61-7.56.682-12.704 5-19 6.313-7 6.313-7 12-7Z"></path>
  <path fill="#1F1F1E" d="M380.131 239.549c8.407 2.219 15.016 5.678 20 13 1.966 3.419 2.498 6.016 2 10-1.812-.062-1.812-.062-4-1-.755-1.706-1.501-3.417-2.168-5.16-3.026-6.691-10.581-9.84-16.832-12.84l1-4Z"></path>
  <path fill="#2A2A29" d="M244.131 208.549c2.875-.187 2.875-.187 6 0l2 3c-4.471 4.472-11.46 3.184-17.375 3.188-1.028.012-2.057.024-3.117.037-5.229.01-9.624-.102-14.508-2.225v-1c5.604-1.122 11.182-1.327 16.875-1.562.975-.044 1.949-.087 2.953-.131 2.391-.106 4.781-.208 7.172-.307v-1Z"></path>
  <path fill="#1F1F1F" d="M217.131 251.549v3c-.592.303-1.183.606-1.793.918-8.104 4.297-12.624 9.223-17.207 17.082l-3-1c.3-6.002 2.885-9.835 7-14 4.81-3.627 8.82-6.441 15-6Z"></path>
  <path fill="#1B1B1B" d="m155.131 197.549-1 3c-1.715.784-1.715.784-3.937 1.352-1.22.317-1.22.317-2.465.64-.857.209-1.715.418-2.598.633-.826.217-1.652.433-2.504.656-5.492 1.393-10.854 2.207-16.496 2.719v-3c3.552-2.368 7.03-3.176 11.125-4.125.762-.179 1.524-.358 2.308-.542 5.303-1.187 10.122-1.729 15.567-1.333Z"></path>
  <path d="M317.131 228.549v3c-1.33-.247-1.33-.247-2.687-.5-7.312-1.047-15.107-1.187-22.313.5.063-1.812.063-1.812 1-4 8.525-4.973 15.732-3.811 24 1Z"></path>
  <path fill="#252525" d="M359.131 259.549c5.589.925 10.02 1.688 14 6 5.217 7.656 5.217 7.656 4.633 11.281-.313.851-.313.851-.633 1.719-3-1-3-1-3.887-2.672-.264-.686-.528-1.371-.8-2.078-2.895-6.236-8.422-8.331-14.313-11.25l1-3Z"></path>
  <path fill="#171717" d="M152.131 297.549c-.619 3.359-1.868 5.447-3.875 8.188-3.034 4.39-4.742 8.682-6.125 13.812h-3c.344-8.533 1.865-13.405 7.563-19.937 2.437-2.063 2.437-2.063 5.437-2.063Z"></path>
  <path fill="#1F1F1F" d="m92.131 267.549 2 1c-.165.784-.33 1.568-.5 2.375-1.006 7.293-.575 14.367.5 21.625-1.875-.125-1.875-.125-4-1-3.242-6.16-2.717-14.03-1.125-20.625 1.125-2.375 1.125-2.375 3.125-3.375Z"></path>
  <path fill="#181818" d="M310.131 220.549v3c-.928-.165-1.856-.33-2.812-.5-6.726-.959-13.555-1.008-20.188.5.274-1.887.274-1.887 1-4 7.294-4.928 14.692-2.43 22 1Z"></path>
  <path fill="#1E1E1E" d="M226.131 178.549c3.625.375 3.625.375 7 1 1.323 5.412 1.323 5.412-.062 7.938-2.849 1.562-4.873.811-7.938.062-.625-3.375-.625-3.375-1-7l2-2Z"></path>
  <path fill="#181817" d="M378.131 167.299c3 .25 3 .25 5 2.25.25 2.5.25 2.5 0 5-2 2-2 2-5 2.25-3-.25-3-.25-5-2.25-.25-2.5-.25-2.5 0-5 2-2 2-2 5-2.25Z"></path>
  <path fill="#E1E0DE" d="M339.131 416.549c-1.568 4.504-5.082 6.683-8.75 9.438-1.224.935-2.448 1.871-3.672 2.808-.6.453-1.2.905-1.818 1.371-1.731 1.361-3.335 2.812-4.963 4.293-.923.69-1.846 1.38-2.797 2.09-2.175-.369-2.175-.369-4-1 2.498-2.044 4.999-4.085 7.5-6.125.696-.57 1.392-1.139 2.11-1.726 3.564-2.905 7.152-5.776 10.796-8.579.964-.742.964-.742 1.948-1.499 1.646-1.071 1.646-1.071 3.646-1.071Z"></path>
  <path fill="#161616" d="M234.694 208.924c1.295.057 2.589.114 3.924.172 3.171.14 6.342.292 9.513.453v1c-.694.025-1.389.05-2.104.076-3.216.118-6.431.24-9.646.362-1.092.039-2.183.078-3.308.119-7.336.282-14.631.769-21.942 1.443v-2c7.983-2.276 15.317-2.047 23.563-1.625Z"></path>
  <path fill="#1B1B1B" d="M121.131 151.549c-.284 4.687-2.514 7.209-5.43 10.645-1.57 1.355-1.57 1.355-4.57 1.355.446-5.055 2.647-7.402 6-11 2-1 2-1 4-1Z"></path>
  <path fill="#212121" d="M380.131 331.549h2c3.444 9.41 3.444 9.41 3 14l-4-1c-2.428-8.428-2.428-8.428-1-13Z"></path>
  <path fill="#252525" d="m284.131 300.549 6 2-1 4c-4.75-.875-4.75-.875-7-2v-2h2v-2Z"></path>
  <path fill="#232322" d="M402.131 284.549h2l1 8h-4c-.625-2.312-.625-2.312-1-5l2-3Z"></path>
  <path fill="#131313" d="m393.131 268.549 3 1v2l3 1v5h-3c-3-5.625-3-5.625-3-9Z"></path>
  <path fill="#292929" d="M188.131 489.549c1.625 1.688 1.625 1.688 3 4-.812 2.75-.812 2.75-2 5h-4c.557-3.344 1.352-6.033 3-9Z"></path>
  <path fill="#0D0D0D" d="M325.131 221.549h1c.222 2.916.428 5.832.625 8.75.065.825.129 1.65.195 2.5.052.799.104 1.599.157 2.422.052.733.104 1.466.158 2.222-.157 2.454-.912 3.995-2.135 6.106h-1l1-22Z"></path>
  <path fill="#DBDAD7" d="M339.131 416.549c-1.49 3.792-3.586 5.806-7 8-2.164-.394-2.164-.394-4-1 1.454-1.172 2.913-2.338 4.375-3.5 1.218-.974 1.218-.974 2.461-1.969 2.164-1.531 2.164-1.531 4.164-1.531Z"></path>
  <path fill="#232222" d="M406.131 164.549h1v9l-5 1 2-7h2v-3Z"></path>
  <path fill="#161616" d="M332.131 202.549c.931 2.606 1.149 3.642.063 6.25-.526.866-.526.866-1.063 1.75l-3-1 1-6 3-1Z"></path>
  <path fill="#0E0F0E" d="m249.131 270.549 2 2c-3.473 1.158-6.361 1.069-10 1v-3c3.287-.799 4.71-1.096 8 0Z"></path>
  <path fill="#181818" d="M367.131 265.549c.598.33 1.196.66 1.813 1 2.241 1.208 2.241 1.208 5.187 1l1 3-3 2-5-7Z"></path>
  <path fill="#D7D5D3" d="M468.126 401.549c-2.64 1.65-5.28 3.3-7.995 5 1-4 1-4 2.875-5.312 2.12-.688 2.12-.688 5.12.312Z"></path>
  <path fill="#282727" d="M380.131 331.549h2l1 6-4 1 1-7Z"></path>
  <path fill="#181918" d="m403.131 281.549-1 5h-3v-4c2-1 2-1 4-1Z"></path>
</svg>