<svg xmlns="http://www.w3.org/2000/svg" viewBox="0 0 500 500">
  <path fill="#FDFDFD" d="M143.121 129.969c125.258 0 20.354-9.998 98.591 3.277 21.419 3.634 21.64 27.119 56.97 27.119 1.604 50.54 49.194 79.777 54.086 130.01 1.528 15.688 4.533 30.977 7.296 46.531 8.854 49.848 12.026 102.558 12.026 163.392-159.55 0-148.941-1.178-313.321-1.178.104-13.052-18.863-33.671-14.86-47.203 5.631-19.035-10.71-25.18-9.716-41.743.926-15.417-5.725-29.039-8.331-44.252-5.056-29.523-7.261-61.125 3.922-96.05 4.336-13.54 6.388-35.655 17.118-51.836 11.182-16.864 31.034-27.724 34.612-37.946 5.852-16.72 27.033-18.523 31.015-34.487 4.13-16.558 30.592 1.622 30.592-15.634Z"></path>
  <path fill="#FCFCFC" d="M412.255 188.201c23.31 14.706 33.45 38.835 39.62 64.587 5.79 25.801 6.03 52.31-7.85 75.689-3.72 5.73-7.59 11.345-11.63 16.857.86.013 1.71.025 2.59.039 3.89.072 7.79.184 11.68.296 2.01.03 2.01.03 4.07.058 9.27.308 14.54 1.835 21.43 8.374 5.42 6.699 7.91 11.846 7.66 20.616-.99 6.682-3.95 11.844-8.8 16.458-4.2 2.841-7.39 3.737-12.36 4.689-2.45.476-2.45.476-4.95.961-7.98 1.36-15.97 2.535-24 3.572-.45 1.773-.89 3.546-1.35 5.372 1.35-.047 2.7-.093 4.09-.141 18.68-.452 34.05 1.639 48.96 13.571 2.02 2.686 2.02 2.686 2.77 5.961-1.07 4.908-3.72 6.944-7.47 10.155-4.33 2.167-9.06 1.506-13.82 1.475-1.65-.003-1.65-.003-3.33-.005-3.51-.008-7.03-.026-10.55-.042-2.38-.007-4.76-.013-7.14-.019-5.85-.015-11.69-.037-17.53-.066v2.686c2.04.076 2.04.076 4.13.154 20.77.924 38.7 3.787 53.63 19.284 4.04 5.133 6.19 10.607 8.04 16.824-18.03 11.88-37.87 9.522-58.28 5.545-7.9-1.77-15.42-4.611-22.91-7.659-6.6-2.661-12.43-4.005-19.53-4.601.69.814 1.39 1.627 2.11 2.465 6.41 7.695 11.3 15.241 15.35 24.395-1.48-7.643-3.42-14.431-6.72-21.488 2.49.789 2.49.789 5.04 1.595 7.31 2.191 14.68 4.092 22.07 5.959 1.15.293 2.3.586 3.48.888 20.12 5.025 73.771-11.392 54.662-2.178-13.745 6.627-42.038 9.972-61.847-.177-7.054-3.614-23.202-12.495-25.496-6.721-2.305 5.802 15.129 26.27 8.49 27.008-18.949 2.106-44.416-1.39-58.651-.455-2.855.188-8.25-.101-10.959.144 3.54-7.534 5.841-12.929 9.491-20.691 2.96-7.865 2.96-7.865 5.85-15.754 2.98-7.983 6.6-15.697 10.17-23.429 7.27-15.772 9.53-29.941 4.13-46.685-6.5-20.579-2.43-40.173 7.13-59.178 3.91-6.866 7.82-11.721 14.35-16.116.76-.548 1.51-1.097 2.29-1.662 5.25-3.71 5.25-3.71 8.46-3.71.45-25.084-.89-48.685-6.55-73.194-.33-1.452-.66-2.903-.99-4.4-.34-1.359-.67-2.719-1.01-4.12-.3-1.207-.59-2.415-.89-3.658-2.74-6.856-7.87-9.533-14.4-12.332-1.32-.575-2.65-1.149-4.01-1.742-1-.421-2.01-.844-3.04-1.28.85-15.035.85-15.035 5.37-20.145 12.42-9.099 24.84-10.897 38.95-4.029Z"></path>
  <path fill="#0A0A0A" d="M209.397 112.817c4.301-.146 8.599-.205 12.903-.244 1.44-.039 2.88-.077 4.362-.118 15.015-.119 24.227 5.08 35.761 14.22.995.778 1.989 1.554 3.012 2.356 13.034 10.274 24.357 21.111 34.79 34.013 1.92 2.354 3.9 4.659 5.88 6.963 10.1 11.945 14.94 23.412 19.02 38.565 3.65 13.387 8.54 24.311 15.95 36.036 12.13 19.671 21.78 37.612 21.62 61.186-.01 1.59-.01 1.59-.01 3.211-.01 3.352-.02 6.704-.04 10.057-.01 2.285-.01 4.573-.02 6.858-.01 5.577-.03 11.153-.06 16.728 4.65-4.518 7.88-8.349 10.74-14.185 5.42-10.246 12.86-14.091 22.83-19.391.35-11.375-.13-22.577-1.09-33.911-.09-1.221-.19-2.443-.28-3.701-1.89-20.848-9.88-33.469-24.96-47.564-5.57-6-6.47-11.385-6.22-19.311.92-8.468 6.05-13.016 12.1-18.377 8.68-5.901 18.41-5.518 28.51-4.722 16.03 4.73 30.59 19.599 38.51 33.927 14.24 29.364 22.54 65.969 12.21 97.617-3.14 8.444-7.49 16.345-11.77 24.246-.91 1.786-1.81 3.575-2.69 5.372 1.14-.047 2.27-.093 3.44-.141 19.75-.472 19.75-.472 27.71 6.893 7.67 8.253 11.21 14.704 10.89 26.073-.83 7.047-3.13 12.031-8.68 16.541-3.01 2.025-6.05 3.885-9.18 5.697-4.37 2.313-4.37 2.313-5.38 6.715.74.198 1.47.395 2.22.599 9.41 2.798 17.66 7.187 24.64 14.174 1.13 4.235 1.16 7.861 0 12.087-2.74 2.942-5.57 5.03-8.92 7.246-3.26 2.219-5.83 4.668-8.54 7.527 1.15.531 1.15.531 2.31 1.071 10.12 5.337 17.19 12.395 22.29 22.6 1.08 3.731 1.15 5.024-.42 8.562-3.52 2.24-3.52 2.24-7.89 4.281-1.44.684-2.87 1.367-4.35 2.073-23.86 10.503-55.88-1.131-79.09-9.04.49 1.085.97 2.171 1.47 3.289.63 1.435 1.25 2.871 1.89 4.35.94 2.126.94 2.126 1.89 4.296 1.4 3.989 1.78 6.722 1.47 10.896-3.12-3.943-5.49-7.961-7.81-12.423-3.57-6.665-7.64-12.562-12.34-18.466 8.89.651 15.9 2.502 24.09 5.875 19.72 7.626 45.84 13.944 66.67 7.387 3.47-1.565 6.73-3.206 9.97-5.204-4.07-13.066-10.53-21.491-22.66-28.036-13.06-5.913-27.72-6.583-41.8-8.226v-2.686c1.47-.026 2.95-.052 4.47-.08 5.49-.102 10.97-.222 16.46-.345 2.37-.051 4.75-.098 7.12-.141 3.42-.061 6.83-.139 10.24-.221 1.06-.014 2.12-.03 3.21-.047 7.22-.134 7.22-.134 13.56-3.195 2.79-3.688 2.79-3.688 3.44-7.134-1.03-4.919-3.23-6.699-7.11-9.758-11.34-7.114-24.06-8.66-37.12-9.38-.99-.057-1.98-.116-3-.176-2.42-.141-4.83-.276-7.25-.412.45-2.216.89-4.432 1.35-6.715 1.39-.212 1.39-.212 2.81-.428 4.24-.656 8.48-1.331 12.71-2.005 2.19-.335 2.19-.335 4.42-.675 14.07-1.954 14.07-1.954 24.88-10.322 3.4-6.272 4.42-11.741 3.53-18.802-2.56-7.952-6.73-12.651-13.43-17.459-3.39-1.69-5.93-1.623-9.71-1.768-1.38-.056-2.77-.113-4.2-.17-1.45-.053-2.9-.106-4.39-.16-2.2-.087-2.2-.087-4.43-.176-3.62-.142-7.23-.279-10.85-.412.63-.941 1.25-1.881 1.89-2.85 17.92-27.151 24.99-52.39 18.76-84.362-5.54-26.14-13.49-52.848-36.85-68.41-8.38-4.844-17.16-6.895-26.78-5.54-6.53 2.242-11.66 5.41-16.11 10.744-1.5 4.052-1.5 4.052-2.35 8.394-.33 1.448-.65 2.896-.99 4.386-.23 1.102-.46 2.203-.69 3.336.78.229 1.56.458 2.36.693 12.62 3.917 12.62 3.917 17.78 8.708 2.04 4.312 2.98 8.796 4.03 13.431.45 1.653.88 3.306 1.34 5.01 5.48 20.899 12.39 51.849 5.38 72.884-3.13 2.168-3.13 2.168-7.05 4.45-14.92 9.295-21.79 24.32-25.89 41.213-1.91 12.094-1.67 23.314 2.05 35.003 6.72 21.603.84 36.633-8.06 56.322-.84 1.925-1.69 3.853-2.52 5.781-1.16 2.667-2.32 5.332-3.51 7.99-3.4 7.671-6.47 15.457-9.47 23.293-2.12 4.937-4.59 9.359-7.33 13.97h-2.69c.76-9.868 3.64-18.691 6.8-28.035.54-1.6 1.07-3.198 1.63-4.846 3.58-10.496 7.55-20.696 12.3-30.717 3.88-8.174 6.52-15.783 6.38-24.956 0-1.287-.01-2.573-.02-3.899-.17-4.37-.17-4.37-.9-9.173-.73-5.733-.85-11.368-.86-17.141-.02-2.199-.05-4.398-.08-6.596-.03-3.379-.06-6.756-.07-10.135-.04-30.646-7.46-59.303-16.89-88.307-1.42-4.394-2.8-8.801-4.18-13.21-7.18-23.524-7.18-23.524-22.15-42.583-7.57-7.055-11.24-17.38-15.53-26.609-10.621-22.824-23.467-31.128-45.232-42.442-5.648-2.961-11.004-6.109-16.297-9.683-17.022-11.066-35.614-11.351-55.315-10.996 1.311.357 2.622.713 3.971 1.081 1.726.478 3.452.957 5.178 1.437 1.699.467 3.398.935 5.146 1.417 4.507 1.437 4.507 1.437 8.536 4.123-8.579.207-16.413-.533-24.845-2.015-22.002-3.552-47.034-5.391-66.479 7.387-7.214 5.415-12.387 11.602-17.628 18.887-5.605 7.586-11.38 14.481-18.215 20.984-6.583 6.277-11.865 12.803-16.961 20.327-4.888 7.134-10.533 13.238-16.566 19.417-6.525 7.557-7.852 14.471-8.946 24.049-1.403 10.848-3.863 20.849-7.545 31.147-12.824 36.755-4.732 83.066 6.623 119.018 5.323 17.015 5.323 17.015 7.139 24.579 5.128 21.026 14.266 40.636 33.349 52.409 3.07 1.727 6.165 3.387 9.287 5.02 7.386 3.88 13.837 7.759 20.061 13.346l-2.686 1.343c-3.426-1.229-6.674-2.542-9.989-4.029-.968-.434-1.937-.868-2.936-1.315-15.246-6.986-26.022-15.247-36.766-28.231-1.013-1.201-2.025-2.403-3.069-3.641-2.303-3.074-2.303-3.074-2.303-5.76h-2.686c2.705 13.431 6.75 26.165 11.258 39.081.85 2.619 1.534 5.246 2.172 7.924-11.755-9.74-13.981-23.268-16.006-37.63-1.986-13.77-7.02-24.672-13.629-36.754-7.705-14.279-10.812-29.27-13.341-45.144-.18-1.126-.36-2.251-.546-3.41-2.401-18.869-1.271-38.344 1.889-57.026.225-1.341.45-2.683.682-4.065.442-2.612.893-5.223 1.354-7.832.607-3.941 1.006-7.87 1.384-11.838 1.149-11.415 4.217-21.384 8.342-32.068 1.895-4.443 1.895-4.443 1.668-8.661-2.659.665-2.659.665-5.372 1.343.463-7.338 1.084-12.627 5.372-18.802.665-1.828.665-1.828 1.343-3.694.443-.996.886-1.994 1.343-3.021 1.994-.665 1.994-.665 4.029-1.343.951-2.215 1.84-4.458 2.686-6.716 1.987-2.827 1.987-2.827 4.28-5.623 3.484-4.335 6.712-8.736 9.821-13.347 4.784-6.893 10.111-12.664 16.592-17.996 7.142-5.89 12.299-12.376 17.571-19.944 11.112-15.498 21.696-28.293 40.438-34.246 1.034-.338 2.068-.675 3.133-1.023 2.188-.71 4.378-1.414 6.57-2.112 3.268-1.042 6.527-2.11 9.787-3.182 19.927-6.47 39.954-11.895 60.966-12.829Z"></path>
  <path fill="#FCFCFC" d="M135.593 204.317c3.739 2.509 7.245 5.227 10.744 8.058.935.707 1.869 1.413 2.832 2.141 9.365 7.463 14.769 17.306 16.93 29.095 1.709 16.425 1.437 30.012-7.76 44.226-9.029 9.778-22.106 16.388-35.263 17.627-18.673.644-34.761-7.267-48.549-19.721-9.156-9.741-12.279-20.989-11.935-34.189 2.04-18.194 15.176-31.474 28.765-42.619 13.191-9.021 29.814-12.781 44.236-4.618Z"></path>
  <path fill="#FAFAFA" d="M260.744 206.584c1.71-.051 3.418-.1 5.179-.153 6.384.688 10.991 1.929 16.058 5.944 2.944 3.882 4.989 8.024 7.051 12.423.546 1.103 1.094 2.205 1.657 3.343 1.083 2.188 2.148 4.384 3.195 6.589 1.451 3.008 3.001 5.947 4.571 8.897 3.73 7.471 3.69 14.933 1.44 22.942-5.06 12.398-13.843 25.99-26.304 31.832-6.718 2.308-13.698 1.709-20.737 1.691-1.522.021-3.045.043-4.613.065-15.203.008-26.808-2.698-38.279-13.077-6.675-7.377-9.668-12.299-9.233-22.347 2.851-17.018 18.345-36.263 31.561-46.986 9.65-6.751 16.509-10.936 28.454-11.163Z"></path>
  <path fill="#121212" d="M209.397 112.817c4.301-.146 8.599-.205 12.903-.244 1.44-.039 2.88-.077 4.362-.118 9.371-.075 16.239 1.288 24.43 5.91-.443 1.329-.887 2.659-1.343 4.029-1.351-.618-1.351-.618-2.728-1.248-17.597-6.344-39.024-5.88-56.727-.664-4.548 1.309-8.514 2.015-13.21 1.828-5.951-.282-5.951-.282-13.288 4.113 6.648.443 13.296.886 20.145 1.343v4.029c1.311.357 2.622.713 3.971 1.081 1.726.478 3.452.957 5.178 1.437 1.699.467 3.398.935 5.146 1.417 4.507 1.437 4.507 1.437 8.536 4.123-8.579.207-16.413-.533-24.845-2.015-22.002-3.552-47.034-5.391-66.479 7.387-7.214 5.415-12.387 11.602-17.628 18.887-5.605 7.586-11.38 14.481-18.215 20.984-6.583 6.277-11.865 12.803-16.961 20.327-4.888 7.134-10.533 13.238-16.566 19.417-6.525 7.557-7.852 14.471-8.946 24.049-1.403 10.848-3.863 20.849-7.545 31.147-12.824 36.755-4.732 83.066 6.623 119.018 5.323 17.015 5.323 17.015 7.139 24.579 5.128 21.026 14.266 40.636 33.349 52.409 3.07 1.727 6.165 3.387 9.287 5.02 7.386 3.88 13.837 7.759 20.061 13.346l-2.686 1.343c-3.426-1.229-6.674-2.542-9.989-4.029-.968-.434-1.937-.868-2.936-1.315-15.246-6.986-26.022-15.247-36.766-28.231-1.013-1.201-2.025-2.403-3.069-3.641-2.303-3.074-2.303-3.074-2.303-5.76h-2.686c2.705 13.431 6.75 26.165 11.258 39.081.85 2.619 1.534 5.246 2.172 7.924-11.755-9.74-13.981-23.268-16.006-37.63-1.986-13.77-7.02-24.672-13.629-36.754-7.705-14.279-10.812-29.27-13.341-45.144-.18-1.126-.36-2.251-.546-3.41-2.401-18.869-1.271-38.344 1.889-57.026.225-1.341.45-2.683.682-4.065.442-2.612.893-5.223 1.354-7.832.607-3.941 1.006-7.87 1.384-11.838 1.149-11.415 4.217-21.384 8.342-32.068 1.895-4.443 1.895-4.443 1.668-8.661-2.659.665-2.659.665-5.372 1.343.463-7.338 1.084-12.627 5.372-18.802.665-1.828.665-1.828 1.343-3.694.443-.996.886-1.994 1.343-3.021 1.994-.665 1.994-.665 4.029-1.343.951-2.215 1.84-4.458 2.686-6.716 1.987-2.827 1.987-2.827 4.28-5.623 3.484-4.335 6.712-8.736 9.821-13.347 4.784-6.893 10.111-12.664 16.592-17.996 7.142-5.89 12.299-12.376 17.571-19.944 11.112-15.498 21.696-28.293 40.438-34.246 1.034-.338 2.068-.675 3.133-1.023 2.188-.71 4.378-1.414 6.57-2.112 3.268-1.042 6.527-2.11 9.787-3.182 19.927-6.47 39.954-11.895 60.966-12.829Z"></path>
  <path fill="#141414" d="M409.315 182.997c25.2 14.825 36.81 35.486 44.09 63.111 8.78 34.727 6.7 59.881-10.26 91.168-.91 1.786-1.81 3.575-2.69 5.372 1.14-.047 2.27-.093 3.44-.141 19.75-.472 19.75-.472 27.71 6.893 7.67 8.253 11.21 14.704 10.89 26.073-.83 7.047-3.13 12.031-8.68 16.541-3.01 2.025-6.05 3.885-9.18 5.697-4.37 2.313-4.37 2.313-5.38 6.715.74.198 1.47.395 2.22.599 9.41 2.798 17.66 7.187 24.64 14.174 1.13 4.235 1.16 7.861 0 12.087-2.74 2.942-5.57 5.03-8.92 7.246-3.26 2.219-5.83 4.668-8.54 7.527.77.354 1.53.707 2.31 1.071 10.12 5.337 17.19 12.395 22.29 22.6 1.08 3.731 1.15 5.024-.42 8.562-3.52 2.24-3.52 2.24-7.89 4.281-1.44.684-2.87 1.367-4.35 2.073-23.86 10.503-55.88-1.131-79.09-9.04.49 1.085.97 2.171 1.47 3.289.63 1.435 1.25 2.871 1.89 4.35.62 1.417 1.25 2.835 1.89 4.296 1.4 3.989 1.78 6.722 1.47 10.896-3.12-3.942-5.49-7.961-7.81-12.423-3.57-6.665-7.64-12.562-12.34-18.466 8.89.651 15.9 2.502 24.09 5.875 19.72 7.626 45.84 13.944 66.67 7.387 3.47-1.565 6.73-3.206 9.97-5.204-4.07-13.066-10.53-21.491-22.66-28.036-13.06-5.913-27.72-6.583-41.8-8.226v-2.686c1.47-.026 2.95-.052 4.47-.08 5.49-.102 10.97-.222 16.46-.345 2.37-.051 4.75-.098 7.12-.141 3.42-.061 6.83-.139 10.24-.221 1.06-.014 2.12-.03 3.21-.047 7.22-.134 7.22-.134 13.56-3.195 2.79-3.688 2.79-3.688 3.44-7.134-1.03-4.919-3.23-6.699-7.11-9.758-11.34-7.114-24.06-8.66-37.12-9.38-.99-.057-1.98-.116-3-.176-2.42-.141-4.83-.276-7.25-.412.45-2.216.89-4.432 1.35-6.715 1.39-.212 1.39-.212 2.81-.428 4.24-.656 8.48-1.331 12.71-2.005 2.19-.335 2.19-.335 4.42-.675 14.07-1.954 14.07-1.954 24.88-10.322 3.4-6.272 4.42-11.741 3.53-18.802-2.56-7.952-6.73-12.651-13.43-17.459-3.39-1.69-5.93-1.623-9.71-1.768-1.38-.056-2.77-.113-4.2-.17-1.45-.053-2.9-.106-4.39-.16-2.2-.087-2.2-.087-4.43-.176-3.62-.142-7.23-.279-10.85-.412.94-1.411.94-1.411 1.89-2.85 17.92-27.151 24.99-52.39 18.76-84.362-5.54-26.14-13.49-52.848-36.85-68.41-8.38-4.843-17.16-6.896-26.78-5.54-6.76 2.354-11.97 6.201-17.45 10.744-1.33.443-2.66.887-4.03 1.343 1.79-4.065 3.68-6.672 7.05-9.569.75-.667 1.51-1.336 2.28-2.025 9.65-6.441 22.61-6.191 33.39-3.011Z"></path>
  <path fill="#0F0F0F" d="M135.593 204.317c3.739 2.509 7.245 5.227 10.744 8.058.935.707 1.869 1.413 2.832 2.141 9.365 7.463 14.769 17.306 16.93 29.095 1.709 16.425 1.437 30.012-7.76 44.226-9.029 9.778-22.106 16.388-35.263 17.627-18.673.644-34.761-7.267-48.549-19.721-9.156-9.741-12.279-20.989-11.935-34.189 2.04-18.194 15.176-31.474 28.765-42.619 13.191-9.021 29.814-12.781 44.236-4.618Zm-56.407 22.832c-9.256 12.905-11.716 21.681-10.744 37.604 2.487 12.478 10.709 19.303 20.743 26.048 10.921 6.862 22.494 12.14 35.664 10.213 12.46-3.561 23.352-8.517 31.393-18.885 6.97-12.6 8.055-25.992 4.448-39.872-4.967-16.297-15.489-25.478-29.126-35.254-21.314-7.104-39.126 4.152-52.378 20.146Z"></path>
  <path fill="#0C0C0C" d="M260.744 206.584c1.71-.051 3.418-.1 5.179-.153 6.384.688 10.991 1.929 16.058 5.944 2.944 3.882 4.989 8.024 7.051 12.423.546 1.103 1.094 2.205 1.657 3.343 1.083 2.188 2.148 4.384 3.195 6.589 1.451 3.008 3.001 5.947 4.571 8.897 3.73 7.471 3.69 14.933 1.44 22.942-5.06 12.398-13.843 25.99-26.304 31.832-6.718 2.308-13.698 1.709-20.737 1.691-1.522.021-3.045.043-4.613.065-15.203.008-26.808-2.698-38.279-13.077-6.675-7.377-9.668-12.299-9.233-22.347 2.851-17.018 18.345-36.263 31.561-46.986 9.65-6.751 16.509-10.936 28.454-11.163Zm-41.633 32.484c-10.426 14.081-10.426 14.081-14.102 30.721 1.88 9.1 8.985 15.253 16.369 20.313 9.158 5.873 20.698 6.001 31.225 5.96 1.721.033 1.721.033 3.478.066 10.594.008 18.27-2.803 26.209-9.97 7.74-8.475 13.735-18.492 14.945-30.003-.59-5.967-2.56-9.862-5.517-14.988-.467-.852-.935-1.702-1.417-2.579-2.969-5.34-6.214-10.427-9.663-15.469-7.977.665-7.977.665-16.116 1.343 1.343-2.686 1.343-2.686 6.043-4.615 2.327-1.04 2.327-1.04 4.701-2.1.443-1.329.886-2.659 1.343-4.029-25.665-7.465-41.707 5.135-57.498 25.35Z"></path>
  <path fill="#fff" d="M251.485 122.005c11.989 9.055 19.635 21.583 27.81 33.964-4.029 1.343-4.029 1.343-6.798.31-1.049-.557-2.099-1.115-3.181-1.689-1.171-.617-2.342-1.233-3.548-1.869-1.242-.672-2.484-1.347-3.764-2.04-1.268-.674-2.535-1.348-3.841-2.044-8.543-4.587-16.828-9.437-24.945-14.749-19.61-11.356-50.257-6.266-72.108-6.122 5.549-4.745 8.795-6.084 16.116-6.715 6.038-.724 11.746-1.936 17.627-3.441 16.146-3.757 41.748-4.62 56.632 4.395Z"></path>
  <path fill="#0D0D0D" d="M249.749 235.207c4.804 3.822 7.968 7.413 9.401 13.43-.422 8.144-.422 8.144-3.19 11.919-4.947 3.426-9.798 3.456-15.612 2.854-5.743-4.619-7.637-7.949-8.73-15.192.717-5.293 1.152-6.116 4.868-9.569 4.524-3.394 7.55-4.808 13.263-3.442Z"></path>
  <path fill="#090909" d="M127.535 239.236c3.944 2.602 3.944 2.602 6.715 6.715.45 5.237.002 9.957-2.838 14.453-3.962 2.6-7.526 2.043-12.188 1.915-2.562-.055-2.562-.055-5.177-.11-1.311-.047-2.622-.094-3.972-.142-1.156-13.002-1.156-13.002 3.19-18.214 4.92-4.569 7.564-5.406 14.27-4.617Z"></path>
  <path fill="#fff" d="M18.751 350.706h1.343c.181.881.361 1.76.548 2.668 4.327 20.824 9.462 41.192 15.588 61.55.501 1.668 1.002 3.338 1.516 5.057.449 1.472.897 2.942 1.358 4.459 1.108 4.06 1.863 8.058 2.478 12.218-17.347-15.685-21.578-43.583-23.103-65.71-.244-6.769-.122-13.482.272-20.242Zm322.324-98.04c8.41 4.206 13.45 23.11 16.46 31.665 2.24 8.296 2.85 16.176 2.34 24.741-3.93-1.967-4.04-4.479-5.45-8.592-.52-1.505-1.04-3.01-1.57-4.56-.54-1.587-1.07-3.175-1.63-4.811-.53-1.535-1.06-3.071-1.6-4.653-8.55-25.006-8.55-25.006-8.55-33.79Z"></path>
  <path fill="#0C0C0C" d="M451.205 314.444c1.13 3.195 1.53 4.835.38 8.079-.51.928-1.02 1.856-1.55 2.813-.55 1.013-1.1 2.025-1.67 3.069-.59 1.043-1.18 2.087-1.78 3.163-.58 1.065-1.17 2.13-1.77 3.227-1.44 2.626-2.9 5.24-4.36 7.853h17.46v2.686c-8.99 1.071-17.8 1.516-26.86 1.343.57-.88 1.14-1.758 1.73-2.665 5.29-8.242 10.34-16.587 15.21-25.087 1.86-3.138 1.86-3.138 3.21-4.481Z"></path>
  <path d="M409.565 122.394h1.34c-.21 14.094-2.15 24.685-8.05 37.604h-1.35c-.61-12.995-.14-26.792 8.06-37.604Z"></path>
  <path fill="#fff" d="M302.125 180.143h2.69c2.36 2.948 4.55 5.892 6.71 8.982.61.841 1.21 1.68 1.84 2.546 4.69 6.624 7.98 12.105 7.73 20.453-.02 1.061-.05 2.122-.07 3.215-.05 1.193-.05 1.193-.1 2.408-3.54-1.771-3.86-3.422-5.45-7.018-.52-1.166-1.04-2.33-1.57-3.531-.53-1.227-1.07-2.455-1.62-3.72-.53-1.197-1.06-2.392-1.61-3.625-2.9-6.548-5.74-13.121-8.55-19.71Z"></path>
  <path d="M342.415 146.568c8.27 5.201 11.78 13.844 14.77 22.831.06 3.133.06 6.268 0 9.401-8.26-7.083-12.08-17.886-14.77-28.203v-4.029Z"></path>
  <path fill="#1C1C1C" d="M44.268 467.548h4.029c1.543 4.363 3.079 8.729 4.616 13.094.438 1.237.874 2.473 1.325 3.746.419 1.195.84 2.389 1.272 3.62.387 1.098.774 2.194 1.173 3.324.924 2.799 1.686 5.581 2.358 8.448-8.371-6.935-13.162-17.024-14.522-27.783-.082-1.468-.165-2.937-.251-4.449Z"></path>
  <path fill="#0B0B0B" d="M16.065 329.217h1.343c.875 16.131 1.566 32.192 1.343 48.349-5.281-5.28-4.203-13.397-4.213-20.476.005-1.164.01-2.33.016-3.53-.006-1.155-.011-2.309-.016-3.499.01-7.068.505-13.849 1.527-20.844Z"></path>
  <path d="M484.775 165.37c-3.97 8.774-11.08 15.872-18.8 21.488-.89-.443-1.77-.886-2.69-1.343 3.88-6.879 13.13-20.145 21.49-20.145Z"></path>
  <path fill="#111" d="M463.285 462.176h10.75c-.42 1.987-.84 3.974-1.26 5.96-.24 1.105-.47 2.212-.71 3.352-.72 2.775-.72 2.775-2.06 4.118-3.14.055-6.27.058-9.4 0v-2.686c1.33-.887 2.66-1.773 4.03-2.686-.45-2.659-.89-5.319-1.35-8.058Z"></path>
  <path fill="#E6E6E6" d="M370.625 219.09c6.53.609 10.05 2.126 14.77 6.715 1.76 3.022 1.76 3.022 2.68 5.373-5.56-.702-8.4-2.269-12.5-6.044-.94-.845-1.88-1.69-2.84-2.56-2.11-2.141-2.11-2.141-2.11-3.484Z"></path>
  <path fill="#121212" d="M441.795 221.776c1.33.444 2.66.887 4.03 1.343 1.57 3.269 1.57 3.269 2.94 7.304.69 1.991.69 1.991 1.4 4.023 1.04 3.447 1.04 3.447 1.04 6.133-1.33.443-2.66.886-4.03 1.343-.9-2.853-1.8-5.707-2.69-8.562-.5-1.589-1-3.178-1.51-4.816-1.18-4.082-1.18-4.082-1.18-6.768Z"></path>
  <path fill="#353535" d="M471.345 364.136v2.686c-5.24 3.492-10.04 2.889-16.12 2.686v-2.686c5.54-2.684 10.01-2.925 16.12-2.686Z"></path>
  <path fill="#191919" d="M460.605 417.856c2.18.153 4.36.325 6.54.504 1.22.094 2.44.187 3.69.283 3.2.556 3.2.556 5.88 3.242-7.98.665-7.98.665-16.11 1.343v-5.372Z"></path>
  <path fill="#141414" d="M378.675 184.172c.89.443 1.78.887 2.69 1.343-1.69 5.071-3.53 5.516-8.06 8.058-.89.887-1.77 1.773-2.68 2.686-1.33.443-2.66.887-4.03 1.343 1.85-4.311 3.92-6.781 7.55-9.737.85-.699 1.7-1.398 2.57-2.119.97-.779.97-.779 1.96-1.574Z"></path>
  <path fill="#fff" d="M275.266 141.196c10.05 8.261 10.05 8.261 13.43 13.43-.443.886-.886 1.773-1.343 2.686-4.371-4.251-8.488-8.497-12.087-13.43v-2.686Z"></path>
  <path fill="#202020" d="M456.575 427.257c3.69-.335 3.69-.335 8.06 0 3.19 2.686 3.19 2.686 5.37 5.372-3.7.336-3.7.336-8.06 0-3.19-2.686-3.19-2.686-5.37-5.372Z"></path>
  <path fill="#212121" d="M461.945 370.851c1.77.886 3.54 1.773 5.37 2.686-.44 1.773-.89 3.545-1.34 5.372-1.77-.443-3.55-.887-5.37-1.343.44-2.216.88-4.432 1.34-6.715Z"></path>
  <path fill="#E7E7E7" d="M243.034 240.579h5.372c-.443 2.216-.887 4.432-1.343 6.715-1.773-.444-3.546-.887-5.372-1.343.443-1.773.886-3.546 1.343-5.372Z"></path>
  <path fill="#151515" d="M451.205 314.444c.92 2.351.92 2.351 1.34 5.372-1.76 3.022-1.76 3.022-4.03 5.372h-2.69c2.35-7.722 2.35-7.722 5.38-10.744Z"></path>
  <path fill="#191919" d="M375.995 326.531c.44 1.33.88 2.66 1.34 4.029-1.76 2.939-1.76 2.939-4.03 5.372h-2.68c.8-2.712 1.7-5.4 2.68-8.058.89-.443 1.77-.886 2.69-1.343Z"></path>
  <path fill="#81380B" d="M287.597 299.711h7.43c.34 1.022.67 2.045 1.02 3.1 1.62 3.711 1.62 3.711 5.83 5.139 1.76.444 1.76.444 3.54.898.49 3.447.98 6.893 1.49 10.444 1.67.188 3.36.376 5.1.57 5.29.735 5.29.735 6.78 2.04.55 9.667-.11 19.136-1.49 28.72v5.221c-1.48 1.305-2.97 2.611-4.45 3.917-1.79 4.046-1.79 4.046-2.97 7.832.48.431.98.862 1.48 1.305.05 2.015-.02 4.03-.13 6.042-.1 1.866-.1 1.866-.2 3.771-.07 1.312-.15 2.625-.24 3.975-.09 1.915-.09 1.915-.19 3.868-1.15 21.264-1.15 21.264-5.84 26.891-3.23 4.158-5.23 7.991-6.76 12.892 1.46.43 2.93.861 4.45 1.305.46 6.823-.43 9.956-4.45 15.665-.57 1.943-1.06 3.904-1.49 5.873-2.12 9.157-7.46 15.213-16.14 20.679-3.11 1.776-6.22 3.491-9.39 5.184-1.06.594-2.15 1.187-3.24 1.798-7.95 4.322-7.95 4.322-11.32 4.322v2.611c-4.41 3.027-8.1 4.154-13.56 4.65-5.83.188-5.83.188-10.2 3.183-3.25.275-3.25.275-7 .208-1.36-.014-2.71-.029-4.11-.044-1.42-.027-2.84-.055-4.3-.083-2.79-.046-5.59-.086-8.38-.118-1.24-.024-2.48-.047-3.75-.071-3.85.113-7.33.703-11.07 1.413-2.75.147-5.51.227-8.25.244-1.38.019-2.77.036-4.19.056-4.07-.315-6.28-1.222-9.83-2.91-3.46-.507-6.92-.953-10.4-1.307v-2.61c-2.52.022-2.52.022-5.09.045-2.2.012-4.39.024-6.61.036-1.09.01-2.21.022-3.35.032-8.36.034-8.36.034-11.67-1.419v-3.916c-1.03-.019-2.04-.037-3.1-.056-10.87-.507-10.87-.507-14.81-3.86-1.58-4.416-2-8.458-2.14-13.069-.24-.857-.49-1.713-.74-2.595-1.95-.926-3.93-1.799-5.94-2.611-1.12-4.08-1.12-4.08-1.49-7.833-3.42-.862-6.85-1.723-10.39-2.611v-5.221c-1.47-.431-2.94-.862-4.46-1.305-2.6-4.591-2.26-9.353-1.48-14.36 1.64-3.958 3.55-6.631 7.42-9.138 3.86-.768 7.34-.98 11.29-.959 4.35-.424 6.11-1.912 9.5-4.263h4.46c.12-.755.24-1.507.37-2.285 1.5-3.973 3.27-5.615 7.05-8.158 3.46-.488 6.92-.924 10.4-1.306.92-.649 1.82-1.3 2.78-1.968 4.03-2.49 6.53-2.432 11.41-2.356 2.13.008 2.13.008 4.28.015 3.8.393 3.8.393 8.25 3.004.29 4.732.29 4.732 0 9.138 2.46.431 4.91.862 7.43 1.306v2.61c3.06-.079 6.14-.195 9.19-.326 1.71-.061 3.4-.122 5.16-.184 5.71-.918 8.1-2.688 12.38-6.017 1.92-.284 1.92-.284 3.89-.572 3.94-.457 3.94-.457 6.22-4.079.58-1.049 1.17-2.101 1.77-3.181 2.45.431 4.89.861 7.42 1.305v6.527c1.16.188 2.33.377 3.52.571 3.91.734 3.91.734 6.88 2.04v-2.611h2.97c.72-1.938.72-1.938 1.48-3.916h2.97c.55-1.373.55-1.373 1.11-2.774 1.86-3.753 1.86-3.753 4.83-7.425 3.4-4.756 4.64-9.201 5.94-14.603.73-2.751 1.46-5.498 2.22-8.242.36-1.315.71-2.627 1.08-3.983 1.15-3.44 1.15-3.44 4.13-7.357h2.96v-7.832c1.47-.431 2.94-.862 4.46-1.306-.75-.861-1.48-1.723-2.23-2.61-3.04-5.34-2.87-8.413-2.23-14.36 1.07-1.237 1.07-1.237 2.17-2.499 2.76-3.296 3.1-5.624 3.69-9.658 1.16-6.635 3.29-11.001 7.51-16.562h11.88c.48-1.293.98-2.585 1.48-3.916Z"></path>
  <path fill="#fff" d="M116.237 439.037c126.578 46.389 189.603-127.975 189.464-98.099-.868 186.46-193.278 145.554-189.464 98.099Z"></path>
  <path fill="#0C0C0C" d="M294.43 349.576c6.296-3.814 4.057-2.037 3.147-2.037-.04 1.06-.68 5.781-.72 6.874-1.42 28.131-7.39 69.737-29.03 89.693-4.21 3.323-8.56 6.397-13 9.412-.83.559-1.65 1.119-2.5 1.695-10.49 6.889-21.26 10.869-33.43 13.75-1.72.427-1.72.427-3.48.862-27.37 6.664-53.78 5.52-79-7.798-4.05-2.51-6.82-5.26-10.02-8.762-.9-.481-3.003-2.448-2.943-3.945.116-2.927 3.247-6.088 3.005-7.049 8.83 12.989 26.748 21.826 41.598 25.143 29.19 4.549 63.51-4.001 87.36-21.136 26.04-20.39 34.234-57.922 36.56-89.445.211-2.855.676-5.431 2.453-7.257Z"></path>
</svg>