<svg xmlns="http://www.w3.org/2000/svg" viewBox="0 0 500 500"><path fill="#FBFBFB" d="m340 38 7 2c45 13 76 43 96 77a656 656 0 0 1 14 27 246 246 0 0 1 27 152 1851 1851 0 0 1-2 30c-1 10-3 18-8 27l-2 4a528 528 0 0 1-27 43c-19 29-51 58-86 75l-5 3c-26 14-61 17-91 13-34-6-66-14-89-34l-11-8-13-11c-6-6-12-8-21-11-15-8-21-24-27-36a7777 7777 0 0 0-28-56c-4-11-12-19-21-28a60 60 0 0 1-19-37c-4-20-10-39-17-59-12-33-12-33-5-44l2-4 6-8c3-5 3-7 3-12 0-15 8-23 20-33 27-22 54-34 90-42 12-3 19-9 27-16 40-29 132-27 180-14Z" style="stroke-width:1"></path><path d="m340 38 7 2c45 13 76 43 96 77a656 656 0 0 1 14 27 246 246 0 0 1 27 152 1851 1851 0 0 1-2 30c-1 10-3 18-8 27l-2 4a528 528 0 0 1-27 43c-19 29-51 58-86 75l-5 3c-26 14-61 17-91 13-34-6-66-14-89-34l-11-8-13-11c-6-6-12-8-21-11-15-8-21-24-27-36a7777 7777 0 0 0-28-56c-4-11-12-19-21-28a60 60 0 0 1-19-37c-4-20-10-39-17-59-12-33-12-33-5-44l2-4 6-8c3-5 3-7 3-12 0-15 8-23 20-33 27-22 54-34 90-42 12-3 19-9 27-16 40-29 132-27 180-14Zm-89 0c-34 1-68 12-96 27-8 5-17 8-27 10-29 7-50 17-71 34l-6 4-5 4-3 3c-9 8-8 16-9 27-1 7-3 11-9 16-6 7-5 14-4 21l4 13 2 7 1 4 7 21 5 14 5 25c3 19 12 31 28 45l3 3 3 2c5 6 6 11 8 17 5 14 11 26 19 38 4 5 6 11 9 17 9 19 9 19 27 32l4 1 15 10 18 15 5 4 5 3 4 4c8 6 17 9 27 12l10 3c34 11 64 12 99 3l15-7 5-2a193 193 0 0 0 59-43c23-21 41-49 53-74l2-5 2-4 3-3c2-7 3-13 3-20v-5a1991 1991 0 0 0 1-19c5-59 5-59-11-116l-3-5-2-6-3-5c-2-6-2-6-6-10l-6-12c-2-6-4-10-8-15s-6-10-8-16h-4l-2-4c-12-25-44-46-74-57-27-9-49-12-78-11h-16Z" style="stroke-width:1"></path><path fill="#C3C3C3" d="M348 396h5c1 19-7 34-21 48a66 66 0 0 1-40 18c-27 1-57-3-80-17l-19-18v-7c15 2 29 6 43 12h4l-2-9h13l3 3c7 3 15 3 23 3h5c10 0 17-1 26-6l6-10 9-2 2 5h8l11-15h4v-5Z" style="stroke-width:1"></path><path fill="#B2B2B2" d="M217 178h6l5 4 6 4 12-2 5 2c10 3 20 3 30 3 11 1 18 3 27 9l6 10 2 2c2 8 2 15-3 22-8 7-13 8-24 8h-19l-2-3 7-2c8-2 9-3 14-9h4v-3l-15-3 2 11-15 4v7l-4 1 11 5-2 4 3 2c3 3 3 3 3 6h-4v3c-7-1-11-2-17-5l-4-3-3-2v-3h7l-4-5c-3-5-3-5 0-10l-11-4v-3h4l-2-8h-4c-6-10-9-18-9-29l2-3-3-1-11-4v-5Z" style="stroke-width:1"></path><path d="M204 282h10l-4 7-6 1c0 6 0 11 5 15 5 3 10 7 16 9v3h-16l-7-1-10-2-5-1-5-1 1 4c0 8-1 15-5 23l-1 5-3 9c-2 5-3 9-3 15v6l1 6v21h-4l-3-13-4-1-4-1c-5-7-3-16 0-23l4-9-8 2 4-5 9-18 10-21h4v-5c0-7 1-9 7-13l6-2 4-5h5l2-5Z" style="stroke-width:1"></path><path fill="#BEBEBE" d="M255 332h4l3 6c3 6 3 6 6 8a225 225 0 0 0 15 1l4 1v5c-10 2-21 2-32 2l-15 3 5-1a8437 8437 0 0 1 42-1h7l22 2v3c-9 0-18 0-27-2v5c-17 7-35 6-53 5-18 0-30 0-45 7h-4l1 6c1 6 1 6-3 11-5-2-5-2-7-6-3-6-1-10 2-16l9-1c10-2 17-5 26-9l8-2a5605 5605 0 0 0 2-6l12-4c8-3 11-8 15-13l3-4Z" style="stroke-width:1"></path><path fill="#BDBDBD" d="m316 358 3 5c-15 6-15 6-20 6v4l-23 12-4 1c-11 5-23 5-34 4l-17-9c-8-4-14-6-24-7 6-4 10-6 18-7h16a4342 4342 0 0 1 26 1h8c7 0 10-1 15-4h9v-5l27 2v-3Z" style="stroke-width:1"></path><path fill="silver" d="M82 253h5l7 9a2453 2453 0 0 0 32 23c6 4 13 6 20 9l-2 5h-4l-1 3-3 7c-3 5-4 10-5 15h-2v-6c-4-12-19-18-32-25-8-5-10-9-12-17l-3-23Z" style="stroke-width:1"></path><path fill="#BABABA" d="M342 220c4 1 4 1 6 4 4 16 3 24-7 38-7 11-11 19-10 31v12c-4-1-4-1-7-7-4-8-8-10-18-13l-6-2-6-1-5-2c2-5 2-5 8-8l15-5c7-4 9-6 11-12h4l2-7h9l4-28Z" style="stroke-width:1"></path><path fill="#070707" d="M272 206c7 2 10 3 14 8 7 6 13 7 22 9l-2 8h-4v-5l-17 10c-7 4-7 4-13 4l-4-2v-1l7-2c8-2 9-3 14-9h4v-3l-15-3 2 11-15 4v7l-4 1 11 5-2 4 3 2c3 3 3 3 3 6h-4v3c-7-1-11-2-17-5l-4-3-3-2v-3h7l-4-5c-3-5-3-5 0-10l-7-4h4v-3c-3-12-3-12 2-18 6-3 10-3 18-2l2 5-17 2v5l27-2-8-7v-5Z" style="stroke-width:1"></path><path fill="#404040" d="M139 220c9 3 15 5 20 11 3 10 5 20-1 29-4 4-8 7-14 10l1-4c2-4 2-4-1-8l-5 4-5 3-7-2 7-3a16104 16104 0 0 1 18-17l3-8h-9l2 10c-6 2-12 2-19 2v3l-19-2 2 7-8-3-2-7c10-2 10-2 15 0l-5-8a654 654 0 0 1 16-14c6-3 6-3 11-3Z" style="stroke-width:1"></path><path fill="#121212" d="m151 176 8 3 2 5h-6v4c2 13 2 13-3 18l-14 7-6 3-35 12v19c-12-8-12-8-14-16 2-8 5-10 13-15l27-9c6-2 6-2 11-6 4-3 4-3 14-3l-4-17h7v-5Z" style="stroke-width:1"></path><path fill="#0C0C0C" d="M217 178h6l5 4 6 4 12-2 5 2c10 3 20 3 30 3 11 1 18 3 27 9 5 6 6 9 6 17-6-3-11-5-16-9-10-6-18-6-31-6-24 0-24 0-36-4l-2-5 2-3-3-1-11-4v-5Z" style="stroke-width:1"></path><path fill="#B6B6B6" d="M151 205c4 5 4 6 4 12v8c-9 0-9 0-15-4-8 1-12 4-18 8l-4 4c-4 3-4 3-3 8l2 4h-7c-6-1-6-1-10 3-6-6-6-12-5-20 6-4 11-6 18-8 20-6 20-6 38-15Z" style="stroke-width:1"></path><path d="M316 358v3c-9 0-18 0-27-2v5c-17 7-35 6-53 5-18 0-30 0-45 7h-4l1 6c1 6 1 6-3 11-5-2-5-2-7-6-3-6-1-10 2-16l9-2 18-4c7-2 11-3 18-2l4 3 9-3v3h15v-7h6v4h19v-4h-13v-1c18-2 34-3 51 0ZM331 332c11 3 14 11 20 19l2 4c6 7 7 14 8 23h-6l-2-5-2-7-1-3c-3-7-3-7-8-12l2 3c3 4 3 8 3 13l-1 5v4l-8 2-7-4v-3h9l-2-10-2 5-11-2-2-13 8 2v-21Z" style="stroke-width:1"></path><path fill="#ECECEC" d="M204 282h10l-4 7-6 1c0 6 0 11 5 15 5 3 10 7 16 9v3h-16l-7-1-10-2-5-1-5-1-2 5v-3l-4-2h4v-5c0-7 1-9 7-13l6-2 4-5h5l2-5Z" style="stroke-width:1"></path><path d="M304 137c0 5 0 5-3 8-23 12-50 13-76 13-24 0-47 1-70 5h-13c6-4 9-4 15-5l6-1h5l11-2a11194 11194 0 0 1 44-2h15c21 0 38-2 54-13 5-3 5-3 12-3Z" style="stroke-width:1"></path><path fill="#111" d="M314 413h7c-1 11-1 11-7 16-13 6-22 7-38 7h-6c-13 0-21-2-32-8l2-5h11l3 3c7 3 14 3 23 3h5c10 0 17-1 26-6l6-10Z" style="stroke-width:1"></path><path d="M106 164h21c12 0 12 0 17 2l10-1h5l4-1v4l-29 5-7 1c-14 2-28 2-42 2l-3-3h5v-4l19-1v-4Z" style="stroke-width:1"></path><path fill="#9B9B9B" d="m244 277 11 3 1 3c1 5 3 5 8 8l8 3-9 3 2 2v12l-9-1h-5c-5-1-5-1-11-5v-5l13-5c-3-5-4-8-9-11v-7Z" style="stroke-width:1"></path><path fill="#B5B5B5" d="M146 235h9v8l-9 7-3 4c-3 5-5 7-12 8l-10-5-6-2-5-2-2-8 2 3 6-1c7 0 7 0 13 3v-3l19-2-2-10Z" style="stroke-width:1"></path><path d="m146 141 2 3 4-1 21-1h4a6206 6206 0 0 1 48-1v1c-12 3-24 4-37 5-12 0-12 0-23 2l-13 1h-18a13090 13090 0 0 0-30 1c6-5 6-5 10-6l5 1c11 0 18-2 27-5Z" style="stroke-width:1"></path><path fill="#676767" d="M246 351c-2 5-2 5-6 7h5c22-1 22-1 33 1v4h-19v-4h-6v7h-8c-7-1-7-1-9 2l-11-2v-3l-15 1 2-3 11-2v-5l23-3Z" style="stroke-width:1"></path><path fill="#A1A1A1" d="M168 346c2 5 2 9 1 15v10l-1 5v12l-11-2c-6-10-1-23 2-33h6l3-7Z" style="stroke-width:1"></path><path fill="#C1C1C1" d="M261 295h13c7 5 9 9 10 16l1 6c-7 3-13 2-20 2-2-7-1-13 0-20h-4v-4Z" style="stroke-width:1"></path><path fill="#282828" d="M346 163h7c0 7 0 13-5 20-9 8-16 9-29 10 3-5 5-7 12-8l5-1v-11l-7-2v-3l11 1 2 7h4v-13Z" style="stroke-width:1"></path><path fill="#121212" d="M316 358v3c-9 0-18 0-27-2v5c-13 5-25 4-38 4l2-9h6v4h19v-4h-13v-1c18-2 34-3 51 0Z" style="stroke-width:1"></path><path fill="#252525" d="M159 242c3 12 3 12 0 18l-15 10 1-4c2-4 2-4-1-8l-5 4-5 3-7-2 7-3c7-4 11-8 14-13 6-5 6-5 11-5Z" style="stroke-width:1"></path><path d="M331 348c5 3 5 3 5 10h4l4-4c3 5 2 8 2 13v9l-8 2-7-4v-3h9l-2-10-2 5-11-2-2-13 8 2v-5Z" style="stroke-width:1"></path><path fill="#373737" d="M272 206c7 2 10 3 14 8 7 6 13 7 22 9l-2 8h-4v-5l-17 10c-7 4-7 4-13 4l-4-2v-1l7-2c8-2 9-3 14-9h4v-3l-15-3-2 3-2-5h6l-4-3c-4-4-4-4-4-9Z" style="stroke-width:1"></path><path fill="#A8A8A8" d="M255 240c7 2 11 5 17 8l-2 4 3 2c3 3 3 3 3 6h-4v3c-7-1-11-2-17-5l-4-3-3-2v-3h7l-4-8 4-2Z" style="stroke-width:1"></path><path d="M304 137c0 5 0 5-3 8-23 12-49 13-76 12v-1l7-1c22-1 43-3 60-15 5-3 5-3 12-3Z" style="stroke-width:1"></path><path fill="#C2C2C2" d="M314 216h2c1 7 1 10-3 16-6 5-9 7-18 8h-17l11-9 3-3c3-2 3-2 10-2v5c9-6 9-6 12-15Z" style="stroke-width:1"></path><path fill="#BABABA" d="M151 205c4 5 4 6 4 12v8c-9 0-14-2-21-5v-7l8-5 5-2 4-1Z" style="stroke-width:1"></path><path d="M234 124a6269 6269 0 0 1-18 6c-12 4-23 5-36 5h-7l-7 1h-6c-6 0-10-2-16-4v-3h5l21 1h7c16 1 29 0 44-6 5-2 7-2 13 0Z" style="stroke-width:1"></path><path fill="#979797" d="m278 220 15 3c0 3 0 3-4 8-7 4-11 6-19 7 5 5 10 9 17 12v3l-24-10v-8l15-4v-11Z" style="stroke-width:1"></path><path d="M297 294h7v3c2 10 6 14 17 21 5 3 7 6 8 11l-8-2-2-3c-2-4-2-4-8-5l-5-2v-6h-7l-2-17Z" style="stroke-width:1"></path><path fill="#EDEDED" d="m134 223 19 8c-4 3-8 3-13 4l-6 1-5 1-2 10-6-4c1-9 5-13 13-20Z" style="stroke-width:1"></path><path fill="#646464" d="M204 282h10l-4 7-6 1c0 7 0 10 6 16l13 8-6 2-8-5-4-3c-3-3-3-3-3-6l-7-2v-11l7-2 2-5Z" style="stroke-width:1"></path><path fill="#404040" d="m114 280 15 7 17 7v3c-19 1-19 1-27-3-5-4-6-7-7-12l2-2Z" style="stroke-width:1"></path><path fill="#E8E8E8" d="m287 349 2 5h10v2a7468 7468 0 0 1-70 3v-1c19-5 38-5 58-5v-4Z" style="stroke-width:1"></path><path fill="#B7B7B7" d="M170 358h2l2 15 6-2-1 5c-1 6-1 10 1 15l5 2-7 2v-9h-4v17l-4-2v-43Z" style="stroke-width:1"></path><path d="M331 332c7 2 7 2 9 5a4591 4591 0 0 1 2 19v3l-6-1c-5-9-5-17-5-26Z" style="stroke-width:1"></path><path fill="#0E0E0E" d="m180 371 7 2a347 347 0 0 1 2 11c0 4 0 4-4 9-5-2-5-2-7-6-3-6-1-10 2-16Z" style="stroke-width:1"></path><path fill="#838383" d="m246 351-2 5-15 3v7a45047 45047 0 0 0-4 0v-3l-15 1 2-3 11-2v-5l23-3Z" style="stroke-width:1"></path><path fill="#272727" d="m268 208 2 5-17 2v5h15v1h-13c-5 0-5 0-9 2l2-12c8-4 11-3 20-3Z" style="stroke-width:1"></path><path fill="#676767" d="m119 240 6 5 4-2 15 2v2h-15v3l-19-2 2 7-8-3-2-7c10-2 10-2 15 0l2-5Z" style="stroke-width:1"></path><path fill="#222" d="M182 302h5l2 3 10 4c11 3 11 3 13 7l-12-1h-7c-6-1-6-1-11-4v-9Z" style="stroke-width:1"></path><path fill="#090909" d="M144 235v5h4v5h-19l-2-8 17-2Z" style="stroke-width:1"></path><path fill="#B6B6B6" d="M331 348c5 4 6 6 7 11l-2 7-11-2-2-13 8 2v-5Z" style="stroke-width:1"></path><path fill="#343434" d="M161 356c3 6 2 10 0 16l-1 6-1 5h4l2-4-2 9-6-2c-5-7-3-16 0-23l4-7Z" style="stroke-width:1"></path><path d="m268 126 6 1c-31 17-31 17-38 17v-3l-5-2 6-2 8-2 7-2 12-5 4-2Z" style="stroke-width:1"></path><path fill="#1D1D1D" d="m255 299 2 8 6 2h-12c-5 0-5 0-11-4v-5c5-2 9-1 15-1Z" style="stroke-width:1"></path><path fill="#222" d="M321 262h4c-3 5-6 8-13 11l-4 2c-4 2-4 2-13 2v-3l5-3 7-2 6-3 8-4Z" style="stroke-width:1"></path><path fill="#DCDCDC" d="M146 235h9c1 5 0 8-4 12-6 4-11 3-20 3l-2-3 19-2-2-10Z" style="stroke-width:1"></path><path fill="#F0F0F0" d="M280 215v3c-6 2-10 2-17 2h-10v-5l9-1 5-1c5 0 9 0 13 2Z" style="stroke-width:1"></path><path fill="#1D1C1C" d="M163 164v4l-14 2-8 2-20 1c6-4 11-5 19-6l6-2 17-1Z" style="stroke-width:1"></path><path fill="#272727" d="M304 137c0 5 0 5-3 8-13 7-13 7-23 6v-4l9-5 6-3c4-2 4-2 11-2Z" style="stroke-width:1"></path><path d="m206 364 17 2v2h-6c-9 1-15 4-22 7l-8 1-2-5 4-1 5-1 5-2c5-1 5-1 7-3Z" style="stroke-width:1"></path><path fill="#1A1A1A" d="M114 280c5 1 5 1 9 4l2 8 4 3c-8-1-12-3-17-8l2-7Z" style="stroke-width:1"></path><path d="m157 142 15 2c-4 4-6 5-12 6l-6-1h-10v-3l13-2v-2Z" style="stroke-width:1"></path><path fill="#3D3D3D" d="M197 295c7 2 7 2 10 6 4 6 9 9 16 13l-6 2c-9-4-15-9-18-16l-2-5Z" style="stroke-width:1"></path><path fill="#535353" d="m197 248 9 4v13l-9 5a614 614 0 0 1 2-7v-4c0-4 0-7-2-11Z" style="stroke-width:1"></path><path fill="#767676" d="m151 176 8 3 2 5h-6v19h-2l-1-4v-5l-1-5c0-5 0-5-3-8l3-5Z" style="stroke-width:1"></path><path fill="#030303" d="M253 359h6v5h15l-2 4h-21l2-9Z" style="stroke-width:1"></path><path d="M285 356c11 0 21 0 31 2v3c-11 0-20 0-31-3v-2Z" style="stroke-width:1"></path><path fill="#262626" d="M259 349h28v4h-28v-4Z" style="stroke-width:1"></path><path fill="#4C4C4C" d="m257 245 13 2v5l6 5-6 1c-7-3-7-3-13-8v-5Z" style="stroke-width:1"></path><path fill="#5F5F5F" d="m293 223 2 5-8 6-4 3c-5 3-5 3-11 2l-4-1v-1l7-2c8-2 9-3 14-9h4v-3Z" style="stroke-width:1"></path><path fill="#BABABA" d="m202 305 3 2 4 3 3 2c5 2 5 2 13 2v3h-21l6-3-15-5 7-4Z" style="stroke-width:1"></path><path fill="#313131" d="M248 252h11l13 11c-7-1-11-2-17-5l-4-3-3-2v-1Z" style="stroke-width:1"></path><path fill="#E3E3E3" d="m278 220 15 3v3l-11 5c-3-4-4-6-4-11Z" style="stroke-width:1"></path><path fill="#454545" d="M204 171h4v8l6 2-8 2-7-4c2-6 2-6 5-8Z" style="stroke-width:1"></path><path fill="#C8C8C8" d="m287 349 2 5h10v2l-25 2-2-4 15-1v-4Z" style="stroke-width:1"></path><path fill="#5F5F5F" d="M217 178c6 0 6 0 11 4l6 4 4 3-7 2v-3l-3-1-11-4v-5Z" style="stroke-width:1"></path><path fill="#444" d="M246 351c-2 5-2 5-6 7h-15v-4l21-3Z" style="stroke-width:1"></path><path fill="#262626" d="m57 221 6 2v8h5v4c-9-2-9-2-11-4v-10Z" style="stroke-width:1"></path><path fill="#969696" d="M185 297h4v8l-2-3h-5l2 5c1 5 1 5-4 10v-3l-4-2h4v-5c0-7 0-7 5-10Z" style="stroke-width:1"></path><path fill="#E8E8E8" d="M163 364h2v14h-4l-2 5c0-13 0-13 4-19Z" style="stroke-width:1"></path><path fill="#676667" d="m323 351 10 8v5h-8l-2-13Z" style="stroke-width:1"></path><path fill="#1B1B1B" d="M121 230h4l-4 10h-9l9-10Z" style="stroke-width:1"></path><path fill="#0A0A0A" d="M316 413h5c-2 11-2 11-7 15l-6-1 3-3c3-4 5-7 5-11Z" style="stroke-width:1"></path><path d="M297 294h7v17h-5l-2-17Z" style="stroke-width:1"></path><path fill="#ABABAB" d="M240 361h13v5h-15l2-5Z" style="stroke-width:1"></path><path d="m144 129 34 2v1l-32 2-2-5Z" style="stroke-width:1"></path><path fill="#303030" d="M297 137h7v5l-13 5 6-10Z" style="stroke-width:1"></path><path fill="#575757" d="m157 376 2 7h4l2-4-2 9-6-2c-2-3-2-3-2-7l2-3Z" style="stroke-width:1"></path><path fill="#D0D0D0" d="m329 326 7 5-5 1v14h-2l-1-8-1-5c0-4 0-4 2-7Z" style="stroke-width:1"></path><path fill="#3D3D3D" d="m331 184 5 2v5l-17 2c5-7 5-7 12-9Z" style="stroke-width:1"></path><path fill="#131313" d="m244 277 9 2v6l-9-1v-7Z" style="stroke-width:1"></path><path fill="#2A2A2A" d="m306 268 4 2-2 5-13 2v-3l11-6Z" style="stroke-width:1"></path><path fill="#B5B5B5" d="M123 233c4 4 4 4 4 9v5l-6-4 2-10Z" style="stroke-width:1"></path><path fill="#C3C3C3" d="M253 215h3l18 3v2h-21v-5Z" style="stroke-width:1"></path><path fill="#111" d="m10 215 2 6-2-6Z" style="stroke-width:1"></path><path d="m491 205 2 6-2-6ZM0 178l2 6-2-6Z" style="stroke-width:1"></path><path fill="#3B3B3B" d="M468 151h4l-2 5-2-5Z" style="stroke-width:1"></path></svg>