<svg width="48" height="48" viewBox="0 0 48 48" fill="none" xmlns="http://www.w3.org/2000/svg">
<g clip-path="url(#clip0_1835_289)">
<path d="M48 24C48 10.7452 37.2548 0 24 0C10.7452 0 0 10.7452 0 24C0 37.2548 10.7452 48 24 48C37.2548 48 48 37.2548 48 24Z" fill="#4598D8"/>
<path d="M36.3178 18.3598C36.3178 21.5864 35.3059 24.0576 33.2884 25.767C31.2709 27.4763 28.4016 28.3342 24.6805 28.3342H21.9457V39H15.5859V9H25.1737C28.8115 9 31.5784 9.78105 33.4741 11.3496C35.3699 12.9181 36.3178 15.2548 36.3178 18.3598ZM21.9457 23.1165H24.0401C25.9935 23.1165 27.4602 22.7324 28.4337 21.9577C29.4072 21.1831 29.8875 20.0627 29.8875 18.5839C29.8875 17.0922 29.4776 15.991 28.6642 15.2804C27.8508 14.5698 26.5763 14.2113 24.8342 14.2113H21.9457V23.1165Z" fill="white"/>
</g>
<defs>
<clipPath id="clip0_1835_289">
<rect width="48" height="48" fill="white"/>
</clipPath>
</defs>
</svg>
