<svg width="800px" height="800px" viewBox="0 0 20 20" fill="none" xmlns="http://www.w3.org/2000/svg">
<rect x="4.026" y="3.03" width="12.143" height="13.318" style="stroke: rgb(0, 0, 0); fill: rgb(255, 255, 255);"></rect><path d="M 11.528 9.266 L 8.778 9.266 L 8.778 6.216 C 8.778 6.119 8.778 6.061 8.779 6.017 C 8.78 5.99 8.781 5.978 8.781 5.975 C 8.799 5.869 8.882 5.786 8.987 5.769 C 8.99 5.769 9.002 5.768 9.03 5.767 C 9.073 5.766 9.131 5.766 9.228 5.766 L 11.528 5.766 C 12.495 5.766 13.278 6.549 13.278 7.516 C 13.278 8.482 12.495 9.266 11.528 9.266 Z" fill="#1C274C" style=""></path><path fill-rule="evenodd" clip-rule="evenodd" d="M 20.028 10.016 C 20.028 15.538 15.551 20.016 10.028 20.016 C 4.505 20.016 0.028 15.538 0.028 10.016 C 0.028 4.493 4.505 0.016 10.028 0.016 C 15.551 0.016 20.028 4.493 20.028 10.016 Z M 6.278 12.016 C 6.278 11.601 6.614 11.266 7.028 11.266 L 7.278 11.266 L 7.278 10.766 L 7.028 10.766 C 6.614 10.766 6.278 10.43 6.278 10.016 C 6.278 9.601 6.614 9.266 7.028 9.266 L 7.278 9.266 L 7.278 6.177 C 7.278 6.032 7.278 5.88 7.3 5.742 C 7.418 4.993 8.006 4.406 8.754 4.287 C 8.893 4.265 9.044 4.265 9.19 4.266 L 11.528 4.266 C 13.323 4.266 14.778 5.721 14.778 7.516 C 14.778 9.311 13.323 10.766 11.528 10.766 L 8.778 10.766 L 8.778 11.266 L 10.028 11.266 C 10.442 11.266 10.778 11.601 10.778 12.016 C 10.778 12.43 10.442 12.766 10.028 12.766 L 8.778 12.766 L 8.778 15.016 C 8.778 15.43 8.442 15.766 8.028 15.766 C 7.614 15.766 7.278 15.43 7.278 15.016 L 7.278 12.766 L 7.028 12.766 C 6.614 12.766 6.278 12.43 6.278 12.016 Z" fill="#1C274C" style=""></path>
</svg>
