<svg xmlns="http://www.w3.org/2000/svg" width="60" height="60" version="1.1">
<defs><linearGradient id="d" x1="5.8248" x2="10.351" y1="18.547" y2="17.929" gradientTransform="matrix(4.7565, 0, 0, 2.8737, -0.317029, -0.348109)" gradientUnits="userSpaceOnUse"><stop stop-color="#A3CD39" offset="0.1226"></stop><stop stop-color="#86C339" offset="0.2846"></stop><stop stop-color="#21A038" offset="0.8693"></stop></linearGradient><linearGradient id="e" x1="2.2789" x2="6.2815" y1="2.8981" y2="1.9766" gradientTransform="matrix(4.7565, 0, 0, 2.8737, -0.317029, -0.348109)" gradientUnits="userSpaceOnUse"><stop stop-color="#0FA8E0" offset="0.0592"></stop><stop stop-color="#0099F9" offset="0.5385"></stop><stop stop-color="#0291EB" offset="0.9234"></stop></linearGradient><linearGradient id="f" x1="2.8609" x2="1.9219" y1="10.437" y2="5.9444" gradientTransform="matrix(2.8737, 0, 0, 4.7565, -0.317029, -0.348109)" gradientUnits="userSpaceOnUse"><stop stop-color="#F2E913" offset="0.1444"></stop><stop stop-color="#E7E518" offset="0.3037"></stop><stop stop-color="#CADB26" offset="0.5823"></stop><stop stop-color="#A3CD39" offset="0.891"></stop></linearGradient><linearGradient id="a" x1="1.8315" x2="2.9828" y1="6.695" y2="2.1176" gradientTransform="matrix(2.9905, 0, 0, 4.5708, -0.317029, -0.348109)" gradientUnits="userSpaceOnUse"><stop stop-color="#A3CD39" offset="0.0698"></stop><stop stop-color="#81C55F" offset="0.2599"></stop><stop stop-color="#0FA8E0" offset="0.9216"></stop></linearGradient><linearGradient id="b" x1="2.0994" x2="6.483" y1="16.889" y2="17.961" gradientTransform="matrix(4.5708, 0, 0, 2.9905, -0.317029, -0.348109)" gradientUnits="userSpaceOnUse"><stop stop-color="#F2E913" offset="0.1324"></stop><stop stop-color="#EBE716" offset="0.2977"></stop><stop stop-color="#D9E01F" offset="0.5306"></stop><stop stop-color="#BBD62D" offset="0.8023"></stop><stop stop-color="#A3CD39" offset="0.9829"></stop></linearGradient><linearGradient id="c" x1="5.8242" x2="9.626" y1="1.6952" y2="2.3792" gradientTransform="matrix(4.8418, 0, 0, 2.8231, -0.317029, -0.348109)" gradientUnits="userSpaceOnUse"><stop stop-color="#0291EB" offset="0.0566"></stop><stop stop-color="#0C8ACB" offset="0.79"></stop></linearGradient></defs><path d="M 52.477 11.542 C 53.862 13.33 55.016 15.292 55.997 17.369 L 29.34 37.044 L 18.147 30.005 L 18.147 21.581 L 29.283 28.562 L 52.477 11.542 Z" fill="#21a038"></path><path d="M 6.78 29.422 C 6.78 29.018 6.78 28.671 6.838 28.268 L 0.087 27.921 C 0.087 28.383 0.03 28.902 0.03 29.364 C 0.03 37.442 3.318 44.769 8.627 50.078 L 13.416 45.289 C 9.319 41.25 6.78 35.653 6.78 29.422 Z" fill="url(#f)"></path><path d="M 29.282 6.922 C 29.686 6.922 30.032 6.922 30.436 6.979 L 30.783 0.229 C 30.321 0.229 29.802 0.171 29.34 0.171 C 21.262 0.171 13.935 3.46 8.626 8.768 L 13.415 13.557 C 17.454 9.46 23.108 6.921 29.282 6.921 L 29.282 6.922 Z" fill="url(#e)"></path><path d="M 29.282 51.932 C 28.878 51.932 28.532 51.932 28.128 51.874 L 27.782 58.625 C 28.244 58.625 28.763 58.682 29.225 58.682 C 37.302 58.682 44.63 55.393 49.939 50.085 L 45.15 45.296 C 41.111 49.451 35.514 51.932 29.283 51.932 L 29.282 51.932 Z" fill="url(#d)"></path><path d="M 41.976 10.852 L 47.688 6.64 C 42.669 2.601 36.264 0.12 29.282 0.12 L 29.282 6.87 C 34.014 6.928 38.399 8.371 41.976 10.852 Z" fill="url(#c)"></path><path d="M 58.592 29.422 C 58.592 27.633 58.419 25.902 58.131 24.171 L 51.842 28.845 L 51.842 29.422 C 51.842 36.057 48.957 42 44.399 46.097 L 48.957 51.116 C 54.842 45.808 58.592 38.019 58.592 29.421 L 58.592 29.422 Z" fill="#21a038"></path><path d="M 29.282 51.932 C 22.647 51.932 16.704 49.047 12.607 44.488 L 7.588 49.047 C 12.954 54.99 20.685 58.682 29.283 58.682 L 29.282 51.932 Z" fill="url(#b)"></path><path d="M 14.223 12.752 L 9.665 7.732 C 3.722 13.098 0.03 20.829 0.03 29.426 L 6.78 29.426 C 6.78 22.848 9.665 16.848 14.223 12.751 L 14.223 12.752 Z" fill="url(#a)"></path>
</svg>
