<svg xmlns="http://www.w3.org/2000/svg" viewBox="0 0 500 500">
  <path fill="#FEFEFE" d="M139.328 95.341c5.074-1.659 9.452-7.004 14.592-8.172 82.191-18.695 172.069 28.034 222.784 92.308 24.465 31.006 36.484 69.354 40.612 104.097 5.962 50.171-9.046 98.195-70.72 131.032-63.044 0-72.945 9.994-86.522 2.695-22.639-12.17-.819 4.212-39.846.953-15.834-11.145-27.438-12.974-55.223-29.022-34.815-20.109-61.488-54.759-75.696-96.632-10.131-29.858-13.943-86.744 1.77-129.143 5.191-14.007 6.15-30.859 15.484-40.894 9.468-10.18 27.312-13.538 32.765-27.222Z"></path>
  <path fill="#050505" d="M141.867 80.611c.67-.003 1.34-.006 2.03-.009 2.2-.008 4.41-.003 6.61.003 1.56-.001 3.11-.003 4.67-.005 3.26-.002 6.53.001 9.79.009 4.12.011 8.24.005 12.37-.006 42.57-.091 42.57-.091 61.69 4.475.92.203 1.84.405 2.79.614 14.8 3.4 28.49 8.916 42.15 14.938l4.62 2.025c3.74 1.639 7.47 3.289 11.19 4.946 1.82.807 3.64 1.612 5.45 2.415 10.62 4.716 20.43 9.48 29.55 16.309.57.42 1.15.84 1.74 1.273 7 5.132 13.54 10.267 19.26 16.564l3.63 3.717c12.27 12.658 23.13 26.309 33.33 40.331 1.69 2.322 3.39 4.521 5.29 6.716 4.45 5.238 5.74 10.5 7.11 16.823.21.941.43 1.882.64 2.851.45 1.984.89 3.967 1.33 5.952.85 3.792 1.72 7.578 2.6 11.365.86 3.734 1.71 7.47 2.55 11.206.43 1.883.86 3.765 1.3 5.647 9.73 42.32 16.78 90.644-10.78 129.051-13.4 17.773-39.46 39.181-64 43.699-1.74.076-3.49.106-5.23.102-1.04 0-2.08-.001-3.15-.001-1.12-.004-2.24-.009-3.39-.013-1.72-.002-1.72-.002-3.48-.005-3.66-.004-7.33-.016-11-.027-2.49-.004-4.97-.008-7.46-.012-6.1-.01-12.19-.025-18.29-.044-.5 1.965-.99 3.931-1.48 5.898-.41 1.643-.41 1.643-.83 3.318-3.82 18.181 5.09 37.043 11.62 53.976 1.98 5.488 1.76 10.408 1.69 16.181h-15c-.22-3.201-.22-3.201-.44-6.466-.89-8.965-4.03-17.23-7.29-25.707-3.5-9.13-5.65-17.353-5.58-27.022v-2.46c.1-6.24 1-11.793 3.31-17.718-4.97-1.163-9.91-1.025-15-1.003-.95.002-1.89.004-2.87.005-4.9.027-9.75.151-14.63.552-14.21 1.089-27.51 1.998-40.5-4.013-.88-.366-1.76-.733-2.67-1.111-8.14-3.615-15.14-8.678-22.33-13.586-7.43-5.038-15.01-9.819-23-14.12-13.67-7.394-22.55-18.328-31.46-29.977-2.69-3.502-5.54-6.869-8.48-10.211-26.21-30.026-33.28-58.452-33.37-95.983-.01-1.014-.01-2.027-.01-3.072-.01-16.364.76-32.616 2.13-48.932.08-1 .17-1.999.25-3.029.89-10.551 2.02-21.066 3.47-31.568.12-.873.24-1.746.36-2.645 2.94-20.426 11.87-38.666 28.11-53.447.64-.603 1.28-1.206 1.94-1.829 7.18-6.249 16.25-10.108 25.06-14.223v-.892c-.54.145-1.07.29-1.62.438-2.88.549-5.56.571-8.51.565-1.58.004-1.58.004-3.19.007-2.68-.118-2.68-.118-4.68-1.01.36-5.626.36-5.626 3.12-8.305 5.44-2.845 10.74-3.512 16.97-3.52Zm-.41 14.357c-1.78 2.045-3.21 4.149-4.68 6.386-5.88 8.604-14.84 15.738-23.5 22.129-13.5 10.256-17.01 26.163-18.5 41.191-.15 2.731-.21 5.46-.25 8.194l-.09 4.701c-.02.808-.03 1.616-.05 2.448-.32 16.244-1.05 32.355-3.14 48.506-4.37 34.73-3.92 69.021 17.53 99.355.53.774 1.06 1.548 1.6 2.345 5.3 7.625 11.09 14.983 16.81 22.357 1.43 1.852 2.85 3.712 4.26 5.575 6.88 8.958 14.35 16.709 24.7 22.55.6.341 1.2.681 1.83 1.033 7.12 4 14.36 7.822 21.61 11.634 1.41.745 2.83 1.49 4.24 2.234 3.38 1.786 6.77 3.568 10.15 5.35 2.53 1.329 5.06 2.661 7.58 3.992 1.53.806 3.06 1.61 4.59 2.415.67.352 1.34.704 2.03 1.067 5.43 2.845 8.78 3.393 15.05 3.336.85-.003 1.71-.007 2.58-.01 3.65-.015 7.29-.04 10.93-.064 26.51-.164 26.51-.164 37.04 1.802 10.49.971 21.07 1.027 31.61 1.098 1.45.011 2.9.026 4.35.047 26.57.347 51.72-11.288 72.04-26.116.7-.502 1.4-1.005 2.12-1.523 15.31-12.22 20.62-32.013 23.88-49.312.18-.849.36-1.699.54-2.574 2-10.512 1.86-21.071 1.83-31.705v-3.057c-.06-24.632-3.54-47.562-10.37-71.467-.44-1.608-.88-3.218-1.32-4.828-5.84-21.052-17.86-36.577-33.23-53.155-2.87-3.113-5.69-6.257-8.51-9.405-.52-.576-1.04-1.151-1.57-1.744-2.18-2.424-4.34-4.853-6.46-7.318-17.83-20.635-41.25-32.579-67.39-43.374-5.41-2.264-10.52-4.757-15.58-7.596-9.02-4.987-18.1-7.194-28.38-9.141-.73-.142-1.46-.283-2.21-.43-17.23-3.038-34.79-3.317-52.29-3.258-3.41.009-6.84 0-10.26-.011-2.2.001-4.4.003-6.6.006-1.52-.005-1.52-.005-3.06-.011-8.55.051-15.44.527-21.46 6.348Z"></path>
  <path fill="#070707" d="M243.507 318.45c.67-.001 1.32-.002 2-.003 16.5.012 32.9 1.427 49.33 2.799 1.42.118 1.42.118 2.86.238.92.078 1.83.155 2.79.234 9.06.74 18.13 1.172 27.21 1.525-1.57 2.994-2.75 4.524-6 6.243-5.42 1.677-10.13 2.028-15.84 1.972-1.29-.002-1.29-.002-2.6-.003-2.82-.006-5.65-.025-8.48-.042-1.98-.006-3.96-.01-5.96-.015-5.21-.011-10.44-.033-15.68-.058-8.32-.038-16.63-.065-24.95-.085-2.88-.009-5.76-.024-8.63-.04-11.67-.048-23.23.282-34.86.947-.18-5.107-.18-5.107 1.44-7.302 10.31-6.503 25.27-6.422 37.37-6.41Z"></path>
  <path fill="#040404" d="M177.447 195.099c1.07.496 2.14.993 3.25 1.505.73.298 1.43.596 2.18.902 3.05 2.957 2.37 6.39 2.26 10.246 0 .774.01 1.547.02 2.344-.07 5.677-.07 5.677-1.78 7.642-4.64 3.22-10.68 3.189-16.31 3.168-1.26.005-2.54.009-3.85.014-3.33-.224-5.58-.635-8.52-2.02-2.45-4.382-1.69-10.928-.38-15.573 1.99-4.086 4.88-6.511 9.24-8.646 4.94-1.731 8.89-1.141 13.89.418Z"></path>
  <path fill="#050505" d="M280.817 183.077c2.02 1.117 3.44 2.033 4.88 3.717.95 5.231-.07 10.217-2 15.161-6.08.731-12.17 1.029-18.31 1.115-1.02.028-1.02.028-2.07.058-4.37.026-7.24-.425-10.62-2.957-1.76-3.835-1.29-7.997.12-11.872 1.56-3.207 3.52-4.984 6.88-6.856 7.3-2.168 14.31-1.286 21.12 1.634Z"></path>
  <path fill="#863633" d="M225.625 261.136c1-.003 1-.003 2.02-.005 2.22-.002 4.44.004 6.65.012.77.002 1.53.003 2.31.005 12.04.029 24.08.176 36.12.44 1.71.037 3.41.071 5.12.102 2.41.045 4.81.103 7.22.164.71.012 1.41.023 2.14.035 4.57.136 8.49 1.039 12.84 2.379 4.99.445 4.99.445 9.44-1.5 3.49-2.041 6.66-2.214 10.56-1.5 2.03 1.302 4.02 2.64 6 4 1.8.482 3.62.916 5.44 1.313 5.59 1.382 9.35 3.852 12.56 8.687 0 .99 1.32 3 2 3 7.6 14.469 12.1 27.619 7 44-.23.8-.46 1.599-.7 2.422-3.52 10.359-10.88 17.397-20.3 22.578-2.95 1.451-5.94 2.722-9 3.938-.84.339-1.7.678-2.57 1.028-10.52 4.041-21.43 6.655-32.43 9.034-.81.194-1.61.388-2.45.587-9.43 2.042-19.06 1.937-28.67 1.976-.93.005-1.86.011-2.81.017-15.76.033-33.49-.531-47.07-9.58-.22.908-.45 1.815-.68 2.75-1.58 3.897-2.64 5.217-6.32 7.25-3.11.609-5.92.654-9.02 0-4-3.007-6.1-6.362-8-11-.5-3.328-.6-6.638-.7-10 0-.923 0-1.846-.1-2.797-.2-7.401-.3-14.799-.2-22.203-.6-.297-1.2-.595-1.9-.902-2.7-1.419-3.7-2.339-5.1-5.098-.9-4.197-.9-7.543 1.4-11.257 3.1-3.617 6.2-6.794 10.6-8.743h3c.3-.736.6-1.472.9-2.23 5-11.895 14.42-20.936 25.12-27.77 3.41-1.133 6-1.129 9.58-1.132Z"></path>
  <path fill="#FDF7F4" d="m326.845 289.662 2 2c-.37 2.125-.37 2.125-1 4-13.65 4.312-27.85 3.287-42 3l1-2c2.65-.737 5.26-1.367 7.94-1.937 4.87-1.071 9.61-2.165 14.31-3.813 5.75-1.811 11.8-1.917 17.75-1.25Z"></path>
  <path fill="#fff" stroke="#fff" d="M205.785 315.809c14.17-2.024 28.38-2.162 42.78-2.162h11.27c1.01 0 3.35-.334 4.33.155 1.18.592 4.18.637 5.09 1.544 3.48 3.483 12.84 5.096 18.69 5.096 12.55 0 26.66 1.2 38.14-2.625 2.08-.694 8.67-1.457 7.41 2.316-.95 2.868-4.41 3.329-6.02 4.942-4.95 4.945-12.39 8.37-21.46 9.883-13.42 2.236-25.45 6.305-38.61 8.185-2.66.379-5.25-.309-7.88-.309-9.31 0-18.08-1.145-27.48-1.699-3.38-.198-6.46-1.401-9.73-1.698-.57-.052-3.34-.244-3.71-.618-1.88-1.879-5.16-5.191-6.95-7.876-2.35-3.527-3.96-6.776-5.25-10.655-.16-.492-.21-3.707.16-3.707m14.802-24.897c0-1.406 1.478-3.765 1.998-4.798 2.16-4.311 7.16-3.86 12.5-3.86 1.94 0 6.24-.006 7.35 1.103.17.171.71 1.682.37 2.022-1.09 1.09-3.69 1.566-5.33 2.389-2.42 1.21-6.09-.262-8.46.919-1.02.509-2.6.193-3.67.551-1.86.62-3 1.838-4.78 1.838"></path>
  <path fill="#070707" d="M245.985 319.412c.67-.001 1.32-.002 2-.003 16.5.012 32.9 1.427 49.33 2.799 1.42.118 1.42.118 2.86.238.92.078 1.83.155 2.79.234 9.06.74 17.692.734 26.772 1.087-1.57 2.994-4.797 4.377-8.047 6.096-5.42 1.677-7.645 2.613-13.355 2.557-1.29-.002-1.29-.002-2.6-.003-2.82-.006-5.65-.025-8.48-.042-1.98-.006-3.96-.01-5.96-.015-5.21-.011-10.44-.033-15.68-.058-8.32-.038-16.63-.065-24.95-.085-2.88-.009-5.76-.024-8.63-.04-11.67-.048-30.768-.222-30.768-.222.679-.17-3.398-4.157-2.652-6.133 10.31-6.503 25.27-6.422 37.37-6.41Z"></path>
</svg>