<svg xmlns="http://www.w3.org/2000/svg" viewBox="0 0 500 500"><path fill="#010101" d="M13 323c164 0 164-90 333-90-1 64 62 91 52 111-4 8 4 14 11 19 1 2 7 1 8 3 20 28 73 57 79 137H0c-7-76 2-72-2-76-2-2 1-74 2-90 1-9 13-11 13-14Z" style="stroke-width:1"></path><path fill="#FCFDFC" d="m266 19 3 1 5 3 11 4 3 1v2c24 7 24 7 32 16l2 1 7 6 7 7 4 13c1 4 2 5 5 7l1 3c6 5 12 7 13 15v3h3l2 1 2 6 3 2c3 3 6 3 6 8l1 4c5 5 6 9 4 16v2c0 3 3 1 4 4l1 2 2 9v4l1 2c2 7 5 12 9 18 5 10 5 19 5 30 1 7 1 12 6 17v14a2661 2661 0 0 1 0 17c0 17-1 34-4 51l-1 4-3 10-2 5a211 211 0 0 1-10 26c-1 4-1 4-3 5v4l-4 9-17 25c-1 1 2 1 2 1l19-23 3-3h4c0 16-2 31-4 47l-6 3a1624 1624 0 0 1-3-11l-3-7-6-3v-2h-2l-19-3a2943 2943 0 0 1-75 2h-7l-1-1-25-3c-16 0-81-16-93-21l-9-4-18-8-3-2-4-1-3-2-3-3-4-2c-6-2-8-7-13-12-3-3-9-5-13-6l-8-6-2-2-2-1c-3-2-4-5-6-8v-2h-4v-6l-1-3c0-4-2-7-4-10l-1-8c-4-16-4-16-11-31l-2-9-1-2c-2-3-2-6-2-10a90252 90252 0 0 1 0-19v-4c0-4-11-3-4-7 0-8 2-15 5-22l4-16 4-10 1-5v-5l1-6v-3l2-6h2v-4c1-8 4-16 9-22h3l1-3 9-9 6-8c2-4 4-6 9-8 4-5 8-9 10-15l6-8h3v-2c2-4 4-5 8-7l2-5 7-4c3 0 3 0 5-3l2-2h4v-3h2c3-1 3-1 5-4 9-6 18-9 29-9h3a801 801 0 0 1 22 0h3c6 0 11 1 17 3l11 2-26 2c1 0-25-14-23-14 0-1 56 10 55 8h-10l-51-1-5-5c6-2 18-2 33-2 12 0 25-1 37 1 14 2 25 7 31 10Z" style="stroke-width:1"></path><path fill="#F8F9F8" d="m20 270 5 1 2 5 5 12 3 1 3 6 3 3 4 11h3c4 1 5 2 7 5 6 8 13 14 20 19 4 2 4 2 6 5 4 4 7 6 12 8v2l3 1 10 6 8 4 6 3c9 5 17 9 27 12l10 4c6 2 31 8 36 11l15 3v4l-4 1c-16-1-30 28-15 44-1 3 27 8 32 4-1 6-4 9-8 13-6 4-9 5-16 4l-12-15a103 103 0 0 0-18-15l-18-13-2-1-3-1a316 316 0 0 0-40-21c-13-6-13-6-18-11-2-2-4-2-7-3l-15-8-11-6c-6-3-12-6-17-11L0 337v-19c0-9 0-16 5-23l4-4 1-4h2l1-4h3l1-4 3-9Z" style="stroke-width:1"></path><path fill="#F7F7F7" d="M263 431h4c5 0 6 1 9 4l1 6v37l-1 23c-5 2-10-3-15-7l-7-6-2-6-1-3-4-5c-3-1-23-24-17-33 4-4 10-5 15-7l6-2 12-1Z" style="stroke-width:1"></path><path d="m383 124 6 1 4 8c1 5 4 8 8 10l3 7 1 4c3 9 3 17 3 26l1 6v9c0 11 1 20 5 30 2 7 2 13 1 20v22c-1 17-2 33-6 49l-3 14-2 6-1 12v5c0 4 1 5 4 8l-2-1-7-2-1-17-6 7-1 3-1 2-1-5 3-6c4-7 7-14 8-22l2-6 3-13v-3c3-14 3-29 3-43v-21c0-5 0-8-4-13l-1-8a17399 17399 0 0 1-1-10c0-11-3-21-9-31-3-4-13-32-13-36v-6l3 1v5l2 6 1-5 6 2-3-6-1-3-4-3v-3Z" style="stroke-width:1"></path><path fill="#F5F5F5" d="m297 433 3 1 13 5 15 6 2 5c-2 4-41 54-50 51v-64l12-2 5-2Z" style="stroke-width:1"></path><path d="M139 79h3c8 0 20 9 22 11 4 4 7 7 12 9a80 80 0 0 1 16 19c4 8 4 19 1 27-2 5-16 22-20 25l-4 5c-4 4-8 5-13 6l-3 1c-14 3-33 4-47-2-12-9-23-18-27-33a79 79 0 0 1-1-14c0-8 2-12 6-18l2-4 4-6c14-14 24-11 19-8-3 2-34 39-23 54 1 12 35 33 50 29h3c10 1 47-21 48-33 13-11-16-51-27-52-7-7-13-8-23-8h-3c-11 0-17 4-26 10-3 3-6 4-11 5 3-7 6-10 12-13l3-2c4-2 22-8 27-8ZM320 92c4 4 12 20 13 23l2 2c1 3 6 15 6 21v4c-1 10-8 19-15 25-12 9-35 13-43 13h-4a74 74 0 0 1-39-15l-3-1c-4-4-6-6-8-11-8-8 41-90 91-61Zm-32 0c-19-2-56 44-52 62l6 7 2 3 16 8 21 3h4c17-1 30-5 43-16 3-3 4-5 5-9l2-3c4-8-11-37-13-39l-1-3-1-3c-1-4-3-6-7-9-6-3-23-4-25-1ZM29 245l3 1v4h3v3l1 4 1 4c1 5 3 8 6 11l3 9 3 10a93 93 0 0 1 0 9v2h-2l2 5 5 1v-10l2 6v3c0 1 2 6 4 6l4 4 10 11 2 2 6 3 6 3v3l2 1 11 7 23 13c6 4 13 6 19 9l11 4 4 1 6 3 7 2h3l3 1 13 4 13 3 4 1h4a3013 3013 0 0 1 19 3h6l30 3v2h-8l-6-1-21-1h-4l-3-1-9-1v4c-9 3-9 3-13 1l6-3c-3-3-6-2-10-3l-7-2-40-12-12-5c-19-7-19-7-26-13l-8-4-7-3-3-2c-1-1-16-10-17-14l-4-3c-7-5-14-11-19-18l-4-2-2-3c-4 0-4 0-5-4l-2-4-14-20-1-7c4 4 5 8 5 10h3l-1-2-2-12-1-5-3-20 1-1Z" style="stroke-width:1"></path><path d="M23 249c-1-6 5-50 6-50l1 7 5 1v3a1638 1638 0 0 0 0 24v4l4 10 2 5c0 4 0 4 3 8l4 14 2 5 5 32-1-3-3-1c-3-1-3-1-4-4v-2h2c-1-7-2-13-5-20l-4-12-3-5-6-19h-2a516 516 0 0 0 3 22l3 9v8h-3l-3-4-1-2-4-8h-4v3l-2 3-1 3-4 7-3 4-5 7-1 3-3 4-1-8c1 0 14-22 16-22l2-6 1-3h3c2-3 2-6 2-10v-2l-1-5ZM341 76c-1-1-8-17-19-26-10-10-26-16-27-19l4-2c1 1 16 6 28 18 15 15 28 37 29 39l1 3c1 3 1 3 6 3V82c3 3 2 4 3 8 0 6 2 8 6 12l7 13 4 7v5l4 1 3 5 1 3 1 3-7-2v9c-3-4-3-7-4-12l-6-12c-1-1-30-37-32-43l-2-3ZM411 226h3l1 9v14a267 267 0 0 1-9 81l-2 6-1 12v5c0 4 2 7 5 10-4 1-2-2-3-3l-9-2c-1-5 2-11 1-17l-6 7-1 3-1 2-1-5 3-6c4-7 7-14 8-22l2-6 3-13v-3l2-18 2-5 2-36v-7l1-6Z" style="stroke-width:1"></path><path d="M124 27c1 1 5-1 6 1l-19 20-51 60c-6 6-16 48-18 54l-4 12-3 13c-2 4-2 9-2 15l-1 3-4 1v-7l3-21c0-4 1-7 3-11 2-5 2-11 3-17l1-3c0-4 9-22 10-29a738 738 0 0 1 76-91Z" style="stroke-width:1"></path><path fill="#0E0E0E" d="m286 117 8 8a92 92 0 0 1 1 10l-3 6c-6 3-13 3-20 2-3-2-3-2-5-6l-2-3v-10c5-5 14-10 21-7Z" style="stroke-width:1"></path><path d="m269 278 1 6c-1 0-67 4-84 2-2-1-1-5-1-5 3-2 6-2 10-2h9a1974 1974 0 0 0 17 0h13l35-1Z" style="stroke-width:1"></path><path fill="#0E0E0E" d="m150 120 6 4c1 6 0 10-2 14-6 5-10 6-17 6l-6-2c-3-4-2-6-2-11 4-10 10-13 21-11Z" style="stroke-width:1"></path><path d="M187 6h46c5 0 29 9 31 10v1h-3l-28-8-17 1-14-1h-13a946 946 0 0 1-12 0h-4c-3 0-3 0-6 3l25 2c1 0 4-2 6-1l35 3c9 4-26 2-30 0h-36c-11 0-18 3-27 9-1 2-16 13-22 12v-5c6-6 13-7 19-13 2-3 36-16 50-13Z" style="stroke-width:1"></path><path d="m29 245 3 1c0 2 2 4 3 4v3l7 22c2 6 2 11 2 18-4-2-6-4-8-9l-6-21-1-3c-2-10-2-10 0-15Z" style="stroke-width:1;fill:#fff"></path><path d="m276 435 13 1v1h-9v64h-4v-66Z" style="stroke-width:1"></path><path d="M388 140c4 3 6 4 9 9l1 3a4983 4983 0 0 1 6 23v5l-4-1-5-13-1-1a3132 3132 0 0 1-6-25Z" style="stroke-width:1;fill:#fff"></path><path d="M261 15c6 1 11 2 16 5l8 3 15 7-2 2 3 3c-4 0-7-2-11-3l-3-1-18-10-4-2c-3-1-3-1-4-4Z" style="stroke-width:1"></path><path d="M263 431h4c5 0 6 1 9 4l1 6v37l-1 23h-1l-1-65c-8-4-20-1-28 0 5-5 10-5 17-5Z" style="stroke-width:1;fill:#292929"></path><path fill="#070707" d="M28 266h2l2 14-4-3c-2-7-2-7 0-11Z" style="stroke-width:1"></path><path d="M267 442h5v7l-6-1 1-6ZM267 474h5v6h-5v-6Z" style="stroke-width:1"></path></svg>