<svg xmlns="http://www.w3.org/2000/svg" viewBox="0 0 500 500"><path fill="#fff" d="M474 345c0-229-189-372-339-258A313 313 0 0 0 21 345c4 129 84 157 92 158 37 1 259 6 342-4 2 0 19-47 19-154Z" transform-origin="247.218px 268.437px"></path><path d="m290 46 16 7 15 8 4 3c17 9 32 19 47 30 11 6 40 42 41 43l4 6c3 5 6 7 10 17 1 2 27 39 32 53l5 12c7 11 9 27 11 40l7 20c6 13 9 27 9 40 2 12 1 24 1 36l1 9c0 25-1 47-11 71l-6 17-1 2-9 39-1 4h-21l1-6 2-19 12-36 1-2 6-21 1-2c4-16 3-34 3-51v-34c0-3-4-28-7-37-6-13-9-27-12-41-2-12-6-21-11-30-3-5-4-11-6-16l-13-18-8-13-11-17-8-12-1-2c-4-5-27-31-33-34l-5-3-3-2-11-8-7-4-7-5c-16-10-33-19-51-26a83 83 0 0 0-56-9l-21 2c-9 1-17 3-25 7l-6 2-16 11-17 17c-1 3-14 15-15 18l-11 10-11 10-22 23c-8 10-14 21-20 32l-11 18c-4 9-6 18-8 27l-7 26c-5 13-8 27-9 41v4l-1 3c0 7 1 13 3 18l1 3 5 12 4 14 2 11 2 8 1 7 1 4 2 8 1 3 5 14 4 12c5 13 11 25 22 34l18 17 5 6 4 4 2 1 19 20v1h-17c-11 1-11 1-15-2l-14-15c-4-4-40-50-45-64l-4-8-1-3-2-5c-4-11-6-21-8-31l-3-11-2-10-4-13-1-5-2-8-1-13v-28c0-6 0-10 2-14l2-9 4-16c4-11 7-23 9-35l1-2c0-4 2-7 4-10l14-25c17-27 39-52 62-74l22-23c2-2 32-31 44-36 6-3 12-4 17-4l4-1 3-1 3-1h8l22-3c24-4 45 3 67 13Z" transform-origin="247.218px 268.437px"></path><path d="m167 162 8 2c14 3 29 12 38 24 14 22 18 44 14 69-1 4-2 6-5 9l-1 2a83 83 0 0 1-52 32c-22 4-45 2-65-7-14-4-26-14-31-28l-1-2c-3-5-4-10-5-15l-1-4v-3l-1-3v-8l1-3c2-9 7-16 13-24l6-8 2-2 2-5a338 338 0 0 1 24-20c18-10 35-13 54-6Zm-50 21-5 3c-4 2-12 12-13 12-9 9-14 20-16 31l-1 2c-2 10 3 18 6 26l2 3c8 13 25 20 41 24 3 2 41 5 54-7l4-2c12-6 19-16 24-28 1-4 2-7 1-11v-3c0-8-2-17-8-25l-4-7c-5-10-13-14-22-20l-3-1c-18-11-43-9-60 3Z" transform-origin="247.218px 268.437px"></path><path d="M177 198c9 8 18 19 20 31 0 12-6 22-14 31l-10 7-8 6c-6 4-14 5-22 4-7-2-13-5-20-9l-2-1c-4-3-11-12-11-13l-13-14c-2-2-1-7-1-10 0-5 1-8 4-12 1-1 13-16 18-19l3-2c18-11 39-11 56 1Zm221-18 11 15 4 6 3 6 2 3c6 9 13 21 11 32-4 18-13 31-26 43l-5 5c-3 4-7 5-12 6l-2 1c-16 5-36 7-53 2l-10-2c-12-1-20-4-30-12l-6-4-8-8-2-3-5-8c-1-4-1-4-4-7-1-8 0-13 4-20l19-24 4-4c17-20 41-31 66-35h3c13-2 24-1 36 8Zm3 28c-4-23-46-21-51-20-28 4-48 27-47 28l-11 12c-1 4-3 7-6 11-3 6-4 11-3 17l7 8 2 2c6 6 13 9 19 13l2 1c7 4 13 4 20 4h4c32 1 32 1 58-12l4-5 9-9c5-4 6-7 7-13 1-5-13-31-14-37Z" transform-origin="247.218px 268.437px"></path><path d="m373 198 6 5 3 2c6 6 10 13 13 20l2 2c9 10-14 39-15 40l-21 7-3 1c-11 3-22-2-32-6-5-4-10-9-14-15l-2-2c-6-8-10-16-9-26 2-8 9-14 16-20l2-1c4-4 9-6 16-8l2-1c13-3 26-7 36 2Zm22 160c1 6-1 10-5 14-5 4-11 7-17 9l-4 3-42 11c-11 4-23 4-35 5l-12 1c-12 3-25 3-38 0-5-2-10-2-15-2l-22-1-29-4h-7c-18-1-29-6-32-8-2-5-2-7-2-12 2-3 2-3 5-4l8 1c9 2 19 2 29 3l26 4c11 2 23 3 34 2h2l27 2c13 1 27 0 40-3a742 742 0 0 0 89-21Z" transform-origin="247.218px 268.437px"></path></svg>