<svg xmlns="http://www.w3.org/2000/svg" viewBox="0 0 500 500">
  <path fill="#FAFAFA" d="M126.485 91.393c205.205-.005 76.587-13.198 262.318 14.731 31.148 18.374 35.431 24.179 48.988 34.763 6.221 4.858 3.014 22.98 12.022 38.262 5.642 9.571 24.445 8.458 27.419 31.934 2.994 23.633-13.21 58.308-20.481 91.915-4.026 18.605-.879 37.937-.743 52.379.147 15.625-.361 31.656 2.497 44.36 4.24 18.855 5.888 35.481-6.754 58.179-18.252 15.224-13.223 14.681-41.469 22.021-47.436 12.324-133.967-5.683-215.198-43.465-22.269-10.357-46.416-18.444-66.502-32.334-32.868-22.727-54.56-55.012-77.052-84.971-15.695-20.906-34.605-37.014-41.6-61.371 0-50.795 20.853-57.733 34.938-73.379 15.054-16.72 23.779-40.857 36.145-57.618 3.829-5.188 10.895-6.918 13.016-14.985 4.259-16.21 20.49-10.899 32.456-20.421Z"></path>
  <path fill="#080808" d="M91.69 226.736c1.711.59 3.421 1.178 5.183 1.784.413 1.069.824 2.139 1.248 3.239 3.426 6.048 9.113 8.058 15.054 10.921 1.887.937 1.887.937 3.811 1.891 2.517 1.245 5.04 2.48 7.566 3.703 2.782 1.349 5.549 2.729 8.312 4.12 27.325 13.442 56.244 21.975 85.377 30.089 3.956 1.122 7.89 2.289 11.814 3.52 45.42 14.197 108.612 23.853 152.034.605 13.365-7.849 20.902-14.375 25.694-29.545.926-4.812 1.381-9.364 1.728-14.271h5.182c.695 2.868.695 2.868 1.404 5.798 1.551 6.455 1.551 6.455 4.64 10.033 8.868 12.974 6.632 32.298 6.592 47.516-.005 4.314.035 8.626.079 12.94.057 14.628-.33 27.713-5.807 41.451-.75 2-.75 2-1.515 4.037-4.666 11.823-12.705 17.912-23.764 23.056-16.913 6.211-34.595 6.992-52.378 8.169-3.635.219-3.635.219-6.979 2.202-4.6.176-9.155.249-13.757.237-1.364.001-2.726.001-4.131.003-2.885.001-5.768-.002-8.655-.007-4.415-.011-8.832 0-13.248.008-2.799 0-5.603-.001-8.403-.004-1.984.004-1.984.004-4.007.011-5.512-.026-9.895-.221-15.162-2.032-2.635-.241-5.278-.402-7.921-.517-41.879-2.373-76.312-15.758-109.535-42.298-1.475-1.138-2.951-2.276-4.471-3.45-18.845-14.903-32.376-33.57-45.62-53.636-1.187-1.78-2.374-3.561-3.597-5.394-5.689-8.834-10.01-17.046-12.797-27.289-.638-3.029-.638-3.029-2.606-4.779-2.902-.416-5.823-.737-8.743-1.005-1.587-.149-3.175-.297-4.81-.452-1.841-.162-1.841-.162-3.721-.327.857-2.649.857-2.649 1.729-5.353 3.266-1.456 3.266-1.456 7.341-2.787 9.142-3.809 11.722-9.452 15.499-18.534.665-1.81.665-1.81 1.34-3.653Z"></path>
  <path fill="#101010" d="M166.253 85.545c3.237-.015 3.237-.015 6.541-.034 2.356-.001 4.714-.004 7.069-.005 2.442-.004 4.884-.012 7.324-.018 5.129-.009 10.257-.015 15.386-.015 6.492.004 12.982-.021 19.475-.052 5.053-.022 10.106-.023 15.16-.023 2.389-.003 4.775-.009 7.162-.024 15.29-.082 30.017.985 45.13 3.168 7.685 1.063 15.326 1.54 23.068 1.835 13.593.553 13.593.553 17.488 2.565 2.78.306 5.57.538 8.361.731 35.161 3.08 76.262 13.279 100.458 42.083 5.963 8.102 7.329 14.12 8.635 24.195 1.458 11.063 3.322 18.002 12.241 25.025 2.599 1.967 5.252 3.883 7.938 5.727 8.605 8.438 12.995 17.795 13.846 30.032.054 3.598.044 7.198-.021 10.794-.011 1.885-.032 3.767-.053 5.707-.464 15.79-3.689 27.509-11.497 41.234-.69 1.285-1.391 2.571-2.104 3.896-1.585 2.876-3.191 5.734-4.798 8.591-4.11 9.799-3.958 18.983-3.915 29.462-.011 1.803-.011 3.608-.011 5.466 0 3.808 0 7.618.011 11.426.022 5.783 0 11.565-.022 17.346.011 3.714.011 7.427.022 11.142-.011 2.561-.011 2.561-.022 5.178.066 9.768.993 18.765 3.128 28.287 3.397 17.249 3.893 39.054-5.414 54.219-.798 1.113-1.599 2.231-2.42 3.381-1.175 1.876-2.351 3.752-3.561 5.684-13.715 15.626-37.302 24.428-57.196 25.632-6.702.253-13.392.277-20.101.236-1.42.001-2.842.001-4.307.001-32.277-.098-62.095-6.452-92.824-16.578-6.511-2.095-12.802-3.131-19.569-3.994-11.961-1.764-21.498-6.192-32.169-11.875-3.766-1.935-7.532-3.87-11.303-5.804-1.863-.97-3.726-1.939-5.648-2.941-8.296-4.296-16.664-8.43-25.041-12.55-2.085-1.04-2.085-1.04-4.209-2.098-7.474-3.696-14.994-7.106-22.68-10.313-10.642-4.536-20.647-9.931-30.654-15.796-1.737-1.02-3.477-2.038-5.269-3.086-12.082-7.229-21.892-14.678-31.65-25.011-2.688-2.355-5.388-4.696-8.096-7.026-9.836-9.105-17.076-19.341-22.57-31.755-6.562-14.82-13.234-25.367-24.826-36.494-15.187-14.783-25.681-32.002-28.06-53.656-.444-21.568 6.895-33.55 21.053-48.884 3.86-4.109 3.86-4.109 7.239-8.801 3.406-4.221 6.448-6.564 10.891-9.507 10.638-8.284 14.941-19.99 20.187-32.22 11.163-25.361 27.577-49.823 53.544-60.655 5.252-.804 10.461-.989 15.762-1.115 2.739-.089 5.48-.188 8.219-.291 1.8-.049 1.8-.049 3.637-.097 3.436-.156 3.436-.156 6.481-1.174 4.923-1.124 9.511-1.131 14.554-1.151Zm-17.561 9.181c-3.31.067-6.621.129-9.933.152-18.274.329-29.177 5.039-42.614 18.224-13.567 14.74-22.871 30.896-30.017 49.753-2.476 5.988-5.567 11.209-9.124 16.565-1.883 2.698-1.883 2.698-1.585 6.286h29.364v3.567c-2.044-.125-4.086-.246-6.192-.376-20.509-.991-20.509-.991-38.751 7.799-12.125 11.634-19.371 25.309-20.694 42.527-.191 1.866-.381 3.731-.579 5.654-.896 14.636 1.081 23.281 10.201 34.631 8.039 8.261 16.962 16.369 28.378 18.586-11.279 0-22.843-10.458-31.091-17.84 1.631 7.154 4.538 10.077 10.147 14.16 6.395 4.665 10.009 9.14 14.034 16.168 1.392 1.839 2.781 3.677 4.212 5.574 3.853 5.463 6.09 10.975 8.421 17.28 6.76 17.457 18.368 29.669 32.278 41.367 1.459 1.306 2.922 2.612 4.425 3.957 9.119 8.027 18.106 14.578 28.769 20.209 4.9 2.641 9.508 5.594 14.197 8.614 9.816 5.961 19.873 10.014 30.486 14.137 10.321 4.156 20.173 8.973 30.016 14.189 1.29.68 2.578 1.36 3.903 2.06 6.493 3.441 12.962 6.924 19.403 10.462 12.047 6.499 22.05 11.583 35.928 11.901 5.128.132 9.355 1.575 14.129 3.445 20.191 7.402 41.129 11.311 62.117 15.505 2.329.496 4.646 1.066 6.935 1.731 27.386 6.279 60.566 2.522 85.235-11.237 11.257-7.655 17.868-16.537 23.729-28.969.57-1.177 1.14-2.354 1.73-3.567.41-5.417.324-10.848.324-16.28.021-1.478.043-2.962.064-4.487 0-1.466 0-2.934.011-4.446 0-1.321.011-2.645.021-4.008-.323-5.028-.323-5.028-2.138-11.114-2.325-9.185-2.3-18.208-2.318-27.657-.016-2.81-.016-2.81-.035-5.678-.018-3.947-.025-7.895-.025-11.842-.008-5.989-.071-11.977-.137-17.967-.009-3.855-.018-7.708-.019-11.565-.025-1.764-.049-3.529-.074-5.351.078-12.85 2.981-23.019 7.777-34.806 1.165-3.083 2.308-6.168 3.462-9.256 1.531-4.036 3.063-7.907 5.177-11.662 5.402-9.885 6.19-18.017 5.942-29.255.01-2.323.01-2.323.032-4.69-.108-10.943-1.866-18.537-8.822-27.157-.981-.971-1.973-1.941-2.987-2.94-1.057-1.057-2.114-2.113-3.203-3.199-3.213-3.065-3.213-3.065-7.696-6.279-8.44-7.773-11.102-16.522-11.768-27.984-.674-10.524-3.26-16.078-10.956-23.269-21.668-18.365-45.762-30.407-74.247-29.562-4.058.323-4.058.323-8.932 2.211-4.335.217-8.618.334-12.955.362-1.283.012-2.566.023-3.887.035-4.174.032-8.348.045-12.522.05-2.139.004-2.139.004-4.32.011-30.351.035-30.351.035-45.124-3.133-36.34-7.405-74.536-7.561-107.349 11.304-5.578 3.009-11.394 5.265-17.254 7.616-13.62 5.621-24.919 13.959-33.227 26.569v3.569h-3.454c8.713-15.879 18.777-23.624 34.775-30.935 6.481-2.991 12.817-6.142 19.117-9.517 37.797-19.303 75.938-15.983 116.387-8.496 23.309 4.182 48.144 4.937 71.54.781-2.906-3.621-4.507-5.204-9.028-6.203-1.367-.088-2.734-.175-4.143-.265-7.413-.518-7.413-.518-9.283-2.452-7.813-.933-15.684-1.297-23.535-1.785-1.817-.114-1.817-.114-3.672-.231-41.108-2.584-82.32-3.442-123.499-3.559-2.003-.009-4.005-.016-6.071-.024-1.816.003-3.634.008-5.508.011-1.569.001-3.138.002-4.757.004-4.24.07-4.24.07-9.141 2.017Z"></path>
  <path fill="#070707" d="M249.152 184.486c8.202 7.75 8.202 7.75 9.437 12.48-1.488 6.618-4.62 9.422-9.749 13.513-3.42 1.987-3.42 1.987-9.035 2.319-7.19-2.351-13.803-5.359-20.564-8.801-11.583-5.275-21.816-6.366-34.275-6.251-1.491-.012-2.985-.027-4.523-.041-9.014.029-16.259 1.312-24.841 4.056-11.273-.94-11.273-.94-13.82-3.568.149-7.923.79-11.471 6.154-17.282 28.28-21.119 74.623-19.39 101.216 3.575Z"></path>
  <path fill="#090909" d="M361.361 179.572c1.5-.058 3-.116 4.543-.177 7.726-.066 12.689.254 18.765 5.468 1.357 1.454 2.714 2.911 4.114 4.41-1.512 6.913-1.512 6.913-3.454 8.92-4.291.376-8.548.672-12.846.893-8.521.137-8.521.137-16.519 2.675-2.91.231-5.826.409-8.744.556-9.517.803-17.632 3.164-25.801 8.364-2.984 6.17-2.557 12.879-1.728 19.624 4.393 6.453 10.947 9.953 17.274 14.272 2.456 2.031 4.903 4.078 7.34 6.13 7.949 6.476 16.363 10.833 25.477 15.275 6.074 3.397 8.223 4.709 12.091 10.704h-5.181v-3.568c-1.853-.766-1.853-.766-3.745-1.547-7.388-3.051-14.774-6.103-22.165-9.156v3.567c-1.789.092-3.577.185-5.424.278-7.894 1.783-11.44 5.294-16.597 11.32-6.569 7.416-10.179 11.374-20.404 11.927-5.939-.334-5.939-.334-9.391-3.901v-5.352c2.066.148 4.132.293 6.259.447 7.842-.043 11.907-2.198 17.922-7.583 3.598-3.871 6.52-7.561 8.635-12.487-.076-6.833-.076-6.833-1.726-12.488-1.816-.498-1.816-.498-3.672-1.004-6.986-3.609-11.565-7.924-15.329-15.05-.613-4.872-.613-4.872-.753-10.036-.108-7.1-.108-7.1-3.739-12.829-3.695-2.776-3.695-2.776-9.326-5.679.57-1.765 1.139-3.531 1.729-5.352 1.603.295 3.207.589 4.856.893 8.939.112 14.596-6.065 21.154-11.694 11.107-7.587 23.462-7.727 36.385-7.82Z"></path>
  <path fill="#FBFBFB" d="M214.327 335.556c10.506.775 19.512 3.435 29.364 7.135 1.699.599 3.4 1.197 5.149 1.812 1.721.617 3.443 1.232 5.215 1.867 1.605.573 3.208 1.145 4.86 1.735 3.777 1.723 3.777 1.723 5.504 5.29.215 4.41.321 8.747.324 13.157.021 1.2.042 2.401.064 3.638.019 6.607-.317 11.49-3.842 17.1-14.916-.227-28.686-1.436-42.967-6.133-1.179-.388-2.359-.777-3.574-1.176-5.023-1.753-8.392-3.043-12.186-6.962.531-9.314 3.199-16.548 6.909-24.976.642-1.986 1.283-3.973 1.943-6.021 1.51-4.682 1.51-4.682 3.237-6.466Z"></path>
  <path fill="#FAFAFA" d="M153.874 312.366c8.924.801 16.168 4.095 24.182 7.914 2.372 1.116 4.747 2.229 7.125 3.338 1.13.53 2.262 1.059 3.428 1.601 3.637 1.644 3.637 1.644 9.093 3.264 4.536 1.722 4.536 1.722 7.988 7.073 0 12.345-6.139 21.717-12.089 32.111-6.847.492-10.379-.463-16.038-4.433-1.344-.933-2.688-1.866-4.072-2.829-1.378-.989-2.758-1.976-4.18-2.996-1.387-.962-2.772-1.924-4.201-2.914-13.634-9.581-13.634-9.581-18.146-15.372.217-4.905.217-4.905 1.728-10.702.281-1.254.561-2.506.85-3.799 2.284-10.144 2.284-10.144 4.332-12.256Z"></path>
  <path fill="#FBFBFB" d="M150.418 273.118c8.415-.296 15.296.516 23.354 2.997 3.075.941 3.075.941 6.21 1.902 3.161.998 3.161.998 6.387 2.014 2.14.651 4.282 1.301 6.487 1.972 15.831 4.911 15.831 4.911 19.744 8.954.603 7.588.642 12.507-1.942 19.625-3.238 3.566-3.238 3.566-7.983 4.054-6.121-.532-10.299-2.107-15.876-4.722-5.814-2.672-10.831-4.771-17.056-6.246-8.807-3.212-14.959-9.921-19.707-18.161-1.799-4.647-.889-7.658.382-12.389Z"></path>
  <path fill="#FAFAFA" d="M224.692 294.526c10.421 1.001 20.626 2.976 30.874 5.128 1.476.288 2.95.575 4.467.872 1.409.295 2.816.592 4.265.898 1.27.258 2.537.519 3.844.786 3.186 1.235 3.186 1.235 6.641 6.587.459 3.456.459 3.456.433 7.136.013 1.822.013 1.822.026 3.677-.459 3.459-.459 3.459-3.914 8.811-4.355.608-8.162.844-12.522.78-1.221-.008-2.443-.015-3.7-.022-10.974-.302-29.336-1.427-37.324-9.678-.619-9.619-.644-15.247 5.182-23.192.571-.588 1.141-1.177 1.728-1.783Z"></path>
  <path fill="#111" d="M113.175 209.344c3.226 1.587 6.429 3.221 9.608 4.904 13.24 6.687 24.931 9.342 39.726 7.136 7.492-2.687 14.492-5.895 20.013-11.895 2.444-2.375 2.444-2.375 7.624-2.375-.54 5.577-.939 8.19-5.053 12.004-1.361.859-2.72 1.717-4.121 2.6-1.349.873-2.697 1.742-4.082 2.643-1.326.782-2.649 1.567-4.016 2.375-1.051.673-2.101 1.346-3.184 2.042-17.521 7.179-37.871.373-54.429-6.313-6.297-2.863-6.297-2.863-10.655-5.847-5.847-3.237-10.525-3.143-17.124-3.15-2.207-.035-4.412-.067-6.685-.103-8.736 1.212-14.102 4.59-19.582 11.712-.998 1.815-.998 1.815-2.018 3.666-.686 1.218-1.374 2.437-2.085 3.692-4.068 7.736-4.053 14.106-3.421 22.844 1.061 3.01 2.197 5.992 3.455 8.919.216 5.017.216 5.017 0 8.92-3.264-.452-3.264-.452-6.91-1.784-5.731-9.695-7.136-22.887-5.181-33.893 5.181-13.663 11.831-22.561 23.63-30.496 13.197-5.323 31.747-3.166 44.49 2.399Z"></path>
  <path fill="#FDFDFD" d="M278.359 353.179c6.899.219 13.55.93 20.389 1.888 1.169.155 2.334.311 3.536.472 8.552 1.196 8.552 1.196 10.499 3.207 1.241 11.271-.588 20.111-5.182 30.327-5.43 2.806-11.209 2.112-17.164 2.119-1.259.022-2.519.043-3.816.065-6.606.02-9.668-.094-15.293-3.967-.613-3.325-.613-3.325-.566-7.31.007-1.429.018-2.859.027-4.333.036-1.492.072-2.986.108-4.526.01-1.499.018-3 .026-4.545.166-13.1.166-13.1 7.436-13.397Z"></path>
  <path fill="#F9F9F9" d="M95.147 244.577c10.182.276 18.471 5.696 27.203 10.59 1.492.813 2.98 1.628 4.516 2.463 10.963 6.051 10.963 6.051 14.916 10.136.339 5.423.339 5.423.217 11.819-.032 2.12-.063 4.241-.093 6.424-.039 1.635-.083 3.267-.124 4.948-10.042 1.053-16.544-2.398-25.151-7.135-1.283-.645-2.564-1.293-3.884-1.958-9.481-5.146-14.876-11.134-19.327-21.233-1.62-6.913-1.62-6.913-1.73-12.488 1.141-1.177 2.282-2.354 3.457-3.566Z"></path>
  <path fill="#161616" d="M107.238 367.667c6.734 3.361 13.236 7.149 19.755 10.926 1.235.711 2.471 1.422 3.743 2.152 7.474 4.335 14.611 8.973 21.734 13.903 30.055 19.093 67.521 24.404 101.585 31.888 3.413.767 6.825 1.536 10.236 2.307 2.887.645 5.771 1.288 8.657 1.93 1.242.278 2.486.556 3.766.841 19.406 4.206 38.443 4.35 58.188 4.466 3.654.029 7.309.078 10.961.148 25.717.475 54.125.866 75.016-17.379 4.289-5.284 5.868-10.679 7.63-17.287h1.729c.503 6.628.708 11.126-2.376 17.058-22.485 21.564-49.971 23.31-79.048 22.922-5.045-.065-10.088-.074-15.131-.073-17.071-.065-33.459-.845-50.265-4.229-2.932-.498-5.866-.986-8.803-1.471-95.859-16.904-95.859-16.904-131.347-41.498-4.898-3.387-9.875-6.263-15.088-9.1-7.467-4.145-14.316-8.463-20.942-13.937v-3.567Z"></path>
  <path fill="#1E1E1E" d="M133.146 367.667c8.164 4.167 16.237 8.446 24.24 12.926 56.574 31.524 114.97 41.067 178.608 41.485 2.362.027 2.362.027 4.771.055 23.343.719 23.343.719 44.564-8.085 1.667-1.109 3.335-2.22 5.054-3.366 1.36-1.059 2.72-2.118 4.123-3.212 5.008-3.889 8.78-6.589 15.005-7.692-12.992 14.76-29.389 26.476-49.173 27.451-2.692.034-5.384.039-8.076.017-1.47.007-2.937.011-4.449.017-3.096.004-6.193-.007-9.29-.029-4.613-.029-9.221 0-13.835.034-19.842.024-38.789-2.024-58.328-5.485-5.419-.885-10.839-1.407-16.299-1.937-39.56-5.515-85.226-23.106-116.915-48.612v-3.567Z"></path>
  <path fill="#171717" d="M227.066 115.797h5.18c13.765.111 27.242.96 40.57 4.838 4.028.926 7.643 1.088 11.768 1.108 2.387.017 2.387.017 4.821.035 2.563.003 2.563.003 5.175.005 2.651.011 2.651.011 5.354.019 3.74.009 7.478.013 11.212.013 5.706.003 11.411.037 17.114.068 3.637.008 7.271.011 10.904.012 1.701.011 3.401.026 5.154.039 8.672-.031 15.579-.641 23.736-4.017 7.109-.92 9.846-.299 16.194 3.344 1.498 1.25 2.994 2.503 4.535 3.791v3.568c-8.421-3.344-8.421-3.344-10.364-5.352-2.849.115-5.694.357-8.528.67-2.321.241-2.321.241-4.688.486-4.08.41-4.08.41-7.512 2.412-2.729.174-5.468.233-8.205.237-1.705.004-3.412.007-5.17.012-1.855-.009-3.712-.016-5.624-.026-2.874-.01-2.874-.01-5.81-.024-58.655-.393-58.655-.393-85.061-6.186-16.349-3.208-31.204-.793-47.195 3.303-3.969 1.001-7.951 1.933-11.935 2.865-36.591 8.724-36.591 8.724-65.908 31.929-.57 1.768-1.141 3.534-1.729 5.352H117.6c3.402-12.896 9.924-18.103 20.727-24.974 19.64-10.189 41.047-15.615 62.373-20.585 9.207-2.32 16.822-2.948 26.366-2.942Z"></path>
  <path fill="#F8F8F8" d="M362.874 305.23c3.678 6.761 3.743 11.875 3.455 19.623-8.762 2.945-16.274 4.095-25.585 4.124-2.256.03-4.512.061-6.835.091-2.762-.321-2.762-.321-5.582-.647-4.235-6.565-4.136-10.087-3.452-17.839 11.032-7.599 25.202-5.549 37.999-5.352Z"></path>
  <path fill="#FAFAFA" d="M336.1 358.411c1.693-.024 3.387-.051 5.129-.077 4.373.412 4.373.412 7.827 3.982-.386 10.206-3.156 16.727-8.637 24.974-5.753 4.713-11.877 4.113-19 3.568-4.116-4.253-3.963-5.342-3.995-11.15.155-7.552 1.681-12.753 5.723-19.178 4.494-2.32 7.94-2.084 12.953-2.119Z"></path>
  <path fill="#F9F9F9" d="M283.418 305.23c4.734-.296 8.916-.253 13.603.109 1.245.051 2.491.102 3.773.151 5.961.404 9.707 1.1 14.56 4.783 3.726 5.53 3.21 9.8 2.611 16.364-3.884 4.009-12.814 2.197-18.029 2.23-1.527.035-3.055.073-4.632.11-2.192.015-2.192.015-4.427.028-1.347.016-2.693.035-4.079.05-1.114-.209-2.231-.42-3.38-.634-4.244-6.578-3.99-10.069-3.454-17.839 1.14-1.767 2.28-3.533 3.454-5.352Z"></path>
  <path fill="#F7F7F7" d="M202.238 175.002c14.957-1.167 28.516 2.756 40.051 12.933 1.604 1.619 3.206 3.238 4.857 4.907-1.511 8.697-1.511 8.697-3.455 10.703-9.469-.515-15.856-2.498-24.125-7.156-5.585-2.807-11.273-3.993-17.328-5.331v-16.056Z"></path>
  <path fill="#1F1F1F" d="M217.998 99.073c1.185.011 2.371.021 3.592.035 23.867.219 47.036 3.375 70.466 8.105-7.102 4.889-12.045 2.655-19.971 1.115-38.419-6.32-77.793-8.952-112.64 11.082-5.574 3.009-11.39 5.259-17.246 7.608-13.799 5.714-26.435 14.314-33.235 28.362h-3.454c3.787-12.908 11.401-20.386 22.492-26.829 12.777-7.052 25.939-12.869 39.526-18.048 2.748-1.144 5.44-2.424 8.104-3.768 14.251-6.931 26.778-8.004 42.366-7.662Z"></path>
  <path fill="#131313" d="M426.783 217.818c4.781 1.903 7.941 3.946 12.092 7.135-.571 1.765-1.141 3.532-1.728 5.352-8.205-1.562-8.205-1.562-12.092-3.569-2.799-.217-5.609-.314-8.421-.334-1.49-.025-2.982-.051-4.519-.078-4.637.442-7.343 1.384-11.241 3.981-1.796 2.927-3.532 5.9-5.183 8.918-5.526 2.855-11.259 2.429-17.272 1.785-5.936-2.229-5.936-2.229-10.365-5.351-1.138-3.765-1.138-3.765-1.725-7.137 1.151.273 2.301.549 3.488.831 7.68 1.341 13.207 2.256 20.214-1.708 1.512-1.147 3.025-2.291 4.582-3.472 10.494-7.764 19.56-8.598 32.17-6.353Z"></path>
  <path fill="#F8F8F8" d="M114.145 292.742c11.925 2.078 21.317 4.691 29.15 14.94 2.329 5.614 2.708 9.335 1.941 15.387-2.59 3.345-2.59 3.345-5.181 5.352-7.612-2.442-11.052-5.78-15.868-12.265-1.747-2.312-1.747-2.312-3.529-4.668-4.736-6.935-6.513-10.092-6.513-18.746Zm276.365 1.784c4.31 6.676 4.106 9.922 3.454 17.84-1.942 6.019-1.942 6.019-5.181 10.703-5.505 1.561-5.505 1.561-10.364 1.784-5.383-7.737-6.147-13.921-6.908-23.192 11.296-8.682 11.296-8.682 18.999-7.135Z"></path>
  <path fill="#F3F3F3" d="M376.692 358.746c-.897 9.275-3.714 17.193-8.638 24.975-5.563 3.833-7.386 4.094-13.816 3.569-.571-.588-1.141-1.176-1.729-1.784.73-9.4 2.679-16.721 6.91-24.976 5.664-4.84 10.408-3.395 17.273-1.784Z"></path>
  <path fill="#171717" d="M89.963 192.842v3.567c-1.957-.212-3.916-.424-5.936-.642-17.823-2.325-17.823-2.325-34.301 3.319-10.756 9.782-20.793 20.536-22.751 35.704-.135 16.556 1.346 28.991 12.286 41.604 6.446 6.161 13.139 9.666 21.339 12.779v1.784c-9.338-.771-15.118-2.822-22.453-8.918v-3.569h-3.455c-9.693-12.264-12.994-23.584-12.617-39.428 1.721-16.927 9.032-29.646 21.253-40.849 13.373-10.85 30.828-8.367 46.635-5.351Z"></path>
  <path fill="#1B1B1B" d="M399.146 192.842c5.759-.158 11.516-.252 17.272-.336 1.617-.044 3.231-.089 4.893-.136 12.627-.137 21.762 1.916 32.676 8.834 10.574 11.223 13.076 24.622 12.882 39.797-.798 11.923-5.953 19.534-14.089 27.519-5.812 4.618-12.234 7.365-19.087 9.95v-5.352c1.145-.52 2.292-1.039 3.474-1.574 9.854-4.724 16.414-8.622 22.433-18.049 3.785-11.872 3.398-25.962-1.186-37.463-4.864-9.781-11.38-14.239-21.267-17.839-4.492-.797-4.492-.797-9.155-1.129-1.688-.149-3.373-.299-5.112-.454-1.739-.14-3.479-.279-5.273-.424-1.774-.154-3.546-.307-5.372-.466-4.362-.377-8.724-.742-13.089-1.093v-1.785Z"></path>
  <path fill="#181818" d="M384.357 146.57c7.435 7.113 8.817 14.706 9.607 24.863-5.914-5.322-6.177-9.854-6.909-17.838h-3.453v-3.567c-2.285-1.227-4.594-2.404-6.91-3.569-1.602-.957-3.206-1.914-4.857-2.898-19.933-8.605-46.052-.571-65.962 4.683v-3.567c25.264-10.145 55.293-16.272 78.484 1.893Z"></path>
  <path fill="#101010" d="M211.132 132.014c1.701.003 1.701.003 3.44.006 3.59.012 7.177.033 10.768.056 2.449.008 4.897.018 7.347.025 5.972.019 11.943.051 17.914.088v3.567c-1.015-.02-2.031-.038-3.076-.058-36.249-.576-68.017.055-97.107 25.033-2.745 1.965-5.516 3.9-8.31 5.797-1.365.93-2.731 1.857-4.137 2.817-1.021.689-2.043 1.377-3.097 2.088 4.529-10.443 13.106-15.888 22.454-21.405 1.487-1.019 1.487-1.019 3.004-2.057 16.083-10.952 31.479-16.043 50.8-15.957Z"></path>
  <path fill="#F1F1F1" d="M390.51 355.179c3.563.779 3.563.779 6.91 1.785.186 3.154.32 6.316.431 9.476.081 1.758.161 3.519.243 5.331-.674 4.815-.674 4.815-3.864 8.097-4.471 2.487-7.347 2.628-12.357 2.071-.569-.589-1.139-1.178-1.727-1.784.584-10.208 3.262-17.64 10.364-24.976Z"></path>
  <path fill="#F0F0F0" d="M400.874 285.606c3.376.37 3.376.37 6.909 1.785 4.573 7.386 6.177 16.347 5.182 24.975-1.14 1.176-2.28 2.354-3.454 3.567-4.426-.447-4.426-.447-8.637-1.785-2.475-5.113-1.954-9.583-1.943-15.276-.004-2.1-.008-4.2-.011-6.361.226-5.12.226-5.12 1.954-6.905Z"></path>
  <path fill="#0D0D0D" d="M248.874 244.577v5.35c-5.131 1.177-10.261 2.356-15.545 3.568-.51 9.494-.51 9.494 3.453 17.839v5.352c-4.102-.558-4.102-.558-8.635-1.783-4.882-7.565-4.777-14.317-3.455-23.193 6.348-8.878 14.388-7.928 24.182-7.133Z"></path>
  <path fill="#1D1D1D" d="M430.238 207.114c7.346.446 11.185 1.015 16.95 5.907 6.216 7.89 8.1 13.649 7.906 23.736-1.5 9.46-7.599 17.652-14.494 23.874h-3.453c0-3.568 0-3.568 4.102-7.804 1.498-1.548 2.992-3.093 4.534-4.684 4.417-7.558 4.599-14.576 3.454-23.19-2.37-6.275-2.37-6.275-6.909-10.705-6.242-2.566-6.242-2.566-12.09-3.567v-3.567Z"></path>
  <path fill="#292929" d="M216.056 241.008c2.28 1.177 4.559 2.355 6.908 3.569.325 4.236.325 4.236 0 8.918-9.209 6.343-19.309 5.594-30.011 5.462-1.272-.005-2.542-.015-3.851-.023-3.106-.02-6.213-.054-9.319-.087v5.351h-3.455c1.511-6.912 1.511-6.912 3.455-8.919 4.434-.38 8.838-.672 13.279-.89 8.37-.426 16.464-1.067 24.72-2.679.569-2.354 1.142-4.708 1.728-7.133h-3.454v-3.569Z"></path>
  <path fill="#0D0D0D" d="M250.601 262.415c2.987-.099 5.975-.166 8.96-.223 1.665-.04 3.327-.083 5.042-.127 5.22.364 8.915 1.654 13.634 3.917-.57 1.766-1.14 3.533-1.726 5.352-1.272-.149-2.543-.299-3.853-.452-1.686-.182-3.372-.364-5.108-.551-1.663-.187-3.327-.374-5.039-.564-4.901-.213-8.895.359-13.637 1.567.569-2.943 1.139-5.886 1.727-8.919Z"></path>
  <path fill="#1B1B1B" d="M133.146 367.667c9.655 4.939 19.208 10.038 28.716 15.274 8.229 4.529 16.469 9.004 24.829 13.269-6.058 2.084-6.795 1.536-12.318-1.178-1.388-.676-2.775-1.352-4.203-2.05-1.458-.736-2.917-1.475-4.421-2.237-1.477-.737-2.955-1.474-4.479-2.232-21.231-10.758-21.231-10.758-28.124-17.279v-3.567Z"></path>
  <path fill="#151515" d="M399.146 192.842c5.759-.158 11.516-.252 17.272-.336 1.617-.044 3.231-.089 4.893-.136 11.151-.121 21.648.522 30.68 8.147 2.063 2.099 3.985 4.335 5.883 6.597-5.182 0-5.182 0-9.607-3.346-13.639-9.723-33.186-8.309-49.121-9.141v-1.785Z"></path>
  <path fill="#171717" d="M133.146 187.49v1.783c-2.937.829-2.937.829-5.937 1.672-5.786 1.234-5.786 1.234-7.881 3.682 4.559 1.765 9.12 3.53 13.818 5.351v3.567h-6.91c-.57 1.177-1.14 2.356-1.726 3.569v-7.136c-7.695-1.767-7.695-1.767-15.546-3.569v-5.351c8.513-3.516 15.167-3.889 24.182-3.568Z"></path>
  <path fill="#141414" d="M248.874 426.536c4.024.243 4.024.243 9.067 1.227 1.837.352 3.672.704 5.56 1.066 10.116 2.113 20.208 4.317 30.282 6.626v3.568c-16.176-2.69-32.269-5.756-48.363-8.919 1.139-1.177 2.28-2.354 3.454-3.568Z"></path>
  <path fill="#EDEDED" d="M364.063 187.378c1.213.008 2.425.015 3.674.025 2.984.021 5.969.053 8.955.087v3.568c-6.485 2.148-12.663 1.96-19.431 1.895-2.182-.017-4.364-.033-6.614-.049-1.664-.022-3.328-.041-5.045-.062v-3.569c6.251-2.152 11.959-1.977 18.461-1.895Z"></path>
  <path fill="#292929" d="M319.691 151.811h3.456c-.534 1.03-1.067 2.061-1.62 3.122-3.171 6.934-3.765 12.874-3.669 20.515.022 2.387.022 2.387.047 4.822.019 1.203.039 2.41.06 3.652h-3.455c-3.102-6.407-2.526-13.196-.626-19.986 3.465-9.703 3.465-9.703 5.807-12.125Z"></path>
  <path fill="#181818" d="M238.51 135.756c1.986 1.702 3.963 3.413 5.939 5.128 1.102.952 2.204 1.904 3.341 2.884 2.811 2.691 2.811 2.691 4.538 6.26.123 3.342.148 6.689.11 10.033-.018 1.791-.033 3.58-.047 5.422-.021 1.375-.042 2.751-.063 4.168h-3.454c.106-2.171.215-4.343.324-6.58.037-7-1.554-10.832-5.507-16.612v-3.566h-3.453c-.57-2.356-1.142-4.71-1.728-7.137Z"></path>
  <path fill="#F5F5F5" d="M165.964 182.138v8.92h-12.09c3.064-7.006 4.283-8.92 12.09-8.92Z"></path>
  <path fill="#202020" d="M148.692 155.38c1.709.589 3.42 1.177 5.182 1.784-6.115 5.2-12.371 9.813-19 14.269 2.75-7.669 7.524-11.411 13.818-16.053Z"></path>
  <path fill="#D9D9D9" d="M411.237 351.611h3.456c-3.24 10.258-3.24 10.258-5.182 14.271h-3.456c1.295-10.256 1.295-10.256 5.182-14.271Z"></path>
  <path fill="#1B1B1B" d="M34.692 208.897c.57 1.177 1.14 2.356 1.726 3.569-1.343 3.078-1.343 3.078-3.345 6.466-1.175 1.985-2.349 3.972-3.564 6.021-1.14-1.177-2.28-2.356-3.454-3.569 6.693-10.48 6.693-10.48 8.637-12.487Z"></path>
  <path fill="#1E1E1E" d="M121.054 196.409c3.99 1.177 7.982 2.355 12.092 3.569v3.567h-6.91c-.57 1.177-1.14 2.356-1.726 3.569v-7.136h-3.456v-3.569Z"></path>
</svg>