<svg xmlns="http://www.w3.org/2000/svg" viewBox="0 0 500 500"><path fill="#FCFCFC" d="M479 107c4 5 5 11 5 17 0 5 0 5 2 6v29c-1 24-1 24-7 35-3 4-4 6-5 11 0 6-3 9-7 13l-6 15-6 7-8 20-5 7h-2v3l-4 3c-4 5-5 9-6 16l-1 3-1 18c-1 6-2 8-6 12l-3 2-7 9c-3 5-7 7-12 11l-5 8-3 6-2 3c-3 5-8 4-13 5-6 2-10 4-15 8-8 5-12 7-22 10 0-6-18-4-21 3 0 9 1 17 7 25 3 4 5 4 10 4h4l10 2c8 3 16 3 24 3a5723 5723 0 0 1 45 1c12 0 23 0 35 6 12 4 25 6 38 8v66H0c0-191 0-187 7-198l7-10c7-10 12-19 13-30l2-10c2-5 2-3 2-8v-9l2-5c0-18-4-36 4-53l1-3 15-24c2-5 7-8 8-13 2-5-1-6 3-9 12-1 21 0 31 6 6 3 11 4 17 5a682 682 0 0 0 24 18c14 12 14 12 19 20 8 11 17 20 31 24l18 5a127 127 0 0 0 83-3l37-13 3-1c10-4 18-8 26-15 9-9 15-13 25-20l15-16c6-6 11-9 17-13l5-5c1-1 2-3 7-4l3-3c17-12 36-21 54-8Z"></path><path fill="#0A0A0A" d="M487 101c3 5 4 11 5 17 0 5 0 5 2 7v28c-1 25-1 25-8 36l-4 12c-1 6-3 8-7 13l-7 14c-1 4-3 5-6 8l-8 20-5 7-2 3-4 3c-5 5-5 10-6 16l-1 3-1 19c-1 6-2 8-6 12l-3 3-7 8c-4 5-8 8-13 11l-4 9a217 217 0 0 1-6 9c-3 5-7 6-12 7-6 2-10 5-16 9-8 5-16 9-26 11l-4 3c-4-1-7-3-7-4h-7c0 10 2 17 7 26 4 3 6 4 10 4h4l10 2c9 3 16 3 25 3h5a2555 2555 0 0 0 40 1c13 0 24 0 36 6 12 4 26 6 39 8v7c-8 1-15 1-23-2l-5-1c-7-1-14-4-20-7-11-3-23-3-34-3a6378 6378 0 0 1-40-1h-4c-24 0-24 0-29-4l-8-1-4-1-4-3-2-1c-4-2-5-4-7-8l-2-3c-2-8-2-15-2-22h-3l-16 1h-5c-12 1-22-1-33-6l-5-1c-20-6-41-18-55-35l-10-10-3-3-3-3-3-2-10-10-8-5c-5-2-9-6-14-10l-9-7-4-5-16-17-3-2-10-10-3-3a7122 7122 0 0 1-10-15l-2-5-6-5c-6-9-6-16-7-26l-1-12h-3c-8-8-6-21-7-32l-2-17c-4 2-4 3-6 7l-1 3a7266 7266 0 0 0-9 16l-2 6-3 5c-2 5-3 9-3 15l-2 1-3 33c-1 26-6 52-22 73-11 13-12 28-13 45H0v-20l-1-5c0-11 1-19 8-27l7-6c7-10 9-23 10-35l2-7c2-5 2-9 2-14v-9a118 118 0 0 1 11-55c4-9 9-17 15-25l5-14c2-4 2-4 6-7 12-2 21-1 32 5 5 3 10 5 16 5 8 2 13 7 19 13l5 5c15 13 15 13 20 21 8 11 18 21 32 24l18 6a129 129 0 0 0 85-3l37-14 3-1c10-4 17-12 24-19a462 462 0 0 1 41-35 153 153 0 0 1 27-21l3-2 5-4c17-12 36-18 55-4Zm-40 5a1964 1964 0 0 0-18 12l-3 2-7 5-12 10-4 2-12 11-8 8-9 9-10 7c-6 5-10 9-14 15l3 1c9 5 17 10 23 19 1 5 2 9 1 14-2 4-2 4-6 6h-7c1-4 1-5 4-8v-9c-5-7-11-11-18-15l-3-1c-8-3-17 1-25 4l-6 2-3 2-13 4-7 3c-6 3-12 4-19 6l-8 2c-18 2-36 1-54-4-5-1-9-2-14 0l4 3 1 3c0 3 0 3 3 4l3 1 3 2 3 1 18 10v3l-5 2v5c-1 5-1 5-3 6-8 2-16 2-25 2h-17l-9 1h-22l-2-3c-2-5-4-8-10-10l-4-1c-2-12-2-12 0-18l3-3v-2l-5-2 2-4c10-2 21-2 31-2h15c-16-14-16-14-36-21l1-6 5-3c-8-10-15-18-25-26l-3-3c-10-7-21-12-33-15l-8-3c-5-3-5-3-11-2 0 4 0 8 2 12 2 8 1 15 1 22 0 9 0 17 6 24l3 3c2 5 2 10 2 15 0 8 1 13 7 19 5 7 10 14 13 22 3 5 6 8 11 11l20 21 6 6 4 4 11 7a8312 8312 0 0 0 9 7l15 13 8 7c10 7 19 17 27 25l16 12 3 2c7 4 14 6 23 8l9 3c7 3 13 3 20 3a11097 11097 0 0 1 36 0c8 1 8 1 11 4l3-2c4-3 8-4 13-5v-3h4c7-1 12-5 17-9 4-3 6-4 10-4 6-2 8-5 12-11l4-8c2-4 2-4 7-7l2-4c4-3 7-4 10-8 2-4 2-4 6-7 5-7 5-14 6-22v-5l2-12-18-4-5-2c-17-4-33-3-50-1l-4 1-13 3h-22l-8-1c-11-1-18 3-26 10l-5 3-5 4-2-4-3-2-1-9v-8l4-2c5-2 8-5 12-9 9-8 16-10 28-10h15c9 1 16-1 25-4 5-2 11-2 17-2l7-2c16-1 33 1 46 10 4 4 6 8 7 13l2 7 3 2c7-7 11-14 14-23 3-7 7-13 12-18l2-6c2-6 4-10 8-15l4-6c0-5 2-9 4-13 4-12 4-25 5-37 0-8 0-8 2-9l-2-13-1-6v-5l-1-5c0-5 0-5-4-8-11-4-21-5-31 2Z"></path><path fill="#0A0A0A" d="m467 143 1 6c-1 2-1 2-6 2h-5v3l4 1c2 5 1 11 1 16v4c-1 6-1 12-4 18-10 0-20-2-29-6-5-2-9-2-14-2-9-1-15-2-23-5v-3l1-10c0-5 1-8 5-12 6-4 13-4 20-5 5 0 10-2 15-4 11-4 22-3 34-3Z"></path><path fill="#171717" d="m181 304 7 1 2 3c3 6 7 8 12 12l3 2a196 196 0 0 0 32 16c22 12 40 18 65 20h6l16 1 1 7c-2 2-4 2-7 2h-19l-6-2-8-1c-19-1-36-11-54-19l-8-4c-16-8-32-16-42-31v-7Z"></path><path fill="#B7DBFA" d="m311 272 1 29-7 1-2-20-7 4h-3l1 5 1 7v3l1 16-6 1c-2-6-3-11-3-17l-1-5v-4l-9 2-1-8 2-1 3-2a2839 2839 0 0 0 12-8c5-4 11-4 18-3Z"></path><path fill="#111" d="m91 373-1 6-6 2-16 7-7 5-7 16-2 3c-2 4-5 7-9 10l-2 4c-6 4-12 2-19 2l1-7h5c7-1 9-3 13-8 3-5 6-9 8-15 4-9 10-16 18-21 16-7 16-7 24-4Z"></path><path fill="#0D0D0D" d="M460 109v7l-3 1c-13 6-22 13-32 23l-4 2v3c-15 6-15 6-24 6l2-8 9-4c9-5 17-11 24-19l12-8 2-2c5-2 9-1 14-1Z"></path><path fill="#181818" d="M170 459c5 2 8 3 12 7l4 1 8 6 1 7h25c0-1 5-6 5-8 2-5 4-6 9-9l14-1h4l10 1v3h-5c-13 0-13 0-26 5l-7 15h-32l-4-9c-1-5-1-5-6-7l-6-2-5-2-25-3 1-5c7-3 16-1 23 1Z"></path><path fill="#EFEFEF" d="M147 219h24v2l-3 2c-4 5-3 10-4 16 0 6 0 6 4 10h-12l-1-3c-2-4-4-4-8-6l-7-6 7-15Z"></path><path fill="#EEE" d="M418 158h7l1 19h-15c-5 0-5 0-9-2l-2-10c5-7 10-7 18-7Z"></path><path fill="#151515" d="M84 252h4c5 10 5 19 5 30v10c0 11 0 20-6 29h-3l-2 4h-2c0-4 1-8 4-13 1 0 3-13 3-20a1661 1661 0 0 1 0-18v-3c0-5 0-7-3-12v-7Z"></path><path fill="#101010" d="m325 208 2 8-6 2-3 1-6 1 3 2c3 4 3 4 3 8v3c-9-1-9-1-13-5-2-5-2-8-2-14 7-5 14-6 22-6Z"></path><path fill="#191919" d="m250 393 6 3 3 8c2 7 2 7 7 12l5 3 5 2v4c-8 0-12-3-18-8-4-6-8-19-9-19l1-5Z"></path><path fill="#1A1A1A" d="m269 236 6 1c0 9-2 13-6 21h-6c1-8 3-15 6-22Z"></path><path fill="#E5E5E5" d="M211 234c5 2 8 2 13 5l-3 8-13 2 3-15Z"></path><path fill="#0C0C0C" d="m384 194 8 1c2 5 3 7 2 12l-1 3-7-2v-7h-3l1-7ZM157 457h3l9 1v3l-23 2 1-5 10-1Z"></path><path fill="#DCDCDC" d="M452 171h2v11l-2 2-7-1h-4l-6-3 14-2 3-7Z"></path><path fill="#DADADA" d="m449 103 3 1c-2 4-4 6-8 9h-3c2-5 4-7 8-10Z"></path><path fill="#292929" d="M84 252h4l2 6h-3l-2 4-1-10Z"></path></svg>